<svg width="60" height="60" viewBox="0 0 60 60" fill="none" xmlns="http://www.w3.org/2000/svg">
<g clip-path="url(#clip0_1429_7908)">
<path fill-rule="evenodd" clip-rule="evenodd" d="M59.2248 55.2302H0.775391L3.11503 41.2988L13.0351 45.8601L25.1975 39.2423L27.4332 44.6081L53.1889 31.5514V37.4537L59.2248 40.3155V55.2302Z" fill="#995F30"/>
<path fill-rule="evenodd" clip-rule="evenodd" d="M59.2247 55.2302H2.34375L4.23286 43.9817L14.1529 48.543L26.3153 41.9252L27.4332 44.6081L28.551 47.291L53.1888 34.8011V37.4538L59.2247 40.3155V55.2302Z" fill="#A86D38"/>
<path d="M49.2234 55.2302H0.775391L3.11507 41.2988L13.0351 45.8601L25.1975 39.2423L27.4333 44.6081L31.3411 42.6271M37.2203 39.6467L53.1889 31.5515V37.4538L59.2248 40.3155V55.2302H55.2802" stroke="#26253C" stroke-width="1.5" stroke-miterlimit="22.9256" stroke-linecap="round" stroke-linejoin="round"/>
<path d="M17.417 50.0633L22.425 45.413L24.4819 48.9901M36.6443 45.8601L47.9124 39.6895M50.0587 44.3398H53.8147V48.0958" stroke="#26253C" stroke-width="1.5" stroke-miterlimit="22.9256" stroke-linecap="round" stroke-linejoin="round"/>
<path fill-rule="evenodd" clip-rule="evenodd" d="M40.3569 16.7566C45.2642 15.3506 50.3821 18.1891 51.7881 23.0964C53.194 28.0037 50.3556 33.1216 45.4482 34.5276C40.541 35.9336 35.4231 33.0951 34.0171 28.1878C32.6111 23.2805 35.4496 18.1626 40.3569 16.7566ZM41.582 21.0326C44.1278 20.3032 46.7828 21.7757 47.5122 24.3215C48.2415 26.8673 46.769 29.5223 44.2233 30.2517C41.6775 30.981 39.0225 29.5086 38.2931 26.9628C37.5637 24.417 39.0362 21.762 41.582 21.0326Z" fill="#6A5C6B"/>
<path fill-rule="evenodd" clip-rule="evenodd" d="M47.9568 17.9034C49.7524 19.0751 51.1511 20.8734 51.7879 23.0964C53.1939 28.0037 50.3555 33.1216 45.4481 34.5276C43.8123 34.9963 42.1533 34.9927 40.6158 34.5987C38.8202 33.427 37.4216 31.6285 36.7847 29.4056C35.3787 24.4983 38.2172 19.3804 43.1245 17.9744C44.7603 17.5057 46.4194 17.5093 47.9568 17.9034ZM41.5819 21.0326C44.1276 20.3032 46.7826 21.7757 47.512 24.3215C48.2414 26.8673 46.7689 29.5222 44.2232 30.2516C41.6774 30.981 39.0223 29.5085 38.293 26.9628C37.5636 24.417 39.0361 21.7619 41.5819 21.0326Z" fill="#7E707D"/>
<path d="M52.0572 26.9336C51.5613 30.4349 49.0674 33.4908 45.4483 34.5276C40.541 35.9336 35.4231 33.0951 34.0171 28.1878C32.6111 23.2805 35.4496 18.1626 40.3569 16.7566C45.2642 15.3506 50.3821 18.1891 51.7881 23.0964" stroke="#26253C" stroke-width="1.5" stroke-miterlimit="22.9256" stroke-linecap="round" stroke-linejoin="round"/>
<path d="M38.7258 23.287C39.3229 22.2279 40.3207 21.3939 41.5819 21.0326C44.1277 20.3032 46.7827 21.7757 47.512 24.3215C48.2414 26.8672 46.7689 29.5222 44.2232 30.2516C41.6774 30.981 39.0223 29.5085 38.293 26.9628" stroke="#26253C" stroke-width="1.5" stroke-miterlimit="22.9256" stroke-linecap="round" stroke-linejoin="round"/>
<path fill-rule="evenodd" clip-rule="evenodd" d="M12.4594 24.7493C17.3668 23.3434 22.4847 26.1818 23.8906 31.0891C25.2966 35.9965 22.4581 41.1143 17.5508 42.5203C12.6435 43.9263 7.52557 41.0878 6.11963 36.1805C4.71368 31.2732 7.55213 26.1553 12.4594 24.7493ZM13.6845 29.0253C16.2303 28.2959 18.8853 29.7684 19.6147 32.3142C20.3441 34.86 18.8716 37.515 16.3258 38.2443C13.78 38.9737 11.125 37.5013 10.3956 34.9555C9.66624 32.4097 11.1387 29.7547 13.6845 29.0253Z" fill="#6A5C6B"/>
<path fill-rule="evenodd" clip-rule="evenodd" d="M20.0594 25.896C21.855 27.0677 23.2536 28.8662 23.8905 31.0891C25.2964 35.9964 22.458 41.1143 17.5506 42.5203C15.9148 42.9889 14.2558 42.9854 12.7184 42.5914C10.9227 41.4197 9.52406 39.6213 8.88721 37.3983C7.48126 32.4909 10.3197 27.3731 15.227 25.9671C16.8629 25.4984 18.5219 25.502 20.0594 25.896ZM13.6844 29.0253C16.2302 28.2959 18.8851 29.7684 19.6145 32.3142C20.3439 34.8599 18.8714 37.5149 16.3257 38.2443C13.7799 38.9737 11.1249 37.5012 10.3955 34.9555C9.6661 32.4097 11.1386 29.7546 13.6844 29.0253Z" fill="#7E707D"/>
<path d="M12.4594 24.7493C17.3667 23.3434 22.4847 26.1818 23.8906 31.0891C25.2966 35.9965 22.4581 41.1143 17.5508 42.5203C12.6435 43.9263 7.52556 41.0878 6.11961 36.1805C5.06828 32.5109 6.39037 28.7235 9.17615 26.4585" stroke="#26253C" stroke-width="1.5" stroke-miterlimit="22.9256" stroke-linecap="round" stroke-linejoin="round"/>
<path d="M18.2706 37.1475C17.7352 37.6459 17.0772 38.029 16.3258 38.2443C13.7801 38.9737 11.125 37.5012 10.3957 34.9554C9.66628 32.4097 11.1388 29.7546 13.6846 29.0252C16.2304 28.2959 18.8853 29.7684 19.6147 32.3142C19.7582 32.8151 19.8165 33.3202 19.7981 33.8141" stroke="#26253C" stroke-width="1.5" stroke-miterlimit="22.9256" stroke-linecap="round" stroke-linejoin="round"/>
<path d="M30.5115 19.2551L28.7462 29.2504L15.0049 33.6348L18.3929 17.9723L32.1063 10.2246L31.2571 15.033" stroke="#26253C" stroke-width="1.5" stroke-miterlimit="22.9256" stroke-linecap="round" stroke-linejoin="round"/>
<path d="M28.7462 29.2504L14.2988 13.6257" stroke="#26253C" stroke-width="1.5" stroke-miterlimit="22.9256" stroke-linecap="round" stroke-linejoin="round"/>
<path d="M42.9024 25.642L29.8936 6.84307L36.8044 4.8631M36.7918 4.86674C38.1128 4.48827 39.4904 5.25235 39.8689 6.57329C40.2473 7.89432 39.4833 9.27197 38.1622 9.65044L36.7237 10.0626" stroke="#26253C" stroke-width="1.5" stroke-miterlimit="22.9256" stroke-linecap="round" stroke-linejoin="round"/>
<path fill-rule="evenodd" clip-rule="evenodd" d="M17.6623 13.1716C18.2124 12.8444 18.4961 12.1769 18.3115 11.5326C18.1194 10.862 17.4836 10.4386 16.8142 10.4898L12.2757 10.8738C12.1293 10.8868 11.982 10.9137 11.8355 10.9557C10.594 11.3114 9.87599 12.6061 10.2317 13.8474C10.5874 15.0889 11.882 15.8069 13.1234 15.4512C13.3008 15.4004 13.4675 15.3304 13.6219 15.2441L17.6623 13.1716H17.6623Z" fill="#7E707D"/>
<path d="M12.2757 10.8738C12.1293 10.8867 11.982 10.9137 11.8355 10.9557C10.594 11.3114 9.87599 12.606 10.2317 13.8474C10.5874 15.0888 11.882 15.8068 13.1234 15.4512C13.3008 15.4004 13.4675 15.3303 13.6219 15.244L17.6623 13.1716C18.2124 12.8444 18.496 12.1769 18.3114 11.5326C18.1193 10.862 17.4835 10.4386 16.8141 10.4897" stroke="#26253C" stroke-width="1.5" stroke-miterlimit="22.9256" stroke-linecap="round" stroke-linejoin="round"/>
</g>
<defs>
<clipPath id="clip0_1429_7908">
<rect width="60" height="60" fill="white"/>
</clipPath>
</defs>
</svg>
