<svg width="60" height="60" viewBox="0 0 60 60" fill="none" xmlns="http://www.w3.org/2000/svg">
<path fill-rule="evenodd" clip-rule="evenodd" d="M53.5815 30.9124C53.8036 31.0488 53.939 31.2908 53.939 31.5515V36.9793L59.5462 39.6379C59.808 39.762 59.9749 40.0258 59.9749 40.3155V55.2302C59.9749 55.6445 59.6391 55.9802 59.2249 55.9802H55.2803C54.8661 55.9802 54.5303 55.6445 54.5303 55.2302C54.5303 54.816 54.8661 54.4802 55.2803 54.4802H58.4749V40.79L52.8677 38.1315C52.6059 38.0073 52.439 37.7435 52.439 37.4538V32.7726L37.5595 40.3156C37.1901 40.5029 36.7387 40.3553 36.5514 39.9858C36.3642 39.6164 36.5118 39.165 36.8813 38.9777L52.8498 30.8825C53.0823 30.7647 53.3594 30.776 53.5815 30.9124ZM25.4468 38.535C25.6472 38.6056 25.8082 38.7578 25.8899 38.9539L27.8148 43.5738L31.0021 41.9581C31.3715 41.7708 31.8228 41.9185 32.0101 42.288C32.1974 42.6574 32.0498 43.1087 31.6803 43.296L27.7724 45.2771C27.5863 45.3714 27.3694 45.384 27.1737 45.3118C26.978 45.2396 26.8212 45.0891 26.741 44.8966L24.8252 40.2988L13.3936 46.5189C13.1857 46.632 12.9367 46.6404 12.7218 46.5415L3.69236 42.3897L1.66186 54.4802H49.2233C49.6376 54.4802 49.9733 54.8159 49.9733 55.2302C49.9733 55.6444 49.6376 55.9802 49.2233 55.9802H0.775396C0.554769 55.9802 0.345334 55.883 0.202831 55.7146C0.0603273 55.5462 -0.000786474 55.3235 0.0357546 55.1059L2.37543 41.1746C2.41411 40.9443 2.55787 40.7451 2.76428 40.6359C2.9707 40.5267 3.21622 40.5198 3.4284 40.6174L13.0069 45.0217L24.8391 38.5836C25.0257 38.4821 25.2465 38.4644 25.4468 38.535Z" fill="#84828B"/>
<path fill-rule="evenodd" clip-rule="evenodd" d="M48.5702 39.3292C48.7692 39.6925 48.6359 40.1483 48.2726 40.3472L37.0045 46.5179C36.6412 46.7168 36.1854 46.5836 35.9864 46.2203C35.7875 45.857 35.9207 45.4012 36.284 45.2022L47.5522 39.0316C47.9155 38.8326 48.3713 38.9659 48.5702 39.3292ZM49.3087 44.3397C49.3087 43.9255 49.6445 43.5897 50.0587 43.5897H53.8148C54.229 43.5897 54.5648 43.9255 54.5648 44.3397V48.0958C54.5648 48.51 54.229 48.8458 53.8148 48.8458C53.4006 48.8458 53.0648 48.51 53.0648 48.0958V45.0897H50.0587C49.6445 45.0897 49.3087 44.7539 49.3087 44.3397ZM22.5374 44.6714C22.7633 44.7056 22.9613 44.841 23.0752 45.0391L25.1321 48.6162C25.3386 48.9753 25.2149 49.4338 24.8558 49.6402C24.4967 49.8467 24.0382 49.723 23.8317 49.3639L22.2447 46.6039L17.9273 50.6129C17.6238 50.8947 17.1492 50.8771 16.8674 50.5736C16.5855 50.2701 16.6031 49.7955 16.9067 49.5137L21.9147 44.8634C22.0822 44.7079 22.3114 44.6372 22.5374 44.6714Z" fill="#84828B"/>
<path fill-rule="evenodd" clip-rule="evenodd" d="M51.0672 23.3029C49.7754 18.7938 45.0728 16.1857 40.5637 17.4775C36.0545 18.7694 33.4464 23.4721 34.7383 27.9812C36.0302 32.4903 40.7328 35.0984 45.2419 33.8065L45.2419 33.8065C48.5662 32.8542 50.859 30.0473 51.3148 26.8284C51.3729 26.4183 51.7525 26.1329 52.1626 26.191C52.5727 26.2491 52.8581 26.6286 52.8 27.0387C52.2641 30.8224 49.5689 34.1273 45.655 35.2485L45.4485 34.5275L45.655 35.2485C45.655 35.2485 45.655 35.2485 45.655 35.2485C40.3495 36.7686 34.8163 33.6998 33.2963 28.3943L33.2963 28.3943C31.7763 23.0888 34.845 17.5556 40.1506 16.0355L40.1506 16.0355C45.456 14.5155 50.9893 17.5842 52.5092 22.8897C52.6233 23.2879 52.393 23.7032 51.9948 23.8173C51.5966 23.9314 51.1813 23.701 51.0672 23.3029Z" fill="#84828B"/>
<path fill-rule="evenodd" clip-rule="evenodd" d="M46.7922 24.528C46.1769 22.3804 43.9372 21.1382 41.7896 21.7535C40.7255 22.0584 39.8846 22.7609 39.3803 23.6554C39.1768 24.0162 38.7194 24.1438 38.3586 23.9403C37.9978 23.7369 37.8702 23.2795 38.0736 22.9187C38.7636 21.6949 39.9183 20.7294 41.3765 20.3115L41.3765 20.3115C44.3205 19.4681 47.3908 21.1709 48.2342 24.1149C49.0776 27.0589 47.3748 30.1291 44.4309 30.9726L44.4309 30.9726C41.4869 31.8159 38.4165 30.1132 37.5731 27.1693C37.4591 26.7711 37.6894 26.3558 38.0876 26.2417C38.4858 26.1276 38.9011 26.358 39.0151 26.7562C39.6304 28.9036 41.8701 30.1458 44.0178 29.5306C46.1653 28.9153 47.4074 26.6756 46.7922 24.528Z" fill="#84828B"/>
<path fill-rule="evenodd" clip-rule="evenodd" d="M23.1698 31.2956C21.878 26.7865 17.1753 24.1784 12.6661 25.4702C12.268 25.5843 11.8527 25.354 11.7386 24.9558C11.6245 24.5576 11.8548 24.1423 12.253 24.0282C17.5585 22.5083 23.0918 25.5769 24.6118 30.8824C26.1318 36.1879 23.0631 41.7211 17.7575 43.2412C12.452 44.7612 6.91881 41.6925 5.39882 36.3869C4.26182 32.4184 5.69268 28.3241 8.70317 25.8764C9.02456 25.6151 9.49693 25.6638 9.75824 25.9852C10.0195 26.3066 9.97084 26.779 9.64945 27.0403C7.08846 29.1225 5.87508 32.6031 6.84081 35.9738L6.84081 35.9738C8.13263 40.483 12.8353 43.091 17.3444 41.7992C21.8536 40.5073 24.4616 35.8047 23.1698 31.2956Z" fill="#84828B"/>
<path fill-rule="evenodd" clip-rule="evenodd" d="M18.8939 32.5206C18.2786 30.3731 16.039 29.1309 13.8914 29.7462C11.7438 30.3614 10.5016 32.6012 11.1169 34.7488L11.1169 34.7488C11.7321 36.8964 13.9718 38.1385 16.1194 37.5232C16.7547 37.3412 17.3089 37.0183 17.7596 36.5986C18.0628 36.3163 18.5374 36.3332 18.8196 36.6364C19.1019 36.9395 19.085 37.4141 18.7818 37.6964C18.1619 38.2735 17.4002 38.7166 16.5325 38.9652L16.5325 38.9652C13.5886 39.8086 10.5183 38.106 9.67488 35.1619C8.8314 32.2179 10.5343 29.1476 13.4783 28.3042C16.4223 27.4608 19.4924 29.1636 20.3359 32.1075L20.3359 32.1076C20.5015 32.6856 20.569 33.2699 20.5478 33.8419C20.5324 34.2558 20.1844 34.5789 19.7705 34.5635C19.3566 34.5482 19.0335 34.2002 19.0488 33.7862C19.0642 33.3705 19.0153 32.9445 18.8939 32.5206Z" fill="#84828B"/>
<path fill-rule="evenodd" clip-rule="evenodd" d="M32.5405 9.61236C32.7774 9.77998 32.8964 10.0693 32.8459 10.3551L31.9966 15.1635C31.9245 15.5714 31.5355 15.8436 31.1276 15.7716C30.7197 15.6995 30.4474 15.3104 30.5195 14.9025L31.0923 11.6595L19.0558 18.4598L16.013 32.5262L28.0874 28.6736L29.7739 19.1246C29.8459 18.7167 30.235 18.4444 30.6429 18.5165C31.0508 18.5885 31.3231 18.9776 31.251 19.3855L29.4857 29.3808C29.4372 29.6552 29.2406 29.8802 28.9751 29.9649L15.2339 34.3493C14.9788 34.4307 14.6997 34.37 14.5016 34.1899C14.3034 34.0099 14.2162 33.7379 14.2728 33.4762L17.6609 17.8137C17.7061 17.6045 17.8386 17.4246 18.025 17.3193L31.7384 9.57165C31.9911 9.42888 32.3035 9.44473 32.5405 9.61236Z" fill="#84828B"/>
<path fill-rule="evenodd" clip-rule="evenodd" d="M14.6256 13.9789C14.9297 13.6977 15.4042 13.7162 15.6854 14.0204L29.297 28.7412C29.5782 29.0453 29.5596 29.5198 29.2555 29.801C28.9514 30.0822 28.4769 30.0637 28.1957 29.7595L14.5841 15.0387C14.3029 14.7346 14.3215 14.2601 14.6256 13.9789Z" fill="#84828B"/>
<path fill-rule="evenodd" clip-rule="evenodd" d="M39.149 6.77993C38.8845 5.85713 37.9221 5.3234 36.9994 5.58777C36.997 5.58845 36.9946 5.58912 36.9922 5.58978L31.1062 7.2761L43.5201 25.2152C43.7558 25.5559 43.6708 26.0231 43.3302 26.2588C42.9895 26.4945 42.5224 26.4094 42.2866 26.0688L29.2778 7.26986C29.1403 7.07112 29.1069 6.81828 29.1883 6.59069C29.2696 6.3631 29.4556 6.18865 29.688 6.12209L36.5989 4.14211C36.604 4.14066 36.6091 4.13926 36.6141 4.13791C38.3247 3.66404 40.101 4.65691 40.5909 6.36673L40.591 6.36678C41.0835 8.08599 40.0891 9.87896 38.3699 10.3715L36.9313 10.7836C36.5331 10.8977 36.1179 10.6674 36.0038 10.2692C35.8897 9.87103 36.12 9.45574 36.5182 9.34166L37.9567 8.92949L37.9568 8.92948C38.8796 8.66512 39.4133 7.70278 39.149 6.77993Z" fill="#84828B"/>
<path d="M19.0327 11.326L16.7573 9.74191L17.5282 11.5895C17.5543 11.6359 17.5754 11.6859 17.5907 11.7392C17.6773 12.0414 17.5493 12.3563 17.2956 12.517L13.2799 14.5768C13.2719 14.5809 13.2641 14.5851 13.2563 14.5894C13.1518 14.6478 13.0385 14.6955 12.9171 14.7302C12.0738 14.9718 11.1945 14.4841 10.9529 13.6409C10.7113 12.7977 11.199 11.9183 12.0422 11.6767L13.0229 10.8074L12.2096 10.1267L11.6292 10.2347L9.51088 14.054L13.3302 16.1722L19.0327 11.326Z" fill="#84828B"/>
<path d="M16.0666 10.5469C16.0981 10.9599 16.4585 11.2691 16.8715 11.2376C17.1398 11.2171 17.3969 11.3561 17.5282 11.5895L16.7573 9.74191C16.3443 9.77346 16.035 10.1339 16.0666 10.5469Z" fill="#84828B"/>
<path d="M19.0327 11.326C18.7405 10.3064 17.7744 9.6642 16.7573 9.74191L19.0327 11.326Z" fill="#84828B"/>
<path d="M18.0459 13.8162C18.8815 13.3193 19.3134 12.3058 19.0327 11.326L13.3302 16.1722C13.5588 16.1068 13.7747 16.0168 13.9755 15.9058L18.0049 13.8389C18.0188 13.8318 18.0325 13.8242 18.0459 13.8162Z" fill="#84828B"/>
<path d="M9.51088 14.054C9.98067 15.6936 11.6906 16.6419 13.3302 16.1722L9.51088 14.054Z" fill="#84828B"/>
<path d="M11.6292 10.2347C9.98954 10.7044 9.04108 12.4144 9.51088 14.054L11.6292 10.2347Z" fill="#84828B"/>
<path d="M12.3422 11.6208C12.7548 11.5842 13.0596 11.22 13.0229 10.8074L12.0422 11.6767C12.1426 11.648 12.2429 11.6296 12.3422 11.6208Z" fill="#84828B"/>
<path d="M13.0229 10.8074C12.9863 10.3948 12.6221 10.0901 12.2096 10.1267L13.0229 10.8074Z" fill="#84828B"/>
</svg>
