<svg width="60" height="60" viewBox="0 0 60 60" fill="none" xmlns="http://www.w3.org/2000/svg">
<g clip-path="url(#clip0_1420_7379)">
<path fill-rule="evenodd" clip-rule="evenodd" d="M42.5029 36.0861C42.7263 36.0092 42.9729 36.0421 43.1683 36.1749L51.6445 41.9329C51.9872 42.1656 52.0762 42.6321 51.8435 42.9747C51.6107 43.3174 51.1443 43.4064 50.8016 43.1737L42.636 37.6266L31.0253 41.6211L26.3256 46.5856L28.4962 53.9693C28.515 54.0331 28.5252 54.0991 28.5265 54.1655L28.6145 58.4713H58.2093L56.095 51.6085L52.9032 46.5354C52.6826 46.1848 52.788 45.7217 53.1386 45.5012C53.4892 45.2806 53.9522 45.386 54.1728 45.7366L57.4174 50.8935C57.4524 50.9492 57.48 51.0093 57.4993 51.0721L59.9419 59.0005C60.012 59.228 59.9699 59.4752 59.8285 59.6668C59.6871 59.8583 59.4632 59.9713 59.2251 59.9713H27.8796C27.4714 59.9713 27.1381 59.6448 27.1298 59.2366L27.0289 54.2963L24.7648 46.5948C24.6895 46.3386 24.7561 46.0616 24.9397 45.8676L30.0626 40.4562C30.1457 40.3683 30.2489 40.3019 30.3633 40.2626L42.5029 36.0861Z" fill="#84828B"/>
<path fill-rule="evenodd" clip-rule="evenodd" d="M11.194 49.2435C11.4488 49.0806 11.7764 49.0865 12.025 49.2587L25.5238 58.6046C25.7935 58.7914 25.9106 59.1317 25.8128 59.4449C25.7149 59.758 25.4249 59.9713 25.0969 59.9713H0.775396C0.489587 59.9713 0.228622 59.8088 0.102443 59.5524C-0.0237363 59.2959 0.00680713 58.99 0.181205 58.7636L3.42122 54.5569C3.46081 54.5055 3.5069 54.4594 3.55834 54.4199L5.35719 53.0372C5.68559 52.7847 6.15646 52.8463 6.40889 53.1747C6.66132 53.5031 6.59973 53.974 6.27133 54.2264L4.54997 55.5496L2.29971 58.4713H22.6961L11.5816 50.7761L9.06461 52.3858C8.71566 52.609 8.25186 52.507 8.02869 52.1581C7.80552 51.8091 7.90749 51.3453 8.25645 51.1222L11.194 49.2435Z" fill="#84828B"/>
<path fill-rule="evenodd" clip-rule="evenodd" d="M25.4047 33.7477C25.6061 33.7742 25.7881 33.8811 25.9091 34.0441L28.6394 37.7194C28.8656 38.0239 28.8289 38.4494 28.5538 38.7106L23.3557 43.646C23.183 43.8101 22.9425 43.8823 22.708 43.8405C22.4734 43.7988 22.2726 43.6481 22.167 43.4346L19.8043 38.6567C19.6476 38.3398 19.7335 37.9564 20.0104 37.7367L24.8409 33.9038C25 33.7776 25.2034 33.7213 25.4047 33.7477ZM21.4175 38.535L23.0607 41.8577L27.039 38.0804L25.1668 35.5601L21.4175 38.535Z" fill="#84828B"/>
<path fill-rule="evenodd" clip-rule="evenodd" d="M41.9534 9.44936C42.1445 9.53864 42.2892 9.70431 42.352 9.90573L43.6121 13.9486C43.685 14.1823 43.6392 14.4368 43.4896 14.6304L39.9192 19.2508C39.7772 19.4346 39.558 19.5423 39.3258 19.5423H32.29C32.0501 19.5423 31.8246 19.4275 31.6835 19.2334C31.5424 19.0394 31.5026 18.7895 31.5765 18.5612L33.3617 13.0482C33.4292 12.8398 33.5845 12.6712 33.7868 12.587L41.3475 9.4366C41.5423 9.35545 41.7622 9.36009 41.9534 9.44936ZM34.6824 13.8388L33.3212 18.0423H38.9575L42.0639 14.0222L41.1648 11.1377L34.6824 13.8388Z" fill="#84828B"/>
<path fill-rule="evenodd" clip-rule="evenodd" d="M5.87063 27.0513C5.17734 27.056 4.6084 27.6278 4.6084 28.3222C4.6084 29.0195 5.1821 29.5931 5.8793 29.5931H6.76868C6.75074 29.1719 6.74137 28.7482 6.74137 28.322C6.74137 27.896 6.75071 27.4724 6.76863 27.0513H5.8793C5.87641 27.0513 5.87352 27.0513 5.87063 27.0513ZM5.89028 25.5513C5.88663 25.5513 5.88297 25.5513 5.8793 25.5513C4.35374 25.5513 3.1084 26.7964 3.1084 28.3222C3.1084 29.848 4.35374 31.0931 5.8793 31.0931H7.56139C7.76917 31.0931 7.96764 31.0069 8.10947 30.855C8.2513 30.7032 8.32379 30.4993 8.30965 30.292C8.26516 29.6401 8.24137 28.9835 8.24137 28.322C8.24137 27.6607 8.26509 27.0041 8.30964 26.3525C8.32381 26.1452 8.25134 25.9413 8.1095 25.7894C7.96767 25.6376 7.76918 25.5513 7.56139 25.5513H5.89028Z" fill="#84828B"/>
<path fill-rule="evenodd" clip-rule="evenodd" d="M25.611 1.2043C25.7987 1.54372 25.6967 1.9703 25.3757 2.18802C19.9674 5.85613 15.8341 13.569 14.691 23.027H20.1882C20.6024 23.027 20.9382 23.3628 20.9382 23.777V32.8673C20.9382 33.2815 20.6024 33.6173 20.1882 33.6173H14.691C15.8341 43.0753 19.9673 50.7882 25.3757 54.4563C25.6967 54.674 25.7987 55.1006 25.611 55.44C25.4232 55.7794 25.0076 55.9197 24.6526 55.7635C14.1081 51.1235 6.74219 40.5847 6.74219 28.322C6.74219 24.8286 7.34045 21.4733 8.44048 18.3539C8.57824 17.9633 9.00658 17.7583 9.39722 17.8961C9.78786 18.0338 9.99285 18.4622 9.8551 18.8528C8.81078 21.8142 8.24219 25.0009 8.24219 28.322C8.24219 37.764 12.8394 46.1323 19.919 51.3114C16.3215 46.7265 13.8468 40.2432 13.1069 32.943C13.0855 32.732 13.1545 32.5218 13.2967 32.3645C13.4389 32.2071 13.641 32.1173 13.8531 32.1173H19.4382V24.527H13.8531C13.641 24.527 13.4389 24.4372 13.2967 24.2799C13.1545 24.1225 13.0855 23.9124 13.1069 23.7014C13.8468 16.4013 16.3214 9.91815 19.9187 5.33332C16.3868 7.91732 13.4722 11.2953 11.4384 15.2044C11.2472 15.5719 10.7944 15.7148 10.4269 15.5236C10.0595 15.3324 9.91655 14.8796 10.1077 14.5121C13.2504 8.47165 18.3901 3.63667 24.6526 0.880851C25.0076 0.724617 25.4232 0.864875 25.611 1.2043Z" fill="#84828B"/>
<path fill-rule="evenodd" clip-rule="evenodd" d="M36.7642 25.4608C36.7642 25.0465 37.1 24.7108 37.5142 24.7108H54.4993C56.4871 24.7108 58.1107 26.3342 58.1107 28.3223C58.1107 30.3104 56.4871 31.9338 54.4993 31.9338H20.1875C19.7733 31.9338 19.4375 31.598 19.4375 31.1838V25.4608C19.4375 25.0466 19.7733 24.7108 20.1875 24.7108H33.4975C33.9118 24.7108 34.2475 25.0466 34.2475 25.4608C34.2475 25.875 33.9118 26.2108 33.4975 26.2108H20.9375V30.4338H54.4993C55.6587 30.4338 56.6107 29.4819 56.6107 28.3223C56.6107 27.1626 55.6587 26.2108 54.4993 26.2108H37.5142C37.1 26.2108 36.7642 25.875 36.7642 25.4608Z" fill="#84828B"/>
</g>
<defs>
<clipPath id="clip0_1420_7379">
<rect width="60" height="59.9965" fill="white"/>
</clipPath>
</defs>
</svg>
