<svg width="60" height="60" viewBox="0 0 60 60" fill="none" xmlns="http://www.w3.org/2000/svg">
<g clip-path="url(#clip0_1420_7389)">
<path fill-rule="evenodd" clip-rule="evenodd" d="M27.7767 54.1808L27.8796 59.2213H59.2251L56.7826 51.293L53.538 46.136L51.2231 42.5533L42.7469 36.7953L30.6072 40.9718L25.4844 46.3832L27.7767 54.1808Z" fill="#995F30"/>
<path fill-rule="evenodd" clip-rule="evenodd" d="M27.7767 54.1808L27.8796 59.2212H55.5383L53.0959 51.293L49.8512 46.136L47.5363 42.5533L40.2996 37.6373L30.6072 40.9718L25.4844 46.3832L27.7767 54.1808Z" fill="#A86D38"/>
<path fill-rule="evenodd" clip-rule="evenodd" d="M0.775391 59.2212H25.0969L11.598 49.8753L8.66047 51.754L5.8142 53.6318L4.01535 55.0145L0.775391 59.2212Z" fill="#995F30"/>
<path fill-rule="evenodd" clip-rule="evenodd" d="M0.775391 59.2212H21.6839L9.82386 51.0099L8.66047 51.754L5.8142 53.6318L4.01535 55.0145L0.775391 59.2212Z" fill="#A86D38"/>
<path fill-rule="evenodd" clip-rule="evenodd" d="M28.0373 38.1667L22.8393 43.1022L20.4766 38.3242L25.3071 34.4913L28.0373 38.1667Z" fill="#A86D38"/>
<path fill-rule="evenodd" clip-rule="evenodd" d="M34.0752 13.2793L32.29 18.7923H39.3257L42.8961 14.1718L41.636 10.1289L34.0752 13.2793Z" fill="#995F30"/>
<path fill-rule="evenodd" clip-rule="evenodd" d="M34.0752 13.2793L32.29 18.7923H35.8549L39.4253 14.1718L38.5641 11.4089L34.0752 13.2793Z" fill="#A86D38"/>
<path fill-rule="evenodd" clip-rule="evenodd" d="M5.87925 26.3013H7.56132C7.51572 26.969 7.49132 27.6427 7.49132 28.322C7.49132 29.0015 7.51572 29.6752 7.56137 30.3431H5.87925C4.76789 30.3431 3.8584 29.4337 3.8584 28.3222C3.8584 27.2107 4.76789 26.3014 5.87925 26.3014V26.3013Z" fill="#84828B"/>
<path fill-rule="evenodd" clip-rule="evenodd" d="M20.1875 25.4607H54.4993C56.073 25.4607 57.3607 26.7483 57.3607 28.3222C57.3607 29.896 56.073 31.1837 54.4993 31.1837H20.1875V25.4607V25.4607Z" fill="#84828B"/>
<path fill-rule="evenodd" clip-rule="evenodd" d="M20.1875 25.4607H54.4993C55.3811 25.4607 56.173 25.8651 56.699 26.4975C56.173 27.1299 55.3811 27.5342 54.4993 27.5342H20.1875V25.4607V25.4607Z" fill="#D0CFD4"/>
<path fill-rule="evenodd" clip-rule="evenodd" d="M24.9537 55.077C14.6715 50.5525 7.49121 40.2766 7.49121 28.322C7.49121 16.3677 14.6715 6.09189 24.9537 1.56732C19.1454 5.50676 14.8627 13.8061 13.8521 23.777H20.1872V32.8673H13.8521C14.8627 42.8383 19.1454 51.1376 24.9537 55.077Z" fill="#D9D9D9"/>
<path fill-rule="evenodd" clip-rule="evenodd" d="M7.49503 28.731C7.49319 28.5948 7.49121 28.4586 7.49121 28.322C7.49121 16.3677 14.6715 6.09189 24.9537 1.56732C19.1454 5.50676 14.8627 13.8061 13.8521 23.777H19.869V28.9268H13.534C13.6704 30.2731 13.867 31.5886 14.1185 32.8673H13.8521C14.3988 38.2609 15.9033 43.1649 18.0884 47.1547C12.5016 42.6593 8.60275 36.1516 7.49503 28.7309V28.731Z" fill="#F1F0F4"/>
<path fill-rule="evenodd" clip-rule="evenodd" d="M25.8287 1.08327C26.0791 1.53583 25.943 2.10461 25.515 2.39491C20.2384 5.97372 16.1575 13.4936 14.973 22.777H20.1872C20.7394 22.777 21.1872 23.2247 21.1872 23.777V32.8673C21.1872 33.4196 20.7394 33.8673 20.1872 33.8673H14.973C16.1575 43.1507 20.2384 50.6706 25.515 54.2494C25.943 54.5397 26.0791 55.1085 25.8287 55.561C25.5784 56.0136 25.0243 56.2006 24.5509 55.9923C13.919 51.3139 6.49121 40.6874 6.49121 28.322C6.49121 24.7998 7.09437 21.4165 8.2037 18.2708C8.38738 17.75 8.95851 17.4766 9.47935 17.6603C10.0002 17.844 10.2735 18.4151 10.0899 18.936C9.05482 21.871 8.49121 25.0295 8.49121 28.322C8.49121 37.0406 12.4458 44.8359 18.6605 50.0123C15.6048 45.5124 13.5257 39.5632 12.8572 32.9682C12.8287 32.6868 12.9207 32.4066 13.1102 32.1968C13.2998 31.987 13.5694 31.8673 13.8521 31.8673H19.1872V24.777H13.8521C13.5694 24.777 13.2998 24.6573 13.1102 24.4475C12.9207 24.2377 12.8287 23.9575 12.8572 23.6762C13.5256 17.0814 15.6046 11.1324 18.6601 6.6326C15.7883 9.02473 13.3987 11.9763 11.6592 15.3198C11.4043 15.8097 10.8005 16.0002 10.3106 15.7453C9.82062 15.4905 9.63008 14.8866 9.88498 14.3967C13.0538 8.30588 18.2361 3.43081 24.5509 0.652004C25.0243 0.443696 25.5784 0.630709 25.8287 1.08327Z" fill="#26253C"/>
<path fill-rule="evenodd" clip-rule="evenodd" d="M36.5142 25.4607C36.5142 24.9084 36.962 24.4607 37.5142 24.4607H54.4993C56.6252 24.4607 58.3607 26.196 58.3607 28.3222C58.3607 30.4483 56.6253 32.1837 54.4993 32.1837H20.1875C19.6352 32.1837 19.1875 31.736 19.1875 31.1837V25.4607C19.1875 24.9085 19.6352 24.4607 20.1875 24.4607H33.4975C34.0498 24.4607 34.4975 24.9085 34.4975 25.4607C34.4975 26.013 34.0498 26.4607 33.4975 26.4607H21.1875V30.1837H54.4993C55.5207 30.1837 56.3607 29.3437 56.3607 28.3222C56.3607 27.3006 55.5207 26.4607 54.4993 26.4607H37.5142C36.962 26.4607 36.5142 26.013 36.5142 25.4607Z" fill="#26253C"/>
<path fill-rule="evenodd" clip-rule="evenodd" d="M5.86765 25.3014C4.20934 25.3077 2.8584 26.6623 2.8584 28.3222C2.8584 29.9861 4.21565 31.3431 5.87925 31.3431H7.56137C7.83843 31.3431 8.10307 31.2281 8.29219 31.0256C8.4813 30.8232 8.57793 30.5513 8.55904 30.2749C8.51486 29.6285 8.49132 28.9776 8.49132 28.322C8.49132 27.6666 8.51486 27.0158 8.559 26.3695C8.57788 26.0931 8.48124 25.8212 8.29212 25.6187C8.10301 25.4163 7.83837 25.3013 7.56132 25.3013H5.87925C5.87538 25.3013 5.87151 25.3014 5.86765 25.3014ZM5.88871 27.3013C5.88556 27.3014 5.88241 27.3014 5.87925 27.3014C5.32013 27.3014 4.8584 27.7631 4.8584 28.3222C4.8584 28.8814 5.32013 29.3431 5.87925 29.3431H6.50884C6.49729 29.0044 6.49132 28.664 6.49132 28.322C6.49132 27.9802 6.49729 27.6399 6.50883 27.3013H5.88871Z" fill="#26253C"/>
<path fill-rule="evenodd" clip-rule="evenodd" d="M42.4216 35.8497C42.7195 35.7472 43.0483 35.7911 43.3089 35.9681L51.785 41.7261C52.2418 42.0365 52.3606 42.6584 52.0503 43.1152C51.7399 43.5721 51.118 43.6908 50.6611 43.3805L42.599 37.9037L31.1647 41.8376L26.606 46.653L28.7361 53.8988C28.7611 53.9838 28.7747 54.0718 28.7765 54.1604L28.8594 58.2213H57.8707L55.8659 51.7137L52.6916 46.6686C52.3975 46.2011 52.538 45.5837 53.0055 45.2896C53.4729 44.9955 54.0903 45.136 54.3844 45.6035L57.629 50.7605C57.6757 50.8347 57.7125 50.9148 57.7383 50.9986L60.1808 58.9268C60.2743 59.2302 60.2182 59.5599 60.0296 59.8152C59.8411 60.0706 59.5426 60.2213 59.2252 60.2213H27.8797C27.3353 60.2213 26.891 59.7859 26.8799 59.2417L26.7796 54.3348L24.525 46.6653C24.4246 46.3236 24.5134 45.9544 24.7582 45.6958L29.8811 40.2844C29.9919 40.1672 30.1295 40.0787 30.2819 40.0262L42.4216 35.8497Z" fill="#26253C"/>
<path fill-rule="evenodd" clip-rule="evenodd" d="M11.0593 49.0329C11.3989 48.8156 11.8358 48.8236 12.1673 49.0531L25.6661 58.399C26.0258 58.648 26.1819 59.1019 26.0514 59.5194C25.921 59.9369 25.5343 60.2212 25.0969 60.2212H0.775398C0.39432 60.2212 0.0463676 60.0046 -0.121872 59.6627C-0.290111 59.3208 -0.249389 58.9129 -0.0168613 58.611L3.2231 54.4043C3.27588 54.3358 3.33734 54.2744 3.40593 54.2216L5.20478 52.8389C5.64265 52.5024 6.27047 52.5845 6.60705 53.0224C6.94362 53.4602 6.8615 54.0881 6.42363 54.4246L4.7281 55.7279L2.80779 58.2212H21.8958L11.5761 51.0764L9.19925 52.5964C8.73398 52.894 8.11559 52.758 7.81803 52.2928C7.52047 51.8275 7.65643 51.2091 8.1217 50.9115L11.0593 49.0329Z" fill="#26253C"/>
<path fill-rule="evenodd" clip-rule="evenodd" d="M25.4373 33.4998C25.7058 33.5351 25.9484 33.6777 26.1099 33.895L28.8401 37.5704C29.1417 37.9764 29.0927 38.5437 28.726 38.8919L23.5279 43.8274C23.2976 44.0461 22.977 44.1424 22.6642 44.0867C22.3515 44.0311 22.0838 43.8302 21.943 43.5455L19.5802 38.7675C19.3713 38.345 19.4858 37.8339 19.8551 37.5409L24.6856 33.708C24.8976 33.5397 25.1689 33.4646 25.4373 33.4998ZM21.7312 38.6053L23.1345 41.443L26.7062 38.0517L25.12 35.9164L21.7312 38.6053Z" fill="#26253C"/>
<path fill-rule="evenodd" clip-rule="evenodd" d="M42.0591 9.22285C42.314 9.34189 42.507 9.56277 42.5907 9.83134L43.8508 13.8743C43.9479 14.1858 43.8869 14.5251 43.6874 14.7833L40.117 19.4038C39.9277 19.6488 39.6355 19.7923 39.3258 19.7923H32.29C31.9701 19.7923 31.6695 19.6392 31.4813 19.3805C31.2931 19.1218 31.2401 18.7886 31.3387 18.4843L33.1239 12.9712C33.2139 12.6933 33.4209 12.4686 33.6906 12.3562L41.2513 9.20583C41.511 9.09764 41.8042 9.10381 42.0591 9.22285ZM34.8848 14.0253L33.665 17.7923H38.8347L41.7865 13.9723L41.0078 11.474L34.8848 14.0253Z" fill="#26253C"/>
</g>
<defs>
<clipPath id="clip0_1420_7389">
<rect width="60" height="59.9965" fill="white"/>
</clipPath>
</defs>
</svg>
