<svg width="60" height="60" viewBox="0 0 60 60" fill="none" xmlns="http://www.w3.org/2000/svg">
<g clip-path="url(#clip0_1429_7930)">
<path fill-rule="evenodd" clip-rule="evenodd" d="M22.4384 1.52521C16.6298 1.52521 11.9209 6.23401 11.9209 12.0427C11.9209 13.4166 12.184 14.7275 12.662 15.9289H32.711C33.1252 15.9289 33.461 16.2647 33.461 16.6789C33.461 17.0931 33.1252 17.4289 32.711 17.4289H12.1659C11.8713 17.4289 11.6039 17.2564 11.4825 16.9879C10.8003 15.4786 10.4209 13.804 10.4209 12.0427C10.4209 5.40558 15.8014 0.0252075 22.4384 0.0252075C29.0755 0.0252075 34.4559 5.40569 34.4559 12.0427C34.4559 12.4569 34.1201 12.7927 33.7059 12.7927C33.2917 12.7927 32.9559 12.4569 32.9559 12.0427C32.9559 6.23411 28.2471 1.52521 22.4384 1.52521Z" fill="#84828B"/>
<path fill-rule="evenodd" clip-rule="evenodd" d="M3.3302 12.9931C3.33767 10.6212 5.26276 8.70062 7.63649 8.70062H11.3725C11.7867 8.70062 12.1225 9.03641 12.1225 9.45062C12.1225 9.86484 11.7867 10.2006 11.3725 10.2006H7.63649C6.08659 10.2006 4.83018 11.4571 4.83018 13.0069C4.83018 14.5568 6.08667 15.8132 7.63649 15.8132H7.63934V15.8132L41.9553 15.9435C42.3695 15.9451 42.704 16.2822 42.7024 16.6964C42.7008 17.1106 42.3638 17.4451 41.9496 17.4435L7.63649 17.3132C7.63602 17.3132 7.63556 17.3132 7.63509 17.3132C6.56357 17.3129 5.58349 16.9212 4.83008 16.2733V39.8952C4.83008 40.3094 4.49429 40.6452 4.08008 40.6452C3.66586 40.6452 3.33008 40.3094 3.33008 39.8952V13.0069M32.7829 9.45062C32.7829 9.03641 33.1187 8.70062 33.5329 8.70062H46.3915C48.7697 8.70062 50.6978 10.6286 50.6978 13.0069V15.9768L55.6682 15.9957C55.6687 15.9957 55.6692 15.9957 55.6697 15.9957C58.0473 15.9965 59.9745 17.9243 59.9745 20.302V50.6872C59.9745 53.0655 58.0464 54.9935 55.6682 54.9935H30.6577C30.2435 54.9935 29.9077 54.6577 29.9077 54.2435C29.9077 53.8293 30.2435 53.4935 30.6577 53.4935H55.6682C57.218 53.4935 58.4745 52.2371 58.4745 50.6872V20.302C58.4745 18.7522 57.2181 17.4957 55.6682 17.4957L55.6653 17.4957L49.9478 17.474C49.946 17.474 49.9442 17.4739 49.9424 17.4739L47.5219 17.4647C47.1077 17.4632 46.7732 17.1261 46.7748 16.7119C46.7764 16.2977 47.1134 15.9632 47.5276 15.9648L49.1978 15.9711V13.0069C49.1978 11.457 47.9413 10.2006 46.3915 10.2006H33.5329C33.1187 10.2006 32.7829 9.86484 32.7829 9.45062ZM20.6246 54.2435C20.6246 53.8293 20.9604 53.4935 21.3746 53.4935H24.3888C24.803 53.4935 25.1388 53.8293 25.1388 54.2435C25.1388 54.6577 24.803 54.9935 24.3888 54.9935H21.3746C20.9604 54.9935 20.6246 54.6577 20.6246 54.2435Z" fill="#84828B"/>
<path fill-rule="evenodd" clip-rule="evenodd" d="M27.0776 28.0947C21.6533 28.0947 17.1873 32.2014 16.6208 37.4747C16.5765 37.8866 16.2068 38.1846 15.7949 38.1403C15.3831 38.0961 15.0851 37.7263 15.1294 37.3145C15.7769 31.2874 20.8787 26.5947 27.0776 26.5947C31.9203 26.5947 36.0924 29.4592 37.9951 33.5829C38.1687 33.959 38.0044 34.4046 37.6283 34.5781C37.2522 34.7516 36.8067 34.5874 36.6331 34.2113C34.9664 30.5992 31.3137 28.0947 27.0776 28.0947ZM38.3451 37.8622C38.7593 37.8622 39.0951 38.198 39.0951 38.6122C39.0951 45.2492 33.7146 50.6297 27.0776 50.6297C25.6718 50.6297 24.3209 50.388 23.0652 49.9434C22.6747 49.8051 22.4703 49.3765 22.6085 48.9861C22.7468 48.5956 23.1754 48.3911 23.5659 48.5294C24.6631 48.9179 25.8448 49.1297 27.0776 49.1297C32.8862 49.1297 37.5951 44.4208 37.5951 38.6122C37.5951 38.198 37.9309 37.8622 38.3451 37.8622Z" fill="#84828B"/>
<path fill-rule="evenodd" clip-rule="evenodd" d="M23.1084 4.94708C23.1084 4.53287 23.4442 4.19708 23.8584 4.19708C27.407 4.19708 30.2838 7.07384 30.2838 10.6224C30.2838 11.0367 29.948 11.3724 29.5338 11.3724C29.1195 11.3724 28.7838 11.0367 28.7838 10.6224C28.7838 7.90227 26.5786 5.69708 23.8584 5.69708C23.4442 5.69708 23.1084 5.3613 23.1084 4.94708Z" fill="#84828B"/>
<path fill-rule="evenodd" clip-rule="evenodd" d="M46.1183 30.8546C45.491 30.8546 44.9746 31.371 44.9746 31.9983V39.3838C44.9746 40.0111 45.491 40.5274 46.1183 40.5274H50.737C51.1512 40.5274 51.487 40.8632 51.487 41.2774C51.487 41.6916 51.1512 42.0274 50.737 42.0274H46.1183C44.6625 42.0274 43.4746 40.8395 43.4746 39.3838V31.9983C43.4746 30.5425 44.6625 29.3546 46.1183 29.3546H59.2253C59.6395 29.3546 59.9753 29.6904 59.9753 30.1046V41.2774C59.9753 41.6916 59.6395 42.0274 59.2253 42.0274H57.0057C56.5915 42.0274 56.2557 41.6916 56.2557 41.2774C56.2557 40.8632 56.5915 40.5274 57.0057 40.5274H58.4753V30.8546H46.1183Z" fill="#84828B"/>
<path fill-rule="evenodd" clip-rule="evenodd" d="M53.373 34.3043C52.6071 34.3043 51.9863 34.9251 51.9863 35.691C51.9863 36.4568 52.6071 37.0776 53.373 37.0776C54.1388 37.0776 54.7596 36.4568 54.7596 35.691C54.7596 34.9251 54.1388 34.3043 53.373 34.3043ZM50.4863 35.691C50.4863 34.0967 51.7787 32.8043 53.373 32.8043C54.9672 32.8043 56.2596 34.0967 56.2596 35.691C56.2596 37.2852 54.9672 38.5776 53.373 38.5776C51.7787 38.5776 50.4863 37.2852 50.4863 35.691Z" fill="#84828B"/>
<path fill-rule="evenodd" clip-rule="evenodd" d="M11.293 40.4643C11.293 40.0501 11.6288 39.7143 12.043 39.7143C14.4404 39.7143 16.5996 40.7388 18.1048 42.3715C18.3855 42.676 18.3663 43.1505 18.0617 43.4313C17.7572 43.712 17.2827 43.6927 17.0019 43.3882C15.7688 42.0506 14.0041 41.2143 12.043 41.2143C11.6288 41.2143 11.293 40.8785 11.293 40.4643Z" fill="#84828B"/>
<path fill-rule="evenodd" clip-rule="evenodd" d="M29.8182 31.5257C30.0124 31.1598 30.4664 31.0207 30.8323 31.2149C32.9498 32.339 34.3766 34.2564 34.9405 36.4044C35.0456 36.805 34.8061 37.2151 34.4055 37.3202C34.0048 37.4254 33.5948 37.1859 33.4896 36.7852C33.0277 35.0255 31.8611 33.4594 30.1289 32.5398C29.7631 32.3456 29.624 31.8915 29.8182 31.5257Z" fill="#84828B"/>
<path fill-rule="evenodd" clip-rule="evenodd" d="M11.2929 36.6897C11.2929 36.2755 11.6287 35.9397 12.0429 35.9397C18.6799 35.9397 24.0604 41.3202 24.0604 47.9572C24.0604 54.5942 18.6799 59.9747 12.0429 59.9747C5.40576 59.9747 0.0253906 54.5942 0.0253906 47.9572C0.0253906 43.276 2.70223 39.2213 6.6051 37.2377C6.97436 37.05 7.42584 37.1973 7.61351 37.5665C7.80118 37.9358 7.65397 38.3873 7.28471 38.5749C3.86551 40.3127 1.52539 43.8623 1.52539 47.9572C1.52539 53.7658 6.2342 58.4747 12.0429 58.4747C17.8515 58.4747 22.5604 53.7658 22.5604 47.9572C22.5604 42.1486 17.8515 37.4397 12.0429 37.4397C11.6287 37.4397 11.2929 37.1039 11.2929 36.6897Z" fill="#84828B"/>
</g>
<defs>
<clipPath id="clip0_1429_7930">
<rect width="60" height="60" fill="white"/>
</clipPath>
</defs>
</svg>
