<svg width="60" height="60" viewBox="0 0 60 60" fill="none" xmlns="http://www.w3.org/2000/svg">
<g clip-path="url(#clip0_1429_7942)">
<path fill-rule="evenodd" clip-rule="evenodd" d="M4.08105 13.007C4.08105 14.9711 5.67329 16.5634 7.6374 16.5634L55.6691 16.7458C57.6332 16.7458 59.2255 18.338 59.2255 20.3021V50.6873C59.2255 52.6514 57.6333 54.2437 55.6691 54.2437H7.6374C5.67334 54.2437 4.08105 52.6514 4.08105 50.6873V13.0071V13.007Z" fill="#6A5C6B"/>
<path fill-rule="evenodd" clip-rule="evenodd" d="M7.55566 16.5624C7.58271 16.563 7.60985 16.5634 7.63703 16.5634L55.6688 16.7458C57.6328 16.7458 59.2251 18.3381 59.2251 20.3022V50.6874C59.2251 52.6514 57.6329 54.2437 55.6688 54.2437H11.112C9.14795 54.2437 7.55566 52.6515 7.55566 50.6874V16.5624V16.5624Z" fill="#7E707D"/>
<path fill-rule="evenodd" clip-rule="evenodd" d="M46.1183 30.1046H59.2254V41.2774H46.1183C45.0768 41.2774 44.2246 40.4253 44.2246 39.3838V31.9982C44.2246 30.9567 45.0768 30.1046 46.1183 30.1046Z" fill="#6A5C6B"/>
<path fill-rule="evenodd" clip-rule="evenodd" d="M49.4152 30.1046H59.2251V41.2774H49.4152C48.3737 41.2774 47.5215 40.4253 47.5215 39.3838V31.9982C47.5215 30.9567 48.3737 30.1046 49.4152 30.1046Z" fill="#7E707D"/>
<path d="M27.0781 49.8797C33.301 49.8797 38.3456 44.8351 38.3456 38.6122C38.3456 32.3893 33.301 27.3447 27.0781 27.3447C20.8552 27.3447 15.8105 32.3893 15.8105 38.6122C15.8105 44.8351 20.8552 49.8797 27.0781 49.8797Z" fill="#E77817"/>
<path fill-rule="evenodd" clip-rule="evenodd" d="M33.9354 29.6717C36.6168 31.7314 38.3458 34.9697 38.3458 38.6122C38.3458 44.8351 33.3011 49.8797 27.0783 49.8797C25.8013 49.8797 24.5742 49.6669 23.4299 49.2755C20.7484 47.2158 19.0195 43.9775 19.0195 40.335C19.0195 34.1121 24.0642 29.0675 30.2871 29.0675C31.564 29.0675 32.7911 29.2803 33.9354 29.6717Z" fill="#FFA85C"/>
<path d="M38.3456 38.6122C38.3456 44.835 33.3009 49.8797 27.078 49.8797C20.8552 49.8797 15.8105 44.835 15.8105 38.6122C15.8105 32.3893 20.8552 27.3447 27.078 27.3447C31.6175 27.3447 35.5299 30.0291 37.3146 33.8971" stroke="#26253C" stroke-width="1.5" stroke-miterlimit="22.9256" stroke-linecap="round" stroke-linejoin="round"/>
<path fill-rule="evenodd" clip-rule="evenodd" d="M49.9488 16.724V13.007C49.9488 11.043 48.3565 9.45068 46.3924 9.45068H7.6374C5.67334 9.45068 4.08105 11.0429 4.08105 13.007C4.08105 14.9711 5.67329 16.5634 7.6374 16.5634L49.9487 16.724H49.9488Z" fill="#6A5C6B"/>
<path fill-rule="evenodd" clip-rule="evenodd" d="M49.9484 16.7074V13.007C49.9484 11.043 48.3561 9.45068 46.392 9.45068H12.0007C10.0366 9.45068 8.44434 11.0429 8.44434 13.007C8.44434 14.9711 10.0366 16.5634 12.0007 16.5634L49.9484 16.7075V16.7074Z" fill="#7E707D"/>
<path d="M49.9488 16.724V13.007C49.9488 11.043 48.3565 9.45068 46.3924 9.45068H7.6374C5.67334 9.45068 4.08105 11.0429 4.08105 13.007C4.08105 14.9711 5.67329 16.5634 7.6374 16.5634L41.9533 16.6937M47.5257 16.7148L55.6692 16.7458C57.6332 16.7458 59.2255 18.338 59.2255 20.3021V50.6873C59.2255 52.6513 57.6333 54.2436 55.6692 54.2436H30.6586M24.3898 54.2436H7.63744C5.67338 54.2436 4.0811 52.6514 4.0811 50.6873V13.0071" stroke="#26253C" stroke-width="1.5" stroke-miterlimit="22.9256" stroke-linecap="round" stroke-linejoin="round"/>
<path fill-rule="evenodd" clip-rule="evenodd" d="M22.4384 0.775208C28.6613 0.775208 33.7059 5.81985 33.7059 12.0427C33.7059 13.6954 33.3501 15.2649 32.7109 16.679H12.1659C11.5267 15.265 11.1709 13.6954 11.1709 12.0427C11.1709 5.81985 16.2155 0.775208 22.4384 0.775208Z" fill="#E77817"/>
<path fill-rule="evenodd" clip-rule="evenodd" d="M29.1001 2.9558C31.8925 5.0065 33.7055 8.31266 33.7055 12.0427C33.7055 13.6954 33.3496 15.2649 32.7105 16.679H14.2857C13.9879 15.6679 13.8281 14.5976 13.8281 13.4901C13.8281 7.26718 18.8728 2.22253 25.0956 2.22253C26.5061 2.22253 27.8557 2.48252 29.1001 2.95584V2.9558Z" fill="#FFA85C"/>
<path d="M12.0429 59.2248C18.2658 59.2248 23.3105 54.1802 23.3105 47.9573C23.3105 41.7344 18.2658 36.6898 12.0429 36.6898C5.82004 36.6898 0.775391 41.7344 0.775391 47.9573C0.775391 54.1802 5.82004 59.2248 12.0429 59.2248Z" fill="#E77817"/>
<path fill-rule="evenodd" clip-rule="evenodd" d="M18.3747 38.6363C21.3537 40.6639 23.3104 44.082 23.3104 47.9573C23.3104 54.1802 18.2658 59.2248 12.0429 59.2248C10.8941 59.2248 9.78555 59.0524 8.74131 58.7328C5.76232 56.7052 3.80566 53.2871 3.80566 49.4119C3.80566 43.189 8.85031 38.1443 15.0732 38.1443C16.222 38.1443 17.3305 38.3168 18.3747 38.6363Z" fill="#FFA85C"/>
<path d="M32.7109 16.679H12.1659C11.5267 15.265 11.1709 13.6954 11.1709 12.0427C11.1709 5.81985 16.2155 0.775208 22.4384 0.775208C28.6613 0.775208 33.7059 5.81985 33.7059 12.0427" stroke="#26253C" stroke-width="1.5" stroke-miterlimit="22.9256" stroke-linecap="round" stroke-linejoin="round"/>
<path d="M23.8584 4.94708C26.9928 4.94708 29.5337 7.48805 29.5337 10.6224" stroke="#26253C" stroke-width="1.5" stroke-miterlimit="22.9256" stroke-linecap="round" stroke-linejoin="round"/>
<path d="M50.737 41.2774H46.1183C45.0768 41.2774 44.2246 40.4253 44.2246 39.3838V31.9982C44.2246 30.9567 45.0768 30.1046 46.1183 30.1046H59.2254V41.2774H57.0059" stroke="#26253C" stroke-width="1.5" stroke-miterlimit="22.9256" stroke-linecap="round" stroke-linejoin="round"/>
<path d="M53.3729 37.8276C54.5529 37.8276 55.5095 36.8711 55.5095 35.691C55.5095 34.511 54.5529 33.5544 53.3729 33.5544C52.1929 33.5544 51.2363 34.511 51.2363 35.691C51.2363 36.8711 52.1929 37.8276 53.3729 37.8276Z" stroke="#26253C" stroke-width="1.5" stroke-miterlimit="22.9256" stroke-linecap="round" stroke-linejoin="round"/>
<path d="M12.043 40.4643C14.2222 40.4643 16.1842 41.3947 17.5534 42.8799" stroke="#26253C" stroke-width="1.5" stroke-miterlimit="22.9256" stroke-linecap="round" stroke-linejoin="round"/>
<path d="M30.4805 31.8774C32.4053 32.8993 33.702 34.641 34.2149 36.5948" stroke="#26253C" stroke-width="1.5" stroke-miterlimit="22.9256" stroke-linecap="round" stroke-linejoin="round"/>
<path d="M12.0429 36.6898C18.2658 36.6898 23.3104 41.7344 23.3104 47.9573C23.3104 54.1801 18.2658 59.2248 12.0429 59.2248C5.82003 59.2248 0.775391 54.1801 0.775391 47.9573C0.775391 43.5692 3.28381 39.767 6.94489 37.9064" stroke="#26253C" stroke-width="1.5" stroke-miterlimit="22.9256" stroke-linecap="round" stroke-linejoin="round"/>
</g>
<defs>
<clipPath id="clip0_1429_7942">
<rect width="60" height="60" fill="white"/>
</clipPath>
</defs>
</svg>
