<svg width="60" height="60" viewBox="0 0 60 60" fill="none" xmlns="http://www.w3.org/2000/svg">
<path fill-rule="evenodd" clip-rule="evenodd" d="M16.0479 21.9759C16.0479 21.5616 16.3836 21.2259 16.7979 21.2259H24.668C25.0823 21.2259 25.418 21.5616 25.418 21.9759C25.418 22.3901 25.0823 22.7259 24.668 22.7259H16.7979C16.3836 22.7259 16.0479 22.3901 16.0479 21.9759ZM48.62 21.9759C48.62 21.5616 48.9558 21.2259 49.37 21.2259H59.2251C59.6393 21.2259 59.9751 21.5616 59.9751 21.9759C59.9751 22.3901 59.6393 22.7259 59.2251 22.7259H49.37C48.9558 22.7259 48.62 22.3901 48.62 21.9759ZM48.62 29.2793C48.62 28.8651 48.9558 28.5293 49.37 28.5293H59.2251C59.6393 28.5293 59.9751 28.8651 59.9751 29.2793C59.9751 29.6935 59.6393 30.0293 59.2251 30.0293H49.37C48.9558 30.0293 48.62 29.6935 48.62 29.2793Z" fill="#84828B"/>
<path fill-rule="evenodd" clip-rule="evenodd" d="M37.019 18.4426C33.0508 18.4426 29.834 21.6595 29.834 25.6276C29.834 28.436 31.4452 30.8695 33.7971 32.0516C34.1672 32.2376 34.3164 32.6884 34.1304 33.0585C33.9444 33.4286 33.4936 33.5778 33.1235 33.3918C30.2846 31.965 28.334 29.0247 28.334 25.6276C28.334 20.8311 32.2224 16.9426 37.019 16.9426C41.8155 16.9426 45.7039 20.8311 45.7039 25.6276C45.7039 30.4241 41.8155 34.3126 37.019 34.3126C36.6047 34.3126 36.269 33.9768 36.269 33.5626C36.269 33.1484 36.6047 32.8126 37.019 32.8126C40.9871 32.8126 44.2039 29.5957 44.2039 25.6276C44.2039 21.6595 40.9871 18.4426 37.019 18.4426Z" fill="#84828B"/>
<path fill-rule="evenodd" clip-rule="evenodd" d="M37.0187 13.5005C30.3211 13.5005 24.8916 18.93 24.8916 25.6276C24.8916 25.8535 24.8983 26.0788 24.9107 26.3038C24.9334 26.7174 24.6166 27.0711 24.203 27.0939C23.7894 27.1166 23.4357 26.7998 23.4129 26.3862C23.3992 26.1361 23.3916 25.8832 23.3916 25.6276C23.3916 18.1016 29.4927 12.0005 37.0187 12.0005C37.4329 12.0005 37.7687 12.3363 37.7687 12.7505C37.7687 13.1647 37.4329 13.5005 37.0187 13.5005ZM40.8456 13.3057C40.9913 12.9179 41.4237 12.7217 41.8115 12.8674C46.9718 14.8065 50.6458 19.7871 50.6458 25.6276C50.6458 33.1536 44.5448 39.2547 37.0188 39.2547C33.4545 39.2547 30.2089 37.8847 27.7812 35.6449C27.4768 35.364 27.4577 34.8895 27.7386 34.5851C28.0195 34.2807 28.494 34.2616 28.7984 34.5425C30.96 36.5369 33.8463 37.7547 37.0188 37.7547C43.7163 37.7547 49.1458 32.3251 49.1458 25.6276C49.1458 20.4322 45.8784 15.9981 41.2838 14.2716C40.8961 14.1258 40.6999 13.6934 40.8456 13.3057Z" fill="#84828B"/>
<path fill-rule="evenodd" clip-rule="evenodd" d="M25.773 37.3641C25.858 37.7695 25.5982 38.167 25.1928 38.2519C22.6494 38.7849 21.076 39.3222 19.9478 39.8558C18.9373 40.3338 18.2653 40.8157 17.5241 41.3473C17.4394 41.408 17.3537 41.4694 17.2666 41.5316C15.4986 42.792 13.4319 44.0826 7.00357 45.4296C6.59816 45.5146 6.20065 45.2548 6.1157 44.8494C6.03075 44.444 6.29054 44.0465 6.69595 43.9615C12.9518 42.6507 14.82 41.4336 16.3958 40.3102C16.4808 40.2496 16.5658 40.1886 16.6512 40.1273C17.3922 39.5953 18.1678 39.0384 19.3065 38.4999C20.5743 37.9002 22.2689 37.332 24.8852 36.7838C25.2906 36.6989 25.6881 36.9587 25.773 37.3641Z" fill="#84828B"/>
<path fill-rule="evenodd" clip-rule="evenodd" d="M6.8308 34.8619C6.08881 35.0174 5.72106 35.6491 5.82823 36.1606L8.67607 49.7518C8.78324 50.2633 9.37367 50.6943 10.1157 50.5388L25.0702 47.4053C25.8122 47.2498 26.18 46.6181 26.0728 46.1066L23.2249 32.5154C23.1178 32.0039 22.5274 31.5729 21.7854 31.7284L6.8308 34.8619ZM4.36012 36.4682C4.05604 35.017 5.10559 33.6908 6.52318 33.3938L21.4777 30.2603C22.8953 29.9632 24.389 30.7565 24.6931 32.2078L27.5409 45.799C27.845 47.2502 26.7954 48.5764 25.3778 48.8734L10.4233 52.0069C9.00568 52.304 7.51203 51.5107 7.20795 50.0594L4.36012 36.4682Z" fill="#84828B"/>
<path fill-rule="evenodd" clip-rule="evenodd" d="M23.9065 27.132C24.9318 26.9172 25.9502 27.5827 26.165 28.6081L23.9065 27.132ZM23.9065 27.132L3.04208 31.5038C3.04208 31.5038 3.04208 31.5038 3.04208 31.5038C2.01666 31.7187 1.35117 32.737 1.56602 33.7623L5.73513 53.6592C5.94998 54.6846 6.96835 55.3501 7.99369 55.1353L16.4019 53.3735C16.8073 53.2885 17.2048 53.5483 17.2898 53.9537C17.3747 54.3591 17.1149 54.7566 16.7095 54.8416L8.30128 56.6034C6.46518 56.9881 4.65178 55.803 4.26701 53.9669L0.0979076 34.07C0.0979067 34.07 0.0979086 34.07 0.0979076 34.07C-0.286859 32.2338 0.898245 30.4205 2.73445 30.0357L23.5989 25.6639C25.4349 25.2793 27.2484 26.4642 27.6331 28.3004L31.8022 48.1973C32.1869 50.0334 31.0018 51.8468 29.1657 52.2316L20.9126 53.9609C20.5072 54.0459 20.1096 53.7861 20.0247 53.3807C19.9398 52.9753 20.1995 52.5778 20.6049 52.4928L28.8581 50.7635C29.8834 50.5486 30.5489 49.5303 30.3341 48.505C30.3341 48.505 30.3341 48.505 30.3341 48.505L26.165 28.6081" fill="#84828B"/>
<path fill-rule="evenodd" clip-rule="evenodd" d="M6.54785 17.4729C6.54785 17.0587 6.88364 16.7229 7.29785 16.7229H10.6128C11.5143 16.7229 12.2487 17.4573 12.2487 18.3588V28.9655C12.2487 29.3797 11.9129 29.7155 11.4987 29.7155C11.0845 29.7155 10.7487 29.3797 10.7487 28.9655V18.3588C10.7487 18.2857 10.6859 18.2229 10.6128 18.2229H7.29785C6.88364 18.2229 6.54785 17.8871 6.54785 17.4729Z" fill="#84828B"/>
<path fill-rule="evenodd" clip-rule="evenodd" d="M9.95575 9.60172C8.90809 9.60172 8.04785 10.4619 8.04785 11.5095V29.8458C8.04785 30.26 7.71207 30.5958 7.29785 30.5958C6.88364 30.5958 6.54785 30.26 6.54785 29.8458V11.5095C6.54785 9.63343 8.07973 8.10172 9.95575 8.10172H56.5671C58.4431 8.10172 59.975 9.63354 59.975 11.5095V39.7457C59.975 41.6217 58.4431 43.1535 56.5671 43.1535H47.7865C47.3723 43.1535 47.0365 42.8177 47.0365 42.4035C47.0365 41.9893 47.3723 41.6535 47.7865 41.6535H56.5671C57.6147 41.6535 58.475 40.7933 58.475 39.7457V11.5095C58.475 10.462 57.6147 9.60172 56.5671 9.60172H9.95575ZM29.0716 42.4035C29.0716 41.9893 29.4074 41.6535 29.8216 41.6535H43.05C43.4642 41.6535 43.8 41.9893 43.8 42.4035C43.8 42.8177 43.4642 43.1535 43.05 43.1535H29.8216C29.4074 43.1535 29.0716 42.8177 29.0716 42.4035Z" fill="#84828B"/>
<path fill-rule="evenodd" clip-rule="evenodd" d="M11.2163 5.40081C10.879 5.40519 10.6016 5.68533 10.6016 6.02357V8.10164H16.0481V6.02366C16.0481 5.68274 15.7662 5.40085 15.4253 5.40085H11.2244C11.2217 5.40085 11.219 5.40084 11.2163 5.40081ZM11.2364 3.90085C11.2324 3.90079 11.2284 3.90076 11.2244 3.90076C10.055 3.90076 9.10156 4.85422 9.10156 6.02357V8.85164C9.10156 9.26585 9.43735 9.60164 9.85156 9.60164H16.7432C17.1877 9.60164 17.5481 9.24121 17.5481 8.79673V6.02366C17.5481 4.85432 16.5946 3.90085 15.4253 3.90085H11.2364Z" fill="#84828B"/>
<path fill-rule="evenodd" clip-rule="evenodd" d="M28.6859 5.90453C28.6859 5.90454 28.6859 5.90453 28.6859 5.90453L27.4503 9.12068C27.3018 9.50734 26.8679 9.70038 26.4812 9.55184C26.0946 9.40329 25.9015 8.96942 26.0501 8.58276L27.2856 5.3666C27.4427 4.95765 27.6548 4.46436 27.9863 4.07102C28.3433 3.64735 28.8539 3.32434 29.547 3.32434H42.7025C43.3956 3.32434 43.9062 3.6474 44.2632 4.07107C44.5946 4.46441 44.8067 4.95767 44.9638 5.36655L46.1993 8.58278C46.3478 8.96944 46.1548 9.40331 45.7681 9.55184C45.3815 9.70038 44.9476 9.50733 44.7991 9.12066L43.5636 5.90456C43.4127 5.51187 43.2736 5.22452 43.1161 5.03765C42.9842 4.8811 42.8681 4.82434 42.7025 4.82434H29.547C29.3813 4.82434 29.2652 4.88111 29.1333 5.03762C28.9759 5.22447 28.8367 5.51182 28.6859 5.90453Z" fill="#84828B"/>
<path fill-rule="evenodd" clip-rule="evenodd" d="M16.7979 8.10172C17.2121 8.10172 17.5479 8.4375 17.5479 8.85172V13.542C17.5479 13.9563 17.2121 14.292 16.7979 14.292C16.3836 14.292 16.0479 13.9563 16.0479 13.542V8.85172C16.0479 8.4375 16.3836 8.10172 16.7979 8.10172ZM16.7979 16.4549C17.2121 16.4549 17.5479 16.7907 17.5479 17.2049V27.8552C17.5479 28.2694 17.2121 28.6052 16.7979 28.6052C16.3836 28.6052 16.0479 28.2694 16.0479 27.8552V17.2049C16.0479 16.7907 16.3836 16.4549 16.7979 16.4549Z" fill="#84828B"/>
<path fill-rule="evenodd" clip-rule="evenodd" d="M49.2705 13.4367C49.2705 13.0225 49.6063 12.6867 50.0205 12.6867H53.2056C53.6198 12.6867 53.9556 13.0225 53.9556 13.4367C53.9556 13.851 53.6198 14.1867 53.2056 14.1867H50.0205C49.6063 14.1867 49.2705 13.851 49.2705 13.4367Z" fill="#84828B"/>
</svg>
