<svg width="60" height="60" viewBox="0 0 60 60" fill="none" xmlns="http://www.w3.org/2000/svg">
<g clip-path="url(#clip0_1445_9208)">
<path d="M30.0003 33.1798C31.9798 33.1798 33.5845 31.575 33.5845 29.5955C33.5845 27.616 31.9798 26.0113 30.0003 26.0113C28.0207 26.0113 26.416 27.616 26.416 29.5955C26.416 31.575 28.0207 33.1798 30.0003 33.1798Z" fill="#6A5C6B"/>
<path fill-rule="evenodd" clip-rule="evenodd" d="M30.0003 26.7613C28.4349 26.7613 27.166 28.0302 27.166 29.5955C27.166 31.1608 28.4349 32.4298 30.0003 32.4298C31.5656 32.4298 32.8345 31.1608 32.8345 29.5955C32.8345 28.0302 31.5656 26.7613 30.0003 26.7613ZM25.666 29.5955C25.666 27.2018 27.6065 25.2613 30.0003 25.2613C32.394 25.2613 34.3345 27.2018 34.3345 29.5955C34.3345 31.9893 32.394 33.9298 30.0003 33.9298C27.6065 33.9298 25.666 31.9893 25.666 29.5955Z" fill="#26253C"/>
<path fill-rule="evenodd" clip-rule="evenodd" d="M0.775568 2.41086C0.775568 1.50749 1.5079 0.775208 2.41122 0.775208H9.49247C10.3958 0.775208 11.1281 1.50754 11.1281 2.41086V9.02739C11.1281 9.93075 11.8605 10.663 12.7638 10.663H13.968H15.1722C16.0756 10.663 16.8079 9.93071 16.8079 9.02739V2.41086C16.8079 1.50749 17.5402 0.775208 18.4435 0.775208H25.5248C26.4281 0.775208 27.1604 1.50754 27.1604 2.41086V9.02739C27.1604 9.93075 27.8927 10.663 28.7961 10.663H30.0003H31.2045C32.1079 10.663 32.8402 9.93071 32.8402 9.02739V2.41086C32.8402 1.50749 33.5725 0.775208 34.4758 0.775208H41.557C42.4604 0.775208 43.1927 1.50754 43.1927 2.41086V9.02739C43.1927 9.93075 43.925 10.663 44.8283 10.663H46.0326H47.2368C48.1402 10.663 48.8725 9.93071 48.8725 9.02739V2.41086C48.8725 1.50749 49.6048 0.775208 50.5081 0.775208H57.5894C58.4927 0.775208 59.225 1.50754 59.225 2.41086V57.5892C59.225 58.4925 58.4927 59.2248 57.5894 59.2248H41.0869L41.087 39.9489C41.087 36.6301 39.4196 33.7007 36.8769 31.9528L30.0001 27.3505L23.1234 31.9528C20.5806 33.7007 18.9132 36.6301 18.9132 39.9489L18.9133 59.2248H2.41104C1.50768 59.2248 0.775391 58.4925 0.775391 57.5892V2.41086H0.775568Z" fill="#AB3C00"/>
<path fill-rule="evenodd" clip-rule="evenodd" d="M5.55691 0.775208H9.49287C10.3962 0.775208 11.1285 1.50754 11.1285 2.41086V9.02739C11.1285 9.93075 11.8609 10.663 12.7642 10.663H13.9684H15.1726C15.2993 10.663 15.4227 10.6486 15.5411 10.6214C15.6594 10.6486 15.7827 10.663 15.9094 10.663H17.1136H18.3179C19.2212 10.663 19.9535 9.93071 19.9535 9.02739V2.41086C19.9535 1.50749 20.6859 0.775208 21.5892 0.775208H25.5251C26.4285 0.775208 27.1608 1.50754 27.1608 2.41086V9.02739C27.1608 9.93075 27.8931 10.663 28.7964 10.663H30.0007H31.2049C31.3316 10.663 31.4549 10.6486 31.5733 10.6214C31.6917 10.6486 31.815 10.663 31.9417 10.663H33.1459H34.3501C35.2535 10.663 35.9858 9.93071 35.9858 9.02739V2.41086C35.9858 1.50749 36.7181 0.775208 37.6214 0.775208H41.5574C42.4607 0.775208 43.193 1.50754 43.193 2.41086V9.02739C43.193 9.93075 43.9253 10.663 44.8287 10.663H46.0329H47.2371C47.3638 10.663 47.4871 10.6486 47.6055 10.6214C47.7239 10.6486 47.8472 10.663 47.9739 10.663H49.1781H50.3824C51.2857 10.663 52.018 9.93071 52.018 9.02739V2.41086C52.018 1.50749 52.7503 0.775208 53.6537 0.775208H57.5896C58.493 0.775208 59.2253 1.50754 59.2253 2.41086V57.5892C59.2253 58.4925 58.493 59.2248 57.5896 59.2248H44.2325L44.2325 39.9489C44.2325 36.6301 42.5651 33.7007 40.0224 31.9528L33.1457 27.3505L31.573 28.403L30.0003 27.3505L23.1236 31.9528C20.5809 33.7007 18.9135 36.6301 18.9135 39.9489L18.9135 59.2248H5.55655C4.65319 59.2248 3.9209 58.4925 3.9209 57.5892V2.41086C3.9209 1.50749 4.65323 0.775208 5.55655 0.775208H5.55691Z" fill="#E77817"/>
<path d="M14.4838 39.0568H7.71585C7.32751 39.0568 7.0127 39.3716 7.0127 39.76V42.221C7.0127 42.6094 7.32751 42.9242 7.71585 42.9242H14.4838C14.8721 42.9242 15.1869 42.6094 15.1869 42.221V39.76C15.1869 39.3716 14.8721 39.0568 14.4838 39.0568Z" fill="#E77817"/>
<path fill-rule="evenodd" clip-rule="evenodd" d="M7.7627 39.8068V42.1742H14.4369V39.8068H7.7627ZM6.2627 39.76C6.2627 38.9574 6.91329 38.3068 7.71585 38.3068H14.4838C15.2863 38.3068 15.9369 38.9574 15.9369 39.76V42.221C15.9369 43.0236 15.2863 43.6742 14.4838 43.6742H7.71585C6.91329 43.6742 6.2627 43.0236 6.2627 42.221V39.76Z" fill="#26253C"/>
<path fill-rule="evenodd" clip-rule="evenodd" d="M49.4723 46.9501H53.2695C53.6082 46.9501 53.8853 47.2665 53.8853 47.6533V50.1144C53.8853 50.5011 53.6082 50.8175 53.2695 50.8175H49.4723C49.1336 50.8175 48.8564 50.5011 48.8564 50.1144V47.6533C48.8564 47.2665 49.1336 46.9501 49.4723 46.9501Z" fill="#FFA85C"/>
<path fill-rule="evenodd" clip-rule="evenodd" d="M46.4609 47.7001V50.0675H53.1352V47.7001H46.4609ZM44.9609 47.6533C44.9609 46.8507 45.6115 46.2001 46.4141 46.2001H53.182C53.9846 46.2001 54.6352 46.8507 54.6352 47.6533V50.1144C54.6352 50.9169 53.9846 51.5675 53.182 51.5675H46.4141C45.6115 51.5675 44.9609 50.9169 44.9609 50.1144V47.6533Z" fill="#26253C"/>
<path fill-rule="evenodd" clip-rule="evenodd" d="M49.2262 59.2248H41.0867L41.0867 39.9489C41.0867 36.6301 39.4193 33.7007 36.8766 31.9528L29.9999 27.3505L23.1231 31.9528C20.5804 33.7007 18.913 36.6301 18.913 39.9489L18.9131 59.2248H10.7735L10.7734 38.1315C10.7734 33.4228 13.1818 29.2766 16.8337 26.8574L29.9998 18.0482L43.1659 26.8574C46.8179 29.2766 49.2262 33.4228 49.2262 38.1315L49.2261 59.2248H49.2262Z" fill="#84828B"/>
<path fill-rule="evenodd" clip-rule="evenodd" d="M49.2268 59.2248H43.4178L43.4179 39.9489C43.4179 36.6301 41.7505 33.7006 39.2078 31.9528L30.7513 26.9611L30.0005 27.3506L23.1238 31.9528C20.5811 33.7007 18.9137 36.6301 18.9137 39.9489L18.9138 59.2249H13.88L13.8799 38.1316C13.8799 33.4229 16.2882 29.2766 19.9402 26.8574L31.5534 19.0872L43.1666 26.8574C46.8186 29.2767 49.2269 33.4229 49.2269 38.1316L49.2268 59.2249V59.2248Z" fill="#D0CFD4"/>
<path fill-rule="evenodd" clip-rule="evenodd" d="M0.775391 52.9244V49.057H6.55977C6.94653 49.057 7.26292 49.3734 7.26292 49.7602V52.2212C7.26292 52.608 6.94653 52.9244 6.55977 52.9244H0.775391Z" fill="#E77817"/>
<path fill-rule="evenodd" clip-rule="evenodd" d="M3.9209 52.9244V49.057H6.55995C6.94672 49.057 7.26311 49.3734 7.26311 49.7602V52.2212C7.26311 52.608 6.94672 52.9244 6.55995 52.9244H3.9209Z" fill="#FFA85C"/>
<path d="M29.2257 33.1798C29.2257 32.7517 29.5728 32.4045 30.0009 32.4045C30.429 32.4045 30.7761 32.7517 30.7761 33.1798V41.1977H34.2364V37.1078C34.2364 36.6797 34.5835 36.3326 35.0116 36.3326C35.4397 36.3326 35.7868 36.6797 35.7868 37.1078V41.1977H37.2509C37.679 41.1977 38.0261 41.5448 38.0261 41.9729C38.0261 42.401 37.679 42.7481 37.2509 42.7481H35.7868V47.1745H37.2509C37.679 47.1745 38.0261 47.5217 38.0261 47.9498C38.0261 48.3778 37.679 48.725 37.2509 48.725H35.7868V53.1514H37.2509C37.679 53.1514 38.0261 53.4985 38.0261 53.9266C38.0261 54.3547 37.679 54.7018 37.2509 54.7018H35.7868V58.0577C35.7868 58.4858 35.4397 58.8329 35.0116 58.8329C34.5835 58.8329 34.2364 58.4858 34.2364 58.0577V54.7018H30.7761V58.0577C30.7761 58.4858 30.429 58.8329 30.0009 58.8329C29.5728 58.8329 29.2257 58.4858 29.2257 58.0577V54.7018H25.7651V58.0577C25.7651 58.4858 25.418 58.8329 24.9899 58.8329C24.5618 58.8329 24.2147 58.4858 24.2147 58.0577V54.7018H22.7508C22.3227 54.7018 21.9756 54.3547 21.9756 53.9266C21.9756 53.4985 22.3227 53.1514 22.7508 53.1514H24.2147V48.725H22.7508C22.3227 48.725 21.9756 48.3778 21.9756 47.9498C21.9756 47.5217 22.3227 47.1745 22.7508 47.1745H24.2147V42.7481H22.7508C22.3227 42.7481 21.9756 42.401 21.9756 41.9729C21.9756 41.5448 22.3227 41.1977 22.7508 41.1977H24.2147V37.1078C24.2147 36.6797 24.5618 36.3326 24.9899 36.3326C25.418 36.3326 25.7651 36.6797 25.7651 37.1078V41.1977H29.2257V33.1798ZM34.2364 53.1513V48.7249H30.776V53.1513H34.2364ZM29.2257 53.1513V48.7249H25.7651V53.1513H29.2257ZM34.2364 47.1745V42.748H30.776V47.1745H34.2364ZM29.2257 47.1745V42.748H25.7651V47.1745H29.2257Z" fill="#26253C"/>
<path fill-rule="evenodd" clip-rule="evenodd" d="M29.5828 17.4249C29.8352 17.256 30.1645 17.256 30.4169 17.4249L43.5801 26.2321C43.5807 26.2325 43.5812 26.2329 43.5818 26.2333C47.4336 28.7857 49.9762 33.1615 49.9762 38.1315L49.9761 59.2248C49.9761 59.639 49.6403 59.9748 49.2261 59.9748C48.8119 59.9748 48.4761 59.639 48.4761 59.2248L48.4762 38.1315C48.4762 33.6849 46.2029 29.7689 42.7517 27.4826L42.7489 27.4807L29.9998 18.9506L17.2508 27.4807C16.9065 27.7111 16.4407 27.6187 16.2104 27.2745C15.98 26.9302 16.0724 26.4644 16.4167 26.2341L29.5828 17.4249ZM14.7543 28.524C15.0618 28.8015 15.0862 29.2758 14.8087 29.5833C12.7662 31.8466 11.5234 34.8431 11.5234 38.1315L11.5235 59.2248C11.5235 59.639 11.1877 59.9748 10.7735 59.9748C10.3593 59.9748 10.0235 59.639 10.0235 59.2248L10.0234 38.1315C10.0234 34.4576 11.4136 31.1065 13.6951 28.5784C13.9726 28.2708 14.4468 28.2465 14.7543 28.524Z" fill="#26253C"/>
<path d="M10.7742 49.6853C10.3461 49.6853 9.99902 49.3382 9.99902 48.9101C9.99902 48.482 10.3461 48.1349 10.7742 48.1349H18.9137C19.3418 48.1349 19.689 48.482 19.689 48.9101C19.689 49.3382 19.3418 49.6853 18.9137 49.6853H10.7742ZM49.2269 48.1349C49.655 48.1349 50.0021 48.482 50.0021 48.9101C50.0021 49.3382 49.655 49.6853 49.2269 49.6853H41.0874C40.6593 49.6853 40.3122 49.3382 40.3122 48.9101C40.3122 48.482 40.6593 48.1349 41.0874 48.1349H49.2269ZM48.822 35.3415C49.2367 35.2429 49.6529 35.4991 49.7516 35.9138C49.8503 36.3285 49.594 36.7448 49.1793 36.8434L41.2661 38.7493C40.8514 38.848 40.4351 38.5917 40.3365 38.177C40.2378 37.7623 40.4941 37.3461 40.9088 37.2474L48.822 35.3415ZM40.135 24.7971C40.3841 24.451 40.8668 24.3723 41.2129 24.6215C41.5591 24.8707 41.6377 25.3534 41.3886 25.6995L36.9188 31.9144C36.6696 32.2606 36.1869 32.3392 35.8408 32.09C35.4946 31.8409 35.416 31.3582 35.6652 31.0121L40.135 24.7971ZM29.2255 18.0482C29.2255 17.6201 29.5726 17.2729 30.0007 17.2729C30.4288 17.2729 30.7759 17.6201 30.7759 18.0482V26.767C30.7759 27.1951 30.4288 27.5422 30.0007 27.5422C29.5726 27.5422 29.2255 27.1951 29.2255 26.767V18.0482ZM18.6126 25.6995C18.3634 25.3533 18.442 24.8707 18.7882 24.6215C19.1343 24.3723 19.617 24.451 19.8661 24.7971L24.3359 31.0121C24.5851 31.3582 24.5065 31.8409 24.1603 32.09C23.8142 32.3392 23.3315 32.2606 23.0823 31.9144L18.6126 25.6995ZM10.8219 36.8434C10.4072 36.7447 10.1509 36.3285 10.2496 35.9138C10.3482 35.4991 10.7645 35.2428 11.1792 35.3415L19.0924 37.2474C19.5071 37.346 19.7634 37.7623 19.6647 38.177C19.566 38.5917 19.1498 38.8479 18.7351 38.7493L10.8219 36.8434Z" fill="#26253C"/>
<path fill-rule="evenodd" clip-rule="evenodd" d="M0.0253906 49.057C0.0253906 48.6428 0.361177 48.307 0.775391 48.307H6.55977C7.36075 48.307 8.01292 48.9592 8.01292 49.7602V52.2212C8.01292 53.0222 7.36075 53.6744 6.55977 53.6744H0.775391C0.361177 53.6744 0.0253906 53.3386 0.0253906 52.9244V49.057ZM1.52539 49.807V52.1744H6.51292V49.807H1.52539Z" fill="#26253C"/>
<path d="M8.24646 19.0558H1.47854C1.0902 19.0558 0.775391 19.3707 0.775391 19.759V22.2201C0.775391 22.6084 1.0902 22.9232 1.47854 22.9232H8.24646C8.6348 22.9232 8.94962 22.6084 8.94962 22.2201V19.759C8.94962 19.3707 8.6348 19.0558 8.24646 19.0558Z" fill="#E77817"/>
<path fill-rule="evenodd" clip-rule="evenodd" d="M4.53678 19.0558H8.33391C8.67265 19.0558 8.9498 19.3722 8.9498 19.759V22.2201C8.9498 22.6068 8.67265 22.9232 8.33391 22.9232H4.53678C4.19805 22.9232 3.9209 22.6068 3.9209 22.2201V19.759C3.9209 19.3722 4.19805 19.0558 4.53678 19.0558Z" fill="#FFA85C"/>
<path fill-rule="evenodd" clip-rule="evenodd" d="M1.52539 19.8058V22.1732H8.19962V19.8058H1.52539ZM0.0253906 19.759C0.0253906 18.9564 0.675988 18.3058 1.47854 18.3058H8.24646C9.04902 18.3058 9.69962 18.9565 9.69962 19.759V22.2201C9.69962 23.0226 9.04902 23.6732 8.24646 23.6732H1.47854C0.675991 23.6732 0.0253906 23.0226 0.0253906 22.2201V19.759Z" fill="#26253C"/>
<path d="M15.3549 14.9172H8.58694C8.1986 14.9172 7.88379 15.232 7.88379 15.6204V18.0815C7.88379 18.4698 8.1986 18.7846 8.58694 18.7846H15.3549C15.7432 18.7846 16.058 18.4698 16.058 18.0815V15.6204C16.058 15.232 15.7432 14.9172 15.3549 14.9172Z" fill="#E77817"/>
<path fill-rule="evenodd" clip-rule="evenodd" d="M11.6452 14.9172H15.4423C15.7811 14.9172 16.0582 15.2336 16.0582 15.6204V18.0815C16.0582 18.4682 15.7811 18.7846 15.4423 18.7846H11.6452C11.3064 18.7846 11.0293 18.4682 11.0293 18.0815V15.6204C11.0293 15.2336 11.3064 14.9172 11.6452 14.9172Z" fill="#FFA85C"/>
<path fill-rule="evenodd" clip-rule="evenodd" d="M8.63379 15.6672V18.0346H11.0603C11.4745 18.0346 11.8103 18.3704 11.8103 18.7846C11.8103 19.1988 11.4745 19.5346 11.0603 19.5346H8.58694C7.78597 19.5346 7.13379 18.8824 7.13379 18.0815V15.6204C7.13379 14.8194 7.78596 14.1672 8.58694 14.1672H15.3548C16.1558 14.1672 16.808 14.8194 16.808 15.6204V18.0815C16.808 18.8824 16.1558 19.5346 15.3548 19.5346H14.3299C13.9157 19.5346 13.5799 19.1988 13.5799 18.7846C13.5799 18.3704 13.9157 18.0346 14.3299 18.0346H15.308V15.6672H8.63379Z" fill="#26253C"/>
<path d="M45.1537 14.9172H38.3858C37.9974 14.9172 37.6826 15.232 37.6826 15.6204V18.0815C37.6826 18.4698 37.9974 18.7846 38.3858 18.7846H45.1537C45.542 18.7846 45.8568 18.4698 45.8568 18.0815V15.6204C45.8568 15.232 45.542 14.9172 45.1537 14.9172Z" fill="#E77817"/>
<path fill-rule="evenodd" clip-rule="evenodd" d="M41.444 14.9172H45.2411C45.5799 14.9172 45.857 15.2336 45.857 15.6204V18.0815C45.857 18.4682 45.5799 18.7846 45.2411 18.7846H41.444C41.1053 18.7846 40.8281 18.4682 40.8281 18.0815V15.6204C40.8281 15.2336 41.1053 14.9172 41.444 14.9172Z" fill="#FFA85C"/>
<path fill-rule="evenodd" clip-rule="evenodd" d="M38.4326 15.6672V18.0346H45.1068V15.6672H38.4326ZM36.9326 15.6204C36.9326 14.8178 37.5832 14.1672 38.3858 14.1672H45.1537C45.9562 14.1672 46.6068 14.8178 46.6068 15.6204V18.0815C46.6068 18.884 45.9562 19.5346 45.1537 19.5346H38.3858C37.5832 19.5346 36.9326 18.884 36.9326 18.0815V15.6204Z" fill="#26253C"/>
<path d="M54.5062 19.1387H47.7383C47.35 19.1387 47.0352 19.4535 47.0352 19.8418V22.3029C47.0352 22.6912 47.35 23.006 47.7383 23.006H54.5062C54.8946 23.006 55.2094 22.6912 55.2094 22.3029V19.8418C55.2094 19.4535 54.8946 19.1387 54.5062 19.1387Z" fill="#E77817"/>
<path fill-rule="evenodd" clip-rule="evenodd" d="M50.7966 19.1387H54.5937C54.9324 19.1387 55.2096 19.4551 55.2096 19.8418V22.3029C55.2096 22.6897 54.9324 23.006 54.5937 23.006H50.7966C50.4578 23.006 50.1807 22.6897 50.1807 22.3029V19.8418C50.1807 19.4551 50.4578 19.1387 50.7966 19.1387Z" fill="#FFA85C"/>
<path fill-rule="evenodd" clip-rule="evenodd" d="M47.7852 19.8887H50.2459C50.6601 19.8887 50.9959 19.5529 50.9959 19.1387C50.9959 18.7245 50.6601 18.3887 50.2459 18.3887H47.7383C46.9373 18.3887 46.2852 19.0409 46.2852 19.8418V22.3029C46.2852 23.1039 46.9373 23.756 47.7383 23.756H54.5062C55.3072 23.756 55.9593 23.1039 55.9593 22.3029V19.8418C55.9593 19.0409 55.3072 18.3887 54.5062 18.3887H53.5226C53.1084 18.3887 52.7726 18.7245 52.7726 19.1387C52.7726 19.5529 53.1084 19.8887 53.5226 19.8887H54.4593V22.256H47.7852V19.8887Z" fill="#26253C"/>
<path fill-rule="evenodd" clip-rule="evenodd" d="M53.6983 32.8788H59.2251V36.7462H53.6983C53.3115 36.7462 52.9951 36.4298 52.9951 36.043V33.582C52.9951 33.1952 53.3115 32.8788 53.6983 32.8788Z" fill="#E77817"/>
<path fill-rule="evenodd" clip-rule="evenodd" d="M56.7565 32.8788H59.2253V36.7462H56.7565C56.4178 36.7462 56.1406 36.4298 56.1406 36.043V33.582C56.1406 33.1952 56.4178 32.8788 56.7565 32.8788Z" fill="#FFA85C"/>
<path fill-rule="evenodd" clip-rule="evenodd" d="M53.7451 33.6288V35.9962H58.4751V33.6288H53.7451ZM52.2451 33.582C52.2451 32.781 52.8973 32.1288 53.6983 32.1288H59.2251C59.6393 32.1288 59.9751 32.4646 59.9751 32.8788V36.7462C59.9751 37.1604 59.6393 37.4962 59.2251 37.4962H53.6983C52.8973 37.4962 52.2451 36.844 52.2451 36.043V33.582Z" fill="#26253C"/>
<path fill-rule="evenodd" clip-rule="evenodd" d="M2.41104 1.52515C1.92192 1.52515 1.52539 1.92166 1.52539 2.4108V57.5891C1.52539 58.0782 1.9219 58.4748 2.41104 58.4748H18.1633L18.1632 39.9488C18.1632 36.3726 19.9609 33.2165 22.6985 31.3347L22.7062 31.3294L29.583 26.7272C29.8354 26.5582 30.1648 26.5582 30.4172 26.7272L37.3017 31.3346C37.8826 31.7339 38.421 32.1904 38.9088 32.696C39.1964 32.994 39.1879 33.4688 38.8898 33.7564C38.5917 34.0441 38.1169 34.0356 37.8293 33.7375C37.4123 33.3052 36.952 32.9149 36.4558 32.5734C36.4545 32.5725 36.4533 32.5716 36.452 32.5708L30.0001 28.2529L23.5444 32.5734C21.1987 34.1877 19.6632 36.889 19.6632 39.9488L19.6633 59.2248C19.6633 59.4237 19.5843 59.6144 19.4437 59.7551C19.303 59.8957 19.1122 59.9748 18.9133 59.9748H2.41104C1.09345 59.9748 0.0253906 58.9066 0.0253906 57.5891V2.4108C0.0253906 1.09321 1.09352 0.0251465 2.41104 0.0251465H9.49229C10.8099 0.0251465 11.8779 1.09328 11.8779 2.4108V9.02733C11.8779 9.51646 12.2745 9.91298 12.7636 9.91298H15.1721C15.6612 9.91298 16.0577 9.51645 16.0577 9.02733V2.4108C16.0577 1.09321 17.1258 0.0251465 18.4434 0.0251465H21.2463C21.6605 0.0251465 21.9963 0.360933 21.9963 0.775146C21.9963 1.18936 21.6605 1.52515 21.2463 1.52515H18.4434C17.9542 1.52515 17.5577 1.92166 17.5577 2.4108V9.02733C17.5577 10.3448 16.4897 11.413 15.1721 11.413H12.7636C11.4461 11.413 10.3779 10.3449 10.3779 9.02733V2.4108C10.3779 1.92168 9.98143 1.52515 9.49229 1.52515H2.41104ZM24.7748 0.775191C24.7748 0.360977 25.1106 0.0251909 25.5248 0.0251909C26.8424 0.0251909 27.9104 1.09332 27.9104 2.41084V9.02737C27.9104 9.51651 28.307 9.91302 28.7961 9.91302H31.2046C31.6937 9.91302 32.0902 9.51649 32.0902 9.02737V2.41084C32.0902 1.09325 33.1584 0.0251909 34.4759 0.0251909H41.5571C42.8747 0.0251909 43.9427 1.09332 43.9427 2.41084V9.02737C43.9427 9.51651 44.3393 9.91302 44.8284 9.91302H47.2368C47.726 9.91302 48.1225 9.51649 48.1225 9.02737V2.41084C48.1225 1.09325 49.1906 0.0251909 50.5082 0.0251909H57.5894C58.907 0.0251909 59.9751 1.09332 59.9751 2.41084V20.1262C59.9751 20.5404 59.6393 20.8762 59.2251 20.8762C58.8108 20.8762 58.4751 20.5404 58.4751 20.1262V2.41084C58.4751 1.92172 58.0785 1.52519 57.5894 1.52519H50.5082C50.019 1.52519 49.6225 1.9217 49.6225 2.41084V9.02737C49.6225 10.3449 48.5544 11.413 47.2368 11.413H44.8284C43.5109 11.413 42.4427 10.345 42.4427 9.02737V2.41084C42.4427 1.92172 42.0462 1.52519 41.5571 1.52519H34.4759C33.9868 1.52519 33.5902 1.92171 33.5902 2.41084V9.02737C33.5902 10.3449 32.5222 11.413 31.2046 11.413H28.7961C27.4786 11.413 26.4104 10.345 26.4104 9.02737V2.41084C26.4104 1.92172 26.0139 1.52519 25.5248 1.52519C25.1106 1.52519 24.7748 1.1894 24.7748 0.775191ZM59.2251 24.8683C59.6393 24.8683 59.9751 25.2041 59.9751 25.6183V57.5892C59.9751 58.9067 58.9069 59.9748 57.5894 59.9748H41.0869C40.888 59.9748 40.6973 59.8958 40.5566 59.7551C40.416 59.6145 40.3369 59.4237 40.3369 59.2248L40.337 39.9489C40.337 38.6994 40.0813 37.5115 39.62 36.4333C39.4571 36.0524 39.6338 35.6116 40.0146 35.4487C40.3954 35.2858 40.8362 35.4625 40.9991 35.8433C41.5387 37.1046 41.837 38.4928 41.837 39.9489L41.8369 58.4748H57.5894C58.0785 58.4748 58.4751 58.0783 58.4751 57.5892V25.6183C58.4751 25.2041 58.8108 24.8683 59.2251 24.8683Z" fill="#26253C"/>
</g>
<defs>
<clipPath id="clip0_1445_9208">
<rect width="60" height="60" fill="white"/>
</clipPath>
</defs>
</svg>
