<svg width="60" height="60" viewBox="0 0 60 60" fill="none" xmlns="http://www.w3.org/2000/svg">
<g clip-path="url(#clip0_1445_9192)">
<path fill-rule="evenodd" clip-rule="evenodd" d="M33.6287 29.1046C34.0419 29.1339 34.3531 29.4926 34.3238 29.9058C34.1643 32.1551 32.2899 33.9297 30.0005 33.9297C27.7188 33.9297 25.8491 32.1668 25.679 29.928C25.6476 29.515 25.9569 29.1547 26.3699 29.1233C26.783 29.0919 27.1432 29.4013 27.1746 29.8143C27.2858 31.2769 28.509 32.4297 30.0005 32.4297C31.4971 32.4297 32.7233 31.2693 32.8276 29.7997C32.8569 29.3865 33.2156 29.0753 33.6287 29.1046Z" fill="#84828B"/>
<path fill-rule="evenodd" clip-rule="evenodd" d="M38.4326 15.6673V18.0346H45.1068V15.6673H38.4326ZM36.9326 15.6205C36.9326 14.8179 37.5832 14.1673 38.3858 14.1673H45.1536C45.9562 14.1673 46.6068 14.8179 46.6068 15.6205V18.0814C46.6068 18.884 45.9562 19.5346 45.1536 19.5346H38.3858C37.5832 19.5346 36.9326 18.884 36.9326 18.0814V15.6205Z" fill="#84828B"/>
<path d="M29.2256 33.1798C29.2256 32.7517 29.5727 32.4046 30.0008 32.4046C30.4289 32.4046 30.776 32.7517 30.776 33.1798V41.1977H34.2364V37.1079C34.2364 36.6798 34.5835 36.3327 35.0116 36.3327C35.4397 36.3327 35.7868 36.6798 35.7868 37.1079V41.1977H37.2509C37.679 41.1977 38.0261 41.5448 38.0261 41.9729C38.0261 42.401 37.679 42.7481 37.2509 42.7481H35.7868V47.1745H37.2509C37.679 47.1745 38.0261 47.5216 38.0261 47.9497C38.0261 48.3778 37.679 48.7249 37.2509 48.7249H35.7868V53.1514H37.2509C37.679 53.1514 38.0261 53.4985 38.0261 53.9266C38.0261 54.3547 37.679 54.7018 37.2509 54.7018H35.7868V58.0577C35.7868 58.4858 35.4397 58.8329 35.0116 58.8329C34.5835 58.8329 34.2364 58.4858 34.2364 58.0577V54.7018H30.776V58.0577C30.776 58.4858 30.4289 58.8329 30.0008 58.8329C29.5727 58.8329 29.2256 58.4858 29.2256 58.0577V54.7018H25.7651V58.0577C25.7651 58.4858 25.418 58.8329 24.9899 58.8329C24.5618 58.8329 24.2147 58.4858 24.2147 58.0577V54.7018H22.7508C22.3227 54.7018 21.9756 54.3547 21.9756 53.9266C21.9756 53.4985 22.3227 53.1514 22.7508 53.1514H24.2147V48.7249H22.7508C22.3227 48.7249 21.9756 48.3778 21.9756 47.9497C21.9756 47.5216 22.3227 47.1745 22.7508 47.1745H24.2147V42.7481H22.7508C22.3227 42.7481 21.9756 42.401 21.9756 41.9729C21.9756 41.5448 22.3227 41.1977 22.7508 41.1977H24.2147V37.1079C24.2147 36.6798 24.5618 36.3327 24.9899 36.3327C25.418 36.3327 25.7651 36.6798 25.7651 37.1079V41.1977H29.2256V33.1798ZM34.2363 53.1514V48.7249H30.7759V53.1514H34.2363ZM29.2256 53.1514V48.7249H25.7651V53.1514H29.2256ZM34.2363 47.1745V42.7481H30.7759V47.1745H34.2363ZM29.2256 47.1745V42.7481H25.7651V47.1745H29.2256Z" fill="#84828B"/>
<path fill-rule="evenodd" clip-rule="evenodd" d="M29.5828 17.4249C29.8352 17.2561 30.1645 17.2561 30.4169 17.4249L43.5802 26.2322C43.5806 26.2325 43.581 26.2328 43.5815 26.233C47.4335 28.7854 49.9762 33.1614 49.9762 38.1316L49.9762 59.2248C49.9762 59.6391 49.6404 59.9748 49.2262 59.9748C48.8119 59.9748 48.4762 59.639 48.4762 59.2248L48.4762 38.1316C48.4762 33.6849 46.2029 29.7689 42.7518 27.4827L42.7489 27.4808L29.9998 18.9507L17.2508 27.4808C16.9065 27.7111 16.4407 27.6188 16.2104 27.2745C15.98 26.9302 16.0724 26.4644 16.4166 26.2341L29.5828 17.4249ZM14.7543 28.524C15.0619 28.8015 15.0862 29.2758 14.8087 29.5833C12.7662 31.8466 11.5234 34.8431 11.5234 38.1316L11.5235 59.2248C11.5235 59.639 11.1877 59.9748 10.7735 59.9748C10.3593 59.9748 10.0235 59.6391 10.0235 59.2248L10.0234 38.1316C10.0234 34.4576 11.4136 31.1065 13.6951 28.5784C13.9726 28.2709 14.4468 28.2465 14.7543 28.524Z" fill="#84828B"/>
<path d="M10.7742 49.6853C10.3461 49.6853 9.99902 49.3382 9.99902 48.9101C9.99902 48.482 10.3461 48.1349 10.7742 48.1349H18.9137C19.3418 48.1349 19.6889 48.482 19.6889 48.9101C19.6889 49.3382 19.3418 49.6853 18.9137 49.6853H10.7742ZM49.2269 48.1349C49.655 48.1349 50.0021 48.482 50.0021 48.9101C50.0021 49.3382 49.655 49.6853 49.2269 49.6853H41.0874C40.6593 49.6853 40.3122 49.3382 40.3122 48.9101C40.3122 48.482 40.6593 48.1349 41.0874 48.1349H49.2269ZM48.822 35.3416C49.2367 35.2429 49.6529 35.4992 49.7516 35.9138C49.8502 36.3286 49.5939 36.7448 49.1793 36.8434L41.266 38.7493C40.8513 38.8479 40.4351 38.5917 40.3364 38.177C40.2378 37.7623 40.4941 37.3461 40.9087 37.2474L48.822 35.3416ZM40.135 24.7972C40.3842 24.451 40.8669 24.3724 41.2131 24.6216C41.5592 24.8707 41.6378 25.3535 41.3887 25.6996L36.9189 31.9145C36.6697 32.2607 36.187 32.3393 35.8409 32.0901C35.4947 31.841 35.4161 31.3582 35.6653 31.0121L40.135 24.7972ZM29.2255 18.0483C29.2255 17.6202 29.5726 17.2731 30.0007 17.2731C30.4288 17.2731 30.7759 17.6202 30.7759 18.0483V26.7671C30.7759 27.1952 30.4288 27.5423 30.0007 27.5423C29.5726 27.5423 29.2255 27.1952 29.2255 26.7671V18.0483ZM18.6126 25.6996C18.3634 25.3535 18.4421 24.8707 18.7882 24.6216C19.1343 24.3724 19.6171 24.451 19.8662 24.7972L24.336 31.0121C24.5852 31.3582 24.5065 31.841 24.1604 32.0901C23.8142 32.3393 23.3315 32.2607 23.0823 31.9145L18.6126 25.6996ZM10.8219 36.8435C10.4071 36.7449 10.1509 36.3286 10.2496 35.9139C10.3482 35.4992 10.7645 35.2429 11.1792 35.3417L19.0924 37.2475C19.5072 37.3462 19.7634 37.7625 19.6647 38.1771C19.5661 38.5919 19.1498 38.8481 18.7351 38.7494L10.8219 36.8435Z" fill="#84828B"/>
<path fill-rule="evenodd" clip-rule="evenodd" d="M47.7852 19.8886H50.2459C50.6601 19.8886 50.9959 19.5528 50.9959 19.1386C50.9959 18.7244 50.6601 18.3886 50.2459 18.3886H47.7383C46.9373 18.3886 46.2852 19.0409 46.2852 19.8418V22.3028C46.2852 23.1039 46.9375 23.756 47.7383 23.756H54.5063C55.3074 23.756 55.9595 23.1037 55.9595 22.3028V19.8418C55.9595 19.0407 55.3071 18.3886 54.5063 18.3886H53.5227C53.1085 18.3886 52.7727 18.7244 52.7727 19.1386C52.7727 19.5528 53.1085 19.8886 53.5227 19.8886H54.4595V22.256H47.7852V19.8886Z" fill="#84828B"/>
<path fill-rule="evenodd" clip-rule="evenodd" d="M2.41105 1.52521C1.92195 1.52521 1.52539 1.92176 1.52539 2.41087V57.5892C1.52539 58.0783 1.92195 58.4748 2.41105 58.4748H18.1634L18.1633 39.9489C18.1633 36.3727 19.961 33.2165 22.6986 31.3347L22.7063 31.3294L29.5831 26.7272C29.8355 26.5583 30.1649 26.5583 30.4173 26.7272L37.3019 31.3347C37.8828 31.734 38.4211 32.1906 38.9088 32.696C39.1964 32.994 39.188 33.4688 38.8899 33.7565C38.5919 34.0441 38.1171 34.0357 37.8295 33.7376C37.4123 33.3053 36.9521 32.9149 36.4558 32.5734C36.4546 32.5725 36.4533 32.5717 36.4521 32.5708L30.0002 28.253L23.5446 32.5734C21.1988 34.1876 19.6633 36.889 19.6633 39.9489L19.6634 59.2248C19.6634 59.4237 19.5843 59.6145 19.4437 59.7551C19.303 59.8958 19.1123 59.9748 18.9134 59.9748H2.41105C1.09352 59.9748 0.0253906 58.9067 0.0253906 57.5892V2.41087C0.0253906 1.09334 1.09352 0.0252075 2.41105 0.0252075H9.4923C10.8098 0.0252075 11.878 1.09334 11.878 2.41087V9.02736C11.878 9.51647 12.2745 9.91303 12.7636 9.91303H15.1721C15.6612 9.91303 16.0578 9.51647 16.0578 9.02736V2.41087C16.0578 1.09334 17.1259 0.0252075 18.4435 0.0252075H21.2464C21.6606 0.0252075 21.9964 0.360994 21.9964 0.775208C21.9964 1.18942 21.6606 1.52521 21.2464 1.52521H18.4435C17.9544 1.52521 17.5578 1.92176 17.5578 2.41087V9.02736C17.5578 10.3449 16.4897 11.413 15.1721 11.413H12.7636C11.4461 11.413 10.378 10.3449 10.378 9.02736V2.41087C10.378 1.92176 9.98141 1.52521 9.4923 1.52521H2.41105ZM24.7748 0.775208C24.7748 0.360994 25.1106 0.0252075 25.5248 0.0252075C26.8423 0.0252075 27.9105 1.09334 27.9105 2.41087V9.02736C27.9105 9.51647 28.307 9.91303 28.7961 9.91303H31.2046C31.6937 9.91303 32.0903 9.51647 32.0903 9.02736V2.41087C32.0903 1.09334 33.1584 0.0252075 34.476 0.0252075H41.5571C42.8746 0.0252075 43.9428 1.09334 43.9428 2.41087V9.02736C43.9428 9.51647 44.3393 9.91303 44.8284 9.91303H47.2369C47.726 9.91303 48.1226 9.51647 48.1226 9.02736V2.41087C48.1226 1.09334 49.1907 0.0252075 50.5083 0.0252075H57.5895C58.9071 0.0252075 59.9752 1.09334 59.9752 2.41087V20.1262C59.9752 20.5405 59.6394 20.8762 59.2252 20.8762C58.811 20.8762 58.4752 20.5405 58.4752 20.1262V2.41087C58.4752 1.92176 58.0786 1.52521 57.5895 1.52521H50.5083C50.0192 1.52521 49.6226 1.92177 49.6226 2.41087V9.02736C49.6226 10.3449 48.5545 11.413 47.2369 11.413H44.8284C43.5109 11.413 42.4428 10.3449 42.4428 9.02736V2.41087C42.4428 1.92177 42.0462 1.52521 41.5571 1.52521H34.476C33.9868 1.52521 33.5903 1.92177 33.5903 2.41087V9.02736C33.5903 10.3449 32.5222 11.413 31.2046 11.413H28.7961C27.4786 11.413 26.4105 10.3449 26.4105 9.02736V2.41087C26.4105 1.92176 26.0139 1.52521 25.5248 1.52521C25.1106 1.52521 24.7748 1.18942 24.7748 0.775208ZM59.2252 24.8683C59.6394 24.8683 59.9752 25.2041 59.9752 25.6183V57.5892C59.9752 58.9067 58.907 59.9748 57.5895 59.9748H41.087C40.8881 59.9748 40.6974 59.8958 40.5567 59.7551C40.416 59.6145 40.337 59.4237 40.337 59.2248L40.3371 39.9489C40.3371 38.6994 40.0813 37.5116 39.6201 36.4333C39.4572 36.0524 39.6339 35.6116 40.0147 35.4487C40.3955 35.2858 40.8363 35.4625 40.9992 35.8434C41.5387 37.1046 41.8371 38.4928 41.8371 39.9489L41.837 58.4748H57.5895C58.0786 58.4748 58.4752 58.0783 58.4752 57.5892V25.6183C58.4752 25.2041 58.811 24.8683 59.2252 24.8683Z" fill="#84828B"/>
<path fill-rule="evenodd" clip-rule="evenodd" d="M8.63379 15.6672V18.0346H11.0604C11.4746 18.0346 11.8104 18.3704 11.8104 18.7846C11.8104 19.1988 11.4746 19.5346 11.0604 19.5346H8.58698C7.7861 19.5346 7.13379 18.8825 7.13379 18.0814V15.6204C7.13379 14.8195 7.7859 14.1672 8.58698 14.1672H15.3549C16.1558 14.1672 16.8081 14.8193 16.8081 15.6204V18.0814C16.8081 18.8823 16.156 19.5346 15.3549 19.5346H14.33C13.9158 19.5346 13.58 19.1988 13.58 18.7846C13.58 18.3704 13.9158 18.0346 14.33 18.0346H15.3081V15.6672H8.63379Z" fill="#84828B"/>
<path fill-rule="evenodd" clip-rule="evenodd" d="M1.52539 19.8058V22.1732H8.19961V19.8058H1.52539ZM0.0253906 19.759C0.0253906 18.9565 0.676009 18.3058 1.47858 18.3058H8.24642C9.04899 18.3058 9.69961 18.9565 9.69961 19.759V22.22C9.69961 23.0226 9.04899 23.6732 8.24642 23.6732H1.47858C0.676006 23.6732 0.0253906 23.0226 0.0253906 22.22V19.759Z" fill="#84828B"/>
<path fill-rule="evenodd" clip-rule="evenodd" d="M7.72731 38.3068C7.72351 38.3068 7.7197 38.3068 7.71589 38.3068C6.9148 38.3068 6.2627 38.9591 6.2627 39.76V42.221C6.2627 43.0221 6.91501 43.6742 7.71589 43.6742H10.7739C11.1881 43.6742 11.5239 43.3384 11.5239 42.9242V39.0568C11.5239 38.6426 11.1881 38.3068 10.7739 38.3068H7.72731ZM7.7627 39.8068V42.1742H10.0239V39.8068H7.7627Z" fill="#84828B"/>
<path fill-rule="evenodd" clip-rule="evenodd" d="M0.0253906 49.057C0.0253906 48.6428 0.361177 48.307 0.775391 48.307H6.55978C7.36066 48.307 8.01297 48.9591 8.01297 49.7602V52.2212C8.01297 53.0221 7.36087 53.6744 6.55978 53.6744H0.775391C0.361177 53.6744 0.0253906 53.3387 0.0253906 52.9244V49.057ZM1.52539 49.807V52.1744H6.51297V49.807H1.52539Z" fill="#84828B"/>
<path fill-rule="evenodd" clip-rule="evenodd" d="M48.4766 46.9501C48.4766 46.5359 48.8123 46.2001 49.2266 46.2001H53.1822C53.9831 46.2001 54.6354 46.8522 54.6354 47.6533V50.1144C54.6354 50.9153 53.9833 51.5676 53.1822 51.5676H49.2266C48.8123 51.5676 48.4766 51.2318 48.4766 50.8176V46.9501ZM49.9766 47.7001V50.0676H53.1354V47.7001H49.9766Z" fill="#84828B"/>
<path fill-rule="evenodd" clip-rule="evenodd" d="M53.7099 32.1288C53.706 32.1288 53.7022 32.1288 53.6983 32.1288C52.8972 32.1288 52.2451 32.7811 52.2451 33.5819V36.043C52.2451 36.8441 52.8974 37.4962 53.6983 37.4962H59.2251C59.6394 37.4962 59.9751 37.1604 59.9751 36.7462V32.8788C59.9751 32.4646 59.6394 32.1288 59.2251 32.1288H53.7099ZM53.7451 33.6288V35.9962H58.4751V33.6288H53.7451Z" fill="#84828B"/>
</g>
<defs>
<clipPath id="clip0_1445_9192">
<rect width="60" height="60" fill="white"/>
</clipPath>
</defs>
</svg>
