<svg width="60" height="60" viewBox="0 0 60 60" fill="none" xmlns="http://www.w3.org/2000/svg">
<path fill-rule="evenodd" clip-rule="evenodd" d="M2.51201 46.2752C1.50648 46.0599 0.775391 45.207 0.775391 44.1834V9.12016C0.775391 7.95818 1.71738 7.0162 2.87935 7.0162C3.01332 7.0162 3.14435 7.02875 3.27131 7.05265L19.3913 10.117L40.1449 2.81856L57.5436 6.08614C58.5031 6.28174 59.225 7.13042 59.225 8.14766V43.5321C59.225 44.6941 58.283 45.6361 57.1211 45.6361C56.9602 45.6361 56.8035 45.618 56.653 45.5838L40.1449 42.205L19.3913 49.5035L2.51201 46.2752V46.2752Z" fill="#995F30"/>
<path fill-rule="evenodd" clip-rule="evenodd" d="M57.6939 6.12294C58.5772 6.37255 59.2246 7.18452 59.2246 8.14775V43.5322C59.2246 44.679 58.3071 45.6114 57.1662 45.6356L43.8128 42.9025L43.7168 42.9363L40.1444 42.2051L19.3988 49.5008L6.17998 46.9726C5.17445 46.7573 4.44336 45.9044 4.44336 44.8808V9.81755C4.44336 8.65557 5.38535 7.71359 6.54732 7.71359C6.68128 7.71359 6.81232 7.72613 6.93927 7.75004L19.3909 10.1171L40.1444 2.8186L57.6939 6.12294Z" fill="#A86D38"/>
<path fill-rule="evenodd" clip-rule="evenodd" d="M19.3916 10.1171L22.7272 8.94403V48.3305L19.3916 49.5036V10.1171Z" fill="#995F30"/>
<path fill-rule="evenodd" clip-rule="evenodd" d="M2.51203 46.2752C1.5065 46.0599 0.77541 45.207 0.77541 44.1834V23.2682C0.765964 23.2665 4.28608 23.9185 4.87767 27.3607C4.97114 27.9044 6.20624 31.0962 6.75069 31.1556C7.90025 32.9181 13.5998 29.629 15.9393 37.0702C16.7806 39.7463 14.5385 43.21 19.513 43.21C22.3488 43.21 24.4331 44.1862 25.923 46.6393V47.2067L19.3914 49.5036L2.51208 46.2753L2.51203 46.2752Z" fill="#84C225"/>
<path fill-rule="evenodd" clip-rule="evenodd" d="M2.51227 46.2752C1.91611 46.1476 1.41645 45.7958 1.1084 45.3173V23.3527C1.83576 23.5672 3.57243 24.2465 4.44404 26.0106V46.6447L2.51227 46.2752ZM19.3916 43.2086C19.4321 43.2091 19.4718 43.21 19.5132 43.21C20.7157 43.21 21.783 43.3856 22.7272 43.7749V48.3305L19.3916 49.5036V43.2086Z" fill="#70AD13"/>
<path fill-rule="evenodd" clip-rule="evenodd" d="M40.1445 2.8186L43.4802 3.44504V42.8878L40.1445 42.2051V2.8186Z" fill="#995F30"/>
<path fill-rule="evenodd" clip-rule="evenodd" d="M39.4078 2.68017C39.4843 2.27307 39.8763 2.00503 40.2833 2.08149L57.6935 5.35121C58.9954 5.61661 59.9751 6.76701 59.9751 8.14771V43.5322C59.9751 45.1084 58.6973 46.3861 57.1211 46.3861C56.9067 46.3861 56.6972 46.3623 56.4955 46.3172L40.1979 42.9815L19.6402 50.2111C19.2495 50.3485 18.8213 50.1431 18.6839 49.7524C18.5464 49.3616 18.7518 48.9334 19.1426 48.796L39.8961 41.4975C40.0242 41.4525 40.1622 41.4431 40.2953 41.4703L56.8034 44.8491L56.8189 44.8524C56.9157 44.8744 57.0167 44.8861 57.1211 44.8861C57.8689 44.8861 58.4751 44.2799 58.4751 43.5322V8.14771C58.4751 7.49571 58.0135 6.94985 57.3989 6.8221L40.0065 3.55572C39.5994 3.47926 39.3313 3.08726 39.4078 2.68017ZM36.4576 4.11533C36.595 4.50609 36.3896 4.93425 35.9989 5.07167L19.6402 10.8246C19.5154 10.8685 19.3812 10.8786 19.2513 10.8539L3.13254 7.7897C3.13236 7.78966 3.13273 7.78973 3.13254 7.7897C3.05114 7.77441 2.96619 7.7662 2.87935 7.7662C2.13159 7.7662 1.52539 8.3724 1.52539 9.12016V44.1834C1.52539 44.8287 1.98375 45.3918 2.66172 45.5403L14.3234 47.7707C14.7302 47.8485 14.997 48.2414 14.9191 48.6482C14.8413 49.0551 14.4484 49.3218 14.0416 49.244L2.37112 47.0119L2.35499 47.0086C1.02591 46.724 0.0253906 45.5831 0.0253906 44.1834V9.12016C0.0253906 7.54397 1.30316 6.2662 2.87935 6.2662C3.06025 6.2662 3.23773 6.28315 3.41007 6.31559L3.41137 6.31584L19.333 9.34253L35.5012 3.65662C35.892 3.51921 36.3201 3.72458 36.4576 4.11533Z" fill="#2B2A29"/>
<path fill-rule="evenodd" clip-rule="evenodd" d="M0.61865 24.0017C0.0366557 23.1369 0.892242 22.5274 0.903463 22.5292C0.909039 22.5302 0.914589 22.5312 0.920114 22.5323L0.93259 22.5348C0.94257 22.5368 0.955945 22.5396 0.972507 22.5432C1.00561 22.5504 1.05138 22.5609 1.1082 22.5752C1.2217 22.6039 1.38001 22.6482 1.56993 22.7127C1.94816 22.841 2.46079 23.0524 2.99718 23.3863C4.07614 24.0579 5.27465 25.2446 5.61652 27.2336C5.61652 27.2336 5.61743 27.2386 5.62005 27.25C5.62279 27.2617 5.62671 27.2775 5.63212 27.2976C5.64299 27.3381 5.65816 27.3899 5.6779 27.4527C5.71738 27.5785 5.77147 27.7368 5.83744 27.9176C5.96938 28.2791 6.14317 28.7149 6.33001 29.1349C6.51884 29.5594 6.71177 29.9467 6.88055 30.222C6.95319 30.3405 7.01057 30.4203 7.05057 30.4683C7.18317 30.5262 7.29776 30.622 7.37857 30.7459C7.41547 30.8025 7.51393 30.8998 7.89285 30.9689C8.20858 31.0265 8.58262 31.0434 9.06023 31.065C9.16942 31.0699 9.28402 31.0751 9.40458 31.0811C10.6322 31.1418 12.2619 31.2798 13.7446 32.3511C14.0804 32.5937 14.1559 33.0625 13.9133 33.3982C13.6708 33.734 13.2019 33.8095 12.8662 33.5669C11.7658 32.7719 10.5291 32.6385 9.33049 32.5792C9.23335 32.5744 9.13437 32.5701 9.03446 32.5657C8.55304 32.5445 8.04973 32.5223 7.62356 32.4446C7.16541 32.3609 6.64603 32.1897 6.27267 31.7639C6.25203 31.7515 6.23312 31.7391 6.216 31.7274C6.1147 31.6578 6.03065 31.5768 5.96418 31.5042C5.83177 31.3595 5.70977 31.1822 5.60181 31.0061C5.38296 30.6492 5.15919 30.1935 4.9595 29.7446C4.75783 29.2913 4.57129 28.8235 4.42834 28.4318C4.29442 28.0648 4.17486 27.701 4.1382 27.4878C3.88847 26.0347 3.03114 25.1743 2.20451 24.6597C1.7881 24.4005 1.3855 24.2341 1.08788 24.1331C0.939873 24.0829 0.820099 24.0496 0.74059 24.0295C0.700905 24.0194 0.671444 24.0127 0.653729 24.0089L0.636133 24.0052L0.634559 24.0049L0.632291 24.0044L0.61865 24.0017ZM15.714 36.3547C16.1091 36.2304 16.5302 36.4501 16.6544 36.8452C16.904 37.6392 16.9169 38.463 16.9025 39.1736C16.8993 39.3367 16.8948 39.492 16.8905 39.6403C16.8749 40.181 16.8619 40.6304 16.9187 41.0406C16.9856 41.5224 17.1351 41.8162 17.416 42.021C17.7308 42.2507 18.3341 42.46 19.5127 42.46C21.0157 42.46 22.3719 42.7187 23.5677 43.3389C24.7687 43.9618 25.7581 44.9235 26.5637 46.2499C26.6349 46.3673 26.6726 46.5019 26.6726 46.6392V47.2067C26.6726 47.6209 26.3368 47.9567 25.9226 47.9567C25.5084 47.9567 25.1726 47.6209 25.1726 47.2067V46.8538C24.513 45.8233 23.7511 45.1238 22.8771 44.6705C21.9493 44.1893 20.8454 43.96 19.5127 43.96C18.204 43.96 17.2221 43.7363 16.532 43.2329C15.8078 42.7046 15.5326 41.9652 15.433 41.2466C15.357 40.6991 15.3756 40.0841 15.3925 39.5283C15.3965 39.396 15.4004 39.2671 15.4029 39.1433C15.4168 38.4518 15.3945 37.8391 15.2234 37.2951C15.0992 36.8999 15.3188 36.4789 15.714 36.3547Z" fill="#2B2A29"/>
<path d="M46.9686 12.6994C47.6491 12.5768 47.8466 11.7057 47.2845 11.3023C47.1136 11.183 46.9116 11.1365 46.7058 11.1714L46.5632 11.1955L46.3928 11.2253L46.224 11.2558L46.0571 11.287L45.8919 11.3189L45.7283 11.3514L45.5666 11.3846L45.4064 11.4185L45.1436 11.4765C44.8722 11.5382 44.6603 11.7367 44.5757 12.001C44.4001 12.5732 44.905 13.1206 45.4878 12.9882L45.7317 12.9344L45.8828 12.9025L46.0356 12.8711L46.19 12.8404L46.5045 12.7806L46.6643 12.7517L46.9686 12.6993L46.9686 12.6994ZM41.2997 14.4555C41.8472 14.1654 41.8535 13.3894 41.3114 13.0888C41.0802 12.9645 40.8125 12.9614 40.5792 13.0826L40.4414 13.1553L40.3375 13.2116L40.2347 13.2683L40.133 13.3256L40.0326 13.3832L39.9334 13.4414L39.8353 13.5001L39.7385 13.5591L39.6429 13.6185L39.5483 13.6784L39.4549 13.7388L39.3626 13.7996C39.2967 13.8438 39.2305 13.888 39.1654 13.9335C38.9397 14.0929 38.8176 14.3542 38.8386 14.6294C38.8899 15.2285 39.5652 15.5455 40.0573 15.2016C40.1927 15.1088 40.3283 15.0197 40.4668 14.9319L40.6365 14.8273L40.8106 14.7243C40.9003 14.6728 40.9902 14.6222 41.0808 14.5722C41.1535 14.5329 41.2262 14.4937 41.2996 14.4556L41.2997 14.4555ZM37.072 18.3314C37.4026 17.8166 37.0414 17.1465 36.4303 17.1348C36.1603 17.1348 35.9187 17.2618 35.7707 17.4887C35.4798 17.9359 35.208 18.3926 34.9462 18.8572C34.6502 19.3899 35.0455 20.0354 35.6554 20.0124C35.9257 19.9995 36.1625 19.8534 36.2967 19.6186C36.5447 19.1812 36.7978 18.7531 37.0721 18.3315L37.072 18.3314ZM33.6999 23.6725C33.9881 23.354 33.9657 22.8676 33.6488 22.5774C33.3303 22.2892 32.8438 22.3115 32.5537 22.6285C32.2413 22.9752 31.8999 23.2856 31.5238 23.562C30.9641 23.974 31.1783 24.8492 31.8672 24.9562C32.0705 24.9855 32.2682 24.936 32.435 24.8164L32.5592 24.7239L32.6286 24.6705L32.6969 24.6167L32.7645 24.5624L32.831 24.5077L32.8967 24.4525L32.9618 24.3967L33.0892 24.2838C33.3027 24.0889 33.5062 23.8873 33.6998 23.6724L33.6999 23.6725ZM27.8249 26.5972C28.5035 26.4565 28.6757 25.5742 28.0985 25.1894C27.9248 25.0769 27.7237 25.0367 27.5203 25.077C27.0273 25.1769 26.5348 25.2625 26.0369 25.3344C25.3914 25.4266 25.1409 26.2241 25.6184 26.6706C25.7944 26.8308 26.0176 26.9012 26.2536 26.8695C26.7808 26.7937 27.3029 26.7029 27.8249 26.5972L27.8249 26.5972ZM21.4387 27.0326C22.0895 27.0902 22.5159 26.3611 22.1459 25.8218C22.0138 25.6303 21.8068 25.5087 21.5749 25.4883C21.0819 25.4465 20.5942 25.381 20.1071 25.2952C19.4809 25.1824 18.9921 25.8355 19.2769 26.405C19.3865 26.6243 19.5921 26.7778 19.8333 26.8212C20.366 26.9152 20.8997 26.987 21.4388 27.0326L21.4387 27.0326ZM15.2249 25.2737C15.8406 25.5846 16.5246 25.0012 16.3142 24.3436C16.2488 24.1455 16.1146 23.988 15.9289 23.8924C15.4897 23.6695 15.0574 23.4247 14.6402 23.163C14.0836 22.8151 13.3731 23.2725 13.4599 23.9238C13.4905 24.1512 13.6213 24.3545 13.816 24.4761C14.274 24.7621 14.7433 25.0293 15.2249 25.2737H15.2249ZM10.0359 21.571C10.5326 22.0034 11.3082 21.6582 11.3207 20.9995C11.3229 20.7675 11.2296 20.5567 11.0554 20.4029C10.6621 20.0599 10.2705 19.7152 9.8711 19.3791C9.61595 19.168 9.26417 19.1376 8.97811 19.3055C8.51743 19.581 8.46572 20.2199 8.87448 20.5668C9.26639 20.8957 9.65031 21.2347 10.0358 21.571H10.0359Z" fill="#2B2A29"/>
<path fill-rule="evenodd" clip-rule="evenodd" d="M50.7275 8.34089C51.0204 8.04799 51.4952 8.04799 51.7881 8.34089L53.4931 10.0458L55.198 8.34089C55.4909 8.04799 55.9658 8.04799 56.2587 8.34089C56.5516 8.63378 56.5516 9.10865 56.2587 9.40155L54.5537 11.1065L56.2587 12.8114C56.5516 13.1043 56.5516 13.5792 56.2587 13.8721C55.9658 14.165 55.4909 14.165 55.198 13.8721L53.4931 12.1671L51.7881 13.8721C51.4952 14.165 51.0204 14.165 50.7275 13.8721C50.4346 13.5792 50.4346 13.1043 50.7275 12.8114L52.4324 11.1065L50.7275 9.40155C50.4346 9.10865 50.4346 8.63378 50.7275 8.34089Z" fill="#FFA85C"/>
<path fill-rule="evenodd" clip-rule="evenodd" d="M5.81654 15.251C4.97294 15.251 4.28906 15.9349 4.28906 16.7785C4.28906 17.6221 4.97294 18.306 5.81654 18.306C6.66015 18.306 7.34402 17.6221 7.34402 16.7785C7.34402 15.9349 6.66014 15.251 5.81654 15.251ZM2.78906 16.7785C2.78906 15.1065 4.14451 13.751 5.81654 13.751C7.48857 13.751 8.84402 15.1065 8.84402 16.7785C8.84402 18.4505 7.48857 19.806 5.81654 19.806C4.14451 19.806 2.78906 18.4505 2.78906 16.7785Z" fill="#2B2A29"/>
<path d="M42.4816 57.1814C49.5077 57.1814 55.2034 51.4856 55.2034 44.4596C55.2034 37.4335 49.5077 31.7378 42.4816 31.7378C35.4555 31.7378 29.7598 37.4335 29.7598 44.4596C29.7598 51.4856 35.4555 57.1814 42.4816 57.1814Z" fill="#84828B"/>
<path fill-rule="evenodd" clip-rule="evenodd" d="M46.9885 32.5601C51.7898 34.3796 55.2035 39.0206 55.2035 44.4596C55.2035 51.4856 49.5077 57.1814 42.4817 57.1814C42.2024 57.1814 41.9254 57.1714 41.6506 57.1537C36.8492 55.3342 33.4355 50.6932 33.4355 45.2543C33.4355 38.2282 39.1313 32.5324 46.1574 32.5324C46.4367 32.5324 46.7137 32.5425 46.9885 32.5601Z" fill="#D0CFD4"/>
<path fill-rule="evenodd" clip-rule="evenodd" d="M42.4816 32.4878C35.8698 32.4878 30.5098 37.8478 30.5098 44.4596C30.5098 51.0715 35.8698 56.4314 42.4816 56.4314C49.0934 56.4314 54.4534 51.0715 54.4534 44.4596C54.4534 43.8208 54.4034 43.194 54.3073 42.5831C54.243 42.174 54.5225 41.7901 54.9317 41.7257C55.3409 41.6614 55.7247 41.9409 55.7891 42.3501C55.8973 43.0377 55.9534 43.7424 55.9534 44.4596C55.9534 51.8999 49.9218 57.9314 42.4816 57.9314C35.0413 57.9314 29.0098 51.8999 29.0098 44.4596C29.0098 37.0194 35.0413 30.9878 42.4816 30.9878C47.5931 30.9878 52.0387 33.8349 54.3208 38.0263C54.5189 38.3901 54.3846 38.8455 54.0208 39.0436C53.657 39.2417 53.2015 39.1074 53.0034 38.7436C50.9735 35.0153 47.0221 32.4878 42.4816 32.4878Z" fill="#2B2A29"/>
<path fill-rule="evenodd" clip-rule="evenodd" d="M29.0109 44.4595C29.0109 44.0453 29.3466 43.7095 29.7609 43.7095L31.3742 43.7095C31.7884 43.7095 32.1242 44.0453 32.1242 44.4595C32.1242 44.8737 31.7884 45.2095 31.3742 45.2095L29.7609 45.2095C29.3466 45.2095 29.0109 44.8737 29.0109 44.4595ZM42.4827 30.9877C42.8969 30.9877 43.2327 31.3235 43.2327 31.7377L43.2327 33.351C43.2327 33.7653 42.8969 34.101 42.4827 34.101C42.0685 34.101 41.7327 33.7653 41.7327 33.351L41.7327 31.7377C41.7327 31.3235 42.0685 30.9877 42.4827 30.9877ZM42.4827 54.818C42.8969 54.818 43.2327 55.1538 43.2327 55.568L43.2327 57.1814C43.2327 57.5956 42.8969 57.9314 42.4827 57.9314C42.0685 57.9314 41.7327 57.5956 41.7327 57.1814L41.7327 55.568C41.7327 55.1538 42.0685 54.818 42.4827 54.818ZM52.8412 44.4595C52.8412 44.0453 53.177 43.7095 53.5912 43.7095L55.2046 43.7095C55.6188 43.7095 55.9546 44.0453 55.9546 44.4595C55.9546 44.8737 55.6188 45.2095 55.2046 45.2095L53.5912 45.2095C53.177 45.2095 52.8412 44.8737 52.8412 44.4595Z" fill="#2B2A29"/>
<path d="M42.4812 49.7582C45.4075 49.7582 47.7798 47.3859 47.7798 44.4596C47.7798 41.5332 45.4075 39.161 42.4812 39.161C39.5549 39.161 37.1826 41.5332 37.1826 44.4596C37.1826 47.3859 39.5549 49.7582 42.4812 49.7582Z" fill="#84828B"/>
<path fill-rule="evenodd" clip-rule="evenodd" d="M41.7319 38.8088C41.7319 38.3946 42.0677 38.0588 42.4819 38.0588C46.0169 38.0588 48.8827 40.9246 48.8827 44.4596C48.8827 47.9947 46.0169 50.8604 42.4819 50.8604C38.9468 50.8604 36.0811 47.9947 36.0811 44.4596C36.0811 42.38 37.0737 40.5318 38.6079 39.3639C38.9374 39.113 39.408 39.1768 39.6589 39.5064C39.9098 39.836 39.846 40.3065 39.5164 40.5574C38.3389 41.4539 37.5811 42.8681 37.5811 44.4596C37.5811 47.1663 39.7752 49.3604 42.4819 49.3604C45.1885 49.3604 47.3827 47.1663 47.3827 44.4596C47.3827 41.753 45.1885 39.5588 42.4819 39.5588C42.0677 39.5588 41.7319 39.223 41.7319 38.8088Z" fill="#2B2A29"/>
<path fill-rule="evenodd" clip-rule="evenodd" d="M43.6917 45.6702L48.8188 38.122L41.2706 43.249L36.1436 50.7972L43.6917 45.6702Z" fill="#2B2A29"/>
</svg>
