<svg width="60" height="60" viewBox="0 0 60 60" fill="none" xmlns="http://www.w3.org/2000/svg">
<path fill-rule="evenodd" clip-rule="evenodd" d="M39.4079 2.68011C39.4843 2.27301 39.8763 2.00497 40.2834 2.08143L57.6936 5.35113C58.9955 5.61658 59.9752 6.76687 59.9752 8.1476V43.532C59.9752 45.1082 58.6974 46.386 57.1212 46.386C56.9068 46.386 56.6973 46.3622 56.4955 46.317L55.2089 46.0536C54.8031 45.9706 54.5415 45.5742 54.6245 45.1685C54.7076 44.7627 55.1039 44.501 55.5097 44.5841L56.8035 44.849L56.819 44.8523C56.9158 44.8743 57.0168 44.886 57.1212 44.886C57.869 44.886 58.4752 44.2798 58.4752 43.532V8.1476C58.4752 7.49565 58.0137 6.94982 57.399 6.82202L40.0066 3.55566C39.5995 3.4792 39.3314 3.08721 39.4079 2.68011ZM36.4576 4.11528C36.595 4.50604 36.3897 4.93421 35.9989 5.07163L19.6402 10.8246C19.5155 10.8684 19.3813 10.8785 19.2514 10.8538L3.1329 7.78975C3.13264 7.7897 3.13316 7.7898 3.1329 7.78975C3.05117 7.77445 2.966 7.76621 2.87937 7.76621C2.13159 7.76621 1.52539 8.37241 1.52539 9.12019V44.1834C1.52539 44.8288 1.98378 45.3918 2.66179 45.5403L14.3234 47.7707C14.7303 47.8485 14.997 48.2414 14.9192 48.6482C14.8414 49.055 14.4485 49.3218 14.0417 49.244L2.37115 47.0119L2.35505 47.0086C1.02592 46.7241 0.0253906 45.5831 0.0253906 44.1834V9.12019C0.0253906 7.54398 1.30317 6.26621 2.87937 6.26621C3.06039 6.26621 3.23773 6.28321 3.40982 6.31554L3.41142 6.31584L19.3331 9.34251L35.5013 3.65658C35.892 3.51916 36.3202 3.72453 36.4576 4.11528ZM30.4995 45.597C30.637 45.9877 30.4316 46.4159 30.0408 46.5533L19.6402 50.2109C19.2495 50.3483 18.8213 50.1429 18.6839 49.7522C18.5465 49.3614 18.7518 48.9333 19.1426 48.7958L29.5432 45.1383C29.934 45.0009 30.3621 45.2062 30.4995 45.597Z" fill="#84828B"/>
<path fill-rule="evenodd" clip-rule="evenodd" d="M0.62675 24.0033C0.0371209 23.1341 0.900973 22.5288 0.907181 22.5299C0.911071 22.5306 0.914949 22.5313 0.918814 22.5321L0.92004 22.5323L0.932411 22.5347C0.942441 22.5368 0.955844 22.5395 0.972416 22.5431C1.00554 22.5503 1.05133 22.5608 1.10816 22.5752C1.22167 22.6039 1.37998 22.6482 1.5699 22.7126C1.94814 22.841 2.46076 23.0524 2.99714 23.3863C4.07609 24.0579 5.27459 25.2446 5.61645 27.2336L5.61643 27.2335C5.61643 27.2335 5.61736 27.2386 5.61998 27.2499C5.62272 27.2617 5.62664 27.2775 5.63205 27.2976C5.64292 27.3381 5.65809 27.3899 5.67783 27.4527C5.7173 27.5784 5.7714 27.7368 5.83737 27.9175C5.96931 28.2791 6.1431 28.7149 6.32995 29.1349C6.51878 29.5594 6.71171 29.9467 6.88049 30.222C6.95312 30.3404 7.01051 30.4202 7.0505 30.4683C7.18308 30.5262 7.29765 30.6219 7.37846 30.7458C7.41536 30.8024 7.51383 30.8997 7.89274 30.9689C8.20848 31.0265 8.58252 31.0434 9.06013 31.0649C9.16931 31.0699 9.28391 31.075 9.40446 31.081C10.6321 31.1417 12.2617 31.2797 13.7445 32.351C14.0803 32.5936 14.1558 33.0624 13.9132 33.3982C13.6707 33.7339 13.2018 33.8095 12.8661 33.5669C11.7657 32.7719 10.5289 32.6385 9.33036 32.5792C9.23321 32.5744 9.13424 32.57 9.03433 32.5656C8.55292 32.5444 8.04961 32.5223 7.62345 32.4445C7.1653 32.3609 6.64593 32.1897 6.27257 31.7639C6.25192 31.7514 6.233 31.7391 6.21589 31.7273C6.11459 31.6577 6.03055 31.5767 5.96409 31.5041C5.83169 31.3595 5.7097 31.1821 5.60174 31.0061C5.3829 30.6492 5.15913 30.1935 4.95945 29.7446C4.75777 29.2913 4.57122 28.8235 4.42828 28.4318C4.29435 28.0648 4.17478 27.701 4.13813 27.4877L4.13813 27.4877C3.88839 26.0346 3.03108 25.1742 2.20447 24.6597C1.78806 24.4005 1.38547 24.2341 1.08786 24.1331C0.939854 24.0828 0.820085 24.0496 0.740587 24.0295C0.700905 24.0194 0.671456 24.0127 0.653763 24.0089L0.63625 24.0052C0.635083 24.005 0.634442 24.0048 0.63434 24.0048C0.634321 24.0048 0.634321 24.0048 0.634338 24.0048L0.634187 24.0048L0.62675 24.0033ZM0.91576 22.5315C0.915729 22.5315 0.915742 22.5315 0.915782 22.5315L0.91576 22.5315ZM15.7139 36.3546C16.109 36.2304 16.53 36.45 16.6543 36.8451C16.9039 37.6391 16.9168 38.4629 16.9024 39.1735C16.8991 39.3367 16.8946 39.4919 16.8904 39.6403C16.8747 40.1809 16.8617 40.6304 16.9186 41.0405C16.9854 41.5224 17.135 41.8161 17.4159 42.021C17.7307 42.2506 18.334 42.4599 19.5126 42.4599C21.0156 42.4599 22.3718 42.7187 23.5676 43.3389C24.7686 43.9617 25.758 44.9235 26.5636 46.2498C26.6349 46.3672 26.6725 46.5019 26.6725 46.6392V47.2066C26.6725 47.6208 26.3368 47.9566 25.9225 47.9566C25.5083 47.9566 25.1725 47.6208 25.1725 47.2066V46.8537C24.5129 45.8233 23.751 45.1237 22.877 44.6704C21.9492 44.1892 20.8453 43.9599 19.5126 43.9599C18.2039 43.9599 17.222 43.7362 16.5319 43.2328C15.8077 42.7046 15.5325 41.9651 15.4328 41.2465C15.3569 40.699 15.3755 40.0841 15.3923 39.5282C15.3963 39.396 15.4002 39.2671 15.4027 39.1433C15.4167 38.4518 15.3944 37.8391 15.2233 37.295C15.0991 36.8999 15.3187 36.4788 15.7139 36.3546Z" fill="#84828B"/>
<path fill-rule="evenodd" clip-rule="evenodd" d="M50.7275 8.34085C51.0204 8.04795 51.4952 8.04795 51.7881 8.34085L53.4931 10.0458L55.198 8.34085C55.4909 8.04795 55.9658 8.04795 56.2587 8.34085C56.5516 8.63374 56.5516 9.10861 56.2587 9.40151L54.5537 11.1064L56.2587 12.8114C56.5516 13.1043 56.5516 13.5792 56.2587 13.872C55.9658 14.1649 55.4909 14.1649 55.198 13.872L53.4931 12.1671L51.7881 13.872C51.4952 14.1649 51.0204 14.1649 50.7275 13.872C50.4346 13.5792 50.4346 13.1043 50.7275 12.8114L52.4324 11.1064L50.7275 9.40151C50.4346 9.10861 50.4346 8.63374 50.7275 8.34085Z" fill="#84828B"/>
<path fill-rule="evenodd" clip-rule="evenodd" d="M5.81651 15.251C4.97292 15.251 4.28906 15.9349 4.28906 16.7785C4.28906 17.6221 4.97292 18.3059 5.81651 18.3059C6.6601 18.3059 7.34396 17.6221 7.34396 16.7785C7.34396 15.9349 6.6601 15.251 5.81651 15.251ZM2.78906 16.7785C2.78906 15.1065 4.1445 13.751 5.81651 13.751C7.48852 13.751 8.84396 15.1065 8.84396 16.7785C8.84396 18.4505 7.48852 19.8059 5.81651 19.8059C4.1445 19.8059 2.78906 18.4505 2.78906 16.7785Z" fill="#84828B"/>
<path fill-rule="evenodd" clip-rule="evenodd" d="M42.4816 32.4877C35.8698 32.4877 30.5098 37.8478 30.5098 44.4595C30.5098 51.0713 35.8698 56.4314 42.4816 56.4314C49.0934 56.4314 54.4534 51.0713 54.4534 44.4595C54.4534 43.8208 54.4033 43.194 54.3072 42.5831C54.2429 42.1739 54.5225 41.79 54.9316 41.7257C55.3408 41.6613 55.7247 41.9409 55.789 42.3501C55.8971 43.0376 55.9534 43.7423 55.9534 44.4595C55.9534 51.8998 49.9218 57.9314 42.4816 57.9314C35.0414 57.9314 29.0098 51.8998 29.0098 44.4595C29.0098 37.0193 35.0414 30.9877 42.4816 30.9877C47.5932 30.9877 52.0387 33.8349 54.3208 38.0262C54.5188 38.39 54.3845 38.8454 54.0207 39.0435C53.657 39.2416 53.2015 39.1073 53.0034 38.7435C50.9734 35.0153 47.0221 32.4877 42.4816 32.4877Z" fill="#84828B"/>
<path fill-rule="evenodd" clip-rule="evenodd" d="M29.0099 44.4596C29.0099 44.0454 29.3457 43.7096 29.7599 43.7096H31.3732C31.7874 43.7096 32.1232 44.0454 32.1232 44.4596C32.1232 44.8738 31.7874 45.2096 31.3732 45.2096H29.7599C29.3457 45.2096 29.0099 44.8738 29.0099 44.4596ZM42.4817 30.9878C42.8959 30.9878 43.2317 31.3236 43.2317 31.7378L43.2317 33.3511C43.2317 33.7653 42.8959 34.1011 42.4817 34.1011C42.0675 34.1011 41.7317 33.7653 41.7317 33.3511L41.7317 31.7378C41.7317 31.3236 42.0675 30.9878 42.4817 30.9878ZM42.4817 54.8181C42.8959 54.8181 43.2317 55.1539 43.2317 55.5681L43.2317 57.1814C43.2317 57.5956 42.8959 57.9314 42.4817 57.9314C42.0675 57.9314 41.7317 57.5956 41.7317 57.1814L41.7317 55.5681C41.7317 55.1539 42.0675 54.8181 42.4817 54.8181ZM52.8402 44.4596C52.8402 44.0454 53.176 43.7096 53.5902 43.7096L55.2035 43.7096C55.6177 43.7096 55.9535 44.0454 55.9535 44.4596C55.9535 44.8738 55.6177 45.2096 55.2035 45.2096L53.5902 45.2096C53.176 45.2096 52.8402 44.8738 52.8402 44.4596Z" fill="#84828B"/>
<path fill-rule="evenodd" clip-rule="evenodd" d="M41.7319 38.8088C41.7319 38.3946 42.0677 38.0588 42.4819 38.0588C46.0169 38.0588 48.8828 40.9245 48.8828 44.4596C48.8828 47.9947 46.017 50.8605 42.4819 50.8605C38.9469 50.8605 36.0811 47.9948 36.0811 44.4596C36.0811 42.38 37.0737 40.5319 38.6079 39.3639C38.9374 39.113 39.408 39.1768 39.6589 39.5064C39.9098 39.836 39.846 40.3065 39.5165 40.5574C38.3389 41.4539 37.5811 42.8682 37.5811 44.4596C37.5811 47.1663 39.7753 49.3605 42.4819 49.3605C45.1886 49.3605 47.3828 47.1663 47.3828 44.4596C47.3828 41.7529 45.1885 39.5588 42.4819 39.5588C42.0677 39.5588 41.7319 39.223 41.7319 38.8088Z" fill="#84828B"/>
<path fill-rule="evenodd" clip-rule="evenodd" d="M43.6927 45.6701L48.8198 38.122L41.2716 43.249L36.1445 50.7972L43.6927 45.6701Z" fill="#84828B"/>
<path d="M28.8183 24.7805L30.4914 25.0693L29.5111 24.5787C29.2925 24.6515 29.0619 24.7189 28.8183 24.7805Z" fill="#84828B"/>
<path d="M30.4914 25.0693C30.3562 24.6631 29.9173 24.4435 29.5111 24.5787L30.4914 25.0693Z" fill="#84828B"/>
<path d="M30.0008 26.0497C30.407 25.9145 30.6267 25.4756 30.4914 25.0693L28.8183 24.7805C28.5294 24.8534 28.2451 24.9207 27.9653 24.9825C27.5472 25.0749 27.2832 25.4886 27.3755 25.9067C27.4679 26.3248 27.8816 26.5888 28.2997 26.4965C28.595 26.4312 28.8944 26.3603 29.1981 26.2836C29.4772 26.2131 29.7445 26.135 30.0008 26.0497Z" fill="#84828B"/>
<path d="M35.0613 21.8019C35.2836 21.436 35.1673 20.9592 34.8014 20.7369C34.4355 20.5145 33.9587 20.6309 33.7363 20.9968C33.4758 21.4256 33.2074 21.828 32.9127 22.2024C32.6478 22.5388 32.7059 23.0262 33.0423 23.291C33.3787 23.5558 33.8661 23.4978 34.1309 23.1614C34.4759 22.7232 34.7798 22.2652 35.0613 21.8019Z" fill="#84828B"/>
<path d="M38.3235 16.7069C38.6137 16.3921 38.5936 15.9017 38.2788 15.6115C37.964 15.3214 37.4735 15.3414 37.1834 15.6563C36.7964 16.0762 36.4551 16.506 36.1465 16.9381C35.8978 17.2866 35.9786 17.7707 36.327 18.0195C36.6755 18.2682 37.1596 18.1874 37.4084 17.839C37.6849 17.4516 37.9861 17.0731 38.3235 16.7069Z" fill="#84828B"/>
<path d="M43.2149 13.633C43.6188 13.4911 43.8312 13.0486 43.6892 12.6447C43.5473 12.2407 43.1047 12.0284 42.7008 12.1703C42.1635 12.3592 41.6629 12.5627 41.1954 12.7795C40.8069 12.9596 40.6381 13.4205 40.8182 13.8089C40.9983 14.1973 41.4592 14.3662 41.8476 14.1861C42.2678 13.9912 42.7222 13.8062 43.2149 13.633Z" fill="#84828B"/>
<path d="M48.4718 10.9688C48.4262 10.9596 48.3791 10.9545 48.331 10.9536L48.2939 10.9531L48.2766 10.953L48.2689 10.953L48.2614 10.9531L48.2551 10.9532L48.2436 10.9535C48.2407 10.9536 48.2136 10.9545 48.1809 10.9583L48.1769 10.9588C47.9038 10.9924 47.6366 11.0283 47.3751 11.0665C46.9515 11.1284 46.6582 11.522 46.7201 11.9457C46.782 12.3693 47.1756 12.6626 47.5992 12.6007C47.8326 12.5666 48.0712 12.5343 48.3152 12.5039C48.3588 12.5041 48.4016 12.5007 48.4433 12.4939C48.4888 12.5031 48.5359 12.5082 48.5841 12.5091C48.6042 12.5094 48.6282 12.5098 48.6436 12.5098C49.0717 12.5098 49.4188 12.1627 49.4188 11.7346C49.4188 11.3064 49.0717 10.9594 48.6436 10.9594L48.6363 10.9593L48.6288 10.9592L48.6102 10.9589C48.563 10.9581 48.5168 10.9615 48.4718 10.9688Z" fill="#84828B"/>
<path d="M21.0959 25.4402C20.6706 25.3912 20.2861 25.6964 20.2372 26.1217C20.1882 26.547 20.4933 26.9315 20.9187 26.9804C21.5151 27.0491 22.1359 27.0901 22.7829 27.0999C23.211 27.1064 23.5633 26.7646 23.5698 26.3365C23.5762 25.9084 23.2345 25.5561 22.8064 25.5497C22.2101 25.5407 21.6405 25.5029 21.0959 25.4402Z" fill="#84828B"/>
<path d="M14.7 23.2001C14.336 22.9747 13.8582 23.0871 13.6328 23.4511C13.4074 23.8151 13.5198 24.2929 13.8838 24.5183C14.3975 24.8364 14.9431 25.141 15.5245 25.4223C15.9099 25.6087 16.3734 25.4475 16.5599 25.0621C16.7464 24.6767 16.5851 24.2131 16.1997 24.0266C15.6711 23.7708 15.1725 23.4927 14.7 23.2001Z" fill="#84828B"/>
<path d="M9.87118 19.3791C9.54321 19.1039 9.05424 19.1467 8.77904 19.4747C8.50384 19.8026 8.54662 20.2916 8.87458 20.5668C9.08943 20.7471 9.31146 20.939 9.54392 21.1415C9.86674 21.4227 10.3564 21.389 10.6376 21.0661C10.9189 20.7433 10.8851 20.2536 10.5623 19.9724C10.3278 19.7681 10.0972 19.5688 9.87118 19.3791Z" fill="#84828B"/>
</svg>
