<svg width="60" height="60" viewBox="0 0 60 60" fill="none" xmlns="http://www.w3.org/2000/svg">
<g clip-path="url(#clip0_1420_7754)">
<path fill-rule="evenodd" clip-rule="evenodd" d="M59.1377 26.3042C59.8093 21.0439 56.5188 16.2901 51.7882 15.6862C49.1581 15.3505 46.7539 17.2104 46.4181 19.8404C46.0823 22.4705 47.9423 24.8748 50.5723 25.2106L59.1377 26.3042H59.1377Z" fill="#AB3C00"/>
<path fill-rule="evenodd" clip-rule="evenodd" d="M59.208 24.3453C58.9565 19.9108 55.9225 16.214 51.7886 15.6863C49.7706 15.4286 47.8856 16.4638 46.9659 18.1476C46.7478 20.6976 48.5788 22.9883 51.1413 23.3154L59.208 24.3453V24.3453Z" fill="#E5631D"/>
<path fill-rule="evenodd" clip-rule="evenodd" d="M44.9983 40.1702C48.9983 36.6886 49.7025 30.9501 46.5715 27.353C44.8307 25.353 41.7983 25.143 39.7983 26.8838C37.7984 28.6246 37.5883 31.6571 39.3292 33.657L44.9983 40.1702V40.1702Z" fill="#E77817"/>
<path fill-rule="evenodd" clip-rule="evenodd" d="M46.3915 38.7043C49.1157 35.2297 49.2942 30.4816 46.5711 27.353C45.3529 25.9536 43.5025 25.4308 41.8158 25.8393C41.7655 25.8797 41.7156 25.9209 41.6665 25.9637C39.6666 27.7044 39.4565 30.7369 41.1973 32.7369L46.3915 38.7042L46.3915 38.7043Z" fill="#FFA85C"/>
<path fill-rule="evenodd" clip-rule="evenodd" d="M29.411 56.1512L22.7663 39.8226C22.408 38.9672 22.21 38.0279 22.21 37.0424C22.21 33.0653 25.434 29.8413 29.411 29.8413C33.3881 29.8413 36.6121 33.0653 36.6121 37.0424C36.6121 38.0279 36.4141 38.9672 36.0558 39.8226L29.411 56.1512Z" fill="#E77817"/>
<path fill-rule="evenodd" clip-rule="evenodd" d="M31.495 30.1481C34.4556 31.042 36.6117 33.7902 36.6117 37.0423C36.6117 38.0279 36.4137 38.9671 36.0554 39.8225L31.1426 51.8951L26.2955 39.9842C25.9373 39.1288 25.7393 38.1895 25.7393 37.204C25.7393 33.7219 28.2107 30.8173 31.495 30.1481Z" fill="#FFA85C"/>
<path fill-rule="evenodd" clip-rule="evenodd" d="M16.3291 40.3117C11.4608 38.2091 9.04718 32.9556 10.938 28.5775C11.9893 26.1434 14.8148 25.0224 17.2489 26.0737C19.683 27.125 20.804 29.9504 19.7527 32.3845L16.3291 40.3117Z" fill="#E77817"/>
<path fill-rule="evenodd" clip-rule="evenodd" d="M15.925 25.7144C16.3706 25.7687 16.8161 25.8866 17.2492 26.0736C19.6833 27.1249 20.8044 29.9504 19.7531 32.3845L16.9367 38.9057C13.3599 36.4087 11.7946 31.9881 13.4233 28.2169C13.9281 27.0483 14.8419 26.1825 15.925 25.7143L15.925 25.7144Z" fill="#FFA85C"/>
<path fill-rule="evenodd" clip-rule="evenodd" d="M3.17437 30.087C-0.213425 26.0073 0.014456 20.2303 3.68334 17.1836C5.72314 15.4897 8.74994 15.7702 10.4438 17.81C12.1376 19.8498 11.8572 22.8766 9.81737 24.5704L3.17437 30.0869V30.087Z" fill="#AB3C00"/>
<path fill-rule="evenodd" clip-rule="evenodd" d="M8.85956 16.563C9.45252 16.8525 9.99502 17.2694 10.4439 17.81C12.1378 19.8498 11.8573 22.8766 9.81751 24.5704L4.47746 29.005C2.2754 25.1172 2.84367 20.3377 6.06486 17.6628C6.88672 16.9803 7.86889 16.6185 8.85956 16.563V16.563Z" fill="#E5631D"/>
<path d="M52.5297 3.84883V10.9867C52.5297 13.9559 51.976 16.802 50.9669 19.427M48.3692 24.3545C46.9252 26.4534 45.1523 28.3108 43.1266 29.8507M38.6097 32.5542C35.6277 33.9151 32.3191 34.6745 28.842 34.6745H28.842M22.8837 33.9107C20.1996 33.2088 17.6972 32.0446 15.4676 30.5095M11.711 27.305C9.8806 25.3848 8.36725 23.1599 7.25746 20.7169M5.73506 16.1949C5.35508 14.5178 5.1543 12.7745 5.1543 10.9868V3.84888" stroke="#26253C" stroke-width="1.5" stroke-miterlimit="22.9256" stroke-linecap="round" stroke-linejoin="round"/>
<path d="M24.3583 43.7348L22.7663 39.8226C22.408 38.9672 22.21 38.0279 22.21 37.0424C22.21 33.0653 25.434 29.8413 29.411 29.8413C33.3881 29.8413 36.6121 33.0653 36.6121 37.0424C36.6121 38.0279 36.4141 38.9672 36.0558 39.8226L29.411 56.1512L25.7777 47.223" stroke="#26253C" stroke-width="1.5" stroke-miterlimit="22.9256" stroke-linecap="round" stroke-linejoin="round"/>
<path d="M32.326 40.3371L31.1631 43.1948" stroke="#26253C" stroke-width="1.5" stroke-miterlimit="22.9256" stroke-linecap="round" stroke-linejoin="round"/>
<path fill-rule="evenodd" clip-rule="evenodd" d="M16.3291 40.3117C11.4608 38.2091 9.04718 32.9556 10.938 28.5775C11.9893 26.1434 14.8148 25.0224 17.2489 26.0737C19.683 27.125 20.804 29.9504 19.7527 32.3845L16.3291 40.3117Z" stroke="#26253C" stroke-width="1.5" stroke-miterlimit="22.9256" stroke-linecap="round" stroke-linejoin="round"/>
<path d="M15.0411 37.3747C15.5033 37.3747 15.8781 37 15.8781 36.5377C15.8781 36.0755 15.5033 35.7007 15.0411 35.7007C14.5788 35.7007 14.2041 36.0755 14.2041 36.5377C14.2041 37 14.5788 37.3747 15.0411 37.3747Z" fill="#26253C"/>
<path d="M1.46497 20.1673C1.95036 19.0315 2.69098 18.0076 3.6833 17.1836C5.7231 15.4897 8.74989 15.7702 10.4437 17.81C12.1376 19.8498 11.8571 22.8766 9.81733 24.5704L3.17433 30.0869C1.4068 27.9584 0.623558 25.3678 0.799601 22.944" stroke="#26253C" stroke-width="1.5" stroke-miterlimit="22.9256" stroke-linecap="round" stroke-linejoin="round"/>
<path d="M3.35611 26.8847C3.76822 27.0941 4.27204 26.9298 4.48143 26.5177C4.69081 26.1056 4.52647 25.6017 4.11436 25.3924C3.70225 25.183 3.19842 25.3473 2.98904 25.7594C2.77965 26.1715 2.944 26.6754 3.35611 26.8847Z" fill="#26253C"/>
<path d="M48.1181 30.0851C47.7963 29.0983 47.2829 28.1703 46.5715 27.3531C44.8307 25.3531 41.7983 25.143 39.7983 26.8839C37.7984 28.6247 37.5883 31.6571 39.3292 33.6571L44.9983 40.1702C47.2071 38.2476 48.4109 35.6369 48.519 33.0785" stroke="#26253C" stroke-width="1.5" stroke-miterlimit="22.9256" stroke-linecap="round" stroke-linejoin="round"/>
<path d="M45.3339 36.9806C44.8935 37.1209 44.4227 36.8777 44.2823 36.4373C44.1419 35.9968 44.3852 35.526 44.8256 35.3856C45.266 35.2453 45.7368 35.4885 45.8772 35.9289C46.0176 36.3694 45.7743 36.8402 45.3339 36.9806Z" fill="#26253C"/>
<path fill-rule="evenodd" clip-rule="evenodd" d="M59.1377 26.3042C59.8093 21.0439 56.5188 16.2901 51.7882 15.6862C49.1581 15.3505 46.7539 17.2104 46.4181 19.8404C46.0823 22.4705 47.9423 24.8748 50.5723 25.2106L59.1377 26.3042H59.1377Z" stroke="#26253C" stroke-width="1.5" stroke-miterlimit="22.9256" stroke-linecap="round" stroke-linejoin="round"/>
<path d="M57.2678 23.6987C57.0322 24.0965 56.5188 24.228 56.1211 23.9924C55.7234 23.7569 55.5919 23.2435 55.8274 22.8457C56.063 22.448 56.5763 22.3165 56.9741 22.5521C57.3718 22.7876 57.5033 23.301 57.2678 23.6987Z" fill="#26253C"/>
</g>
<defs>
<clipPath id="clip0_1420_7754">
<rect width="60" height="60" fill="white"/>
</clipPath>
</defs>
</svg>
