<svg width="60" height="60" viewBox="0 0 60 60" fill="none" xmlns="http://www.w3.org/2000/svg">
<path fill-rule="evenodd" clip-rule="evenodd" d="M29.411 30.5913C25.8482 30.5913 22.96 33.4795 22.96 37.0424C22.96 37.9266 23.1374 38.7675 23.458 39.5327L23.461 39.5398L25.0529 43.4521C25.2091 43.8358 25.0246 44.2734 24.6409 44.4295C24.2573 44.5856 23.8197 44.4011 23.6636 44.0175L22.073 40.1087C21.6778 39.1641 21.46 38.1277 21.46 37.0424C21.46 32.651 25.0198 29.0913 29.411 29.0913C33.8023 29.0913 37.3621 32.6511 37.3621 37.0424C37.3621 38.1277 37.1442 39.1641 36.7491 40.1087L30.1057 56.4339C29.9907 56.7165 29.7161 56.9012 29.411 56.9012C29.106 56.9012 28.8313 56.7165 28.7163 56.4339L25.0831 47.5057C24.9269 47.1221 25.1114 46.6845 25.495 46.5283C25.8787 46.3722 26.3163 46.5567 26.4724 46.9403L29.411 54.1614L35.364 39.5327C35.6846 38.7675 35.8621 37.9266 35.8621 37.0424C35.8621 33.4796 32.9739 30.5913 29.411 30.5913Z" fill="#84828B"/>
<path fill-rule="evenodd" clip-rule="evenodd" d="M16.9514 26.7623C14.8976 25.8752 12.5135 26.8211 11.6264 28.8749C10.0152 32.6055 11.8599 37.1628 15.9489 39.3004L19.0641 32.0873L19.0641 32.0872C19.9512 30.0334 19.0053 27.6493 16.9514 26.7623ZM16.017 40.9939C10.8486 38.7532 8.16738 33.1008 10.2494 28.2802L10.9379 28.5775L10.2494 28.2802C11.4649 25.4658 14.7318 24.1697 17.5462 25.3852C20.3605 26.6007 21.6567 29.8676 20.4411 32.682L17.0176 40.6092C16.8765 40.9357 16.5255 41.1183 16.1772 41.0463C16.121 41.0347 16.0674 41.017 16.017 40.9939Z" fill="#84828B"/>
<path fill-rule="evenodd" clip-rule="evenodd" d="M9.86676 18.2891C8.43745 16.5679 5.88353 16.3313 4.16245 17.7606L3.73423 17.245L4.16245 17.7606C3.26546 18.5055 2.59521 19.4311 2.15462 20.4621C1.99185 20.843 1.55112 21.0198 1.17023 20.857C0.78934 20.6943 0.612519 20.2535 0.775291 19.8727C1.30551 18.6319 2.11646 17.5099 3.20414 16.6067C5.56257 14.6481 9.06221 14.9723 11.0208 17.3308L11.0208 17.3308C12.9792 19.6893 12.655 23.1889 10.2965 25.1474L3.65349 30.6639C3.50046 30.791 3.30322 30.8521 3.10515 30.8337C2.90708 30.8153 2.72442 30.7191 2.59734 30.566C0.708495 28.2913 -0.138793 25.5104 0.0515835 22.8896C0.081593 22.4765 0.440825 22.1659 0.85395 22.1959C1.26707 22.2259 1.57765 22.5852 1.54764 22.9983C1.40175 25.0067 1.97258 27.1562 3.29367 29.0129L9.3382 23.9934C11.0594 22.5641 11.296 20.0103 9.86676 18.2891Z" fill="#84828B"/>
<path fill-rule="evenodd" clip-rule="evenodd" d="M39.3059 26.3182C41.6182 24.3054 45.1244 24.5482 47.1372 26.8606C47.9167 27.7561 48.4791 28.7731 48.8311 29.8525C48.9595 30.2463 48.7444 30.6697 48.3506 30.7981C47.9568 30.9265 47.5335 30.7114 47.405 30.3176C47.1135 29.4234 46.6491 28.5845 46.0058 27.8455L46.0058 27.8455C44.5369 26.1579 41.9782 25.9807 40.2907 27.4496L40.2907 27.4496C38.6033 28.9184 38.426 31.4772 39.8948 33.1646L39.8948 33.1646L45.0533 39.091C46.7598 37.3659 47.6796 35.1768 47.7696 33.0468C47.787 32.633 48.1367 32.3117 48.5505 32.3291C48.9644 32.3466 49.2857 32.6963 49.2682 33.1101C49.1513 35.8794 47.8509 38.6815 45.4907 40.7359C45.3407 40.8665 45.1449 40.9322 44.9465 40.9184C44.748 40.9047 44.5632 40.8127 44.4326 40.6626L38.7634 34.1494C36.7507 31.8371 36.9935 28.3309 39.3059 26.3182Z" fill="#84828B"/>
<path fill-rule="evenodd" clip-rule="evenodd" d="M45.6742 19.7456C46.0625 16.7046 48.8423 14.5541 51.8833 14.9423L51.7955 15.63L51.8833 14.9423C57.0955 15.6077 60.594 20.8013 59.8823 26.3944C59.8604 26.5762 59.7724 26.7448 59.6334 26.8672C59.4717 27.0096 59.2565 27.0755 59.0428 27.0483L50.4774 25.9547L50.4774 25.9547C47.4365 25.5664 45.286 22.7866 45.6742 19.7456L45.6742 19.7456ZM47.1621 19.9355C46.8788 22.1547 48.4482 24.1834 50.6674 24.4668L58.4614 25.4618C58.7057 20.8543 55.7243 16.9448 51.6934 16.4303C49.4741 16.147 47.4455 17.7163 47.1621 19.9355" fill="#84828B"/>
<path fill-rule="evenodd" clip-rule="evenodd" d="M5.1543 3.09878C5.56851 3.09878 5.9043 3.43457 5.9043 3.84878V10.9866C5.9043 12.718 6.09874 14.4058 6.46652 16.029C6.55804 16.433 6.30475 16.8347 5.90077 16.9262C5.4968 17.0177 5.09512 16.7644 5.00359 16.3605C4.61143 14.6295 4.4043 12.8307 4.4043 10.9866V3.84878C4.4043 3.43457 4.74008 3.09878 5.1543 3.09878ZM52.5297 3.09878C52.9439 3.09878 53.2797 3.43457 53.2797 3.84878V10.9866C53.2797 14.0497 52.7084 16.9869 51.6669 19.6961C51.5183 20.0827 51.0844 20.2756 50.6977 20.127C50.3111 19.9784 50.1182 19.5445 50.2668 19.1578C51.2436 16.6169 51.7797 13.8619 51.7797 10.9866V3.84878C51.7797 3.43457 52.1155 3.09878 52.5297 3.09878ZM6.94725 20.0338C7.32437 19.8625 7.76897 20.0294 7.94029 20.4065C9.01485 22.7719 10.4806 24.927 12.2538 26.7873C12.5396 27.0871 12.5282 27.5619 12.2284 27.8477C11.9286 28.1335 11.4539 28.1221 11.1681 27.8223C9.28071 25.8422 7.71965 23.5475 6.5746 21.0269C6.40328 20.6498 6.57012 20.2052 6.94725 20.0338ZM48.7943 23.7365C49.1356 23.9713 49.2219 24.4383 48.9871 24.7795C47.4978 26.9442 45.6695 28.8596 43.5806 30.4476C43.2508 30.6983 42.7803 30.6342 42.5296 30.3044C42.2789 29.9747 42.343 29.5042 42.6728 29.2535C44.6351 27.7617 46.3526 25.9624 47.7513 23.9293C47.9861 23.5881 48.4531 23.5018 48.7943 23.7365ZM14.8499 30.084C15.0848 29.7428 15.5518 29.6567 15.893 29.8916C18.0525 31.3785 20.4754 32.5055 23.0735 33.1849C23.4742 33.2897 23.7141 33.6996 23.6093 34.1003C23.5045 34.501 23.0947 34.7409 22.694 34.6361C19.9237 33.9117 17.3418 32.7103 15.0423 31.1271C14.7012 30.8922 14.615 30.4252 14.8499 30.084ZM39.292 32.2426C39.464 32.6195 39.2979 33.0644 38.9211 33.2363C35.8439 34.6408 32.4293 35.4243 28.842 35.4243H28.8419C28.4277 35.4243 28.0919 35.0886 28.0919 34.6743C28.0919 34.2601 28.4277 33.9243 28.8419 33.9243H28.842C32.2089 33.9243 35.4116 33.1892 38.2983 31.8717C38.6751 31.6998 39.12 31.8658 39.292 32.2426Z" fill="#84828B"/>
<path fill-rule="evenodd" clip-rule="evenodd" d="M32.6089 39.6423C32.9926 39.7985 33.177 40.2361 33.0209 40.6197L31.858 43.4774C31.7018 43.8611 31.2642 44.0455 30.8806 43.8894C30.4969 43.7333 30.3125 43.2957 30.4686 42.912L31.6315 40.0543C31.7877 39.6707 32.2253 39.4862 32.6089 39.6423Z" fill="#84828B"/>
<path d="M15.0411 37.3746C15.5033 37.3746 15.878 36.9999 15.878 36.5377C15.878 36.0755 15.5033 35.7007 15.0411 35.7007C14.5788 35.7007 14.2041 36.0755 14.2041 36.5377C14.2041 36.9999 14.5788 37.3746 15.0411 37.3746Z" fill="#84828B"/>
<path d="M3.35611 26.8848C3.76822 27.0942 4.27205 26.9298 4.48144 26.5177C4.69082 26.1056 4.52648 25.6018 4.11436 25.3924C3.70225 25.183 3.19842 25.3473 2.98904 25.7594C2.77965 26.1716 2.94399 26.6754 3.35611 26.8848Z" fill="#84828B"/>
<path d="M45.3339 36.9805C44.8935 37.1209 44.4227 36.8776 44.2823 36.4372C44.1419 35.9968 44.3852 35.5259 44.8256 35.3856C45.266 35.2452 45.7368 35.4884 45.8772 35.9289C46.0176 36.3693 45.7743 36.8401 45.3339 36.9805Z" fill="#84828B"/>
<path d="M57.2678 23.6987C57.0322 24.0964 56.5188 24.2279 56.1211 23.9924C55.7233 23.7568 55.5919 23.2434 55.8274 22.8457C56.063 22.448 56.5763 22.3165 56.9741 22.552C57.3718 22.7876 57.5033 23.301 57.2678 23.6987Z" fill="#84828B"/>
</svg>
