<svg width="60" height="60" viewBox="0 0 60 60" fill="none" xmlns="http://www.w3.org/2000/svg">
<path d="M13.0913 24.4759C16.8238 24.4759 19.8496 21.4501 19.8496 17.7176C19.8496 13.9851 16.8238 10.9593 13.0913 10.9593C9.35881 10.9593 6.33301 13.9851 6.33301 17.7176C6.33301 21.4501 9.35881 24.4759 13.0913 24.4759Z" fill="#70AD13"/>
<path fill-rule="evenodd" clip-rule="evenodd" d="M13.0913 10.9593C16.8238 10.9593 19.8496 13.985 19.8496 17.7176C19.8496 18.1509 19.8082 18.5746 19.7303 18.9852C18.5995 21.1364 16.3436 22.6037 13.7446 22.6037C10.0121 22.6037 6.98633 19.5779 6.98633 15.8453C6.98633 15.412 7.02768 14.9883 7.10559 14.5777C8.23638 12.4265 10.4923 10.9593 13.0913 10.9593Z" fill="#84C225"/>
<path fill-rule="evenodd" clip-rule="evenodd" d="M13.0913 11.7093C9.773 11.7093 7.08301 14.3993 7.08301 17.7176C7.08301 19.7326 8.07422 21.5161 9.59888 22.6072C9.93572 22.8483 10.0134 23.3168 9.7723 23.6536C9.53124 23.9905 9.06276 24.0681 8.72592 23.8271C6.82461 22.4664 5.58301 20.2369 5.58301 17.7176C5.58301 13.5708 8.94458 10.2093 13.0913 10.2093C17.2381 10.2093 20.5996 13.5708 20.5996 17.7176C20.5996 18.1318 20.2638 18.4676 19.8496 18.4676C19.4354 18.4676 19.0996 18.1318 19.0996 17.7176C19.0996 14.3993 16.4096 11.7093 13.0913 11.7093Z" fill="#26253C"/>
<path fill-rule="evenodd" clip-rule="evenodd" d="M19.5339 7.29205C27.1773 8.62434 34.8624 8.65463 42.5878 7.29205C43.0326 7.21359 43.3368 7.66734 43.409 8.11319C43.9371 11.3766 43.8914 14.6399 43.409 17.9032C43.343 18.35 43.0363 18.6704 42.5878 18.7244C35.033 19.6328 27.3414 19.5844 19.5339 18.7244C19.085 18.6749 18.8092 18.3445 18.7127 17.9032C18.0086 14.679 17.901 11.4217 18.7127 8.11319C18.8204 7.67457 19.0889 7.2145 19.5339 7.29205Z" fill="#AB3C00"/>
<path fill-rule="evenodd" clip-rule="evenodd" d="M19.534 7.29205C27.1774 8.62434 34.8625 8.65463 42.588 7.29205C43.0327 7.21359 43.3369 7.66734 43.4091 8.11319C43.5964 9.27057 43.7114 10.428 43.7605 11.5853C43.7097 12.8101 43.5902 14.0349 43.4091 15.2597C43.3431 15.7065 43.0364 16.0269 42.588 16.0808C35.0331 16.9893 27.3415 16.9408 19.534 16.0808C19.0851 16.0314 18.8093 15.7009 18.7129 15.2597C18.4443 14.03 18.2627 12.7956 18.1855 11.5554C18.2588 10.4137 18.4299 9.26654 18.7129 8.11319C18.8205 7.67457 19.0891 7.2145 19.534 7.29205Z" fill="#E5631D"/>
<path fill-rule="evenodd" clip-rule="evenodd" d="M39.0947 8.55135C38.2913 8.65382 37.3746 8.7633 36.3409 8.84516C35.928 8.87785 35.5667 8.56962 35.534 8.1567C35.5013 7.74378 35.8096 7.38254 36.2225 7.34984C37.2211 7.27076 38.1107 7.16472 38.9049 7.0634C39.0785 7.04126 39.2487 7.01918 39.4151 6.9976C40.002 6.92146 40.5419 6.85142 41.0208 6.80583C41.633 6.74755 42.2044 6.72253 42.7067 6.78797C43.2188 6.85468 43.7134 7.02227 44.1148 7.3932C44.5147 7.7628 44.7416 8.25987 44.8647 8.83C44.9866 9.39384 45.0179 10.079 44.9891 10.8904C44.9314 12.5115 44.6242 14.8128 44.1512 18.0129C44.079 18.5011 43.6866 18.7725 43.4621 18.9008C43.1935 19.0542 42.8542 19.1766 42.4895 19.2793C41.7514 19.4871 40.7469 19.6578 39.589 19.7956C37.2636 20.0725 34.2036 20.23 31.1491 20.2535C28.0953 20.2769 25.0185 20.1667 22.6613 19.9012C21.4876 19.7691 20.4603 19.5951 19.695 19.3684C19.3153 19.256 18.962 19.1198 18.6792 18.9467C18.4177 18.7866 18.0779 18.5101 17.9803 18.0633L17.9803 18.0632C17.2831 14.8711 16.8999 12.5661 16.8543 10.9261C16.8097 9.32289 17.0781 8.10149 17.9904 7.4006C18.4343 7.05961 18.9608 6.9004 19.5055 6.8337C20.0461 6.76749 20.6509 6.78712 21.2918 6.84131C21.8444 6.88803 22.4571 6.96381 23.1109 7.04466C23.2171 7.0578 23.3244 7.07107 23.4327 7.08437C24.2146 7.18039 25.0651 7.28027 25.9915 7.35273C26.4044 7.38503 26.713 7.74598 26.6807 8.15893C26.6484 8.57189 26.2874 8.88047 25.8745 8.84816C24.9138 8.77302 24.0363 8.66977 23.2499 8.57318C23.1388 8.55954 23.0299 8.54607 22.9229 8.53286C22.2662 8.45169 21.6866 8.38004 21.1654 8.33597C20.5579 8.28461 20.0745 8.27522 19.6878 8.32257C19.3052 8.36943 19.0654 8.46635 18.9043 8.59009C18.6068 8.81867 18.3113 9.36116 18.3537 10.8844C18.3946 12.3552 18.742 14.5091 19.4238 17.6423C19.4341 17.6495 19.4469 17.6579 19.4623 17.6673C19.5855 17.7427 19.7979 17.8345 20.1209 17.9302C20.7608 18.1196 21.6862 18.2819 22.8291 18.4107C25.1049 18.6669 28.1166 18.7767 31.1375 18.7535C34.1577 18.7303 37.1588 18.5744 39.4117 18.3061C40.5429 18.1714 41.4569 18.0117 42.083 17.8354C42.3792 17.752 42.577 17.6742 42.6942 17.6115C43.1543 14.4899 43.4369 12.33 43.49 10.8371C43.517 10.077 43.4822 9.53404 43.3986 9.14674C43.3163 8.76573 43.1983 8.58867 43.0967 8.49481C42.9966 8.40229 42.833 8.3171 42.5129 8.2754C42.1831 8.23242 41.7482 8.24336 41.1629 8.29908C40.712 8.34201 40.2068 8.40752 39.6255 8.48291C39.4553 8.50498 39.2785 8.5279 39.0947 8.55135ZM42.7832 17.5544C42.7838 17.5545 42.78 17.5584 42.7698 17.5657C42.7776 17.558 42.7826 17.5543 42.7832 17.5544ZM19.3842 17.6106C19.3844 17.6106 19.3861 17.6121 19.3889 17.6154C19.3855 17.6122 19.3841 17.6106 19.3842 17.6106ZM34.0048 8.24237C34.0184 8.65636 33.6938 9.00301 33.2798 9.01664C31.9057 9.06187 30.5329 9.0643 29.1615 9.0245C28.7475 9.01248 28.4216 8.6671 28.4336 8.25306C28.4456 7.83902 28.791 7.51312 29.205 7.52513C30.5456 7.56404 31.8875 7.56165 33.2305 7.51745C33.6445 7.50383 33.9911 7.82838 34.0048 8.24237Z" fill="#26253C"/>
<path d="M29.1039 8.50819C29.1039 7.66211 28.4181 6.97623 27.572 6.97623C26.7259 6.97623 26.04 7.66211 26.04 8.50819V17.8315C26.04 18.6776 26.7259 19.3634 27.572 19.3634C28.4181 19.3634 29.1039 18.6776 29.1039 17.8315V8.50819Z" fill="#6A5C6B"/>
<path fill-rule="evenodd" clip-rule="evenodd" d="M29.1039 10.0872V17.8315C29.1039 18.6741 28.4146 19.3634 27.572 19.3634H27.572C26.7294 19.3634 26.04 18.6741 26.04 17.8315V10.0872C26.04 9.24466 26.7294 8.55528 27.572 8.55528H27.572C28.4146 8.55528 29.1039 9.24462 29.1039 10.0872Z" fill="#7E707D"/>
<path d="M10.233 26.1456L5.49916 25.0525C4.59138 24.8428 3.68553 25.4088 3.4759 26.3166L0.818939 37.8224C0.609309 38.7302 1.17528 39.636 2.08307 39.8456L6.8169 40.9388C7.72469 41.1484 8.63053 40.5825 8.84016 39.6747L11.4971 28.1689C11.7068 27.2611 11.1408 26.3553 10.233 26.1456Z" fill="#6A5C6B"/>
<path fill-rule="evenodd" clip-rule="evenodd" d="M11.2495 26.8467C11.5025 27.2217 11.606 27.6961 11.4968 28.1689L8.83983 39.6748C8.63105 40.5788 7.72064 41.1476 6.81663 40.9389L3.18496 40.1002C2.93213 39.7252 2.82849 39.2508 2.9377 38.778L5.59471 27.2721C5.80345 26.3681 6.71386 25.7992 7.61787 26.008L11.2495 26.8467Z" fill="#7E707D"/>
<path fill-rule="evenodd" clip-rule="evenodd" d="M7.09898 43.1425C7.09898 44.3965 8.11544 45.4129 9.36936 45.4129H56.955C58.2089 45.4129 59.2254 44.3965 59.2254 43.1425V34.0611C59.2254 31.8714 57.4504 30.0964 55.2607 30.0964L48.924 30.0966C48.163 30.0966 47.4894 29.7221 47.0775 29.1474L41.6436 21.3503C40.8316 20.1649 39.4678 19.3873 37.9224 19.3873H19.9524C18.945 19.3873 18.0149 19.7178 17.2078 20.3197C10.2339 25.3447 7.05813 32.3775 7.09902 43.1425L7.09898 43.1425Z" fill="#E77817"/>
<path fill-rule="evenodd" clip-rule="evenodd" d="M59.2254 39.5562V34.061C59.2254 31.8714 57.4504 30.0964 55.2607 30.0964L48.9241 30.0965C48.163 30.0965 47.4894 29.722 47.0775 29.1474L41.7707 21.5327C41.2787 21.3484 40.7459 21.2476 40.1896 21.2476H22.2195C21.2121 21.2476 20.282 21.578 19.4749 22.1799C13.2118 26.6929 10.0126 32.8258 9.45508 41.8265H56.955C58.209 41.8265 59.2254 40.8101 59.2254 39.5562Z" fill="#FFA85C"/>
<path fill-rule="evenodd" clip-rule="evenodd" d="M5.33014 25.7832C4.82974 25.6677 4.32207 25.9848 4.20652 26.4853C4.11334 26.8889 3.71062 27.1405 3.30702 27.0473C2.90342 26.9542 2.65179 26.5514 2.74497 26.1478C3.0469 24.8402 4.36004 24.0197 5.66766 24.3217C5.66765 24.3217 5.66766 24.3217 5.66766 24.3217L10.4016 25.4149C10.9014 25.5303 11.3307 25.7945 11.652 26.1478C11.8803 26.3987 11.9117 26.7717 11.7286 27.0572C9.37212 30.7332 8.11157 35.2639 7.88585 41.0103C7.86964 41.4228 7.52312 41.7447 7.11054 41.7304C6.95733 41.7251 6.80254 41.7053 6.64803 41.6696C6.648 41.6696 6.64805 41.6696 6.64803 41.6696L1.91408 40.5764C0.606525 40.2744 -0.214025 38.9614 0.087965 37.6537L1.86353 29.9648C1.95673 29.5612 2.35946 29.3096 2.76306 29.4028C3.16665 29.496 3.41827 29.8987 3.32507 30.3023L1.5495 37.9912C1.43394 38.4916 1.75112 38.9993 2.25158 39.1149C2.25157 39.1149 2.25158 39.1149 2.25158 39.1149L6.42947 40.0797C6.73459 34.849 7.91278 30.5148 10.0757 26.8792C10.0719 26.8782 10.068 26.8773 10.0641 26.8764C10.0641 26.8764 10.0641 26.8764 10.0641 26.8764L5.33014 25.7832Z" fill="#26253C"/>
<path fill-rule="evenodd" clip-rule="evenodd" d="M9.43415 29.7814C8.43543 32.0854 7.76567 34.6605 7.4082 37.5563L7.48413 37.5692C9.2117 37.8613 10.8641 36.6869 11.1563 34.9593L11.4389 33.2884C11.6954 31.7713 10.821 30.3123 9.43415 29.7814Z" fill="#AB3C00"/>
<path fill-rule="evenodd" clip-rule="evenodd" d="M8.74608 29.4831C8.90579 29.1147 9.32733 28.9374 9.70234 29.081C11.4149 29.7366 12.496 31.5357 12.1784 33.4135L11.8959 35.0844L11.8959 35.0844C11.5346 37.2204 9.49514 38.6699 7.35914 38.3087L7.35913 38.3087L7.28321 38.2958C6.88765 38.2289 6.61477 37.8626 6.66392 37.4644C7.02874 34.5091 7.71456 31.8628 8.74608 29.4831ZM9.8061 30.8477C9.09706 32.6624 8.58324 34.6541 8.26033 36.8509C9.32155 36.741 10.231 35.9334 10.4169 34.8343C10.4169 34.8343 10.4169 34.8343 10.4169 34.8343L10.6994 33.1634L10.6994 33.1634C10.8518 32.2622 10.4799 31.3837 9.8061 30.8477Z" fill="#26253C"/>
<path fill-rule="evenodd" clip-rule="evenodd" d="M59.2247 36.1326V34.0611C59.2247 31.8714 57.4497 30.0964 55.26 30.0964H54.5566V33.2885C54.5566 34.8528 55.8364 36.1326 57.4007 36.1326H59.2247Z" fill="#D9EEFF"/>
<path fill-rule="evenodd" clip-rule="evenodd" d="M22.9914 22.611H28.0364C28.7163 22.611 29.2726 23.1673 29.2726 23.8472V29.4068C29.2726 30.0867 28.7163 30.643 28.0364 30.643H22.9914C22.3115 30.643 21.7552 30.0867 21.7552 29.4068V23.8472C21.7552 23.1673 22.3115 22.611 22.9914 22.611ZM14.6245 28.773C14.5613 28.9425 14.5312 29.1031 14.5312 29.2707C14.5312 30.0286 15.1456 30.6429 15.9034 30.6429H17.1972C17.8771 30.6429 18.4334 30.0867 18.4334 29.4067V23.4624C16.6719 24.7873 15.3627 26.3838 14.6245 28.773ZM42.2304 28.2645C42.3527 28.4919 42.4221 28.752 42.4221 29.0283C42.4221 29.92 41.6992 30.6429 40.8075 30.6429H33.8306C33.1507 30.6429 32.5944 30.0867 32.5944 29.4067V23.8472C32.5944 23.1672 33.1506 22.611 33.8306 22.611H38.1152C38.7305 22.611 39.2655 22.9552 39.5379 23.4615L42.2304 28.2645L42.2304 28.2645Z" fill="#6A5C6B"/>
<path fill-rule="evenodd" clip-rule="evenodd" d="M16.7645 19.7147C17.6909 19.0253 18.7746 18.6373 19.9524 18.6373H37.9224C39.7244 18.6373 41.3144 19.5445 42.2605 20.9237C42.2611 20.9246 42.2617 20.9255 42.2623 20.9264L47.6896 28.714C47.967 29.0986 48.4166 29.3466 48.924 29.3466L55.2607 29.3464C57.8646 29.3464 59.9754 31.4572 59.9754 34.0611V43.1425C59.9754 44.8107 58.6231 46.1629 56.955 46.1629H36.3037C35.8894 46.1629 35.5537 45.8271 35.5537 45.4129C35.5537 44.9987 35.8894 44.6629 36.3037 44.6629H56.955C57.7947 44.6629 58.4754 43.9822 58.4754 43.1425V34.0611C58.4754 32.2856 57.0362 30.8464 55.2607 30.8464L48.924 30.8466C47.911 30.8466 47.0146 30.347 46.4679 29.5844L46.4621 29.5763L46.4622 29.5762L41.0283 21.7791L41.0248 21.7741C40.3467 20.7842 39.21 20.1373 37.9224 20.1373H19.9524C19.1176 20.1373 18.3428 20.4088 17.6562 20.9209L17.6463 20.9282L17.6462 20.9281C14.2567 23.3705 11.8098 26.2839 10.2081 29.8835C8.60266 33.4916 7.82884 37.8289 7.84902 43.1396L7.84903 43.1425C7.84902 43.9822 8.52969 44.6628 9.3694 44.6628H31.6296C32.0438 44.6628 32.3796 44.9986 32.3796 45.4128C32.3796 45.8271 32.0438 46.1628 31.6296 46.1628H9.3694C7.70179 46.1628 6.34984 44.8115 6.34902 43.144C6.34902 43.1435 6.34902 43.143 6.34902 43.1425H7.09902L6.34903 43.1453C6.34903 43.1449 6.34902 43.1444 6.34902 43.144C6.32844 37.6903 7.12209 33.1292 8.83765 29.2737C10.5563 25.4112 13.1826 22.2967 16.7645 19.7147ZM16.7645 19.7147C16.7628 19.7159 16.7611 19.7172 16.7594 19.7184L17.2078 20.3197L16.7693 19.7112C16.7677 19.7123 16.7661 19.7135 16.7645 19.7147Z" fill="#26253C"/>
<path fill-rule="evenodd" clip-rule="evenodd" d="M54.5566 32.5385C54.9709 32.5385 55.3066 32.8743 55.3066 33.2885C55.3066 34.4386 56.2507 35.3826 57.4007 35.3826H59.2247C59.6389 35.3826 59.9747 35.7184 59.9747 36.1326C59.9747 36.5468 59.6389 36.8826 59.2247 36.8826H57.4007C55.4222 36.8826 53.8066 35.267 53.8066 33.2885C53.8066 32.8743 54.1424 32.5385 54.5566 32.5385Z" fill="#26253C"/>
<path fill-rule="evenodd" clip-rule="evenodd" d="M22.9904 23.3609C22.7247 23.3609 22.5042 23.5814 22.5042 23.8471V29.4067C22.5042 29.6724 22.7248 29.8929 22.9904 29.8929H28.0355C28.3011 29.8929 28.5216 29.6724 28.5216 29.4067C28.5216 28.9925 28.8574 28.6567 29.2716 28.6567C29.6859 28.6567 30.0216 28.9925 30.0216 29.4067C30.0216 30.5007 29.1296 31.3929 28.0355 31.3929H22.9904C21.8964 31.3929 21.0042 30.5009 21.0042 29.4067V23.8471C21.0042 22.753 21.8963 21.8609 22.9904 21.8609H28.0355C29.1296 21.8609 30.0216 22.753 30.0216 23.8471V26.876C30.0216 27.2902 29.6859 27.626 29.2716 27.626C28.8574 27.626 28.5216 27.2902 28.5216 26.876V23.8471C28.5216 23.5814 28.3011 23.3609 28.0355 23.3609H22.9904ZM33.8297 23.361C33.5639 23.361 33.3435 23.5814 33.3435 23.8472V29.4067C33.3435 29.6724 33.564 29.8929 33.8297 29.8929H40.8066C41.2841 29.8929 41.6712 29.5058 41.6712 29.0283C41.6712 28.8811 41.635 28.7444 41.5716 28.6246L40.2299 26.2312C40.0273 25.8699 40.156 25.4128 40.5173 25.2102C40.8786 25.0077 41.3357 25.1364 41.5383 25.4977L42.8902 27.9093C43.0697 28.2431 43.1712 28.6249 43.1712 29.0283C43.1712 30.3342 42.1125 31.3929 40.8066 31.3929H33.8297C32.7356 31.3929 31.8435 30.5009 31.8435 29.4067V23.8472C31.8435 22.753 32.7355 21.861 33.8297 21.861H38.1143C39.0164 21.861 39.7995 22.3665 40.1975 23.1062C40.3937 23.471 40.2571 23.9258 39.8923 24.122C39.5276 24.3183 39.0728 24.1816 38.8765 23.8169C38.7297 23.5439 38.4428 23.361 38.1143 23.361H33.8297ZM18.7674 22.7913C19.0217 22.9183 19.1824 23.1781 19.1824 23.4624V29.4067C19.1824 30.5009 18.2903 31.3929 17.1962 31.3929H15.9025C14.7304 31.3929 13.7803 30.4427 13.7803 29.2707C13.7803 29.0146 13.826 28.7722 13.9128 28.5326C14.7062 25.9791 16.1203 24.263 17.9816 22.863C18.2088 22.6921 18.513 22.6644 18.7674 22.7913ZM17.6824 25.0904C16.6353 26.1251 15.8461 27.3567 15.3401 28.9943C15.3359 29.008 15.3313 29.0215 15.3263 29.0349C15.2919 29.1271 15.2803 29.1993 15.2803 29.2707C15.2803 29.6143 15.5589 29.8929 15.9025 29.8929H17.1962C17.462 29.8929 17.6824 29.6724 17.6824 29.4067V25.0904Z" fill="#26253C"/>
<path fill-rule="evenodd" clip-rule="evenodd" d="M21.7842 33.6658C21.7842 33.2516 22.12 32.9158 22.5342 32.9158H24.6185C25.0327 32.9158 25.3685 33.2516 25.3685 33.6658C25.3685 34.0801 25.0327 34.4158 24.6185 34.4158H22.5342C22.12 34.4158 21.7842 34.0801 21.7842 33.6658Z" fill="#26253C"/>
<path fill-rule="evenodd" clip-rule="evenodd" d="M31.6055 33.6658C31.6055 33.2516 31.9413 32.9158 32.3555 32.9158H34.4398C34.854 32.9158 35.1898 33.2516 35.1898 33.6658C35.1898 34.0801 34.854 34.4158 34.4398 34.4158H32.3555C31.9413 34.4158 31.6055 34.0801 31.6055 33.6658Z" fill="#26253C"/>
<path fill-rule="evenodd" clip-rule="evenodd" d="M27.572 7.72623C27.1401 7.72623 26.79 8.07632 26.79 8.50819V17.8315C26.79 18.2633 27.1401 18.6134 27.572 18.6134C28.0038 18.6134 28.3539 18.2633 28.3539 17.8315V8.50819C28.3539 8.07632 28.0038 7.72623 27.572 7.72623ZM25.29 8.50819C25.29 7.24791 26.3117 6.22623 27.572 6.22623C28.8323 6.22623 29.8539 7.24791 29.8539 8.50819V17.8315C29.8539 19.0918 28.8323 20.1134 27.572 20.1134C26.3117 20.1134 25.29 19.0918 25.29 17.8315V8.50819Z" fill="#26253C"/>
<path d="M12.1375 18.1602C11.7094 18.1602 11.3623 17.8131 11.3623 17.385C11.3623 16.957 11.7094 16.6098 12.1375 16.6098C12.6887 16.6098 13.1904 16.8299 13.5556 17.1854C13.9265 17.5466 14.1559 18.0453 14.1559 18.5957C14.1559 19.1461 13.9265 19.6448 13.5556 20.006C13.1904 20.3616 12.6888 20.5816 12.1375 20.5816C11.2429 20.5816 10.4305 20.2261 9.84037 19.6514C9.24458 19.0711 8.87598 18.2698 8.87598 17.3851C8.87598 16.5004 9.24454 15.6991 9.84041 15.1188C10.4305 14.5441 11.2429 14.1886 12.1375 14.1886C14.6254 14.1886 16.6423 16.1618 16.6423 18.5957C16.6423 19.0238 16.2952 19.3709 15.8671 19.3709C15.439 19.3709 15.0919 19.0238 15.0919 18.5957C15.0919 17.018 13.7692 15.739 12.1375 15.739C11.659 15.739 11.2281 15.9256 10.9184 16.2272C10.6144 16.5232 10.4264 16.9326 10.4264 17.3851C10.4264 17.8377 10.6144 18.2471 10.9184 18.5431C11.2281 18.8447 11.659 19.0313 12.1375 19.0313C12.2727 19.0313 12.3929 18.9802 12.4776 18.8977C12.5566 18.8208 12.6055 18.714 12.6055 18.5957C12.6055 18.4775 12.5565 18.3707 12.4776 18.2938C12.3929 18.2113 12.2728 18.1603 12.1375 18.1603V18.1602Z" fill="#26253C"/>
<path d="M19.3629 53.0238C23.5663 53.0238 26.9739 49.6162 26.9739 45.4128C26.9739 41.2094 23.5663 37.8018 19.3629 37.8018C15.1595 37.8018 11.752 41.2094 11.752 45.4128C11.752 49.6162 15.1595 53.0238 19.3629 53.0238Z" fill="#6A5C6B"/>
<path fill-rule="evenodd" clip-rule="evenodd" d="M23.7626 39.2014C25.706 40.5804 26.9743 42.8485 26.9743 45.4128C26.9743 49.6162 23.5668 53.0238 19.3633 53.0238C18.5385 53.0238 17.7445 52.892 17.0007 52.6493C15.0573 51.2704 13.7891 49.0023 13.7891 46.438C13.7891 42.2346 17.1966 38.827 21.4 38.827C22.2248 38.827 23.0188 38.9588 23.7626 39.2014Z" fill="#7E707D"/>
<path fill-rule="evenodd" clip-rule="evenodd" d="M19.3629 38.5518C15.5737 38.5518 12.502 41.6236 12.502 45.4128C12.502 48.0836 14.0279 50.3993 16.2588 51.5332C16.6281 51.7209 16.7753 52.1724 16.5876 52.5416C16.3999 52.9109 15.9484 53.0581 15.5792 52.8704C12.8645 51.4907 11.002 48.6699 11.002 45.4128C11.002 40.7952 14.7453 37.0518 19.3629 37.0518C23.9805 37.0518 27.7239 40.7952 27.7239 45.4128C27.7239 50.0304 23.9806 53.7738 19.3629 53.7738C18.9487 53.7738 18.6129 53.438 18.6129 53.0238C18.6129 52.6096 18.9487 52.2738 19.3629 52.2738C23.1521 52.2738 26.2239 49.202 26.2239 45.4128C26.2239 41.6236 23.1521 38.5518 19.3629 38.5518Z" fill="#26253C"/>
<path d="M19.3635 48.6972C21.1774 48.6972 22.6479 47.2267 22.6479 45.4128C22.6479 43.5989 21.1774 42.1284 19.3635 42.1284C17.5496 42.1284 16.0791 43.5989 16.0791 45.4128C16.0791 47.2267 17.5496 48.6972 19.3635 48.6972Z" fill="#D9EEFF"/>
<path fill-rule="evenodd" clip-rule="evenodd" d="M21.8351 43.2503C22.341 43.828 22.6477 44.5846 22.6477 45.4128C22.6477 47.2267 21.1772 48.6972 19.3633 48.6972C18.9922 48.6972 18.6355 48.6356 18.3028 48.5221C17.797 47.9444 17.4902 47.1878 17.4902 46.3596C17.4902 44.5457 18.9607 43.0752 20.7746 43.0752C21.1457 43.0752 21.5024 43.1368 21.8351 43.2503Z" fill="#EFF6FF"/>
<path fill-rule="evenodd" clip-rule="evenodd" d="M19.3635 42.8784C17.9638 42.8784 16.8291 44.0131 16.8291 45.4128C16.8291 46.8125 17.9638 47.9472 19.3635 47.9472C20.7632 47.9472 21.8979 46.8125 21.8979 45.4128C21.8979 44.0131 20.7632 42.8784 19.3635 42.8784ZM15.3291 45.4128C15.3291 43.1847 17.1354 41.3784 19.3635 41.3784C21.5916 41.3784 23.3979 43.1847 23.3979 45.4128C23.3979 47.6409 21.5916 49.4472 19.3635 49.4472C17.1354 49.4472 15.3291 47.6409 15.3291 45.4128Z" fill="#26253C"/>
<path d="M46.0934 53.0238C50.2968 53.0238 53.7043 49.6162 53.7043 45.4128C53.7043 41.2094 50.2968 37.8018 46.0934 37.8018C41.89 37.8018 38.4824 41.2094 38.4824 45.4128C38.4824 49.6162 41.89 53.0238 46.0934 53.0238Z" fill="#6A5C6B"/>
<path fill-rule="evenodd" clip-rule="evenodd" d="M50.4931 39.2014C52.4365 40.5804 53.7047 42.8485 53.7047 45.4128C53.7047 49.6162 50.2972 53.0238 46.0938 53.0238C45.269 53.0238 44.475 52.892 43.7312 52.6493C41.7878 51.2704 40.5195 49.0023 40.5195 46.438C40.5195 42.2346 43.9271 38.827 48.1305 38.827C48.9553 38.827 49.7493 38.9588 50.4931 39.2014Z" fill="#7E707D"/>
<path fill-rule="evenodd" clip-rule="evenodd" d="M46.0934 38.5518C42.3042 38.5518 39.2324 41.6236 39.2324 45.4128C39.2324 49.202 42.3042 52.2738 46.0934 52.2738C49.8826 52.2738 52.9543 49.202 52.9543 45.4128C52.9543 42.8462 51.5453 40.6077 49.4551 39.4303C49.0942 39.2271 48.9665 38.7697 49.1697 38.4088C49.373 38.0479 49.8304 37.9201 50.1913 38.1234C52.7342 39.5557 54.4543 42.2829 54.4543 45.4128C54.4543 50.0304 50.711 53.7738 46.0934 53.7738C41.4758 53.7738 37.7324 50.0305 37.7324 45.4128C37.7324 40.7952 41.4757 37.0518 46.0934 37.0518C46.5076 37.0518 46.8434 37.3876 46.8434 37.8018C46.8434 38.2161 46.5076 38.5518 46.0934 38.5518Z" fill="#26253C"/>
<path d="M46.094 48.6972C47.9079 48.6972 49.3783 47.2267 49.3783 45.4128C49.3783 43.5989 47.9079 42.1284 46.094 42.1284C44.28 42.1284 42.8096 43.5989 42.8096 45.4128C42.8096 47.2267 44.28 48.6972 46.094 48.6972Z" fill="#D9EEFF"/>
<path fill-rule="evenodd" clip-rule="evenodd" d="M48.5656 43.2503C49.0714 43.828 49.3781 44.5846 49.3781 45.4128C49.3781 47.2267 47.9077 48.6972 46.0938 48.6972C45.7227 48.6972 45.366 48.6356 45.0333 48.5221C44.5274 47.9444 44.2207 47.1878 44.2207 46.3596C44.2207 44.5457 45.6912 43.0752 47.5051 43.0752C47.8761 43.0752 48.2329 43.1368 48.5656 43.2503Z" fill="#EFF6FF"/>
<path fill-rule="evenodd" clip-rule="evenodd" d="M46.094 42.8784C44.6943 42.8784 43.5596 44.0131 43.5596 45.4128C43.5596 46.8125 44.6943 47.9472 46.094 47.9472C47.4937 47.9472 48.6283 46.8125 48.6283 45.4128C48.6283 44.0131 47.4937 42.8784 46.094 42.8784ZM42.0596 45.4128C42.0596 43.1847 43.8658 41.3784 46.094 41.3784C48.3221 41.3784 50.1283 43.1847 50.1283 45.4128C50.1283 47.6409 48.3221 49.4472 46.094 49.4472C43.8658 49.4472 42.0596 47.6409 42.0596 45.4128Z" fill="#26253C"/>
<path d="M36.4301 8.50819C36.4301 7.66211 35.7442 6.97623 34.8982 6.97623C34.0521 6.97623 33.3662 7.66211 33.3662 8.50819V17.8315C33.3662 18.6776 34.0521 19.3634 34.8982 19.3634C35.7442 19.3634 36.4301 18.6776 36.4301 17.8315V8.50819Z" fill="#6A5C6B"/>
<path fill-rule="evenodd" clip-rule="evenodd" d="M36.4301 10.0872V17.8315C36.4301 18.6741 35.7408 19.3634 34.8982 19.3634H34.8981C34.0556 19.3634 33.3662 18.6741 33.3662 17.8315V10.0872C33.3662 9.24466 34.0555 8.55528 34.8981 8.55528H34.8982C35.7407 8.55528 36.4301 9.24462 36.4301 10.0872Z" fill="#7E707D"/>
<path fill-rule="evenodd" clip-rule="evenodd" d="M34.8981 7.72623C34.4698 7.72623 34.1162 8.0798 34.1162 8.50815V17.8315C34.1162 18.2599 34.4698 18.6134 34.8981 18.6134H34.8982C35.3265 18.6134 35.6801 18.2599 35.6801 17.8315V12.3801C35.6801 11.9659 36.0159 11.6301 36.4301 11.6301C36.8443 11.6301 37.1801 11.9659 37.1801 12.3801V17.8315C37.1801 19.0883 36.155 20.1134 34.8982 20.1134H34.8981C33.6414 20.1134 32.6162 19.0883 32.6162 17.8315V8.50815C32.6162 7.2514 33.6413 6.22623 34.8981 6.22623H34.8982C36.1549 6.22623 37.1801 7.25133 37.1801 8.50815C37.1801 8.92237 36.8443 9.25815 36.4301 9.25815C36.0159 9.25815 35.6801 8.92237 35.6801 8.50815C35.6801 8.07979 35.3265 7.72623 34.8982 7.72623H34.8981Z" fill="#26253C"/>
</svg>
