<svg width="60" height="60" viewBox="0 0 60 60" fill="none" xmlns="http://www.w3.org/2000/svg">
<path fill-rule="evenodd" clip-rule="evenodd" d="M19.3635 42.8785C17.9638 42.8785 16.8291 44.0132 16.8291 45.4129C16.8291 46.8126 17.9638 47.9472 19.3635 47.9472C20.7632 47.9472 21.8978 46.8126 21.8978 45.4129C21.8978 44.0132 20.7632 42.8785 19.3635 42.8785ZM15.3291 45.4129C15.3291 43.1847 17.1354 41.3785 19.3635 41.3785C21.5916 41.3785 23.3978 43.1847 23.3978 45.4129C23.3978 47.641 21.5916 49.4472 19.3635 49.4472C17.1354 49.4472 15.3291 47.641 15.3291 45.4129Z" fill="#84828B"/>
<path fill-rule="evenodd" clip-rule="evenodd" d="M19.3629 38.5518C15.5737 38.5518 12.502 41.6235 12.502 45.4128C12.502 48.0836 14.0279 50.3993 16.2589 51.5332C16.6281 51.7209 16.7753 52.1724 16.5876 52.5417C16.3999 52.9109 15.9485 53.0581 15.5792 52.8704C12.8646 51.4906 11.002 48.6699 11.002 45.4128C11.002 40.7951 14.7453 37.0518 19.3629 37.0518C23.9806 37.0518 27.7239 40.7951 27.7239 45.4128C27.7239 50.0304 23.9806 53.7738 19.3629 53.7738C18.9487 53.7738 18.6129 53.438 18.6129 53.0238C18.6129 52.6095 18.9487 52.2738 19.3629 52.2738C23.1522 52.2738 26.2239 49.202 26.2239 45.4128C26.2239 41.6235 23.1522 38.5518 19.3629 38.5518Z" fill="#84828B"/>
<path fill-rule="evenodd" clip-rule="evenodd" d="M46.0939 42.8785C44.6942 42.8785 43.5596 44.0132 43.5596 45.4129C43.5596 46.8126 44.6942 47.9472 46.0939 47.9472C47.4936 47.9472 48.6283 46.8126 48.6283 45.4129C48.6283 44.0132 47.4936 42.8785 46.0939 42.8785ZM42.0596 45.4129C42.0596 43.1847 43.8658 41.3785 46.0939 41.3785C48.3221 41.3785 50.1283 43.1847 50.1283 45.4129C50.1283 47.641 48.3221 49.4472 46.0939 49.4472C43.8658 49.4472 42.0596 47.641 42.0596 45.4129Z" fill="#84828B"/>
<path fill-rule="evenodd" clip-rule="evenodd" d="M46.0934 38.5518C42.3042 38.5518 39.2324 41.6235 39.2324 45.4128C39.2324 49.202 42.3042 52.2738 46.0934 52.2738C49.8826 52.2738 52.9544 49.202 52.9544 45.4128C52.9544 42.8462 51.5454 40.6077 49.4552 39.4303C49.0943 39.2271 48.9665 38.7697 49.1698 38.4088C49.3731 38.0479 49.8304 37.9201 50.1913 38.1234C52.7343 39.5557 54.4544 42.2829 54.4544 45.4128C54.4544 50.0304 50.7111 53.7738 46.0934 53.7738C41.4758 53.7738 37.7324 50.0304 37.7324 45.4128C37.7324 40.7951 41.4758 37.0518 46.0934 37.0518C46.5076 37.0518 46.8434 37.3876 46.8434 37.8018C46.8434 38.216 46.5076 38.5518 46.0934 38.5518Z" fill="#84828B"/>
<path fill-rule="evenodd" clip-rule="evenodd" d="M9.00918 29.1635C9.21259 29.0236 9.47184 28.9927 9.70241 29.081C11.415 29.7366 12.4961 31.5358 12.1785 33.4135C12.1785 33.4135 12.1785 33.4135 12.1785 33.4135L11.896 35.0844C11.5347 37.2203 9.49536 38.6698 7.35944 38.3088C7.35936 38.3087 7.35951 38.3088 7.35944 38.3088L7.28346 38.2959C6.88777 38.2292 6.61475 37.8627 6.66392 37.4645C7.02845 34.5122 7.71319 31.8682 8.74303 29.4904C8.79791 29.36 8.88933 29.2459 9.00918 29.1635ZM9.80616 30.8477C9.09711 32.6624 8.58331 34.6541 8.26035 36.8509C9.32161 36.7411 10.231 35.9335 10.417 34.8343C10.4169 34.8343 10.417 34.8343 10.417 34.8343L10.6995 33.1634C10.8519 32.2622 10.48 31.3838 9.80616 30.8477Z" fill="#84828B"/>
<path fill-rule="evenodd" clip-rule="evenodd" d="M5.33011 25.7833C4.8298 25.6677 4.32211 25.9848 4.20656 26.4853C4.11337 26.8889 3.71065 27.1405 3.30706 27.0474C2.90346 26.9542 2.65182 26.5515 2.74501 26.1479C3.04692 24.8402 4.36005 24.0197 5.66767 24.3217C5.66765 24.3217 5.66769 24.3217 5.66767 24.3217L10.4016 25.4149C10.9013 25.5303 11.3307 25.7944 11.6521 26.1479C11.8803 26.3988 11.9117 26.7717 11.7286 27.0572C9.37214 30.7332 8.11155 35.2639 7.88583 41.0104C7.86962 41.423 7.52289 41.7449 7.11019 41.7305C6.95738 41.7251 6.80264 41.7054 6.64787 41.6696L1.91409 40.5765C1.91409 40.5765 1.91409 40.5765 1.91409 40.5765C0.606576 40.2746 -0.214063 38.9614 0.0879795 37.6537C0.0879762 37.6537 0.0879827 37.6537 0.0879795 37.6537L1.86355 29.9649C1.95675 29.5613 2.35948 29.3097 2.76307 29.4029C3.16666 29.4961 3.41828 29.8988 3.32508 30.3024L1.54952 37.9912C1.43393 38.4916 1.75115 38.9994 2.25157 39.1149L6.42945 40.0797C6.73458 34.849 7.9128 30.5148 10.0757 26.8792C10.0719 26.8782 10.068 26.8773 10.0641 26.8764C10.0641 26.8764 10.0641 26.8764 10.0641 26.8764L5.33011 25.7833Z" fill="#84828B"/>
<path fill-rule="evenodd" clip-rule="evenodd" d="M27.572 7.72624C27.1401 7.72624 26.79 8.07632 26.79 8.50822V17.8314C26.79 18.2633 27.1401 18.6134 27.572 18.6134C28.0038 18.6134 28.3539 18.2633 28.3539 17.8314V8.50822C28.3539 8.07633 28.0038 7.72624 27.572 7.72624ZM25.29 8.50822C25.29 7.24794 26.3117 6.22624 27.572 6.22624C28.8323 6.22624 29.8539 7.24794 29.8539 8.50822V17.8314C29.8539 19.0917 28.8323 20.1134 27.572 20.1134C26.3117 20.1134 25.29 19.0917 25.29 17.8314V8.50822Z" fill="#84828B"/>
<path fill-rule="evenodd" clip-rule="evenodd" d="M39.0947 8.55134C38.2913 8.65381 37.3746 8.76329 36.3409 8.84515C35.928 8.87785 35.5667 8.56962 35.534 8.1567C35.5013 7.74378 35.8095 7.38253 36.2225 7.34983C37.2211 7.27075 38.1106 7.16471 38.9049 7.06339C39.0785 7.04125 39.2487 7.01917 39.4151 6.99759C40.002 6.92145 40.5419 6.8514 41.0208 6.80582C41.633 6.74753 42.2044 6.72251 42.7067 6.78795C43.2188 6.85466 43.7134 7.02225 44.1148 7.39319C44.5147 7.76279 44.7416 8.25987 44.8647 8.83C44.9865 9.39384 45.0179 10.079 44.989 10.8904C44.9314 12.5115 44.6242 14.8129 44.1511 18.0129L43.4197 17.9048L44.1511 18.0129C44.079 18.5011 43.6866 18.7725 43.462 18.9008C43.1934 19.0542 42.8542 19.1766 42.4894 19.2793C41.7513 19.4871 40.7468 19.6578 39.5889 19.7956C37.2635 20.0725 34.2036 20.23 31.149 20.2535C28.0952 20.2769 25.0185 20.1667 22.6612 19.9012C21.4876 19.7691 20.4603 19.5951 19.6949 19.3684C19.3153 19.256 18.9619 19.1198 18.6791 18.9467C18.4177 18.7866 18.0779 18.5101 17.9803 18.0633L17.9803 18.0633C17.2831 14.8711 16.8999 12.5662 16.8543 10.9261C16.8097 9.3229 17.0781 8.1015 17.9904 7.40061C18.4343 7.05962 18.9608 6.90041 19.5055 6.8337C20.0461 6.7675 20.6509 6.78712 21.2918 6.84131C21.8444 6.88803 22.4571 6.96381 23.1109 7.04466C23.2171 7.05779 23.3244 7.07106 23.4327 7.08437C24.2146 7.18039 25.0652 7.28026 25.9915 7.35272C26.4045 7.38502 26.713 7.74597 26.6807 8.15892C26.6484 8.57187 26.2875 8.88045 25.8745 8.84815C24.9138 8.77301 24.0364 8.66977 23.2499 8.57318C23.1388 8.55954 23.0299 8.54607 22.923 8.53286C22.2662 8.45169 21.6866 8.38005 21.1654 8.33598C20.5579 8.28461 20.0745 8.27523 19.6878 8.32258C19.3052 8.36943 19.0654 8.46636 18.9043 8.5901C18.6068 8.81868 18.3113 9.36117 18.3537 10.8845C18.3946 12.3553 18.742 14.5091 19.4237 17.6423C19.4341 17.6495 19.4469 17.6579 19.4623 17.6674C19.5854 17.7427 19.7979 17.8345 20.1208 17.9302C20.7607 18.1197 21.6862 18.282 22.8291 18.4107C25.1049 18.667 28.1165 18.7767 31.1375 18.7535C34.1576 18.7303 37.1587 18.5744 39.4116 18.3061C40.5429 18.1715 41.4569 18.0117 42.083 17.8354C42.3792 17.752 42.5769 17.6742 42.6941 17.6115C43.1543 14.4899 43.4369 12.33 43.49 10.8371C43.517 10.077 43.4822 9.53403 43.3985 9.14673C43.3162 8.76572 43.1983 8.58865 43.0967 8.4948C42.9966 8.40227 42.833 8.31708 42.5129 8.27538C42.183 8.23241 41.7482 8.24334 41.1629 8.29906C40.712 8.34199 40.2068 8.40751 39.6255 8.4829C39.4552 8.50497 39.2785 8.52789 39.0947 8.55134ZM42.7832 17.5544C42.7838 17.5545 42.7799 17.5584 42.7698 17.5657C42.7776 17.558 42.7826 17.5543 42.7832 17.5544ZM19.3842 17.6106C19.3844 17.6106 19.3861 17.6122 19.3889 17.6154C19.3854 17.6123 19.384 17.6107 19.3842 17.6106ZM34.0048 8.24233C34.0185 8.65632 33.6939 9.00297 33.2799 9.0166C31.9058 9.06184 30.533 9.06424 29.1616 9.02448C28.7475 9.01247 28.4216 8.6671 28.4336 8.25306C28.4456 7.83902 28.791 7.5131 29.205 7.52511C30.5457 7.56398 31.8875 7.56163 33.2306 7.51741C33.6445 7.50378 33.9912 7.82834 34.0048 8.24233Z" fill="#84828B"/>
<path fill-rule="evenodd" clip-rule="evenodd" d="M13.0913 11.7093C9.773 11.7093 7.08301 14.3993 7.08301 17.7176C7.08301 19.7326 8.07423 21.5162 9.59888 22.6073C9.93573 22.8484 10.0134 23.3168 9.77231 23.6537C9.53125 23.9905 9.06276 24.0682 8.72592 23.8271C6.82461 22.4664 5.58301 20.2369 5.58301 17.7176C5.58301 13.5708 8.94458 10.2093 13.0913 10.2093C15.0525 10.2093 16.8396 10.9622 18.1765 12.1934C18.4812 12.474 18.5007 12.9485 18.2201 13.2532C17.9395 13.5579 17.465 13.5774 17.1604 13.2968C16.0895 12.3106 14.6615 11.7093 13.0913 11.7093Z" fill="#84828B"/>
<path fill-rule="evenodd" clip-rule="evenodd" d="M26.2246 45.413C26.2246 44.9988 26.5604 44.663 26.9746 44.663H31.6299C32.0441 44.663 32.3799 44.9988 32.3799 45.413C32.3799 45.8272 32.0441 46.163 31.6299 46.163H26.9746C26.5604 46.163 26.2246 45.8272 26.2246 45.413Z" fill="#84828B"/>
<path fill-rule="evenodd" clip-rule="evenodd" d="M16.7645 19.7148C17.6909 19.0255 18.7745 18.6375 19.9524 18.6375H37.9225C39.7245 18.6375 41.3144 19.5446 42.2605 20.9239C42.2611 20.9248 42.2617 20.9256 42.2623 20.9265L47.6897 28.7142C47.9671 29.0988 48.4166 29.3467 48.9241 29.3467L55.2607 29.3465C57.8647 29.3465 59.9755 31.4573 59.9755 34.0611V43.1425C59.9755 44.8108 58.6231 46.163 56.955 46.163H53.7048C53.2905 46.163 52.9548 45.8272 52.9548 45.413C52.9548 44.9988 53.2905 44.663 53.7048 44.663H56.955C57.7948 44.663 58.4755 43.9823 58.4755 43.1425V34.0611C58.4755 32.2857 57.0363 30.8465 55.2608 30.8465L48.9241 30.8467C47.9111 30.8467 47.0147 30.3472 46.4679 29.5844L46.4621 29.5764L46.4622 29.5763L41.0283 21.7792L41.0249 21.7743C40.3467 20.7843 39.2101 20.1375 37.9225 20.1375H19.9524C19.1176 20.1375 18.3429 20.4089 17.6561 20.921L17.6463 20.9284L17.6462 20.9283C14.2567 23.3707 11.8098 26.284 10.2081 29.8837C8.60263 33.4918 7.82883 37.8291 7.84902 43.1398L7.84903 43.1426C7.84902 43.9823 8.52974 44.6631 9.36945 44.6631H11.7525C12.1667 44.6631 12.5025 44.9988 12.5025 45.4131C12.5025 45.8273 12.1667 46.1631 11.7525 46.1631H9.36945C7.70183 46.1631 6.34984 44.8116 6.34902 43.1442C6.34902 43.1436 6.34902 43.1431 6.34902 43.1426H7.09902L6.34903 43.1455C6.34903 43.145 6.34903 43.1446 6.34902 43.1442C6.32842 37.6905 7.12207 33.1294 8.83763 29.2739C10.5563 25.4114 13.1826 22.2969 16.7645 19.7148ZM17.2078 20.3198L16.7594 19.7186C16.7611 19.7173 16.7628 19.7161 16.7645 19.7148C16.7661 19.7137 16.7677 19.7125 16.7693 19.7113L17.2078 20.3198Z" fill="#84828B"/>
<path fill-rule="evenodd" clip-rule="evenodd" d="M35.5537 45.413C35.5537 44.9988 35.8895 44.663 36.3037 44.663H38.2309C38.6451 44.663 38.9809 44.9988 38.9809 45.413C38.9809 45.8272 38.6451 46.163 38.2309 46.163H36.3037C35.8895 46.163 35.5537 45.8272 35.5537 45.413Z" fill="#84828B"/>
<path fill-rule="evenodd" clip-rule="evenodd" d="M54.5576 32.5385C54.9718 32.5385 55.3076 32.8743 55.3076 33.2885C55.3076 34.4386 56.2517 35.3827 57.4017 35.3827H59.2257C59.6399 35.3827 59.9757 35.7184 59.9757 36.1327C59.9757 36.5469 59.6399 36.8827 59.2257 36.8827H57.4017C55.4233 36.8827 53.8076 35.267 53.8076 33.2885C53.8076 32.8743 54.1434 32.5385 54.5576 32.5385Z" fill="#84828B"/>
<path fill-rule="evenodd" clip-rule="evenodd" d="M33.8307 23.3611C33.5649 23.3611 33.3445 23.5816 33.3445 23.8473V29.4068C33.3445 29.6726 33.5649 29.893 33.8307 29.893H40.8076C41.285 29.893 41.6722 29.5058 41.6722 29.0284C41.6722 28.8813 41.6359 28.7446 41.5725 28.6247L40.2307 26.2312C40.0282 25.8699 40.1569 25.4128 40.5182 25.2102C40.8795 25.0077 41.3366 25.1364 41.5392 25.4977L42.8911 27.9094C43.0705 28.243 43.1722 28.6249 43.1722 29.0284C43.1722 30.3342 42.1134 31.393 40.8076 31.393H33.8307C32.7365 31.393 31.8445 30.501 31.8445 29.4068V23.8473C31.8445 22.7531 32.7365 21.8611 33.8307 21.8611H38.1153C39.0175 21.8611 39.8005 22.3667 40.1984 23.1064C40.3947 23.4711 40.2581 23.9259 39.8934 24.1222C39.5286 24.3185 39.0738 24.1819 38.8775 23.8171C38.7306 23.5441 38.4437 23.3611 38.1153 23.3611H33.8307ZM22.9913 23.3612C22.7256 23.3612 22.5052 23.5817 22.5052 23.8474V29.4069C22.5052 29.6726 22.7257 29.8931 22.9913 29.8931H28.0364C28.3021 29.8931 28.5226 29.6726 28.5226 29.4069C28.5226 28.9927 28.8584 28.6569 29.2726 28.6569C29.6868 28.6569 30.0226 28.9927 30.0226 29.4069C30.0226 30.5011 29.1305 31.3931 28.0364 31.3931H22.9913C21.8973 31.3931 21.0052 30.501 21.0052 29.4069V23.8474C21.0052 22.7532 21.8973 21.8612 22.9913 21.8612H28.0364C29.1305 21.8612 30.0226 22.7533 30.0226 23.8474V26.8763C30.0226 27.2905 29.6868 27.6263 29.2726 27.6263C28.8584 27.6263 28.5226 27.2905 28.5226 26.8763V23.8474C28.5226 23.5817 28.3021 23.3612 28.0364 23.3612H22.9913ZM18.7683 22.7916C19.0227 22.9186 19.1834 23.1784 19.1834 23.4627V29.407C19.1834 30.5013 18.2912 31.3932 17.1971 31.3932H15.9034C14.7314 31.3932 13.7812 30.4431 13.7812 29.271C13.7812 29.0147 13.827 28.7725 13.9138 28.5329C14.7071 25.9795 16.1212 24.2634 17.9825 22.8633C18.2097 22.6924 18.514 22.6647 18.7683 22.7916ZM17.6834 25.0908C16.6363 26.1254 15.8471 27.3571 15.3411 28.9946C15.3369 29.0082 15.3323 29.0217 15.3273 29.0351C15.2929 29.1275 15.2812 29.1996 15.2812 29.271C15.2812 29.6147 15.5598 29.8932 15.9034 29.8932H17.1971C17.4629 29.8932 17.6834 29.6727 17.6834 29.407V25.0908Z" fill="#84828B"/>
<path fill-rule="evenodd" clip-rule="evenodd" d="M21.7842 33.6658C21.7842 33.2516 22.12 32.9158 22.5342 32.9158H24.6186C25.0328 32.9158 25.3686 33.2516 25.3686 33.6658C25.3686 34.0801 25.0328 34.4158 24.6186 34.4158H22.5342C22.12 34.4158 21.7842 34.0801 21.7842 33.6658Z" fill="#84828B"/>
<path fill-rule="evenodd" clip-rule="evenodd" d="M31.6064 33.6658C31.6064 33.2516 31.9422 32.9158 32.3564 32.9158H34.4407C34.855 32.9158 35.1907 33.2516 35.1907 33.6658C35.1907 34.0801 34.855 34.4158 34.4407 34.4158H32.3564C31.9422 34.4158 31.6064 34.0801 31.6064 33.6658Z" fill="#84828B"/>
<path d="M12.1375 18.1602C11.7094 18.1602 11.3623 17.8131 11.3623 17.385C11.3623 16.9569 11.7094 16.6098 12.1375 16.6098C12.6887 16.6098 13.1903 16.8298 13.5556 17.1854C13.9265 17.5465 14.1559 18.0453 14.1559 18.5956C14.1559 19.146 13.9264 19.6447 13.5556 20.0059C13.1904 20.3615 12.6888 20.5815 12.1375 20.5815C11.2429 20.5815 10.4306 20.226 9.84035 19.6513C9.24454 19.0709 8.87598 18.2697 8.87598 17.3849C8.87598 16.5002 9.24454 15.6989 9.84044 15.1187C10.4306 14.5439 11.243 14.1884 12.1375 14.1884C14.6255 14.1884 16.6422 16.1616 16.6422 18.5955C16.6422 19.0236 16.2951 19.3707 15.867 19.3707C15.4389 19.3707 15.0918 19.0236 15.0918 18.5955C15.0918 17.0178 13.7691 15.7388 12.1374 15.7388C11.6588 15.7388 11.228 15.9254 10.9183 16.2269C10.6143 16.5229 10.4263 16.9324 10.4263 17.3849C10.4263 17.8374 10.6143 18.2469 10.9183 18.5429C11.228 18.8445 11.6589 19.031 12.1374 19.031C12.2727 19.031 12.3928 18.98 12.4774 18.8975C12.5565 18.8206 12.6054 18.7138 12.6054 18.5955C12.6054 18.4774 12.5565 18.3706 12.4774 18.2936C12.3927 18.2112 12.2727 18.1601 12.1374 18.1601L12.1375 18.1602Z" fill="#84828B"/>
<path fill-rule="evenodd" clip-rule="evenodd" d="M34.8991 7.72624C34.4708 7.72624 34.1172 8.07981 34.1172 8.50813V17.8315C34.1172 18.2598 34.4708 18.6134 34.8991 18.6134C35.3274 18.6134 35.681 18.2599 35.681 17.8315V12.3801C35.681 11.9659 36.0167 11.6301 36.431 11.6301C36.8452 11.6301 37.181 11.9659 37.181 12.3801V17.8315C37.181 19.0883 36.1558 20.1134 34.8991 20.1134C33.6423 20.1134 32.6172 19.0883 32.6172 17.8315V8.50813C32.6172 7.25138 33.6423 6.22624 34.8991 6.22624C36.1558 6.22624 37.181 7.25138 37.181 8.50813C37.181 8.92234 36.8452 9.25813 36.431 9.25813C36.0167 9.25813 35.681 8.92234 35.681 8.50813C35.681 8.07981 35.3274 7.72624 34.8991 7.72624Z" fill="#84828B"/>
</svg>
