<svg width="60" height="60" viewBox="0 0 60 60" fill="none" xmlns="http://www.w3.org/2000/svg">
<g clip-path="url(#clip0_1420_7449)">
<path fill-rule="evenodd" clip-rule="evenodd" d="M44.1749 37.2025C45.3526 37.2924 46.6399 37.6731 47.9365 38.286C49.876 39.2029 51.7484 40.5992 53.1623 42.1349C53.4428 42.4396 53.9173 42.4592 54.222 42.1786C54.5267 41.898 54.5463 41.4236 54.2658 41.1188C52.7242 39.4446 50.6958 37.9313 48.5776 36.9299C46.4727 35.9349 44.1899 35.4043 42.1744 35.8294C41.8816 35.8911 41.6536 36.1209 41.5941 36.4141C41.5346 36.7073 41.6551 37.0078 41.9006 37.1788C43.16 38.0556 44.1698 39.4889 45.0818 41.187C45.6447 42.2351 46.1343 43.3081 46.6211 44.375C46.9362 45.0657 47.2501 45.7538 47.582 46.4309C48.3845 48.0681 49.2914 49.6351 50.5111 50.4939C51.1467 50.9413 51.8759 51.2043 52.7061 51.1843C53.5242 51.1645 54.3757 50.8716 55.2717 50.3223C55.2868 50.313 55.3016 50.3032 55.316 50.2929C56.1374 49.7055 56.674 48.9654 56.9288 48.1169C57.1808 47.2777 57.1409 46.3878 56.9079 45.5136C56.8013 45.1133 56.3904 44.8753 55.9901 44.982C55.5899 45.0886 55.3519 45.4996 55.4585 45.8998C55.6386 46.5756 55.6457 47.1741 55.4921 47.6855C55.3432 48.1816 55.0276 48.6491 54.4646 49.0576C53.7315 49.5031 53.1441 49.6732 52.6698 49.6847C52.2026 49.696 51.7834 49.5552 51.3747 49.2674C50.5057 48.6556 49.7404 47.4263 48.9289 45.7707C48.6369 45.175 48.3365 44.5179 48.0253 43.8374C47.5168 42.7251 46.9795 41.5501 46.4033 40.4773C45.7717 39.3013 45.0496 38.156 44.1749 37.2025Z" fill="#84828B"/>
<path fill-rule="evenodd" clip-rule="evenodd" d="M11.7714 36.7702C13.774 35.8811 15.919 35.4273 17.826 35.8295C18.1188 35.8912 18.3468 36.121 18.4063 36.4142C18.4658 36.7074 18.3453 37.0079 18.0998 37.1789C17.1299 37.8541 16.3028 38.8639 15.5521 40.082C14.802 41.2992 14.1559 42.6771 13.5224 44.0611C13.35 44.4378 12.905 44.6034 12.5283 44.431C12.1517 44.2586 11.9861 43.8135 12.1585 43.4369C12.7896 42.0581 13.4703 40.601 14.2752 39.295C14.7359 38.5475 15.2464 37.8338 15.8254 37.2026C14.7448 37.2851 13.5708 37.6125 12.3801 38.1412C10.5438 38.9564 8.74459 40.2171 7.31501 41.6395C5.87508 43.0722 4.87029 44.6085 4.52807 45.9527C4.35924 46.6159 4.35857 47.2032 4.51437 47.7059C4.66562 48.1939 4.98005 48.6545 5.53577 49.0577C6.70835 49.7703 7.5163 49.79 8.13634 49.5385C8.81934 49.2614 9.46701 48.5828 10.1338 47.5032C10.3515 47.1508 10.8136 47.0415 11.166 47.2592C11.5184 47.4769 11.6277 47.939 11.41 48.2914C10.6981 49.444 9.83883 50.4666 8.7002 50.9285C7.50267 51.4143 6.18087 51.2126 4.72867 50.3224C4.71357 50.3131 4.69881 50.3033 4.6844 50.293C3.87401 49.7135 3.34047 48.9852 3.0816 48.1499C2.82537 47.3232 2.85464 46.446 3.07444 45.5826C3.50947 43.8738 4.71666 42.1088 6.25703 40.5762C7.80775 39.0332 9.75714 37.6645 11.7714 36.7702Z" fill="#84828B"/>
<path fill-rule="evenodd" clip-rule="evenodd" d="M12.0504 6.21677C13.6867 6.44488 15.4269 7.38599 16.9975 8.66427C17.3188 8.92574 17.3673 9.39813 17.1058 9.71939C16.8444 10.0407 16.372 10.0891 16.0507 9.82767C14.5892 8.63821 13.1011 7.87775 11.8433 7.7024C11.224 7.61606 10.6838 7.67431 10.227 7.86768C9.78191 8.0561 9.36988 8.39195 9.02245 8.94171C8.62477 9.70191 8.4926 10.299 8.51153 10.773C8.53018 11.24 8.69754 11.6493 9.01093 12.0388C9.67711 12.8668 10.9529 13.5518 12.657 14.2556C13.2702 14.5089 13.9451 14.7666 14.6442 15.0336C15.7867 15.4699 16.9938 15.9308 18.1013 16.4371C19.3152 16.9921 20.5043 17.6394 21.5119 18.4511C21.2521 16.6125 20.2604 14.5659 18.8342 12.7084C18.5819 12.3799 18.6437 11.909 18.9722 11.6568C19.3008 11.4045 19.7716 11.4663 20.0239 11.7948C22.0036 14.373 23.4145 17.5685 23.0104 20.3598C22.9676 20.6559 22.7529 20.8982 22.4641 20.9763C22.1753 21.0544 21.8677 20.9535 21.6814 20.7194C20.7257 19.5188 19.2306 18.6027 17.4776 17.8013C16.3957 17.3067 15.2935 16.8868 14.1976 16.4693C13.4882 16.1991 12.7814 15.9299 12.0844 15.642C10.3992 14.946 8.77731 14.1413 7.84224 12.9791C7.35501 12.3735 7.04586 11.6626 7.01273 10.8329C6.98007 10.0152 7.21787 9.14661 7.70866 8.21726C7.71693 8.2016 7.72575 8.18624 7.7351 8.1712C8.23266 7.37174 8.87954 6.80923 9.64226 6.48635C10.3992 6.16591 11.2226 6.10137 12.0504 6.21677Z" fill="#84828B"/>
<path fill-rule="evenodd" clip-rule="evenodd" d="M27.8309 17.2882C28.0355 17.254 28.245 17.306 28.4098 17.4319L29.9997 18.646L31.5896 17.4318C31.7544 17.306 31.9639 17.254 32.1684 17.2882C32.3729 17.3224 32.5541 17.4397 32.6691 17.6123C34.3539 20.1432 34.6244 22.6406 34.1194 25.1046C34.2652 25.0218 34.4123 24.9422 34.5607 24.866C34.9292 24.6768 35.3813 24.8222 35.5705 25.1906C35.7597 25.5591 35.6143 26.0112 35.2458 26.2004C34.5828 26.5408 33.9359 26.9667 33.2962 27.4637C33.0326 27.6685 32.6654 27.6744 32.3953 27.4782C32.1252 27.2819 32.0173 26.9308 32.1306 26.6168C33.0596 24.0425 33.2097 21.6094 31.8382 19.1293L30.4549 20.1857C30.1861 20.3909 29.8133 20.3909 29.5445 20.1857L28.1612 19.1293C26.7896 21.6093 26.9397 24.0425 27.8688 26.6168C27.9821 26.9308 27.8742 27.2819 27.6041 27.4782C27.3341 27.6744 26.9668 27.6685 26.7032 27.4637C24.5418 25.7847 22.2742 24.89 19.4918 25.428L20.0689 27.07C20.181 27.389 20.0658 27.7436 19.7876 27.9358L18.3555 28.925C20.2903 30.9957 22.6508 31.6048 25.3862 31.5169C25.7199 31.5061 26.0204 31.7172 26.1236 32.0347C26.2268 32.3522 26.1077 32.6996 25.8314 32.8871C23.5667 34.4238 22.0151 36.304 21.667 39.1165L23.407 39.075C23.745 39.067 24.0467 39.2861 24.1435 39.6101L24.6417 41.2778C27.2089 40.0776 28.5177 38.0209 29.2793 35.3922C29.3722 35.0715 29.6658 34.8509 29.9997 34.8509C30.3335 34.8509 30.6271 35.0715 30.72 35.3922C31.4816 38.0209 32.7904 40.0776 35.3577 41.2778L35.8558 39.6102C35.9526 39.2862 36.2543 39.067 36.5924 39.075L38.3324 39.1165C37.9842 36.3041 36.4326 34.4238 34.1679 32.8871C33.8917 32.6996 33.7726 32.3522 33.8757 32.0347C33.9789 31.7172 34.2795 31.5061 34.6131 31.5169C37.3486 31.6049 39.709 30.9958 41.6438 28.925L40.2117 27.9358C39.9335 27.7436 39.8183 27.389 39.9304 27.07L40.5076 25.428C39.9413 25.3184 39.4007 25.2689 38.8823 25.2716C38.4681 25.2738 38.1306 24.9397 38.1285 24.5255C38.1263 24.1113 38.4604 23.7738 38.8746 23.7716C39.7751 23.767 40.7125 23.8941 41.6936 24.1691C41.8933 24.225 42.0609 24.3611 42.1566 24.545C42.2523 24.729 42.2676 24.9443 42.1988 25.1399L41.5355 27.0271L43.1814 28.1639C43.352 28.2818 43.4662 28.465 43.4969 28.6701C43.5276 28.8751 43.472 29.0838 43.3434 29.2464C41.4568 31.6311 39.165 32.6601 36.6653 32.9411C38.5223 34.6378 39.7717 36.8174 39.8962 39.8555C39.9047 40.0627 39.8271 40.2641 39.6817 40.412C39.5364 40.5598 39.3363 40.6409 39.129 40.636L37.1292 40.5883L36.5565 42.5049C36.4972 42.7036 36.3582 42.8689 36.1727 42.9614C35.9871 43.054 35.7716 43.0656 35.5771 42.9935C32.7262 41.9362 31.0394 40.0745 29.9997 37.784C28.9599 40.0745 27.2731 41.9362 24.4222 42.9935C24.2278 43.0656 24.0122 43.054 23.8266 42.9614C23.6411 42.8689 23.5021 42.7036 23.4428 42.5049L22.8702 40.5883L20.8704 40.636C20.6631 40.6409 20.463 40.5598 20.3176 40.412C20.1723 40.2641 20.0946 40.0627 20.1031 39.8555C20.2276 36.8173 21.477 34.6377 23.3341 32.9411C20.8344 32.66 18.5425 31.6311 16.656 29.2464C16.5273 29.0838 16.4717 28.8751 16.5024 28.6701C16.5331 28.465 16.6473 28.2818 16.8179 28.1639L18.4639 27.0271L17.8005 25.14C17.7318 24.9443 17.747 24.729 17.8428 24.545C17.9385 24.3611 18.1061 24.225 18.3057 24.169C21.2337 23.3487 23.6926 23.8634 25.8801 25.1052C25.3749 22.6411 25.6452 20.1434 27.3303 17.6123C27.4452 17.4397 27.6264 17.3224 27.8309 17.2882Z" fill="#84828B"/>
<path fill-rule="evenodd" clip-rule="evenodd" d="M56.2536 15.58C55.0268 15.58 54.0322 16.5746 54.0322 17.8015C54.0322 19.0283 55.0268 20.0229 56.2536 20.0229C57.4805 20.0229 58.4751 19.0283 58.4751 17.8015C58.4751 16.5746 57.4805 15.58 56.2536 15.58ZM52.5322 17.8015C52.5322 15.7462 54.1984 14.08 56.2536 14.08C58.3089 14.08 59.9751 15.7462 59.9751 17.8015C59.9751 19.8568 58.3089 21.5229 56.2536 21.5229C54.1984 21.5229 52.5322 19.8568 52.5322 17.8015Z" fill="#84828B"/>
<path fill-rule="evenodd" clip-rule="evenodd" d="M46.7126 54.0318C45.4858 54.0318 44.4912 55.0264 44.4912 56.2533C44.4912 57.4801 45.4858 58.4747 46.7126 58.4747C47.9395 58.4747 48.9341 57.4801 48.9341 56.2533C48.9341 55.0264 47.9395 54.0318 46.7126 54.0318ZM42.9912 56.2533C42.9912 54.198 44.6573 52.5318 46.7126 52.5318C48.7679 52.5318 50.4341 54.198 50.4341 56.2533C50.4341 58.3085 48.7679 59.9747 46.7126 59.9747C44.6573 59.9747 42.9912 58.3085 42.9912 56.2533Z" fill="#84828B"/>
<path fill-rule="evenodd" clip-rule="evenodd" d="M13.2878 54.0318C12.061 54.0318 11.0664 55.0264 11.0664 56.2533C11.0664 57.4801 12.061 58.4747 13.2878 58.4747C14.5147 58.4747 15.5093 57.4801 15.5093 56.2533C15.5093 55.0264 14.5147 54.0318 13.2878 54.0318ZM9.56641 56.2533C9.56641 54.198 11.2325 52.5318 13.2878 52.5318C15.3431 52.5318 17.0093 54.198 17.0093 56.2533C17.0093 58.3085 15.3431 59.9747 13.2878 59.9747C11.2325 59.9747 9.56641 58.3085 9.56641 56.2533Z" fill="#84828B"/>
<path fill-rule="evenodd" clip-rule="evenodd" d="M3.74681 15.58C2.51996 15.58 1.52539 16.5746 1.52539 17.8015C1.52539 19.0283 2.51996 20.0229 3.74681 20.0229C4.97367 20.0229 5.96824 19.0283 5.96824 17.8015C5.96824 16.5746 4.97367 15.58 3.74681 15.58ZM0.0253906 17.8015C0.0253906 15.7462 1.69153 14.08 3.74681 14.08C5.8021 14.08 7.46824 15.7462 7.46824 17.8015C7.46824 19.8568 5.8021 21.5229 3.74681 21.5229C1.69153 21.5229 0.0253906 19.8568 0.0253906 17.8015Z" fill="#84828B"/>
<path fill-rule="evenodd" clip-rule="evenodd" d="M33.4404 44.5361C33.6338 44.3078 33.9443 44.2163 34.2306 44.3032C35.5491 44.7036 36.7016 45.7063 37.6075 46.8971C38.5212 48.0981 39.2372 49.5587 39.6577 50.9925C40.0741 52.4122 40.2243 53.8875 39.9126 55.0915C39.7545 55.7024 39.4696 56.2712 39.012 56.7128C38.548 57.1606 37.9479 57.4371 37.2363 57.5216C37.2187 57.5237 37.2011 57.5251 37.1834 57.526C36.4505 57.5607 35.8092 57.4547 35.2728 57.1764C34.7256 56.8927 34.3472 56.4605 34.0983 55.9515C33.6282 54.9899 33.6079 53.7168 33.6649 52.4997C33.6893 51.9797 33.7276 51.4692 33.7657 50.9607C33.8238 50.1856 33.8815 49.4151 33.8893 48.6224C33.9017 47.3419 33.7708 46.222 33.3407 45.3538C33.2078 45.0858 33.247 44.7644 33.4404 44.5361ZM35.2586 46.5744C35.3664 47.2534 35.3958 47.9531 35.3892 48.637C35.3812 49.4578 35.3161 50.3407 35.2553 51.166C35.2186 51.6638 35.1834 52.1405 35.1633 52.57C35.1053 53.8076 35.1642 54.7164 35.4459 55.2927C35.573 55.5525 35.7386 55.7283 35.9634 55.8449C36.1951 55.965 36.5458 56.051 37.085 56.0289C37.488 55.9764 37.7675 55.8292 37.9703 55.6335C38.1838 55.4274 38.3541 55.1265 38.4605 54.7156C38.6779 53.8757 38.5949 52.6984 38.2183 51.4146C37.8459 50.1449 37.2094 48.8513 36.4137 47.8053C36.0477 47.3242 35.6588 46.9094 35.2586 46.5744Z" fill="#84828B"/>
<path fill-rule="evenodd" clip-rule="evenodd" d="M12.1447 23.8332C13.6269 24.0382 15.0661 24.5503 16.0619 25.5027C16.2781 25.7095 16.3508 26.0249 16.2468 26.3055C16.1427 26.586 15.882 26.7778 15.5832 26.7936C14.6157 26.8449 13.5757 27.2804 12.4661 27.9196C11.7792 28.3153 11.1362 28.7437 10.4893 29.1747C10.0649 29.4574 9.63891 29.7412 9.1977 30.0177C8.16522 30.6647 7.04598 31.2717 5.97743 31.3339C5.41179 31.3669 4.84954 31.2492 4.33378 30.9117C3.82813 30.5808 3.42106 30.0741 3.09167 29.4185C3.08372 29.4026 3.07633 29.3865 3.06952 29.3702C2.79393 28.7087 2.74037 28.0502 2.90287 27.4261C3.06313 26.8107 3.41891 26.2833 3.87361 25.8457C4.76973 24.9833 6.12894 24.3903 7.57031 24.0564C9.02591 23.7192 10.65 23.6264 12.1447 23.8332ZM4.4444 28.7695C4.68966 29.2502 4.93672 29.5136 5.1551 29.6565C5.36704 29.7952 5.60143 29.8533 5.89022 29.8364C6.53055 29.7992 7.3514 29.4045 8.40122 28.7466C8.76558 28.5183 9.16376 28.2538 9.57945 27.9775C10.2687 27.5196 11.0061 27.0296 11.7173 26.6198C12.3099 26.2785 12.9341 25.9608 13.5786 25.7214C13.0903 25.5371 12.538 25.4018 11.9392 25.319C10.6374 25.1389 9.19788 25.2191 7.90878 25.5177C6.60544 25.8196 5.53881 26.325 4.91375 26.9265C4.60787 27.2209 4.42924 27.5169 4.35447 27.8041C4.28344 28.0769 4.29234 28.3926 4.4444 28.7695Z" fill="#84828B"/>
<path fill-rule="evenodd" clip-rule="evenodd" d="M26.5603 44.5361C26.7537 44.7644 26.7929 45.0858 26.66 45.3538C26.2299 46.222 26.099 47.3419 26.1115 48.6224C26.1192 49.4151 26.1769 50.1856 26.235 50.9607C26.2731 51.4692 26.3114 51.9797 26.3358 52.4997C26.3928 53.7168 26.3725 54.9899 25.9024 55.9515C25.6535 56.4605 25.2751 56.8927 24.7279 57.1764C24.1915 57.4547 23.5502 57.5607 22.8174 57.526C22.7997 57.5251 22.782 57.5237 22.7644 57.5216C22.0528 57.4371 21.4528 57.1606 20.9887 56.7128C20.5311 56.2712 20.2462 55.7024 20.0881 55.0915C19.7764 53.8875 19.9266 52.4122 20.343 50.9925C20.7635 49.5587 21.4796 48.0981 22.3932 46.8971C23.2991 45.7063 24.4516 44.7036 25.7701 44.3032C26.0564 44.2163 26.3669 44.3078 26.5603 44.5361ZM22.9157 56.0289C23.4549 56.051 23.8056 55.965 24.0373 55.8449C24.2621 55.7283 24.4278 55.5525 24.5548 55.2927C24.8365 54.7164 24.8955 53.8076 24.8374 52.57C24.8173 52.1405 24.7821 51.6638 24.7454 51.166C24.6846 50.3407 24.6195 49.4578 24.6115 48.637C24.6049 47.9531 24.6344 47.2534 24.7421 46.5744C24.3419 46.9094 23.953 47.3242 23.587 47.8053C22.7913 48.8513 22.1548 50.1449 21.7824 51.4146C21.4059 52.6984 21.3228 53.8757 21.5402 54.7156C21.6466 55.1265 21.8169 55.4274 22.0304 55.6335C22.2332 55.8292 22.5127 55.9764 22.9157 56.0289Z" fill="#84828B"/>
<path fill-rule="evenodd" clip-rule="evenodd" d="M30.0001 12.82C31.7745 10.1452 32.6728 7.33723 32.6942 5.17952C32.7061 3.98369 32.4493 3.06005 32.0068 2.45542C31.5879 1.88294 30.9533 1.52527 30.0001 1.52527C29.047 1.52527 28.4124 1.88294 27.9935 2.45542C27.551 3.06005 27.2942 3.98369 27.3061 5.17952C27.3275 7.33723 28.2258 10.1452 30.0001 12.82ZM26.7829 1.56963C27.5056 0.581987 28.6059 0.0252686 30.0001 0.0252686C31.3944 0.0252686 32.4947 0.581987 33.2173 1.56963C33.9165 2.52512 34.208 3.80733 34.1942 5.19443C34.1666 7.97096 32.9181 11.4585 30.6018 14.5713C30.4603 14.7615 30.2372 14.8736 30.0001 14.8736C29.7631 14.8736 29.54 14.7615 29.3984 14.5713C27.0822 11.4585 25.8337 7.97096 25.8061 5.19443C25.7923 3.80733 26.0838 2.52512 26.7829 1.56963Z" fill="#84828B"/>
<path fill-rule="evenodd" clip-rule="evenodd" d="M46.422 25.7213C47.0665 25.9607 47.6907 26.2784 48.2833 26.6197C48.9945 27.0295 49.7319 27.5195 50.4211 27.9774C50.8368 28.2537 51.235 28.5182 51.5994 28.7466C52.6492 29.4044 53.47 29.7991 54.1104 29.8364C54.3992 29.8532 54.6336 29.7951 54.8455 29.6564C55.0639 29.5135 55.3109 29.2501 55.5562 28.7694C55.7083 28.3925 55.7172 28.0768 55.6461 27.804C55.5714 27.5168 55.3927 27.2208 55.0868 26.9264C54.4618 26.3249 53.3952 25.8195 52.0918 25.5176C50.8027 25.219 49.3632 25.1388 48.0614 25.3189C47.4626 25.4017 46.9103 25.537 46.422 25.7213ZM57.0977 27.426C57.2602 28.0501 57.2067 28.7086 56.9311 29.3701C56.9243 29.3865 56.9169 29.4026 56.9089 29.4184C56.5795 30.074 56.1725 30.5807 55.6668 30.9116C55.1511 31.2491 54.5888 31.3668 54.0232 31.3338C52.9546 31.2716 51.8354 30.6646 50.8029 30.0176C50.3617 29.7412 49.9357 29.4573 49.5113 29.1746C48.8644 28.7436 48.2214 28.3152 47.5345 27.9195C46.4249 27.2803 45.3849 26.8448 44.4174 26.7936C44.1186 26.7777 43.8579 26.5859 43.7538 26.3054C43.6498 26.0249 43.7225 25.7094 43.9387 25.5026C44.9345 24.5502 46.3737 24.0381 47.8559 23.8331C49.3506 23.6263 50.9747 23.7192 52.4303 24.0563C53.8717 24.3902 55.2309 24.9832 56.127 25.8456C56.5817 26.2832 56.9375 26.8106 57.0977 27.426Z" fill="#84828B"/>
<path d="M55.0297 6.53832C55.7074 6.53832 56.2567 5.98898 56.2567 5.31134C56.2567 4.63369 55.7074 4.08435 55.0297 4.08435C54.3521 4.08435 53.8027 4.63369 53.8027 5.31134C53.8027 5.98898 54.3521 6.53832 55.0297 6.53832Z" fill="#84828B"/>
<path d="M39.5991 5.64599C40.2767 5.64599 40.826 5.09665 40.826 4.419C40.826 3.74136 40.2767 3.19202 39.5991 3.19202C38.9214 3.19202 38.3721 3.74136 38.3721 4.419C38.3721 5.09665 38.9214 5.64599 39.5991 5.64599Z" fill="#84828B"/>
<path fill-rule="evenodd" clip-rule="evenodd" d="M38.4885 18.4513C39.4408 17.684 40.5548 17.0642 41.6972 16.5305C42.0724 16.3552 42.5188 16.5172 42.6941 16.8925C42.8694 17.2678 42.7073 17.7142 42.3321 17.8895C40.6597 18.6708 39.2389 19.5639 38.3192 20.7194C38.1329 20.9535 37.8253 21.0545 37.5365 20.9763C37.2477 20.8982 37.033 20.6559 36.9901 20.3598C36.7109 18.4309 37.3011 16.3194 38.3166 14.3778C39.338 12.4249 40.8288 10.5672 42.4678 9.11844C44.096 7.67936 45.9346 6.58766 47.6678 6.26293C48.5434 6.09887 49.4207 6.12582 50.2294 6.43447C51.0463 6.74629 51.739 7.32536 52.2654 8.1712C52.2748 8.18624 52.2836 8.2016 52.2919 8.21726C52.8586 9.29032 53.0875 10.2825 52.9536 11.2046C52.8187 12.1344 52.3306 12.8859 51.6695 13.5014C50.3967 14.6865 48.3154 15.5082 46.2704 16.2906C45.8835 16.4386 45.4499 16.245 45.3019 15.8582C45.1539 15.4713 45.3475 15.0377 45.7344 14.8897C47.8633 14.0751 49.6321 13.3489 50.6474 12.4036C51.1303 11.954 51.3958 11.4947 51.4692 10.9891C51.543 10.4805 51.4376 9.82014 50.9781 8.94172C50.6113 8.36133 50.1718 8.01805 49.6945 7.83586C49.2028 7.64819 48.6167 7.61125 47.944 7.73728C46.5806 7.99273 44.9832 8.8971 43.4613 10.2423C41.9502 11.5779 40.5769 13.2927 39.6458 15.073C39.0419 16.2275 38.64 17.3781 38.4885 18.4513Z" fill="#84828B"/>
<path d="M46.0688 33.0495C46.7464 33.0495 47.2958 32.5002 47.2958 31.8225C47.2958 31.1449 46.7464 30.5956 46.0688 30.5956C45.3911 30.5956 44.8418 31.1449 44.8418 31.8225C44.8418 32.5002 45.3911 33.0495 46.0688 33.0495Z" fill="#84828B"/>
<path d="M55.1411 36.2472C55.8187 36.2472 56.368 35.6979 56.368 35.0203C56.368 34.3426 55.8187 33.7933 55.1411 33.7933C54.4634 33.7933 53.9141 34.3426 53.9141 35.0203C53.9141 35.6979 54.4634 36.2472 55.1411 36.2472Z" fill="#84828B"/>
<path d="M41.4584 45.4686C42.1361 45.4686 42.6854 44.9192 42.6854 44.2416C42.6854 43.5639 42.1361 43.0146 41.4584 43.0146C40.7808 43.0146 40.2314 43.5639 40.2314 44.2416C40.2314 44.9192 40.7808 45.4686 41.4584 45.4686Z" fill="#84828B"/>
<path d="M30.0004 32.0022C30.6781 32.0022 31.2274 31.4528 31.2274 30.7752C31.2274 30.0976 30.6781 29.5482 30.0004 29.5482C29.3228 29.5482 28.7734 30.0976 28.7734 30.7752C28.7734 31.4528 29.3228 32.0022 30.0004 32.0022Z" fill="#84828B"/>
<path d="M30.0004 56.2516C30.6781 56.2516 31.2274 55.7023 31.2274 55.0247C31.2274 54.347 30.6781 53.7977 30.0004 53.7977C29.3228 53.7977 28.7734 54.347 28.7734 55.0247C28.7734 55.7023 29.3228 56.2516 30.0004 56.2516Z" fill="#84828B"/>
<path d="M13.9321 33.0495C14.6097 33.0495 15.159 32.5002 15.159 31.8225C15.159 31.1449 14.6097 30.5956 13.9321 30.5956C13.2544 30.5956 12.7051 31.1449 12.7051 31.8225C12.7051 32.5002 13.2544 33.0495 13.9321 33.0495Z" fill="#84828B"/>
<path d="M4.85882 36.2472C5.53647 36.2472 6.08581 35.6979 6.08581 35.0203C6.08581 34.3426 5.53647 33.7933 4.85882 33.7933C4.18118 33.7933 3.63184 34.3426 3.63184 35.0203C3.63184 35.6979 4.18118 36.2472 4.85882 36.2472Z" fill="#84828B"/>
<path d="M18.5424 45.4686C19.2201 45.4686 19.7694 44.9192 19.7694 44.2416C19.7694 43.5639 19.2201 43.0146 18.5424 43.0146C17.8648 43.0146 17.3154 43.5639 17.3154 44.2416C17.3154 44.9192 17.8648 45.4686 18.5424 45.4686Z" fill="#84828B"/>
<path d="M4.97113 6.53832C5.64877 6.53832 6.19811 5.98898 6.19811 5.31134C6.19811 4.63369 5.64877 4.08435 4.97113 4.08435C4.29348 4.08435 3.74414 4.63369 3.74414 5.31134C3.74414 5.98898 4.29348 6.53832 4.97113 6.53832Z" fill="#84828B"/>
<path d="M20.4018 5.64599C21.0794 5.64599 21.6288 5.09665 21.6288 4.419C21.6288 3.74136 21.0794 3.19202 20.4018 3.19202C19.7241 3.19202 19.1748 3.74136 19.1748 4.419C19.1748 5.09665 19.7241 5.64599 20.4018 5.64599Z" fill="#84828B"/>
</g>
<defs>
<clipPath id="clip0_1420_7449">
<rect width="60" height="60" fill="white"/>
</clipPath>
</defs>
</svg>
