<svg width="60" height="60" viewBox="0 0 60 60" fill="none" xmlns="http://www.w3.org/2000/svg">
<g clip-path="url(#clip0_1420_7478)">
<path fill-rule="evenodd" clip-rule="evenodd" d="M56.2387 29.0817C53.9239 33.6892 49.0472 26.2877 44.457 26.0447C47.8108 22.8372 57.9867 24.886 56.2387 29.0817Z" fill="#AB3C00"/>
<path fill-rule="evenodd" clip-rule="evenodd" d="M56.2382 29.0817C55.3004 30.9482 53.9422 30.8438 52.353 30.043C51.4243 29.4272 50.4526 28.7645 49.4662 28.2449C48.7028 27.7412 47.9168 27.2426 47.123 26.8468C49.2625 25.4295 53.0537 25.4548 55.6728 26.4537C56.3836 27.1742 56.662 28.0646 56.2382 29.0818V29.0817Z" fill="#E5631D"/>
<path fill-rule="evenodd" clip-rule="evenodd" d="M46.422 25.7214C47.0665 25.9607 47.6907 26.2784 48.2833 26.6198C48.9945 27.0295 49.7319 27.5195 50.4212 27.9775C50.8369 28.2537 51.235 28.5182 51.5994 28.7466C52.6492 29.4044 53.4701 29.7991 54.1104 29.8364C54.3992 29.8532 54.6336 29.7951 54.8455 29.6564C55.0639 29.5135 55.3109 29.2501 55.5562 28.7695C55.7082 28.3926 55.7172 28.0768 55.6461 27.804C55.5714 27.5169 55.3927 27.2208 55.0868 26.9264C54.4618 26.3249 53.3952 25.8195 52.0918 25.5176C50.8027 25.2191 49.3632 25.1389 48.0614 25.3189C47.4626 25.4018 46.9103 25.537 46.422 25.7214ZM57.0977 27.426C57.2602 28.0501 57.2067 28.7086 56.9311 29.3701C56.9243 29.3865 56.9169 29.4026 56.9089 29.4184C56.5795 30.074 56.1725 30.5807 55.6668 30.9116C55.1511 31.2491 54.5888 31.3668 54.0232 31.3338C52.9546 31.2716 51.8354 30.6646 50.8029 30.0176C50.3617 29.7412 49.9357 29.4573 49.5113 29.1746C48.8644 28.7436 48.2214 28.3152 47.5345 27.9195C46.4249 27.2803 45.3849 26.8448 44.4174 26.7936C44.1186 26.7778 43.8579 26.5859 43.7538 26.3054C43.6498 26.0249 43.7225 25.7094 43.9387 25.5026C44.9345 24.5503 46.3738 24.0381 47.8559 23.8331C49.3507 23.6263 50.9747 23.7192 52.4303 24.0563C53.8717 24.3902 55.2309 24.9832 56.127 25.8457C56.5817 26.2833 56.9375 26.8106 57.0977 27.426Z" fill="#26253C"/>
<path fill-rule="evenodd" clip-rule="evenodd" d="M8.37184 8.5675C4.77872 15.3715 17.9965 14.8854 22.2681 20.2523C23.2601 13.3988 11.9557 2.809 8.37184 8.5675Z" fill="#E77817"/>
<path fill-rule="evenodd" clip-rule="evenodd" d="M22.3225 19.1252C22.1642 14.81 17.969 9.53808 14.0525 7.63915C12.5966 7.43003 11.3079 7.87361 10.4559 9.24266C7.32325 15.1747 16.9679 15.566 22.3225 19.1252V19.1252Z" fill="#FFA85C"/>
<path fill-rule="evenodd" clip-rule="evenodd" d="M12.0504 6.21677C13.6867 6.44489 15.4269 7.386 16.9975 8.66428C17.3188 8.92574 17.3673 9.39814 17.1058 9.7194C16.8443 10.0407 16.372 10.0891 16.0507 9.82767C14.5892 8.63822 13.1011 7.87776 11.8433 7.7024C11.224 7.61606 10.6838 7.67431 10.227 7.86768C9.7819 8.0561 9.36987 8.39195 9.02244 8.94171C8.62476 9.70191 8.4926 10.299 8.51153 10.773C8.53018 11.24 8.69755 11.6493 9.01094 12.0388C9.67712 12.8668 10.9529 13.5518 12.657 14.2556C13.2702 14.5089 13.9451 14.7666 14.6442 15.0336C15.7867 15.4698 16.9938 15.9308 18.1013 16.4371C19.3152 16.9921 20.5043 17.6394 21.5118 18.4511C21.252 16.6125 20.2604 14.5658 18.8341 12.7084C18.5819 12.3798 18.6437 11.909 18.9722 11.6567C19.3008 11.4045 19.7716 11.4663 20.0239 11.7948C22.0035 14.373 23.4145 17.5685 23.0104 20.3598C22.9675 20.6559 22.7528 20.8981 22.464 20.9763C22.1752 21.0544 21.8676 20.9535 21.6813 20.7194C20.7257 19.5187 19.2306 18.6027 17.4776 17.8013C16.3957 17.3067 15.2935 16.8868 14.1976 16.4693C13.4882 16.1991 12.7814 15.9299 12.0844 15.642C10.3992 14.946 8.77732 14.1413 7.84225 12.9791C7.35501 12.3735 7.04586 11.6626 7.01273 10.8329C6.98007 10.0152 7.21786 9.14662 7.70864 8.21726C7.71691 8.2016 7.72574 8.18624 7.73509 8.17121C8.23265 7.37173 8.87953 6.80922 9.64226 6.48635C10.3992 6.16591 11.2226 6.10137 12.0504 6.21677Z" fill="#26253C"/>
<path fill-rule="evenodd" clip-rule="evenodd" d="M37.1479 56.7768C31.9974 57.0208 36.0534 49.1396 34.0127 45.0209C38.4531 46.3692 41.6614 56.2411 37.1479 56.7768Z" fill="#AB3C00"/>
<path fill-rule="evenodd" clip-rule="evenodd" d="M37.147 56.7768C35.8198 56.8397 35.1048 56.3621 34.7385 55.5492C34.7742 53.2545 35.3306 50.324 34.6359 48.1339C34.6316 47.9269 34.6224 47.7219 34.6084 47.5193C36.7635 48.3372 38.5914 51.1254 39.3263 53.774C39.3014 55.3736 38.6565 56.5976 37.147 56.7768V56.7768Z" fill="#E5631D"/>
<path fill-rule="evenodd" clip-rule="evenodd" d="M22.8528 56.7768C28.0033 57.0208 23.9473 49.1396 25.988 45.0209C21.5476 46.3692 18.3393 56.2411 22.8528 56.7768Z" fill="#AB3C00"/>
<path fill-rule="evenodd" clip-rule="evenodd" d="M22.853 56.7769C24.8639 56.8721 25.4713 55.7288 25.5862 54.0545C25.4982 52.7456 25.3551 51.3292 25.4164 50.0073C25.3636 49.1593 25.3354 48.3055 25.3934 47.4938C23.072 48.6428 21.2008 52.0171 20.7949 54.8199C21.0457 55.8857 21.6944 56.6393 22.853 56.7769V56.7769Z" fill="#E5631D"/>
<path fill-rule="evenodd" clip-rule="evenodd" d="M54.8798 49.6829C48.3199 53.7044 47.9586 40.4826 42.3291 36.5634C49.1051 35.1345 60.3969 45.7377 54.8798 49.6829Z" fill="#E77817"/>
<path fill-rule="evenodd" clip-rule="evenodd" d="M54.879 49.6829C53.2389 50.6883 51.9863 50.6159 50.942 49.8806C49.1463 46.7658 47.7291 41.95 44.9473 39.4686C44.8194 39.2677 44.6882 39.0713 44.5537 38.8799C47.9035 38.3449 52.2493 40.5875 55.1476 43.4668C56.656 45.8186 56.9347 48.2129 54.879 49.6829L54.879 49.6829Z" fill="#FFA85C"/>
<path fill-rule="evenodd" clip-rule="evenodd" d="M30.0001 14.1236C25.5108 8.09039 25.3054 0.775299 30.0001 0.775299C34.6949 0.775299 34.4895 8.09039 30.0001 14.1236Z" fill="#AB3C00"/>
<path fill-rule="evenodd" clip-rule="evenodd" d="M32.8884 2.45867C34.1868 4.94216 33.1917 9.75041 30.1119 13.9712C26.5116 8.23848 26.6441 1.92801 31.0046 1.92801C31.7581 1.92801 32.3847 2.11729 32.8884 2.45867Z" fill="#E5631D"/>
<path fill-rule="evenodd" clip-rule="evenodd" d="M51.6286 8.5675C55.2217 15.3715 42.004 14.8854 37.7323 20.2523C36.7403 13.3988 48.0447 2.809 51.6286 8.5675Z" fill="#E77817"/>
<path fill-rule="evenodd" clip-rule="evenodd" d="M51.6292 8.56751C52.5491 10.3095 52.8045 11.9798 51.9528 12.9866C48.759 14.6324 43.7334 15.7234 41.001 18.3647C40.7721 18.4956 40.1101 18.2245 39.8933 18.3647C39.5736 14.9629 42.1298 10.7347 45.2186 8.03005C47.7383 6.55728 50.253 6.35626 51.6292 8.56751Z" fill="#FFA85C"/>
<path fill-rule="evenodd" clip-rule="evenodd" d="M5.12064 49.6829C11.6806 53.7044 12.0418 40.4826 17.6713 36.5634C10.8953 35.1345 -0.396508 45.7377 5.12064 49.6829Z" fill="#E77817"/>
<path fill-rule="evenodd" clip-rule="evenodd" d="M9.42613 49.5867C12.2966 47.0273 13.6191 39.3849 17.6718 36.5634C16.1575 36.244 14.4177 36.5269 12.6903 37.2008C7.40451 40.0817 3.04847 46.091 6.90478 48.8486C7.86672 49.4383 8.69463 49.6549 9.42613 49.5868V49.5867Z" fill="#FFA85C"/>
<path fill-rule="evenodd" clip-rule="evenodd" d="M3.76181 29.0817C6.07664 33.6892 10.9533 26.2877 15.5435 26.0447C12.1897 22.8372 2.01385 24.886 3.76181 29.0817Z" fill="#AB3C00"/>
<path fill-rule="evenodd" clip-rule="evenodd" d="M6.63045 30.4572C9.12716 29.7288 12.4022 26.211 15.5434 26.0446C14.8857 25.4156 13.965 24.9896 12.9239 24.7414C8.96006 24.6059 4.5736 26.4711 5.76962 29.342C6.02631 29.8528 6.31467 30.2155 6.63045 30.4572Z" fill="#E5631D"/>
<path fill-rule="evenodd" clip-rule="evenodd" d="M32.837 26.8713C33.9065 23.9073 34.0244 21.0003 32.0456 18.0278C31.364 18.5484 30.6823 19.0689 30.0006 19.5895C29.3189 19.0689 28.6372 18.5484 27.9555 18.0278C25.9767 21.0003 26.0946 23.9073 27.1642 26.8713C24.6758 24.9382 21.9474 23.9277 18.509 24.8911C18.7934 25.7003 19.0779 26.5095 19.3623 27.3187C18.6566 27.8061 17.9509 28.2936 17.2451 28.781C19.4606 31.5816 22.2617 32.3678 25.4112 32.2664C22.8037 34.0357 20.9997 36.3182 20.8534 39.8861C21.7109 39.8657 22.5683 39.8452 23.4258 39.8247C23.6713 40.6466 23.9168 41.4684 24.1624 42.2902C27.5104 41.0486 29.1237 38.6274 30.0006 35.6008C30.8775 38.6274 32.4908 41.0486 35.8389 42.2902C36.0844 41.4684 36.3299 40.6466 36.5755 39.8247C37.433 39.8452 38.2904 39.8657 39.1478 39.8861C39.0016 36.3182 37.1975 34.0357 34.59 32.2664C37.7395 32.3677 40.5406 31.5816 42.7561 28.781C42.0504 28.2936 41.3447 27.8061 40.6389 27.3187C40.9234 26.5095 41.2078 25.7003 41.4922 24.8911C38.0538 23.9277 35.3255 24.9382 32.8371 26.8713H32.837Z" fill="#AB3C00"/>
<path fill-rule="evenodd" clip-rule="evenodd" d="M32.8367 26.8713C33.6901 24.5063 33.9376 22.1775 32.9975 19.8229L31.9439 18.4706L30.2925 19.3663L30.0003 19.5895L29.7066 19.3653C27.9292 22.2336 28.074 25.0448 29.1076 27.9092C28.4459 27.3951 27.7672 26.9464 27.0627 26.5826C27.0955 26.6788 27.1292 26.775 27.1639 26.8713C26.8558 26.632 26.544 26.4068 26.2277 26.1977C24.5063 25.4991 22.6206 25.3215 20.4524 25.929C20.7368 26.7382 21.0213 27.5474 21.3057 28.3566C20.5999 28.844 19.8943 29.3315 19.1885 29.8189C19.7797 30.5663 20.4127 31.17 21.0827 31.6519C22.4244 32.1543 23.8763 32.3158 25.4109 32.2664L28.024 32.2631C25.6915 33.8458 23.3327 36.8806 22.8976 39.8373L23.4255 39.8247L23.7471 40.9014L25.3692 40.8626L25.5982 41.6294C27.9927 40.2829 29.2593 38.158 30.0003 35.6008C30.8772 38.6274 32.4905 41.0485 35.8385 42.2902C36.0841 41.4683 36.3296 40.6465 36.5751 39.8247C37.4326 39.8451 38.29 39.8656 39.1475 39.8861C39.0012 36.3182 37.1971 34.0357 34.5896 32.2664C37.7391 32.3677 40.5403 31.5815 42.7558 28.781C42.05 28.2936 41.3443 27.8061 40.6386 27.3186C40.923 26.5094 41.2074 25.7003 41.4919 24.8911C38.0534 23.9277 35.3251 24.9381 32.8367 26.8713L32.8367 26.8713Z" fill="#E5631D"/>
<path d="M55.0298 6.5384C55.7074 6.5384 56.2568 5.98903 56.2568 5.31136C56.2568 4.63368 55.7074 4.08432 55.0298 4.08432C54.3521 4.08432 53.8027 4.63368 53.8027 5.31136C53.8027 5.98903 54.3521 6.5384 55.0298 6.5384Z" fill="#26253C"/>
<path d="M39.5991 5.64603C40.2768 5.64603 40.8261 5.09667 40.8261 4.41899C40.8261 3.74132 40.2768 3.19196 39.5991 3.19196C38.9214 3.19196 38.3721 3.74132 38.3721 4.41899C38.3721 5.09667 38.9214 5.64603 39.5991 5.64603Z" fill="#26253C"/>
<path fill-rule="evenodd" clip-rule="evenodd" d="M38.4885 18.4512C39.4408 17.684 40.5548 17.0641 41.6972 16.5304C42.0725 16.3551 42.5188 16.5172 42.6941 16.8925C42.8695 17.2678 42.7074 17.7141 42.3321 17.8894C40.6597 18.6707 39.2389 19.5639 38.3192 20.7194C38.1329 20.9535 37.8253 21.0544 37.5365 20.9763C37.2477 20.8982 37.033 20.6559 36.9901 20.3598C36.7109 18.4309 37.3011 16.3194 38.3166 14.3778C39.338 12.4249 40.8288 10.5672 42.4679 9.11844C44.096 7.67936 45.9346 6.58766 47.6678 6.26293C48.5434 6.09887 49.4207 6.12582 50.2293 6.43447C51.0463 6.74629 51.739 7.32537 52.2654 8.17121C52.2748 8.18625 52.2836 8.20161 52.2919 8.21727C52.8585 9.29033 53.0874 10.2825 52.9536 11.2046C52.8186 12.1344 52.3305 12.8859 51.6694 13.5015C50.3966 14.6865 48.3154 15.5082 46.2704 16.2906C45.8835 16.4386 45.4499 16.245 45.3019 15.8581C45.1538 15.4713 45.3475 15.0377 45.7343 14.8896C47.8632 14.0751 49.632 13.3489 50.6473 12.4036C51.1303 11.954 51.3958 11.4948 51.4691 10.9891C51.543 10.4805 51.4376 9.82014 50.9781 8.94172C50.6113 8.36132 50.1718 8.01805 49.6945 7.83586C49.2028 7.64819 48.6167 7.61125 47.944 7.73728C46.5806 7.99273 44.9832 8.89709 43.4613 10.2423C41.9502 11.5779 40.5769 13.2927 39.6458 15.073C39.0419 16.2275 38.64 17.3781 38.4885 18.4512Z" fill="#26253C"/>
<path fill-rule="evenodd" clip-rule="evenodd" d="M44.175 37.2026C45.3526 37.2925 46.6399 37.6731 47.9365 38.2861C49.876 39.2029 51.7484 40.5993 53.1622 42.1349C53.4428 42.4396 53.9173 42.4592 54.222 42.1787C54.5267 41.8981 54.5463 41.4236 54.2657 41.1189C52.7242 39.4446 50.6958 37.9313 48.5776 36.93C46.4727 35.9349 44.1899 35.4044 42.1744 35.8294C41.8816 35.8912 41.6536 36.121 41.5941 36.4142C41.5346 36.7074 41.6551 37.0079 41.9006 37.1788C43.16 38.0556 44.1699 39.489 45.0819 41.187C45.6448 42.2351 46.1344 43.3081 46.6212 44.3751C46.9363 45.0657 47.2502 45.7538 47.5821 46.4309C48.3846 48.0681 49.2915 49.6351 50.5112 50.4939C51.1467 50.9413 51.8759 51.2043 52.7061 51.1843C53.5242 51.1645 54.3758 50.8716 55.2718 50.3223C55.2869 50.313 55.3017 50.3032 55.3161 50.2929C56.1375 49.7055 56.6741 48.9654 56.9288 48.1169C57.1809 47.2777 57.141 46.3878 56.908 45.5136C56.8013 45.1134 56.3904 44.8754 55.9901 44.982C55.5899 45.0887 55.3519 45.4996 55.4586 45.8998C55.6386 46.5756 55.6458 47.1741 55.4922 47.6856C55.3433 48.1816 55.0276 48.6491 54.4647 49.0576C53.7315 49.5031 53.1442 49.6732 52.6699 49.6847C52.2027 49.696 51.7835 49.5552 51.3747 49.2674C50.5058 48.6556 49.7405 47.4263 48.929 45.7707C48.637 45.175 48.3366 44.518 48.0254 43.8374C47.5168 42.7252 46.9796 41.5501 46.4034 40.4773C45.7718 39.3014 45.0496 38.1561 44.175 37.2026Z" fill="#26253C"/>
<path fill-rule="evenodd" clip-rule="evenodd" d="M33.4404 44.5361C33.6338 44.3078 33.9443 44.2163 34.2306 44.3032C35.5491 44.7036 36.7016 45.7063 37.6075 46.8971C38.5212 48.0981 39.2372 49.5587 39.6577 50.9925C40.0741 52.4122 40.2243 53.8875 39.9126 55.0915C39.7545 55.7024 39.4696 56.2712 39.012 56.7128C38.5479 57.1607 37.9479 57.4371 37.2363 57.5216C37.2187 57.5237 37.201 57.5252 37.1833 57.526C36.4505 57.5607 35.8092 57.4547 35.2728 57.1765C34.7256 56.8927 34.3472 56.4605 34.0983 55.9515C33.6282 54.9899 33.6079 53.7168 33.6649 52.4997C33.6893 51.9797 33.7276 51.4692 33.7657 50.9607C33.8238 50.1856 33.8815 49.4151 33.8893 48.6223C33.9017 47.3419 33.7708 46.222 33.3407 45.3538C33.2078 45.0858 33.247 44.7644 33.4404 44.5361ZM35.2586 46.5744C35.3664 47.2534 35.3958 47.9531 35.3892 48.637C35.3812 49.4578 35.3161 50.3407 35.2553 51.166C35.2186 51.6638 35.1834 52.1405 35.1633 52.57C35.1053 53.8076 35.1642 54.7164 35.4459 55.2927C35.5729 55.5526 35.7386 55.7283 35.9634 55.8449C36.1951 55.965 36.5458 56.0511 37.085 56.0289C37.488 55.9764 37.7675 55.8293 37.9703 55.6335C38.1838 55.4275 38.3541 55.1265 38.4605 54.7156C38.6779 53.8758 38.5949 52.6984 38.2183 51.4146C37.8459 50.1449 37.2094 48.8513 36.4137 47.8053C36.0477 47.3242 35.6588 46.9094 35.2586 46.5744Z" fill="#26253C"/>
<path d="M46.0688 33.0496C46.7465 33.0496 47.2959 32.5002 47.2959 31.8225C47.2959 31.1449 46.7465 30.5955 46.0688 30.5955C45.3912 30.5955 44.8418 31.1449 44.8418 31.8225C44.8418 32.5002 45.3912 33.0496 46.0688 33.0496Z" fill="#26253C"/>
<path d="M55.1411 36.2473C55.8188 36.2473 56.3681 35.698 56.3681 35.0203C56.3681 34.3426 55.8188 33.7932 55.1411 33.7932C54.4634 33.7932 53.9141 34.3426 53.9141 35.0203C53.9141 35.698 54.4634 36.2473 55.1411 36.2473Z" fill="#26253C"/>
<path d="M41.4585 45.4686C42.1362 45.4686 42.6855 44.9192 42.6855 44.2415C42.6855 43.5639 42.1362 43.0145 41.4585 43.0145C40.7808 43.0145 40.2314 43.5639 40.2314 44.2415C40.2314 44.9192 40.7808 45.4686 41.4585 45.4686Z" fill="#26253C"/>
<path d="M30.0005 32.0022C30.6781 32.0022 31.2275 31.4529 31.2275 30.7752C31.2275 30.0975 30.6781 29.5482 30.0005 29.5482C29.3228 29.5482 28.7734 30.0975 28.7734 30.7752C28.7734 31.4529 29.3228 32.0022 30.0005 32.0022Z" fill="#26253C"/>
<path d="M30.0005 56.2517C30.6781 56.2517 31.2275 55.7023 31.2275 55.0247C31.2275 54.347 30.6781 53.7976 30.0005 53.7976C29.3228 53.7976 28.7734 54.347 28.7734 55.0247C28.7734 55.7023 29.3228 56.2517 30.0005 56.2517Z" fill="#26253C"/>
<path fill-rule="evenodd" clip-rule="evenodd" d="M27.8319 17.2881C28.0364 17.2539 28.2459 17.3059 28.4107 17.4318L30.0006 18.6458L31.5905 17.4318C31.7553 17.3059 31.9648 17.2539 32.1693 17.2881C32.3738 17.3223 32.5551 17.4396 32.67 17.6122C34.3548 20.1431 34.6253 22.6406 34.1203 25.1046C34.2661 25.0218 34.4131 24.9422 34.5616 24.866C34.9301 24.6768 35.3821 24.8221 35.5713 25.1906C35.7605 25.5591 35.6152 26.0112 35.2467 26.2004C34.5837 26.5408 33.9368 26.9666 33.2971 27.4636C33.0335 27.6684 32.6662 27.6743 32.3962 27.4781C32.1261 27.2819 32.0182 26.9308 32.1315 26.6167C33.0605 24.0424 33.2106 21.6092 31.8391 19.1292L30.4558 20.1856C30.187 20.3908 29.8142 20.3908 29.5454 20.1856L28.1621 19.1292C26.7906 21.6092 26.9407 24.0424 27.8697 26.6167C27.983 26.9308 27.8751 27.2819 27.6051 27.4781C27.335 27.6743 26.9677 27.6684 26.7041 27.4636C24.5428 25.7846 22.2751 24.8899 19.4927 25.428L20.0699 27.07C20.182 27.389 20.0668 27.7436 19.7886 27.9358L18.3565 28.9249C20.2913 30.9957 22.6517 31.6048 25.3871 31.5168C25.7208 31.5061 26.0214 31.7172 26.1245 32.0347C26.2277 32.3521 26.1086 32.6996 25.8324 32.887C23.5677 34.4237 22.016 36.304 21.6679 39.1165L23.4079 39.0749C23.746 39.0669 24.0476 39.286 24.1444 39.6101L24.6426 41.2777C27.2099 40.0775 28.5186 38.0208 29.2803 35.3921C29.3732 35.0715 29.6668 34.8508 30.0006 34.8508C30.3345 34.8508 30.6281 35.0715 30.721 35.3921C31.4826 38.0208 32.7913 40.0775 35.3586 41.2777L35.8568 39.6101C35.9536 39.286 36.2553 39.0669 36.5933 39.0749L38.3333 39.1165C37.9852 36.304 36.4336 34.4237 34.1689 32.887C33.8927 32.6996 33.7736 32.3521 33.8767 32.0347C33.9799 31.7172 34.2805 31.5061 34.6141 31.5168C37.3496 31.6048 39.71 30.9957 41.6448 28.9249L40.2127 27.9358C39.9345 27.7436 39.8192 27.389 39.9314 27.07L40.5086 25.4279C39.9422 25.3183 39.4017 25.2689 38.8833 25.2716C38.4691 25.2737 38.1316 24.9397 38.1294 24.5255C38.1273 24.1113 38.4613 23.7737 38.8755 23.7716C39.7762 23.7669 40.7135 23.894 41.6946 24.169C41.8943 24.2249 42.0618 24.361 42.1576 24.545C42.2533 24.7289 42.2686 24.9442 42.1998 25.1399L41.5364 27.0271L43.1823 28.1639C43.353 28.2817 43.4672 28.465 43.4979 28.67C43.5286 28.8751 43.473 29.0837 43.3443 29.2464C41.4578 31.6311 39.1659 32.66 36.6662 32.941C38.5233 34.6377 39.7727 36.8172 39.8972 39.8554C39.9057 40.0626 39.8281 40.264 39.6827 40.4119C39.5373 40.5598 39.3373 40.6408 39.13 40.6359L37.1301 40.5882L36.5575 42.5049C36.4981 42.7036 36.3592 42.8688 36.1736 42.9613C35.9881 43.0539 35.7725 43.0655 35.5781 42.9934C32.7271 41.9361 31.0404 40.0744 30.0006 37.7839C28.9609 40.0744 27.2741 41.9361 24.4232 42.9934C24.2288 43.0655 24.0132 43.0539 23.8276 42.9613C23.6421 42.8688 23.5031 42.7036 23.4438 42.5049L22.8711 40.5882L20.8713 40.6359C20.664 40.6408 20.4639 40.5598 20.3186 40.4119C20.1732 40.264 20.0955 40.0626 20.104 39.8554C20.2286 36.8173 21.4779 34.6377 23.335 32.9411C20.8353 32.66 18.5435 31.6311 16.6569 29.2464C16.5283 29.0837 16.4727 28.8751 16.5034 28.67C16.5341 28.465 16.6483 28.2817 16.8189 28.1639L18.4648 27.0271L17.8015 25.1399C17.7327 24.9442 17.748 24.7289 17.8437 24.5449C17.9394 24.361 18.107 24.2249 18.3067 24.169C21.2346 23.3486 23.6935 23.8633 25.881 25.1052C25.3758 22.641 25.6462 20.1433 27.3312 17.6122C27.4461 17.4396 27.6274 17.3223 27.8319 17.2881Z" fill="#26253C"/>
<path fill-rule="evenodd" clip-rule="evenodd" d="M30.0001 12.82C31.7745 10.1452 32.6728 7.33724 32.6942 5.17954C32.7061 3.98372 32.4492 3.06008 32.0068 2.45545C31.5879 1.88297 30.9533 1.5253 30.0001 1.5253C29.047 1.5253 28.4124 1.88297 27.9935 2.45545C27.551 3.06008 27.2942 3.98372 27.3061 5.17954C27.3275 7.33724 28.2258 10.1452 30.0001 12.82ZM26.783 1.56966C27.5056 0.582016 28.6059 0.0252991 30.0001 0.0252991C31.3944 0.0252991 32.4946 0.582016 33.2173 1.56966C33.9165 2.52514 34.2079 3.80735 34.1942 5.19445C34.1666 7.97097 32.9181 11.4585 30.6018 14.5713C30.4603 14.7615 30.2372 14.8736 30.0001 14.8736C29.7631 14.8736 29.54 14.7615 29.3984 14.5713C27.0822 11.4585 25.8337 7.97097 25.8061 5.19445C25.7923 3.80735 26.0838 2.52514 26.783 1.56966Z" fill="#26253C"/>
<path fill-rule="evenodd" clip-rule="evenodd" d="M12.1447 23.8331C13.6268 24.0381 15.0661 24.5503 16.0619 25.5026C16.2781 25.7094 16.3508 26.0249 16.2467 26.3054C16.1427 26.5859 15.8819 26.7778 15.5832 26.7936C14.6157 26.8448 13.5756 27.2803 12.4661 27.9195C11.7792 28.3152 11.1362 28.7436 10.4892 29.1746C10.0649 29.4574 9.63888 29.7412 9.19768 30.0177C8.1652 30.6646 7.04596 31.2716 5.97741 31.3339C5.41177 31.3668 4.84953 31.2491 4.33376 30.9116C3.82811 30.5807 3.42105 30.074 3.09166 29.4184C3.08371 29.4026 3.07633 29.3865 3.06951 29.3702C2.79393 28.7087 2.74037 28.0501 2.90287 27.4261C3.06313 26.8106 3.4189 26.2833 3.87361 25.8457C4.76972 24.9833 6.12893 24.3902 7.57029 24.0564C9.02589 23.7192 10.6499 23.6264 12.1447 23.8331ZM4.4444 28.7695C4.68966 29.2502 4.93671 29.5136 5.15509 29.6565C5.36702 29.7951 5.60141 29.8532 5.8902 29.8364C6.53052 29.7991 7.35138 29.4044 8.4012 28.7466C8.76555 28.5183 9.16372 28.2537 9.5794 27.9775C10.2687 27.5195 11.0061 27.0295 11.7173 26.6198C12.3099 26.2784 12.934 25.9607 13.5786 25.7214C13.0903 25.5371 12.538 25.4018 11.9392 25.319C10.6374 25.1389 9.19785 25.2191 7.90876 25.5177C6.60543 25.8196 5.5388 26.3249 4.91375 26.9265C4.60787 27.2209 4.42924 27.5169 4.35447 27.804C4.28344 28.0768 4.29234 28.3926 4.4444 28.7695Z" fill="#26253C"/>
<path fill-rule="evenodd" clip-rule="evenodd" d="M11.7715 36.7702C13.7741 35.8811 15.919 35.4273 17.8261 35.8295C18.1188 35.8912 18.3469 36.121 18.4063 36.4142C18.4658 36.7074 18.3454 37.0079 18.0998 37.1788C17.1299 37.8541 16.3029 38.8639 15.5522 40.082C14.8021 41.2992 14.1559 42.6771 13.5225 44.0611C13.3501 44.4377 12.905 44.6033 12.5284 44.4309C12.1517 44.2585 11.9861 43.8135 12.1585 43.4368C12.7896 42.058 13.4703 40.601 14.2752 39.295C14.7359 38.5474 15.2464 37.8338 15.8254 37.2026C14.7448 37.2851 13.5708 37.6125 12.3801 38.1411C10.5439 38.9564 8.74461 40.2171 7.31503 41.6395C5.8751 43.0722 4.8703 44.6084 4.52807 45.9527C4.35924 46.6158 4.35856 47.2031 4.51436 47.7058C4.66561 48.1938 4.98004 48.6544 5.53576 49.0576C6.70833 49.7702 7.51629 49.7899 8.13632 49.5384C8.81933 49.2613 9.467 48.5827 10.1338 47.5031C10.3515 47.1507 10.8136 47.0414 11.166 47.2591C11.5184 47.4767 11.6277 47.9389 11.41 48.2913C10.6981 49.4439 9.83883 50.4665 8.70019 50.9284C7.50265 51.4142 6.18085 51.2125 4.72866 50.3223C4.71356 50.313 4.69879 50.3032 4.68439 50.2929C3.874 49.7134 3.34047 48.9851 3.0816 48.1499C2.82537 47.3231 2.85465 46.4459 3.07444 45.5826C3.50948 43.8738 4.71668 42.1088 6.25705 40.5762C7.80778 39.0332 9.75717 37.6645 11.7715 36.7702Z" fill="#26253C"/>
<path fill-rule="evenodd" clip-rule="evenodd" d="M26.5603 44.5361C26.7537 44.7644 26.7929 45.0858 26.66 45.3538C26.2299 46.222 26.099 47.3419 26.1115 48.6223C26.1192 49.4151 26.1769 50.1856 26.235 50.9607C26.2731 51.4692 26.3114 51.9797 26.3358 52.4997C26.3929 53.7168 26.3725 54.9899 25.9024 55.9515C25.6535 56.4605 25.2751 56.8927 24.7279 57.1765C24.1915 57.4547 23.5503 57.5607 22.8174 57.526C22.7997 57.5252 22.782 57.5237 22.7644 57.5216C22.0528 57.4371 21.4528 57.1607 20.9887 56.7128C20.5311 56.2712 20.2462 55.7024 20.0881 55.0915C19.7764 53.8875 19.9266 52.4122 20.343 50.9925C20.7635 49.5587 21.4796 48.0981 22.3932 46.8971C23.2991 45.7063 24.4516 44.7036 25.7701 44.3032C26.0564 44.2163 26.3669 44.3078 26.5603 44.5361ZM22.9157 56.0289C23.4549 56.0511 23.8057 55.965 24.0373 55.8449C24.2622 55.7283 24.4278 55.5526 24.5548 55.2927C24.8365 54.7164 24.8955 53.8076 24.8374 52.57C24.8173 52.1405 24.7821 51.6638 24.7455 51.166C24.6846 50.3407 24.6195 49.4578 24.6115 48.637C24.6049 47.9531 24.6344 47.2534 24.7421 46.5744C24.3419 46.9094 23.953 47.3242 23.587 47.8053C22.7913 48.8513 22.1548 50.1449 21.7824 51.4146C21.4059 52.6984 21.3228 53.8758 21.5402 54.7156C21.6466 55.1265 21.8169 55.4275 22.0304 55.6335C22.2332 55.8293 22.5127 55.9764 22.9157 56.0289Z" fill="#26253C"/>
<path d="M13.9321 33.0496C14.6098 33.0496 15.1592 32.5002 15.1592 31.8225C15.1592 31.1449 14.6098 30.5955 13.9321 30.5955C13.2544 30.5955 12.7051 31.1449 12.7051 31.8225C12.7051 32.5002 13.2544 33.0496 13.9321 33.0496Z" fill="#26253C"/>
<path d="M4.85887 36.2473C5.53655 36.2473 6.08591 35.698 6.08591 35.0203C6.08591 34.3426 5.53655 33.7932 4.85887 33.7932C4.1812 33.7932 3.63184 34.3426 3.63184 35.0203C3.63184 35.698 4.1812 36.2473 4.85887 36.2473Z" fill="#26253C"/>
<path d="M18.5425 45.4686C19.2201 45.4686 19.7695 44.9192 19.7695 44.2415C19.7695 43.5639 19.2201 43.0145 18.5425 43.0145C17.8648 43.0145 17.3154 43.5639 17.3154 44.2415C17.3154 44.9192 17.8648 45.4686 18.5425 45.4686Z" fill="#26253C"/>
<path d="M56.2537 20.7729C57.8947 20.7729 59.2251 19.4425 59.2251 17.8015C59.2251 16.1604 57.8947 14.83 56.2537 14.83C54.6126 14.83 53.2822 16.1604 53.2822 17.8015C53.2822 19.4425 54.6126 20.7729 56.2537 20.7729Z" fill="#70AD13"/>
<path fill-rule="evenodd" clip-rule="evenodd" d="M55.8996 20.7517C56.0157 20.7655 56.1338 20.7728 56.2536 20.7728C57.8946 20.7728 59.225 19.4425 59.225 17.8014C59.225 16.8531 58.7808 16.0086 58.0891 15.4645C57.973 15.4507 57.8549 15.4434 57.7351 15.4434C56.094 15.4434 54.7637 16.7738 54.7637 18.4149C54.7637 19.3632 55.2079 20.2077 55.8996 20.7517Z" fill="#84C225"/>
<path fill-rule="evenodd" clip-rule="evenodd" d="M56.2537 15.58C55.0268 15.58 54.0322 16.5746 54.0322 17.8015C54.0322 19.0283 55.0268 20.0229 56.2537 20.0229C57.4805 20.0229 58.4751 19.0283 58.4751 17.8015C58.4751 16.5746 57.4805 15.58 56.2537 15.58ZM52.5322 17.8015C52.5322 15.7462 54.1984 14.08 56.2537 14.08C58.309 14.08 59.9751 15.7462 59.9751 17.8015C59.9751 19.8568 58.309 21.5229 56.2537 21.5229C54.1984 21.5229 52.5322 19.8568 52.5322 17.8015Z" fill="#26253C"/>
<path d="M46.7126 59.2247C48.3537 59.2247 49.6841 57.8944 49.6841 56.2533C49.6841 54.6122 48.3537 53.2819 46.7126 53.2819C45.0716 53.2819 43.7412 54.6122 43.7412 56.2533C43.7412 57.8944 45.0716 59.2247 46.7126 59.2247Z" fill="#70AD13"/>
<path fill-rule="evenodd" clip-rule="evenodd" d="M46.3586 59.2037C46.4747 59.2174 46.5927 59.2248 46.7125 59.2248C48.3536 59.2248 49.684 57.8944 49.684 56.2533C49.684 55.305 49.2398 54.4605 48.548 53.9164C48.4319 53.9026 48.3139 53.8953 48.1941 53.8953C46.553 53.8953 45.2227 55.2257 45.2227 56.8668C45.2227 57.8151 45.6668 58.6596 46.3586 59.2037Z" fill="#84C225"/>
<path fill-rule="evenodd" clip-rule="evenodd" d="M46.7126 54.0319C45.4858 54.0319 44.4912 55.0264 44.4912 56.2533C44.4912 57.4802 45.4858 58.4747 46.7126 58.4747C47.9395 58.4747 48.9341 57.4802 48.9341 56.2533C48.9341 55.0264 47.9395 54.0319 46.7126 54.0319ZM42.9912 56.2533C42.9912 54.198 44.6574 52.5319 46.7126 52.5319C48.7679 52.5319 50.4341 54.198 50.4341 56.2533C50.4341 58.3086 48.7679 59.9747 46.7126 59.9747C44.6574 59.9747 42.9912 58.3086 42.9912 56.2533Z" fill="#26253C"/>
<path d="M13.2878 59.2247C14.9289 59.2247 16.2593 57.8944 16.2593 56.2533C16.2593 54.6122 14.9289 53.2819 13.2878 53.2819C11.6468 53.2819 10.3164 54.6122 10.3164 56.2533C10.3164 57.8944 11.6468 59.2247 13.2878 59.2247Z" fill="#70AD13"/>
<path fill-rule="evenodd" clip-rule="evenodd" d="M12.9338 59.2037C13.0499 59.2174 13.1679 59.2248 13.2877 59.2248C14.9288 59.2248 16.2592 57.8944 16.2592 56.2533C16.2592 55.305 15.815 54.4605 15.1232 53.9164C15.0071 53.9026 14.8891 53.8953 14.7693 53.8953C13.1282 53.8953 11.7979 55.2257 11.7979 56.8668C11.7979 57.8151 12.242 58.6596 12.9338 59.2037Z" fill="#84C225"/>
<path fill-rule="evenodd" clip-rule="evenodd" d="M13.2878 54.0319C12.061 54.0319 11.0664 55.0264 11.0664 56.2533C11.0664 57.4802 12.061 58.4747 13.2878 58.4747C14.5147 58.4747 15.5093 57.4802 15.5093 56.2533C15.5093 55.0264 14.5147 54.0319 13.2878 54.0319ZM9.56641 56.2533C9.56641 54.198 11.2326 52.5319 13.2878 52.5319C15.3431 52.5319 17.0093 54.198 17.0093 56.2533C17.0093 58.3086 15.3431 59.9747 13.2878 59.9747C11.2325 59.9747 9.56641 58.3086 9.56641 56.2533Z" fill="#26253C"/>
<path d="M4.97118 6.5384C5.64885 6.5384 6.19822 5.98903 6.19822 5.31136C6.19822 4.63368 5.64885 4.08432 4.97118 4.08432C4.2935 4.08432 3.74414 4.63368 3.74414 5.31136C3.74414 5.98903 4.2935 6.5384 4.97118 6.5384Z" fill="#26253C"/>
<path d="M20.4018 5.64603C21.0795 5.64603 21.6289 5.09667 21.6289 4.41899C21.6289 3.74132 21.0795 3.19196 20.4018 3.19196C19.7242 3.19196 19.1748 3.74132 19.1748 4.41899C19.1748 5.09667 19.7242 5.64603 20.4018 5.64603Z" fill="#26253C"/>
<path d="M3.74683 20.7729C5.38791 20.7729 6.71827 19.4425 6.71827 17.8015C6.71827 16.1604 5.38791 14.83 3.74683 14.83C2.10575 14.83 0.775391 16.1604 0.775391 17.8015C0.775391 19.4425 2.10575 20.7729 3.74683 20.7729Z" fill="#70AD13"/>
<path fill-rule="evenodd" clip-rule="evenodd" d="M3.39277 20.7517C3.50887 20.7655 3.62693 20.7728 3.74671 20.7728C5.38779 20.7728 6.71815 19.4425 6.71815 17.8014C6.71815 16.8531 6.27396 16.0086 5.58222 15.4645C5.46612 15.4507 5.34806 15.4434 5.22828 15.4434C3.5872 15.4434 2.25684 16.7738 2.25684 18.4149C2.25684 19.3632 2.70103 20.2077 3.39277 20.7517Z" fill="#84C225"/>
<path fill-rule="evenodd" clip-rule="evenodd" d="M3.74683 15.58C2.51996 15.58 1.52539 16.5746 1.52539 17.8015C1.52539 19.0283 2.51996 20.0229 3.74683 20.0229C4.9737 20.0229 5.96827 19.0283 5.96827 17.8015C5.96827 16.5746 4.9737 15.58 3.74683 15.58ZM0.0253906 17.8015C0.0253906 15.7462 1.69154 14.08 3.74683 14.08C5.80212 14.08 7.46827 15.7462 7.46827 17.8015C7.46827 19.8568 5.80212 21.5229 3.74683 21.5229C1.69154 21.5229 0.0253906 19.8568 0.0253906 17.8015Z" fill="#26253C"/>
</g>
<defs>
<clipPath id="clip0_1420_7478">
<rect width="60" height="60" fill="white"/>
</clipPath>
</defs>
</svg>
