<svg width="25" height="25" viewBox="0 0 25 25" fill="none" xmlns="http://www.w3.org/2000/svg">
<g id="Frame 771">
<g id="Group 436">
<g id="Group 437">
<path id="Vector 2242" d="M12.6929 24C4.1335 24 2.24995 14.0902 5.49251 11.0481C5.7214 13.279 6.47799 14.5741 6.82768 14.9429C6.74537 11.01 8.54808 9.21305 10.1418 7.5889C10.3308 7.39627 10.5169 7.20607 10.6965 7.01503C10.8945 6.80447 11.0847 6.59287 11.2624 6.37587C12.3201 5.08408 12.9351 3.60049 12.1207 1C20.0602 6.50802 13.6943 10.1954 18.0097 13.7906C18.9396 13.3297 19.6787 11.3631 19.7502 10.518C22.1011 12.2234 22.9213 24 12.6929 24Z" fill="white"/>
<path id="Vector 2243" d="M12.5424 23.9423C8.2321 23.9423 7.20221 19.3143 8.77565 17.321C8.89009 18.0908 9.36371 18.7873 9.58621 18.9477C9.39549 15.3965 13.0907 15.9693 12.3517 12.0973C15.9992 14.0447 13.8059 17.5043 15.427 18.604C15.9229 18.5857 16.317 17.6188 16.4521 17.1377C16.921 17.7406 17.1608 18.5315 17.171 19.3601C17.1745 19.6479 17.1503 19.9402 17.0984 20.2307C17.0598 20.4464 17.006 20.6611 16.9369 20.8722C16.3993 22.5146 14.9364 23.9423 12.5424 23.9423Z" fill="#E77817"/>
</g>
</g>
</g>
</svg>
