<svg width="61" height="60" viewBox="0 0 61 60" fill="none" xmlns="http://www.w3.org/2000/svg">
<g clip-path="url(#clip0_1491_7416)">
<path fill-rule="evenodd" clip-rule="evenodd" d="M34.5213 2.95327C31.3205 1.15593 27.4857 1.10003 23.8059 2.53177C23.4199 2.68196 22.9852 2.49078 22.835 2.10476C22.6848 1.71874 22.876 1.28404 23.262 1.13385C27.2792 -0.429166 31.5939 -0.410809 35.2557 1.64536L34.8885 2.29932L35.2557 1.64537C41.0775 4.91456 43.3389 12.2266 41.6987 19.5135C41.6078 19.9176 41.2064 20.1715 40.8023 20.0805C40.3982 19.9896 40.1444 19.5882 40.2353 19.1841C41.7793 12.3248 39.5902 5.79966 34.5213 2.95327ZM19.4081 4.08351C19.6633 4.40976 19.6057 4.88113 19.2795 5.13635C17.1871 6.77315 15.3093 8.92877 13.8518 11.5242C9.01092 20.1448 10.7669 29.9697 17.2925 33.6342C18.1504 34.1159 19.0512 34.4716 19.9802 34.7074C20.3817 34.8094 20.6245 35.2175 20.5226 35.6189C20.4206 36.0204 20.0125 36.2632 19.611 36.1613C18.5568 35.8936 17.5329 35.4895 16.5581 34.9421L16.5581 34.9421C9.04568 30.7235 7.46386 19.8363 12.5439 10.7898L13.1425 11.1259L12.5439 10.7898C14.0966 8.02478 16.1037 5.71622 18.3552 3.9549C18.6815 3.69968 19.1529 3.75727 19.4081 4.08351ZM32.4406 6.65866C27.4783 3.87208 20.3803 6.55234 16.6925 13.1195C13.0048 19.6868 14.4108 27.1424 19.3732 29.929C19.9913 30.2761 20.6379 30.538 21.3039 30.7188C21.7036 30.8274 21.9397 31.2394 21.8311 31.6391C21.7226 32.0389 21.3105 32.2749 20.9108 32.1664C20.1277 31.9537 19.3662 31.6454 18.6388 31.2369L18.6388 31.2369C12.7008 27.9025 11.4499 19.3922 15.3846 12.3851C19.3194 5.37799 27.2371 2.01634 33.175 5.35076C35.3359 6.56413 36.8854 8.48557 37.782 10.7644C37.9336 11.1498 37.7441 11.5852 37.3586 11.7369C36.9732 11.8885 36.5378 11.699 36.3861 11.3136C35.6011 9.31843 34.2665 7.68396 32.4406 6.65866L32.789 6.03819L32.4406 6.65866ZM37.9686 15.7605C38.3823 15.7802 38.7017 16.1317 38.682 16.5454C38.6338 17.5556 38.4872 18.5833 38.2403 19.6108C38.1436 20.0136 37.7387 20.2617 37.3359 20.1649C36.9331 20.0681 36.6851 19.6632 36.7818 19.2605C37.0072 18.3224 37.1401 17.3881 37.1837 16.4739C37.2034 16.0601 37.5549 15.7407 37.9686 15.7605Z" fill="#84828B"/>
<path fill-rule="evenodd" clip-rule="evenodd" d="M2.95658 53.7193C2.18236 53.6631 1.94241 53.881 1.90038 53.9559L1.55355 54.5735C1.51152 54.6484 1.45037 54.9667 1.90133 55.5985C2.31429 56.1771 3.03373 56.8189 3.97584 57.3479L3.97602 57.348C4.91812 57.8771 5.8406 58.1573 6.54959 58.2087C7.32381 58.2649 7.56376 58.047 7.60579 57.9721L7.95262 57.3545C7.99465 57.2796 8.0558 56.9614 7.60484 56.3295C7.19187 55.7509 6.47243 55.1091 5.53032 54.5801L5.53015 54.58C4.58804 54.051 3.66557 53.7707 2.95658 53.7193ZM3.06511 52.2232C4.03943 52.2939 5.1743 52.6599 6.26459 53.2721L6.26477 53.2722C7.35506 53.8845 8.25825 54.663 8.82576 55.4581C9.35527 56.2 9.75473 57.2088 9.26051 58.0889L8.91368 58.7066C8.41947 59.5867 7.35014 59.7707 6.44106 59.7048C5.46674 59.6341 4.33186 59.2682 3.24157 58.6559L3.2414 58.6558C2.15111 58.0436 1.24792 57.265 0.680409 56.4699C0.150897 55.728 -0.248564 54.7192 0.245652 53.8391L0.592483 53.2214C1.0867 52.3413 2.15602 52.1573 3.06511 52.2232Z" fill="#84828B"/>
<path fill-rule="evenodd" clip-rule="evenodd" d="M11.9869 28.6961C12.3944 28.6216 12.7851 28.8915 12.8596 29.299C13.6737 33.7518 12.8367 38.872 10.2078 43.5538C10.005 43.9149 9.54776 44.0433 9.18659 43.8405C8.82543 43.6377 8.69705 43.1805 8.89986 42.8193C11.3711 38.4185 12.1304 33.6514 11.384 29.5687C11.3095 29.1613 11.5794 28.7706 11.9869 28.6961ZM20.1735 37.5916C20.4126 37.9298 20.3323 38.3978 19.9941 38.6369C17.6023 40.3284 15.4478 42.6798 13.8184 45.5813L8.35574 55.3093C8.15293 55.6705 7.69574 55.7989 7.33457 55.5961C6.9734 55.3933 6.84503 54.9361 7.04784 54.5749L12.5105 44.8468L12.5105 44.8468C14.2461 41.7562 16.5497 39.2355 19.1281 37.4122C19.4663 37.1731 19.9343 37.2534 20.1735 37.5916ZM8.39553 45.2492C8.75669 45.452 8.88506 45.9092 8.68224 46.2704L4.7449 53.2817C4.54208 53.6429 4.08489 53.7713 3.72372 53.5685C3.36256 53.3656 3.23419 52.9085 3.43701 52.5473L7.37435 45.5359C7.57717 45.1747 8.03437 45.0464 8.39553 45.2492Z" fill="#84828B"/>
<path fill-rule="evenodd" clip-rule="evenodd" d="M57.5233 33.437C54.2416 23.4163 43.4576 17.9533 33.4369 21.2351L33.2201 20.5732L33.4369 21.2351C23.4162 24.5169 17.9532 35.3008 21.2351 45.3215L20.6167 45.5241L21.2351 45.3215C24.5169 55.3422 35.3008 60.8052 45.3215 57.5234C50.6417 55.781 54.6767 51.9252 56.8014 47.1891C56.971 46.8111 57.4148 46.6422 57.7927 46.8117C58.1706 46.9813 58.3395 47.4251 58.17 47.803C55.8797 52.9084 51.5266 57.0696 45.7884 58.9489C34.9804 62.4886 23.3492 56.5964 19.8096 45.7884L20.5224 45.555L19.8096 45.7884C16.2699 34.9804 22.1621 23.3493 32.9701 19.8096C43.7781 16.2699 55.4092 22.1621 58.9488 32.9701C60.0972 36.4766 60.253 40.0722 59.5689 43.4494C59.4866 43.8554 59.0909 44.1179 58.6849 44.0356C58.2789 43.9534 58.0165 43.5576 58.0987 43.1517C58.7326 40.0222 58.5889 36.6904 57.5233 33.437Z" fill="#84828B"/>
<path fill-rule="evenodd" clip-rule="evenodd" d="M29.4416 4.3316C29.8027 4.53442 29.9311 4.99161 29.7283 5.35277L27.1916 9.86994C26.9888 10.2311 26.5316 10.3595 26.1704 10.1567C25.8093 9.95385 25.6809 9.49665 25.8837 9.13549L28.4204 4.61832C28.6232 4.25715 29.0804 4.12879 29.4416 4.3316ZM35.9875 8.00741C36.3487 8.21022 36.477 8.66741 36.2742 9.02858L32.4731 15.7975L37.5485 18.6436C37.9098 18.8462 38.0384 19.3033 37.8358 19.6646C37.6332 20.0259 37.1761 20.1545 36.8148 19.9519L31.7387 17.1054L27.9336 23.8815C27.7935 24.131 27.5319 24.2694 27.2644 24.2642C27.2526 24.2935 27.2387 24.3224 27.2229 24.3507C27.0203 24.712 26.5632 24.8406 26.2019 24.638L20.6476 21.5234L17.0105 28.0004C16.8077 28.3616 16.3505 28.4899 15.9893 28.2871C15.6282 28.0843 15.4998 27.6271 15.7026 27.2659L19.3393 20.7897L14.2642 17.9438C13.9029 17.7412 13.7742 17.2841 13.9768 16.9228C14.1794 16.5615 14.6365 16.4328 14.9978 16.6354L20.0737 19.4818L23.0685 14.1488C23.2713 13.7876 23.7285 13.6592 24.0897 13.862C24.4509 14.0648 24.5792 14.522 24.3764 14.8832L21.3821 20.2155L26.6219 23.1538C26.6232 23.1516 26.6244 23.1493 26.6257 23.147L30.4304 16.3717L18.8041 9.85213C18.4429 9.64953 18.3142 9.19241 18.5168 8.83112C18.7194 8.46984 19.1765 8.3412 19.5378 8.5438L31.1648 15.0638L34.9663 8.29413C35.1691 7.93297 35.6263 7.80459 35.9875 8.00741Z" fill="#84828B"/>
<path fill-rule="evenodd" clip-rule="evenodd" d="M46.8023 20.4982C47.0432 20.8351 46.9654 21.3036 46.6284 21.5445L43.2222 23.9799L40.1364 26.1862L40.2447 32.5814L43.3434 34.7969L46.4026 36.9841L51.6655 34.6719L54.1021 26.9744C54.2271 26.5795 54.6485 26.3607 55.0434 26.4857C55.4383 26.6107 55.6571 27.0321 55.5321 27.427L53.1667 34.8999L59.4728 39.5553C59.8061 39.8013 59.8768 40.2708 59.6308 40.6041C59.3848 40.9373 58.9152 41.008 58.582 40.762L52.221 36.0662L46.9209 38.3948L45.7247 42.0181L44.5497 45.5762L47.7207 49.6086L55.7273 49.5477C56.1415 49.5446 56.4798 49.8778 56.483 50.292C56.4861 50.7062 56.1529 51.0445 55.7387 51.0477L47.9007 51.1072L45.4218 58.5433C45.2908 58.9363 44.8661 59.1486 44.4731 59.0176C44.0802 58.8866 43.8678 58.4619 43.9988 58.0689L46.5194 50.5075L43.3471 46.4735H35.6407L32.2453 50.5219L34.761 58.0688C34.892 58.4618 34.6797 58.8865 34.2867 59.0175C33.8938 59.1485 33.469 58.9362 33.338 58.5432L30.8592 51.1071L23.0211 51.0476C22.6069 51.0445 22.2736 50.7061 22.2768 50.2919C22.2799 49.8777 22.6183 49.5445 23.0325 49.5476L31.0536 49.6086L34.4475 45.562L33.2773 42.0181L32.0824 38.399L26.5698 36.0432L20.1779 40.7619C19.8447 41.0079 19.3751 40.9371 19.1291 40.6039C18.8831 40.2707 18.9538 39.8011 19.287 39.5551L25.5932 34.8997L23.2277 27.4268C23.1027 27.0319 23.3215 26.6105 23.7164 26.4855C24.1113 26.3605 24.5328 26.5793 24.6578 26.9742L25.9215 30.9663L27.0813 34.6306L32.5954 36.987L34.1809 35.8534C34.5178 35.6125 34.9863 35.6903 35.2272 36.0273C35.4681 36.3642 35.3902 36.8327 35.0533 37.0736L33.5737 38.1315L34.7017 41.5478L35.8329 44.9735H43.1691L44.3003 41.5478L45.4282 38.1315L39.5011 33.8937L38.2631 34.7788C37.9261 35.0197 37.4577 34.9418 37.2168 34.6049C36.9758 34.2679 37.0537 33.7995 37.3907 33.5586L38.7446 32.5906L38.6363 26.1955L35.5375 23.9799L32.1312 21.5445C31.7943 21.3036 31.7164 20.8351 31.9573 20.4982C32.1983 20.1612 32.6667 20.0834 33.0036 20.3243L39.3798 24.8832L45.756 20.3243C46.093 20.0834 46.5614 20.1612 46.8023 20.4982Z" fill="#84828B"/>
<path fill-rule="evenodd" clip-rule="evenodd" d="M9.53954 41.597C9.74235 41.2359 10.1995 41.1075 10.5607 41.3103L14.2413 43.3771C14.6024 43.5799 14.7308 44.0371 14.528 44.3982C14.3252 44.7594 13.868 44.8878 13.5068 44.685L9.82628 42.6182C9.46511 42.4154 9.33673 41.9582 9.53954 41.597Z" fill="#84828B"/>
</g>
<defs>
<clipPath id="clip0_1491_7416">
<rect width="60.0018" height="60" fill="white"/>
</clipPath>
</defs>
</svg>
