<svg width="61" height="60" viewBox="0 0 61 60" fill="none" xmlns="http://www.w3.org/2000/svg">
<g clip-path="url(#clip0_1491_7426)">
<path d="M8.6059 57.722C9.14216 56.767 7.92927 55.0676 5.89684 53.9263C3.86441 52.785 1.78208 52.634 1.24582 53.5889L0.899012 54.2065C0.362756 55.1615 1.57565 56.8609 3.60808 58.0022C5.64051 59.1435 7.72284 59.2945 8.25909 58.3396L8.6059 57.722Z" fill="#84828B"/>
<path fill-rule="evenodd" clip-rule="evenodd" d="M8.60056 56.1204C8.81205 56.7312 8.77277 57.4261 8.43337 58.0306C7.80395 59.1515 6.37194 59.5535 5.25109 58.9242L2.32756 57.2825C2.11607 56.6717 2.15531 55.9767 2.49472 55.3723L2.49476 55.3722C3.12418 54.2514 4.55614 53.8493 5.67704 54.4787L8.60056 56.1204Z" fill="#D0CFD4"/>
<path fill-rule="evenodd" clip-rule="evenodd" d="M7.70162 54.9422L4.09082 52.9145L9.5536 43.1866C12.1037 38.6453 12.9018 33.7015 12.1215 29.4339L23.5707 35.8631C19.5204 37.4183 15.7145 40.6727 13.1643 45.2141L7.70162 54.9422Z" fill="#84828B"/>
<path fill-rule="evenodd" clip-rule="evenodd" d="M7.70145 54.9422L5.54395 53.7306L10.663 44.6147C12.3458 41.6181 13.2654 38.4462 13.4723 35.4091C13.4826 35.4149 13.4925 35.4211 13.5028 35.4269C15.9648 36.8094 18.758 37.2178 21.5612 36.7858C18.2809 38.5447 15.2872 41.4332 13.164 45.2141L7.70141 54.9422H7.70145Z" fill="#D0CFD4"/>
<path fill-rule="evenodd" clip-rule="evenodd" d="M11.9868 28.6961C12.3942 28.6216 12.7849 28.8915 12.8594 29.299C13.6735 33.7517 12.8367 38.872 10.2077 43.5538C10.0049 43.915 9.54768 44.0433 9.18651 43.8405C8.82534 43.6377 8.69697 43.1805 8.89978 42.8193C11.371 38.4185 12.1303 33.6513 11.3839 29.5688C11.3094 29.1613 11.5793 28.7706 11.9868 28.6961ZM24.271 35.5943C24.4195 35.981 24.2264 36.4148 23.8397 36.5633C19.965 38.051 16.2896 41.1805 13.8183 45.5813L8.3557 55.3094C8.1529 55.6705 7.6957 55.7989 7.33454 55.5961C6.97337 55.3933 6.84499 54.9361 7.0478 54.5749L12.5104 44.8469L13.1189 45.1886L12.5104 44.8469C15.1396 40.165 19.0761 36.7856 23.302 35.163C23.6887 35.0145 24.1225 35.2076 24.271 35.5943ZM8.39548 45.2492C8.75665 45.452 8.88501 45.9092 8.6822 46.2704L4.7449 53.2817C4.54208 53.6429 4.08489 53.7713 3.72373 53.5685C3.36256 53.3657 3.23419 52.9085 3.43701 52.5473L7.37431 45.5359C7.57712 45.1747 8.03432 45.0464 8.39548 45.2492Z" fill="#26253C"/>
<path fill-rule="evenodd" clip-rule="evenodd" d="M34.8881 2.2993C41.9071 6.24081 43.576 16.5969 38.6155 25.4305C33.6551 34.264 23.9439 38.2297 16.9249 34.2882C9.90587 30.3467 8.23701 19.9906 13.1974 11.157C18.1579 2.32355 27.8691 -1.64217 34.8881 2.2993ZM32.8074 6.00458C38.2575 9.06506 39.586 17.0481 35.7747 23.8352C31.9635 30.6224 24.4557 33.6434 19.0055 30.5829C13.5554 27.5224 12.2268 19.5394 16.0381 12.7523C19.8494 5.96512 27.3572 2.9441 32.8074 6.00458Z" fill="#84828B"/>
<path fill-rule="evenodd" clip-rule="evenodd" d="M29.4416 4.33168C29.8028 4.53449 29.9312 4.99168 29.7284 5.35285L27.1917 9.87004C26.9889 10.2312 26.5317 10.3596 26.1706 10.1568C25.8094 9.95395 25.681 9.49675 25.8838 9.13559L28.4205 4.6184C28.6233 4.25723 29.0805 4.12886 29.4416 4.33168ZM35.9876 8.00756C36.3488 8.21037 36.4772 8.66757 36.2743 9.02873L32.4733 15.7977L37.5485 18.6437C37.9098 18.8463 38.0385 19.3034 37.8359 19.6647C37.6333 20.026 37.1761 20.1547 36.8149 19.9521L31.7388 17.1056L27.9304 23.8877L33.0085 26.7353C33.3698 26.9379 33.4984 27.395 33.2958 27.7563C33.0932 28.1176 32.6361 28.2462 32.2748 28.0436L27.1959 25.1955L23.5566 31.6764C23.3538 32.0376 22.8966 32.166 22.5354 31.9632C22.1742 31.7604 22.0459 31.3032 22.2487 30.942L25.8876 24.4619L20.6478 21.5236L17.0106 28.0006C16.8078 28.3618 16.3506 28.4901 15.9894 28.2873C15.6283 28.0845 15.4999 27.6273 15.7027 27.2662L19.3394 20.7899L14.2642 17.9438C13.9029 17.7412 13.7742 17.2841 13.9768 16.9228C14.1794 16.5616 14.6365 16.4329 14.9978 16.6355L20.0739 19.482L23.0686 14.1489C23.2714 13.7878 23.7286 13.6594 24.0898 13.8622C24.451 14.065 24.5793 14.5222 24.3765 14.8834L21.3822 20.2157L26.622 23.154L30.4305 16.3719L18.8042 9.8522C18.4429 9.6496 18.3143 9.19249 18.5169 8.8312C18.7195 8.46992 19.1766 8.34128 19.5379 8.54387L31.1649 15.064L34.9665 8.29429C35.1693 7.93312 35.6265 7.80475 35.9876 8.00756Z" fill="#26253C"/>
<path fill-rule="evenodd" clip-rule="evenodd" d="M38.6466 5.63512C42.3168 10.6055 42.514 18.4879 38.6154 25.4305C33.655 34.264 23.9438 38.2297 16.9248 34.2882C16.3854 33.9853 15.8779 33.6442 15.4022 33.2691C11.7319 28.2988 11.5347 20.4163 15.4333 13.4737C20.3938 4.64023 30.105 0.67451 37.124 4.61598C37.6634 4.91889 38.1709 5.26002 38.6466 5.63512ZM32.8073 6.00458C38.2574 9.06507 39.5859 17.0481 35.7747 23.8353C31.9634 30.6224 24.4556 33.6434 19.0054 30.5829C13.5553 27.5224 12.2267 19.5394 16.038 12.7523C19.8493 5.96512 27.3571 2.9441 32.8073 6.00458Z" fill="#D0CFD4"/>
<path fill-rule="evenodd" clip-rule="evenodd" d="M34.5213 2.9533C31.3204 1.1559 27.4857 1.10002 23.8059 2.53174C23.4199 2.68194 22.9852 2.49076 22.835 2.10474C22.6848 1.71871 22.876 1.28402 23.262 1.13383C27.2792 -0.429178 31.5939 -0.410838 35.2557 1.6454L34.8885 2.29935L35.2557 1.6454C42.7681 5.86393 44.3499 16.7513 39.2699 25.7977C34.1899 34.8442 24.0705 39.1607 16.5581 34.9422L16.9253 34.2883L16.5581 34.9422C9.04566 30.7236 7.46388 19.8363 12.5439 10.7898C14.0966 8.0248 16.1037 5.71621 18.3552 3.95489C18.6815 3.69968 19.1529 3.75726 19.4081 4.08351C19.6633 4.40976 19.6057 4.88113 19.2795 5.13634C17.1871 6.77314 15.3093 8.9288 13.8518 11.5243C9.01093 20.1449 10.7669 29.9698 17.2925 33.6343C23.8181 37.2987 33.1211 33.6838 37.962 25.0633C42.8028 16.4427 41.0469 6.61771 34.5213 2.9533ZM32.4406 6.65858C27.4783 3.87201 20.3803 6.5523 16.6925 13.1195C13.0047 19.6867 14.4108 27.1424 19.3732 29.929C24.3356 32.7155 31.4335 30.0352 35.1213 23.468C36.4037 21.1843 37.0744 18.7672 37.1837 16.4739C37.2035 16.0602 37.5549 15.7408 37.9686 15.7605C38.3823 15.7802 38.7018 16.1316 38.682 16.5454C38.5613 19.0775 37.8227 21.7209 36.4292 24.2024C32.4944 31.2095 24.5767 34.5713 18.6387 31.2369L19.0006 30.5926L18.6387 31.2369C12.7008 27.9025 11.4498 19.3922 15.3846 12.385C19.3194 5.37795 27.2371 2.01628 33.175 5.35068C35.3359 6.56411 36.8853 8.48547 37.782 10.7643C37.9337 11.1497 37.7441 11.5851 37.3587 11.7368C36.9732 11.8885 36.5378 11.6989 36.3862 11.3135C35.6011 9.31834 34.2665 7.68393 32.4406 6.65858Z" fill="#26253C"/>
<path d="M39.3795 59.2218C50.3382 59.2218 59.222 50.338 59.222 39.3794C59.222 28.4207 50.3382 19.5369 39.3795 19.5369C28.4209 19.5369 19.5371 28.4207 19.5371 39.3794C19.5371 50.338 28.4209 59.2218 39.3795 59.2218Z" fill="#995F30"/>
<path fill-rule="evenodd" clip-rule="evenodd" d="M48.1123 21.5584C54.692 24.7889 59.2218 31.5547 59.2218 39.3794C59.2218 50.338 50.338 59.2218 39.3793 59.2218C37.4323 59.2218 35.5513 58.94 33.7735 58.4174C27.1938 55.1869 22.6641 48.4211 22.6641 40.5965C22.6641 29.6378 31.5478 20.754 42.5065 20.754C44.4535 20.754 46.3345 21.0358 48.1123 21.5584Z" fill="#A86D38"/>
<path fill-rule="evenodd" clip-rule="evenodd" d="M31.9575 20.4981C32.1984 20.1611 32.6668 20.0833 33.0038 20.3242L39.38 24.8832L45.7562 20.3242C46.0932 20.0833 46.5616 20.1611 46.8025 20.4981C47.0435 20.835 46.9656 21.3035 46.6287 21.5444L43.2224 23.9799L40.1366 26.1862L40.2448 32.5811L43.3437 34.7968L46.4028 36.984L51.6656 34.6718L52.8385 30.9664L54.1022 26.9742C54.2272 26.5793 54.6486 26.3605 55.0435 26.4855C55.4384 26.6105 55.6572 27.032 55.5322 27.4269L53.1668 34.8998L59.473 39.5552C59.8063 39.8012 59.877 40.2708 59.631 40.604C59.385 40.9373 58.9154 41.008 58.5821 40.762L52.2211 36.0661L46.9213 38.3946L45.725 42.018L44.5501 45.5763L47.721 49.6085L55.7275 49.5477C56.1417 49.5445 56.48 49.8777 56.4832 50.2919C56.4863 50.7061 56.1531 51.0445 55.7389 51.0476L47.9008 51.1072L45.422 58.5432C45.291 58.9362 44.8663 59.1486 44.4733 59.0176C44.0803 58.8866 43.868 58.4618 43.999 58.0689L46.5196 50.5074L43.3473 46.4734H35.6409L32.2454 50.5219L33.437 54.0964L34.7612 58.0688C34.8922 58.4618 34.6798 58.8865 34.2868 59.0175C33.8939 59.1485 33.4691 58.9361 33.3382 58.5432L30.8594 51.1071L23.0212 51.0476C22.607 51.0444 22.2738 50.7061 22.2769 50.2919C22.2801 49.8777 22.6184 49.5445 23.0326 49.5476L31.0537 49.6086L34.4478 45.5617L33.2777 42.018L32.0829 38.3989L26.57 36.0431L20.1779 40.7619C19.8447 41.0079 19.3751 40.9372 19.1291 40.6039C18.8831 40.2707 18.9538 39.8011 19.287 39.5551L22.6559 37.0681L25.5932 34.8997L24.4915 31.419L23.2278 27.4268C23.1028 27.0319 23.3216 26.6104 23.7165 26.4854C24.1114 26.3604 24.5329 26.5792 24.6579 26.9741L25.9215 30.9663L27.0813 34.6304L32.5958 36.9869L34.1813 35.8533C34.5183 35.6124 34.9867 35.6902 35.2276 36.0272C35.4685 36.3641 35.3907 36.8326 35.0537 37.0735L33.5742 38.1314L34.7021 41.5477L35.8332 44.9734H43.1695L44.3006 41.5477L45.4286 38.1314L39.5013 33.8935L38.2633 34.7786C37.9264 35.0195 37.4579 34.9417 37.217 34.6047C36.9761 34.2678 37.054 33.7993 37.3909 33.5584L38.7448 32.5905L38.6365 26.1955L35.5376 23.9799L32.1313 21.5444C31.7944 21.3035 31.7165 20.835 31.9575 20.4981Z" fill="#26253C"/>
<path fill-rule="evenodd" clip-rule="evenodd" d="M57.5233 33.4371C54.2416 23.4164 43.4576 17.9534 33.4369 21.2352L33.2037 20.523L33.4369 21.2352C23.4162 24.517 17.9532 35.3009 21.2351 45.3216L20.5224 45.5551L21.2351 45.3216C24.5169 55.3424 35.3008 60.8053 45.3215 57.5235L45.5407 58.1927L45.3215 57.5235C50.6417 55.7811 54.6766 51.9253 56.8014 47.1891C56.9709 46.8112 57.4147 46.6423 57.7927 46.8118C58.1706 46.9814 58.3395 47.4252 58.17 47.8031C55.8796 52.9084 51.5266 57.0697 45.7884 58.949C34.9804 62.4887 23.3492 56.5965 19.8096 45.7885C16.2699 34.9805 22.1621 23.3494 32.9701 19.8097C43.7781 16.27 55.4092 22.1622 58.9488 32.9702C60.0973 36.4767 60.253 40.0722 59.5689 43.4495C59.4867 43.8555 59.0909 44.1179 58.685 44.0357C58.279 43.9535 58.0165 43.5577 58.0988 43.1518C58.7326 40.0223 58.5889 36.6905 57.5233 33.4371Z" fill="#26253C"/>
<path fill-rule="evenodd" clip-rule="evenodd" d="M2.95659 53.7196C2.18236 53.6634 1.9424 53.8813 1.90036 53.9562L1.55355 54.5738C1.51152 54.6486 1.45037 54.9669 1.90134 55.5988C2.31431 56.1774 3.03377 56.8192 3.97589 57.3482C4.91802 57.8773 5.84051 58.1575 6.54951 58.2089C7.32375 58.2651 7.5637 58.0472 7.60574 57.9723L7.95255 57.3547C7.99458 57.2799 8.05573 56.9616 7.60476 56.3297C7.19179 55.7511 6.47233 55.1093 5.53021 54.5803C4.58809 54.0512 3.6656 53.771 2.95659 53.7196ZM3.06512 52.2235C4.03946 52.2942 5.17435 52.6601 6.26465 53.2724C7.35496 53.8846 8.25816 54.6632 8.82568 55.4583C9.3552 56.2002 9.75466 57.2091 9.26044 58.0892L8.91364 58.7068C8.41942 59.5869 7.35008 59.7709 6.44098 59.705C5.46665 59.6343 4.33176 59.2684 3.24145 58.6561C2.15114 58.0439 1.24794 57.2653 0.680421 56.4702C0.150901 55.7283 -0.248562 54.7194 0.245657 53.8393L0.592467 53.2217C1.08669 52.3416 2.15602 52.1576 3.06512 52.2235Z" fill="#26253C"/>
<path fill-rule="evenodd" clip-rule="evenodd" d="M9.53954 41.5971C9.74236 41.2359 10.1995 41.1075 10.5607 41.3103L14.2413 43.3771C14.6024 43.5799 14.7308 44.0371 14.528 44.3983C14.3252 44.7595 13.868 44.8878 13.5068 44.685L9.82627 42.6182C9.46511 42.4154 9.33673 41.9582 9.53954 41.5971Z" fill="#26253C"/>
</g>
<defs>
<clipPath id="clip0_1491_7426">
<rect width="60.0018" height="60" fill="white"/>
</clipPath>
</defs>
</svg>
