<svg width="40" height="40" viewBox="0 0 40 40" fill="none" xmlns="http://www.w3.org/2000/svg">
<circle cx="20" cy="20" r="20" fill="#D0CFD4"/>
<path fill-rule="evenodd" clip-rule="evenodd" d="M8.00003 20C8.00003 13.3726 13.3726 8 20 8C26.6274 8 32 13.3726 32 20C32 26.6274 26.6274 32 20 32C17.5242 32 15.2213 31.2492 13.3096 29.9632L9.44724 31.8944C9.06225 32.0869 8.59728 32.0115 8.29292 31.7071C7.98856 31.4027 7.91311 30.9378 8.1056 30.5528L10.0368 26.6904C8.75081 24.7787 8.00003 22.4758 8.00003 20ZM20 10C14.4772 10 10 14.4772 10 20C10 22.2526 10.7437 24.3287 11.9992 26L12.3708 26.4946L11.2361 28.7639L13.5054 27.6293L14 28.0008C15.6713 29.2564 17.7474 30 20 30C25.5229 30 30 25.5228 30 20C30 14.4772 25.5229 10 20 10ZM16.2857 15.8367V16.8571C16.2857 17.4306 16.3561 17.9876 16.4887 18.52L17.0285 18.1601C17.2156 18.0354 17.3121 17.8125 17.2752 17.5907L17.056 16.276C16.9949 15.9092 16.6128 15.7085 16.2857 15.8367ZM17.2717 20.4017L18.1379 19.8242C18.9798 19.2629 19.4143 18.26 19.248 17.2619L19.0288 15.9472C18.7221 14.1066 16.6186 13.1953 15.066 14.2304L14.731 14.4537C14.4528 14.6391 14.2857 14.9514 14.2857 15.2857V16.8571C14.2857 21.7488 18.2512 25.7143 23.1429 25.7143H24.7143C25.0487 25.7143 25.3609 25.5472 25.5464 25.269L25.7697 24.934C26.8047 23.3814 25.8934 21.278 24.0529 20.9712L22.7381 20.7521C21.74 20.5857 20.7371 21.0202 20.1758 21.8621L19.5984 22.7283C18.6472 22.1529 17.8472 21.3528 17.2717 20.4017ZM21.4801 23.5113C22.0125 23.6439 22.5694 23.7143 23.1429 23.7143H24.1633C24.2915 23.3872 24.0908 23.0051 23.7241 22.944L22.4093 22.7249C22.1875 22.6879 21.9646 22.7844 21.8399 22.9715L21.4801 23.5113Z" fill="white"/>
</svg>
