<svg width="40" height="40" viewBox="0 0 40 40" fill="none" xmlns="http://www.w3.org/2000/svg">
<circle cx="20" cy="20" r="20" fill="#D0CFD4"/>
<path fill-rule="evenodd" clip-rule="evenodd" d="M8 12.5C8 11.076 9.19562 10 10.5714 10H29.4286C30.8044 10 32 11.076 32 12.5V27.5C32 28.924 30.8044 30 29.4286 30H10.5714C9.19562 30 8 28.924 8 27.5V12.5ZM10.5714 12C10.2115 12 10 12.2672 10 12.5V14.9064L20 20.3609L30 14.9064V12.5C30 12.2672 29.7885 12 29.4286 12H10.5714ZM30 17.1845L20 22.6391L10 17.1845V27.5C10 27.7328 10.2115 28 10.5714 28H29.4286C29.7885 28 30 27.7328 30 27.5V17.1845Z" fill="white"/>
</svg>
