<svg width="40" height="40" viewBox="0 0 40 40" fill="none" xmlns="http://www.w3.org/2000/svg">
<circle cx="20" cy="20" r="20" fill="#D0CFD4"/>
<path fill-rule="evenodd" clip-rule="evenodd" d="M8 20C8 13.3726 13.3726 8 20 8C26.6274 8 32 13.3726 32 20C32 26.6274 26.6274 32 20 32C13.3726 32 8 26.6274 8 20ZM20 10C14.4772 10 10 14.4772 10 20C10 25.1853 13.9467 29.4489 19 29.9506V22.5714H16.0714V20.5714H19V18.4286C19 16.1405 20.8548 14.2857 23.1429 14.2857H23.9286V16.2857H23.1429C21.9594 16.2857 21 17.2451 21 18.4286V20.5714H23.9286V22.5714H21V29.9506C26.0533 29.4489 30 25.1853 30 20C30 14.4772 25.5228 10 20 10Z" fill="white"/>
</svg>
