<svg width="40" height="40" viewBox="0 0 40 40" fill="none" xmlns="http://www.w3.org/2000/svg">
<circle cx="20" cy="20" r="20" fill="#D0CFD4"/>
<path fill-rule="evenodd" clip-rule="evenodd" d="M8 15.2857C8 11.2619 11.2619 8 15.2857 8H24.7143C28.7381 8 32 11.2619 32 15.2857V24.7143C32 28.7381 28.7381 32 24.7143 32H15.2857C11.2619 32 8 28.7381 8 24.7143V15.2857ZM15.2857 10C12.3665 10 10 12.3665 10 15.2857V24.7143C10 27.6335 12.3665 30 15.2857 30H24.7143C27.6335 30 30 27.6335 30 24.7143V15.2857C30 12.3665 27.6335 10 24.7143 10H15.2857ZM27.0714 14.7143H25.5V12.7143H27.0714V14.7143ZM14.2857 20C14.2857 16.8441 16.8441 14.2857 20 14.2857C23.1559 14.2857 25.7143 16.8441 25.7143 20C25.7143 23.1559 23.1559 25.7143 20 25.7143C16.8441 25.7143 14.2857 23.1559 14.2857 20ZM20 16.2857C17.9487 16.2857 16.2857 17.9487 16.2857 20C16.2857 22.0513 17.9487 23.7143 20 23.7143C22.0513 23.7143 23.7143 22.0513 23.7143 20C23.7143 17.9487 22.0513 16.2857 20 16.2857Z" fill="white"/>
</svg>
