<svg xmlns="http://www.w3.org/2000/svg" viewBox="0 0 560 355" fill="none" style="cursor: pointer;">

    <!-- <path id="2" fill-rule="evenodd" clip-rule="evenodd" d="M267.606 0.626877C267.34 1.06536 267.3 1.38218 266.995 1.78572C266.719 2.15002 266.444 2.35739 266.014 2.62015C265.612 2.86543 265.293 3.00752 264.753 3.16017C264.281 3.29402 263.6 3.36127 263.252 3.6692L264.396 3.83009C264.723 3.9791 264.647 3.99658 264.744 4.06878C264.353 4.91409 263.099 6.0749 262.026 6.56284C260.477 7.26638 258.594 6.70987 257.672 7.32012C256.609 8.02399 255.823 8.8426 254.149 8.89436C251.12 8.98799 248.375 9.89396 245.603 10.646C241.587 11.7352 240.712 11.8711 236.518 11.9205C233.934 11.9512 229.898 12.0831 227.682 13.289C225.651 14.3945 226.974 15.3298 226.25 17.0214C225.48 18.8169 224.03 17.4721 223.031 17.0306C222.234 16.6782 220.587 17.6643 218.811 17.4935C216.944 17.3142 215.928 17.7757 214.308 17.9554C213.53 18.0418 212.695 17.8492 212.167 18.3355C211.67 18.7938 211.428 19.3289 210.901 19.7136C209.83 20.4963 207.868 20.0551 206.26 20.1798C204.624 20.3064 202.954 20.2961 201.23 20.3562C200.955 20.8286 200.803 21.3765 200.51 21.94C198.988 22.0857 197.248 21.7553 195.853 22.1374C193.72 22.7223 194.706 23.7654 194.6 25.4837C192.29 25.4287 191.988 24.9816 190.545 23.8633C188.92 22.6026 187.761 23.6596 186.2 24.1617C183.551 25.0149 179.909 22.1496 176.54 23.2495L176.853 25.0159L175.389 24.709C175.618 25.5338 176.189 25.8055 176.37 26.6501C176.684 28.111 176.059 28.0454 175.698 28.8425L176.064 29.0769C176.252 29.1693 176.389 29.2045 176.57 29.2573C177.769 29.6081 178.897 29.3077 180.076 29.1726C181.813 28.9741 182.696 29.9259 183.356 31.0696C182.814 32.386 179.826 32.7305 178.549 33.5745C179.565 35.1926 190.848 35.5688 192.613 38.0684C193.341 39.0983 193.152 40.7669 192.29 41.4075C191.474 42.0141 189.23 41.4833 187.942 41.4938C184.899 41.5186 182.155 41.0791 179.045 41.0844C178.627 42.3543 178.934 42.2976 177.917 43.2834C177.426 43.7591 176.491 44.3281 176.251 44.9872C177.264 46.9175 183.158 51.1588 183.361 51.5288C183.209 51.7467 178.211 54.5549 177.445 54.9156C176.156 55.5219 175.485 55.5677 174.421 56.4806C173.932 56.9 173.602 57.2046 173.123 57.5389L171.886 58.2612C171.558 58.519 171.875 58.2131 171.619 58.5253C176.584 58.8289 176.957 62.7357 180.442 62.8936C185.512 63.1241 184.174 64.5071 186.659 65.4823C187.925 65.9795 189.249 65.7325 190.709 65.8862C193.658 66.1954 193.994 68.0077 196.231 69.2051C196.594 71.7789 194.791 70.2597 195.426 74.0936C195.8 76.347 195.837 77.5926 194.514 78.8563C191.971 81.285 183.04 82.3166 179.291 80.5126C177.899 79.8423 177.029 77.5962 175.653 78.0383C175.466 79.0903 175.804 80.0853 175.475 81.048C174.517 83.8464 171.077 84.0382 168.481 84.1012C168.655 83.3373 169.018 83.4418 169.02 82.706C165.794 81.017 158.5 80.2881 156.14 78.4072C154.681 77.2444 154.873 74.7814 152.266 73.671C150.936 73.1046 149.966 73.9931 148.793 74.2103C147.261 74.4935 146 74.0112 144.588 74.0056L144.628 77.5055C143.782 77.4185 143.618 76.8132 142.447 76.9893C141.606 77.1162 141.099 77.5411 140.061 77.5408C138.768 77.5405 137.028 76.2109 136.299 75.6221C134.838 74.4408 135.368 73.6769 132.421 73.7893C131.675 73.818 130.644 74.0142 130.036 74.3435C129.115 74.8427 129.563 75.4602 129.336 76.5402C128.483 75.958 127.403 74.8819 126.32 74.7477C125.195 76.1548 125.947 75.9956 123.809 77.403C122.903 78.0001 122.904 77.7558 122.675 78.9107C122.523 79.6742 122.32 80.1311 121.774 80.6487C116.756 85.4071 115.825 81.8353 111.557 80.2472C110.217 79.7487 108.967 79.3722 107.818 78.7148C105.888 77.6107 103.97 74.9637 100.928 75.0435C101.366 76.5854 105.995 80.2726 103.364 82.9302C102.144 84.1625 100.563 84.1994 99.5598 82.6829C98.5333 81.1311 98.7237 79.6567 98.537 77.6951C96.7313 76.5656 95.8708 77.645 93.7373 74.8783C91.6216 72.134 87.3559 70.6448 84.3731 68.82C82.1314 67.4492 81.1079 66.868 77.8831 66.9111C74.0847 66.9629 69.428 67.7802 66.8309 64.4224C66.4124 63.881 66.1109 63.0697 65.6696 62.5122C64.774 62.6391 64.4729 63.3776 63.763 63.6403C62.7066 64.032 61.8235 63.3324 61.0801 64.1899C60.3058 65.083 59.6338 67.2385 58.5912 67.9523C57.2139 67.312 58.5714 66.0464 55.7343 66.6339C54.2357 66.9444 53.2865 66.1941 52.7401 65.1965C51.9302 63.7185 52.2012 63.9275 49.9687 63.3535C48.9225 63.0842 47.2427 62.6576 46.231 62.5481C46.2402 63.6539 47.2871 64.8229 47.3617 65.9861C46.2889 65.5802 44.9376 64.6254 43.7408 64.8971C42.9987 65.9208 42.9606 67.7449 42.1093 68.9512C40.9717 70.5647 36.3891 72.1534 34.5005 72.7169C32.9394 73.1821 31.3649 73.4537 29.8426 73.8995C29.7827 75.1127 30.7339 76.1034 30.0116 77.2955C29.4145 78.2806 28.4452 78.4781 27.4714 78.9077C26.0089 79.5535 25.0077 80.6633 23.6216 81.316C23.1922 81.5181 22.5017 81.6629 22.1141 81.8696L23.9612 86.6526C24.2676 87.49 24.5662 88.2575 25.086 88.8862C25.6403 89.5568 26.2973 89.9508 26.5146 90.8027C27.4076 94.3062 20.8397 96.4993 18.1607 94.8581C14.1617 92.4079 11.869 87.4653 7.73913 85.2554C5.46523 84.0386 4.28718 85.3649 4.30132 87.8547C4.32039 91.2718 4.29408 91.9516 2.57189 94.1701C1.23339 95.894 0.129323 96.7479 0.136885 99.8241C0.142803 102.158 0.555432 102.376 1.95377 103.595C2.79185 104.326 4.1721 105.476 4.31809 106.929C4.48741 108.612 3.42806 109.903 2.395 110.696C0.972665 111.788 0.928936 112.469 0.438384 114.414C0.0724422 115.865 -0.417781 117.903 0.639931 118.972C1.46913 119.81 3.40767 120.296 4.77346 120.546C8.28393 121.19 8.05312 121.849 9.38734 124.405C9.84633 125.284 10.2826 125.305 10.7074 125.991C10.4888 126.499 9.70068 126.889 9.34526 127.111C9.50571 127.994 10.9024 130.555 11.8204 130.975C12.1751 130.99 12.6621 129.55 16.2616 129.551C19.5489 129.552 23.6794 131.091 25.8254 132.68C28.4051 134.591 30.2 136.763 32.1066 139.184C34.8333 142.648 35.3139 142.987 37.9936 145.95C38.7501 146.787 40.7025 149.018 38.8267 150.03C37.4008 150.8 34.2523 149.651 32.9118 150.486C33.1347 151.697 36.6544 152.99 38.1711 153.549C39.1759 153.92 40.302 154.274 41.2831 154.623C42.3658 155.009 41.7822 154.876 42.613 154.543C43.4123 154.223 43.2575 154.485 43.7691 153.409C43.5909 153.094 43.4909 153.065 43.2476 152.714L44.1064 151.381C44.6874 151.484 44.7456 151.653 45.1891 151.729C45.7638 151.828 45.6708 151.56 46.1715 151.404C47.5873 150.962 48.0995 153.26 52.6089 150.875C53.5259 150.39 55.3286 149.523 56.0148 148.738C56.8825 147.745 57.1465 146.275 58.6757 145.81C59.1649 145.662 60.5978 145.669 61.2379 145.604C62.4817 145.476 62.6481 145.705 63.1932 144.813C67.7821 137.301 77.2775 147.084 83.2999 146.695C86.3353 146.498 85.9638 143.305 91.9313 145.01C94.4159 145.72 96.0842 148.573 97.3878 150.68C98.4995 152.476 100.447 156.115 100.443 158.838C100.436 162.607 96.7704 166.359 97.187 169.124C97.448 170.854 99.4204 171.555 100.917 172.1C102.176 172.558 104.729 173.319 105.665 174.147C105.558 174.274 105.623 174.226 105.447 174.372C101.191 177.919 94.7829 174.104 89.9589 174.052C86.7266 174.017 86.6329 175.298 83.4462 173.858C82.2948 173.337 81.5866 174.053 80.762 174.525C77.9959 176.107 76.6377 177.102 75.3551 180.525C73.9541 184.263 77.6806 184.307 80.9363 185.982C82.8044 186.943 83.7556 188.141 84.6779 190.007C83.8059 190.083 82.4451 189.739 81.2121 189.807C79.9634 189.875 79.1286 190.181 77.7398 190.133C75.1621 190.045 74.615 188.434 72.5025 187.891C70.7064 187.429 67.9153 186.794 66.0517 187.6C63.7972 188.575 64.3335 190.302 67.1176 191.345C71.2821 192.905 73.2768 192.196 76.5423 196.926C77.555 198.393 78.3379 199.981 79.338 201.644C81.1714 204.692 83.2526 205.069 84.162 207.944C84.4727 208.926 84.4096 210.279 84.7729 211.107C85.6205 213.04 88.5829 209.916 90.1062 212.135C91.5262 214.204 90.5099 213.661 93.2461 216.5C94.4051 217.703 94.5977 217.11 96.0954 216.919C97.2682 216.769 98.1322 217.224 99.1965 217.465C101.233 217.925 108.682 218.728 107.005 222.435C106.355 223.873 107.982 224.158 105.567 229.904C105.152 230.892 104.832 231.59 105.246 232.992C105.392 233.488 106.019 235.465 106.197 235.74C106.592 235.596 108.229 233.741 108.711 233.313C111.511 230.831 114.594 229.135 118.379 227.988C125.045 225.968 129.349 226.896 134.598 229.727C139.09 232.149 142.047 235.286 145.257 239.088C146.792 240.906 148.52 243.098 149.973 244.375C153.25 247.257 154.036 245.464 157.64 244.811C157.678 244.177 156.263 237.776 156.042 236.655C155.532 234.073 154.936 231.033 154.301 228.48C152.324 220.523 150.636 212.278 148.752 204.279C148.11 201.55 147.626 198.735 146.906 196.065C145.823 192.046 144.89 188.024 144.236 183.901L143.605 179.646L147.599 177.948C154.592 175.077 162.627 173.247 170.037 171.512C172.012 171.049 177.927 169.789 179.198 169.019C179.084 167.97 178.11 167.997 177.749 167.358C177.529 166.97 177.555 166.47 177.944 166.201C178.364 165.911 178.69 166.11 179.145 166.176C179.356 163.131 179.633 164.393 181.525 163.973C183.367 163.565 187.023 161.266 188.757 162.62C189.536 163.229 189.381 164.201 188.787 164.987C188.416 165.478 188.326 165.379 188.57 165.609C188.962 165.967 189.685 165.674 190.391 165.832C192.187 166.236 192.096 167.549 192.099 163.291C192.101 160.365 191.501 159.531 189.426 158.053C188.972 157.729 188.199 156.914 189.075 156.349C189.227 156.252 195.709 155.631 195.587 160.259C197.285 160.447 200.461 158.786 202.274 161.028C203.039 161.975 202.379 162.498 202.08 163.151C202.417 163.522 202.868 163.755 203.16 164.187C203.769 165.086 203.274 165.019 203.199 165.814C203.717 166.042 204.246 166.468 204.586 166.926C205.369 167.981 204.693 168.029 204.42 168.884C206.833 169.32 208.033 169.863 207.379 172.919C206.749 175.863 205.417 175.139 207.572 177.981C208.694 179.461 209.817 180.522 211.121 181.656C212.912 183.213 214.111 184.053 214.017 186.013C217.41 187.403 223.16 193.193 226.033 196.075C228.801 198.851 230.955 200.602 233.797 203.04C238.106 206.738 239.566 205.98 244.805 204.751C247.249 204.178 249.476 203.705 252.201 203.705C254.547 203.705 257.503 203.923 259.845 204.218C263.385 204.665 267.348 205.728 270.987 204.947C272.532 204.615 272.829 204.527 273.91 203.712C275.849 202.249 277.197 201.07 279.795 202.708C281.525 203.798 282.722 205.159 284.245 206.449C285.931 207.876 287.7 208.567 289.188 209.846C292.148 212.392 293.128 215.615 295.919 215.604C297.036 215.6 297.69 215.426 298.709 215.356C299.221 215.32 299.232 215.201 299.445 215.422C299.88 215.906 299.841 219.556 299.965 220.494C300.443 224.091 300.195 231.371 304.329 232.776C305.88 233.303 307.464 232.605 309.076 233.606C310.314 234.376 310.775 235.627 311.282 236.95C312.348 239.732 313.12 242.559 314.321 245.042C315.862 248.23 318.435 248.798 322.119 248.312C325.098 247.92 329.028 246.892 332.01 247.037C335.032 247.183 337.395 249.426 337.777 252.426C338.044 254.515 337.765 254.989 339.811 255.939C340.738 256.37 343.054 257.051 344.245 257.112C343.933 255.117 342.045 254.723 343.789 251.792C344.676 250.302 345.777 248.981 347.01 247.924C347.821 247.229 348.298 247.07 348.23 245.687C348.16 244.242 348.54 243.809 349.293 243.119C351.016 241.538 353.57 240.131 355.584 238.864C358.422 237.077 358.893 237.619 361.832 234.401C362.794 233.348 363.662 231.275 365.584 231.091C368.904 230.773 367.003 232.125 370.559 228.983C370.381 226.653 369.935 226.453 371.187 223.462C372.299 220.806 373.492 218.746 376.551 218.602C378.101 218.529 378.243 219.116 379.552 218.645C384.136 216.997 391.57 220.22 395.884 221.57C397.671 222.129 399.68 222.264 401.523 222.706C403.736 223.236 405.368 224.443 406.374 224.66C405.864 223.065 405.283 222.108 404.993 220.361C404.701 218.606 404.689 216.694 405.41 215.185C406.718 212.447 410.954 212.931 412.842 211.168C412.687 210.551 412.191 210.238 412.102 209.539C414.848 210.003 419.77 212.825 422.487 213.961C425.647 215.282 429.847 217.376 433.482 217.935C440.873 219.072 432.888 214.723 445.602 216.211C448.041 216.497 450.229 216.676 452.358 215.919C455.37 214.848 455.574 215.086 458.325 216.016C462.104 217.293 467.7 216.736 472.123 217.081C475.422 217.338 482.995 217.693 485.799 218.389C490.947 219.667 491.215 222.469 494.984 224.097C497.887 225.35 499.373 223.938 503.506 226.79C504.008 227.136 505.247 228.157 505.78 228.308C505.59 226.299 502.817 224.557 502.791 221.333C502.784 220.392 502.531 218.615 502.593 218.015C503.135 218.022 503.706 218.065 504.243 218.017C504.462 217.998 504.751 217.954 504.948 217.889C505.188 217.809 505.054 217.863 505.253 217.759C505.715 217.518 505.311 217.749 505.544 217.571C505.165 216.987 504.161 216.755 503.459 216.458C503.465 215.755 504.731 214.281 505.134 213.874C506.026 212.972 506.621 212.594 508.14 212.551C508.083 211.618 506.731 210.199 506.258 209.289C505.575 207.974 505.448 207.118 504.486 205.771C503.061 203.778 501.225 201.907 499.787 199.915C497.692 197.015 493.703 191.258 493.932 187.363C493.992 186.351 494.405 186.021 494.585 185.281L493.917 184.909C493.706 184.84 493.353 184.759 493.163 184.717C491.518 184.357 489.706 184.32 488.05 183.996C485.135 183.425 484.553 181.829 486.611 179.855C487.923 178.597 489.907 177.921 491.97 177.436C493.931 176.975 496.734 176.573 498.83 176.459C501.071 176.339 503.11 175.628 504.977 174.891C506.967 174.106 509.109 172.704 510.685 173.813C513.079 175.5 512.248 176.473 515.935 175.598C519.657 174.715 520.488 176.932 521.724 176.775L522.063 176.652C523.085 174.089 520.471 173.355 518.766 172.647C516.693 171.786 515.381 170.939 515.385 168.3C515.39 164.29 515.812 160.495 515.882 156.47C515.953 152.4 514.44 142.132 517.846 140.475C520.483 139.192 525.905 144.187 532.136 144.179C535.213 144.174 538.875 142.778 541.697 144.378C542.489 144.827 543.295 145.954 544.072 146.248C545.158 146.19 546.07 144.979 546.85 144.504C547.854 143.893 548.872 143.52 549.951 143.027C553.42 141.438 553.023 140.665 551.098 137.87C548.727 134.427 546.188 130.375 545.395 125.348C544.889 122.14 545.33 119.742 547.948 119.003C550.844 118.185 552.92 119.119 555.299 117.211C558.178 114.901 556.055 112.448 555.41 110.741C554.108 107.294 557.257 106.756 560 106.585C559.881 106.297 559.768 106.314 559.432 106.126C559.164 105.976 558.941 105.859 558.62 105.686C555.972 104.263 553.208 102.872 551.033 100.78C550.04 99.8248 549.491 99.0276 549.449 97.3321C546.671 97.8197 546.256 102.246 542.18 100.888C538.74 99.7424 537.668 100.705 534.802 100.19C534.301 100.1 533.809 99.8446 533.241 99.804C531.905 99.7081 531.336 100.348 530.127 99.4697C529.567 99.0626 528.925 98.0851 528.352 97.492L522.594 91.8629C520.906 90.4311 519.557 90.1677 517.271 89.5232C511.811 87.9839 511.592 86.9569 508.221 83.4441C504.797 79.8763 499.443 74.6426 493.69 75.3412C491.909 75.5574 492.465 76.1334 491.446 76.8356C490.172 77.7126 489.059 76.9276 488.208 77.4841C486.602 78.5348 485.415 79.7302 483.404 80.1288C479.234 80.9563 479.507 79.7757 476.755 79.4649C474.418 79.2008 473.073 81.2593 470.525 79.3544C469.808 78.8187 469.266 78.0294 468.735 77.3944C468.03 76.5501 467.532 75.9986 466.143 76.2471C461.957 76.9972 463.568 73.6001 462.765 72.1231C462.245 71.1667 458.162 70.5423 456.774 70.4833C456.504 70.7365 456.315 71.048 455.957 71.3128C455.495 71.6556 455.338 71.5927 454.979 71.987C455.242 72.9813 456.963 74.3676 455.494 75.8485C454.48 76.8702 452.956 76.8729 452.032 77.6935C452.267 78.3914 453.523 79.4414 453.959 80.0108C452.033 80.0111 449.332 78.9021 447.763 77.8168C443.47 74.848 440.782 70.5192 437.307 66.8736C436.564 66.0942 435.759 65.326 435.153 64.7263L426.402 56.3761C423.4 53.5378 420.676 51.0454 417.397 48.1432C411.634 43.0424 405.484 37.3286 398.266 33.0905C392.708 29.8276 386.871 27.5215 381.429 24.2316C380.134 23.4483 377.591 21.9475 376.5 20.8016C376.479 20.7795 376.444 20.7353 376.428 20.7165C376.41 20.6977 376.377 20.6595 376.355 20.6288C377.466 18.7776 382.206 19.914 381.158 17.8535C380.905 17.4009 380.765 17.4127 380.219 17.2459L379.447 16.7563C379.431 16.728 379.414 16.6841 379.401 16.6571L379.32 16.4504C376.569 18.7714 377.491 17.691 375.029 17.7592C374.55 18.3026 374.224 19.0888 373.535 19.4281C371.177 20.5892 368.906 21.3877 366.202 21.9475C365.806 23.7469 365.816 24.0941 364.349 25.0809C363.288 25.7943 362.257 26.273 360.862 26.7672C355.776 28.5706 356.623 28.2854 356.347 32.4908C351.078 32.4256 349.346 27.4397 344.855 31.4279C344.184 32.024 342.711 33.5989 342.136 33.893C341.138 32.9059 342.804 33.4555 339.93 31.4658C337.483 29.7726 336.788 28.6853 339.016 25.7099C339.772 24.7007 340.485 24.2144 342.094 24.0562C342.065 23.5455 341.827 23.3042 341.58 22.9972C340.547 23.47 340.556 24.3579 338.806 24.553C335.249 24.9496 331.722 21.2839 328.742 21.2542C328.767 21.2905 328.805 21.2981 328.82 21.3594C328.834 21.4194 328.877 21.4378 328.896 21.4616L329.322 21.9274C329.773 22.4088 330.515 23.2323 330.584 23.9392C325.75 23.9494 327.453 25.0726 325.671 25.8589C323.796 22.1592 323.349 23.4483 323.385 20.7887C323.072 20.6278 322.164 20.0248 321.961 19.9744C321.388 19.8316 320.554 20.1798 319.788 20.1175C318.556 20.0169 317.409 19.2491 315.97 19.1756C315.666 20.4214 314.64 21.4586 313.368 21.6861C312.575 21.8279 311.983 21.6469 311.338 21.3112C309.157 20.1752 307.128 21.4253 304.939 19.9249C304.422 19.5712 302.692 17.9673 302.575 17.1615C303.414 17.091 304.229 17.1091 304.895 16.8193C304.948 16.1052 304.378 14.9358 304.141 14.3318C303.359 12.3452 304.074 11.6518 303.197 11.0963C302.165 10.4426 301.167 10.037 300.244 9.1891C298.986 8.03355 298.842 7.17473 298.108 5.64203C297.398 4.16274 296.712 3.56931 295.358 2.66597C290.224 -0.757466 291.399 2.2209 290.152 3.15489C287.614 5.05651 280.412 0.608414 278.007 0.350931C275.715 0.105976 274.477 0.517751 272.047 -0.003479C271.671 0.597535 272.211 0.481486 270.245 0.621272C269.312 0.687209 268.494 0.597864 267.606 0.623909L267.606 0.626877ZM196.863 168.86C197.713 169.493 197.427 169.096 199.179 168.849L200.042 168.57C198.859 168.408 197.725 168.081 196.863 168.86ZM192.284 175.613C192.385 175.569 192.971 175.742 192.655 174.478C192.615 174.319 192.537 174.09 192.454 173.947C192.296 173.674 192.275 173.712 192.105 173.568L192.284 175.613ZM184.348 170.443C184.303 170.401 184.326 170.283 184.001 170.174C183.659 170.06 183.726 170.128 183.439 170.178C183.342 170.906 183.528 170.922 184.138 171.101C185.037 171.546 185.891 172.048 186.957 172.636C187.741 173.068 189.226 173.986 189.889 174.155C189.751 173.363 188.477 171.005 187.955 170.239C187.406 169.434 187.483 169.442 186.913 169.21L186.322 171.12C186.005 171.084 185.927 171.326 185.345 170.345C184.613 170.387 184.949 170.55 184.349 170.444L184.348 170.443Z" fill="#F1F0F4"/> -->
    <!-- <path id="5" fill-rule="evenodd" clip-rule="evenodd" d="M244.538 250.171C243.654 249.178 240.489 246.974 238.529 247.155C238.079 247.719 238.153 248.184 237.584 248.708C235.959 250.203 230.1 247.952 227.36 247.981C225.649 247.999 224.549 247.944 223.161 247.522C216.141 245.387 217.53 244.509 216.706 241.882L215.709 238.138C215.462 237.012 216.096 237.017 216.332 236.501C215.386 235.613 214.342 235.579 213.604 234.311C212.912 233.122 213.296 231.797 212.454 230.439C210.463 227.225 203.152 231.097 201.29 227.011C200.587 225.471 200.043 225.341 198.355 224.975C194.596 224.157 193.184 221.637 191.968 221.46C191.52 222.023 191.341 222.543 190.489 222.725C189.651 222.903 188.741 222.844 187.881 222.844C187.986 224.306 193.293 228.081 193.917 229.684C191.943 229.57 190.489 228.779 188.96 227.816C187.238 226.731 186.229 225.926 184.16 225.751C183.814 226.864 183.997 228.314 183.471 229.391C182.468 231.441 179.151 231.288 177.248 231.524C175.887 231.692 175.434 232.101 174.601 233.006C173.008 234.737 171.989 236.313 173.008 239.204C173.388 240.282 173.718 241.351 174.258 242.156C174.796 242.956 175.541 243.631 175.765 244.827C176.038 246.287 176.104 247.433 174.484 247.645C173.845 247.729 171.266 247.508 170.514 247.414C168.309 247.136 161.102 247 158.381 247.018C157.774 247.022 156.89 246.973 156.317 247.034C154.256 247.254 152.478 249.122 148.674 245.547C141.991 239.265 140.126 233.162 130.521 230.063C127.175 228.983 123.027 228.703 119.467 229.533C116.399 230.248 113.402 231.751 111.013 233.675C110.133 234.384 107.267 236.942 106.952 238.033C107.14 238.413 107.278 238.485 107.531 238.794L108.961 240.969C110.408 243.416 111.686 243.332 113.197 246.488C114.676 249.575 116.145 250.726 116.069 253.345L115.742 257.96C115.426 259.742 114.728 265.227 115.557 266.565C115.852 266.954 116.671 267.295 117.144 267.536C120.082 269.036 120.69 268.14 123.813 268.41C129.494 268.904 127.101 273.247 127.925 274.271C128.33 274.757 128.599 274.166 129.373 275.332C129.937 276.184 129.674 275.924 130.587 276.447C130.602 276.889 130.653 277.9 130.254 278.001L130.068 278.052C130.04 278.056 129.999 278.058 129.968 278.06L125.41 277.859C125.071 277.784 124.464 277.527 124.17 277.639C123.869 278.355 124.009 279.498 124.235 280.22C124.958 280.114 125.771 279.386 127.133 279.966C130.177 281.263 130.811 283.402 131.765 284.071C132.286 284.437 132.595 284.11 133.106 284.407C133.628 285.313 133.123 285.22 134.22 286.059C134.789 286.495 135.413 286.764 135.926 287.134C138.214 288.782 137.835 290.805 137.622 293.289C137.284 297.229 137.188 294.238 137.78 298.189C138.376 302.164 138.397 306.331 139.403 310.247C140.24 313.503 140.315 316.463 144.086 316.438C146.241 316.424 151.693 315.198 152.049 313.422C152.502 311.163 151.41 310.97 153.313 309.083C157.476 304.956 161.815 301.435 168.321 302.649C169.496 302.868 171.95 303.3 173.153 303.095C173.26 301.535 173.398 301.037 174.624 300.517C175.609 300.1 176.868 300.05 178.09 300.062C180.809 300.089 182.945 300.555 185.723 300.412C190.42 300.17 189.377 304.521 192.383 305.649C193.355 306.014 194.553 306.243 195.718 306.326C196.39 306.375 196.716 306.508 197.485 306.607C201.516 307.128 204.726 310.623 206.95 310.742C211.675 310.996 216.22 310.293 220.32 313.155C221.734 314.142 223.102 315.909 224.045 317.337C225.443 319.453 226.529 319.616 228.955 320.367C235.668 322.444 233.83 323.131 237.777 327.233C239.707 329.24 241.121 328.916 243.908 328.61C247.392 328.228 251.684 327.355 252.464 331.549C252.661 332.607 253.008 333.744 253.269 334.669C254.261 338.172 254.097 338.062 253.983 341.475C255.957 342.652 255.429 345.564 256.256 347.387C257.528 347.33 257.959 346.845 258.526 348.059C259.193 349.486 263.616 350.287 265.177 350.537C269.981 351.305 270.207 351.271 273.02 354.999C276.596 352.639 280.98 353.006 282.235 350.143C282.408 349.749 283.479 346.972 283.506 346.734C283.391 346.22 281.438 344.422 281.428 342.77C282.892 342.735 284.617 343.162 286.316 342.821C290.11 342.062 293.289 339.782 296.548 338.039C298.32 337.091 301.657 335.696 302.098 333.596C302.342 332.435 301.991 330.214 302.253 328.673C302.454 327.481 303.084 325.754 303.034 324.465C302.973 322.877 302.454 321.262 303.522 320.123C305.492 318.023 308.825 318.329 311.608 318.245C314.154 318.167 313.608 317.553 313.924 315.479C314.102 314.314 314.601 312.529 315.9 312.394C316.84 312.296 317.141 312.705 317.815 313.093C320.177 314.452 324.192 316.428 327.15 316.241C327.254 315.457 326.122 312.333 325.894 311.426C325.206 308.676 326.597 307.987 326.494 306.152C325.166 305.191 324.895 305.417 323.117 304.868C321.786 304.458 321.062 304.086 319.985 303.412C317.034 301.566 315.321 302.348 312.379 301.792C308.453 301.049 306.209 299.423 303.256 297.204C299.559 294.425 297.49 293.943 294.488 292.082C293.656 291.566 292.641 290.734 291.765 290.234C290.099 289.285 286.355 288.83 282.041 286.177C279.422 284.566 276.607 282.302 273.867 280.473C269.585 277.616 263.237 275.268 259.547 271.867C255.901 268.506 255.478 264.931 252.023 261.036C250.249 259.036 249.376 258.311 248.062 255.827C247.074 253.959 245.904 251.704 244.539 250.171H244.538Z" fill="#F1F0F4"/> -->
    <path id="1" fill-rule="evenodd" clip-rule="evenodd" d="M190.384 192.87C188.315 192.778 182.876 193.362 181.474 192.916C179.175 192.183 178.891 189.516 178.346 186.987C177.823 184.562 176.382 184.946 176.598 179.717C176.724 176.657 177.966 174.007 178.051 171.954C176.991 172.023 174.764 172.563 173.558 172.8C172.081 173.091 170.648 173.27 169.26 173.653L149.499 179.43C148.854 179.637 148.287 179.838 147.609 180.059L145.936 180.766C145.917 180.735 145.864 180.807 145.831 180.831C146.148 182.339 146.682 184.092 147.065 185.611C147.457 187.161 147.704 188.873 147.99 190.523C148.937 195.99 149.474 199.951 150.763 205.347C151.92 210.192 153.042 214.804 154.004 219.641C155.262 225.969 157.578 232.357 158.376 238.733C158.863 242.619 158.816 245.134 163.093 245.396C165.056 245.516 167.034 245.3 168.929 245.411C170.529 245.506 172.467 246.168 174.05 245.561C174.089 244.204 171.868 242.79 170.886 238.413C170.12 234.997 172.109 233.007 173.814 231.248C176.062 228.928 180.475 230.092 181.703 228.862C182.675 227.887 181.144 225.994 182.297 224.585C183.163 223.529 185.211 224.265 186.434 224.294C186.072 223.471 185.118 222.812 185.283 221.618C185.455 220.384 186.647 220.364 187.862 220.591C189.781 220.948 189.21 220.788 190.529 219.907C191.508 219.253 192.315 219.4 193.242 219.916C194.999 220.894 195.591 222.37 197.675 223.003C199.72 223.624 201.464 223.603 202.52 225.514C203.204 226.752 202.807 226.877 204.56 227.187C207.618 227.728 211.71 226.436 213.765 229.125C214.265 229.78 214.689 230.904 214.767 231.909C214.987 234.764 216.889 234.098 218.277 235.869C218.621 236.308 219.266 237.741 219.378 238.318L217.917 238.488C217.741 239.21 218.463 242.16 219.432 243.61C220.093 244.601 222.86 245.594 224.072 245.928C226.023 246.465 228.332 246.146 230.414 246.544C232.431 246.929 234.086 247.64 236.379 247.433C236.853 246.684 236.704 246.013 237.478 245.551C238.206 245.116 239.493 245.28 240.16 245.521C245.383 247.407 246.545 249.464 249.234 254.075C250.894 256.922 252.399 258.573 254.187 260.962C257.104 264.858 257.325 266.387 258.654 268.313C261.384 272.267 268.455 275.463 272.835 277.757C274.31 278.529 282.097 283.63 283.638 284.721C288.2 287.953 288.287 286.661 291.841 288.342C293.339 289.051 293.984 289.812 295.389 290.612C297.847 292.012 300.715 293.155 303.022 294.795C305.089 296.264 307.821 298.549 310.203 299.43C313.281 300.567 317.227 299.822 320.014 301.429C321.532 302.305 322.124 302.756 324.061 303.335C325.519 303.77 327.253 303.907 328.103 305.13C329.143 306.626 327.956 308.398 327.862 309.985C327.802 310.998 328.423 314.019 328.749 314.916C329.48 316.929 331.493 315.824 333.108 315.698C334.918 315.557 336.19 316.299 337.514 317.145C339.586 318.469 339.363 318.401 341.979 317.772C344.336 317.205 345.06 318.444 346.96 318.556C346.867 316.524 346.492 315.047 347.138 313.029C347.594 311.605 348.17 309.973 348.71 308.811C349.928 306.193 353.253 303.923 350.511 301.173C349.477 300.135 348.282 299.496 347.291 298.416C343.405 294.184 346.164 290.689 345.833 289.585C345.46 288.344 342.643 288.546 341.198 288.384C338.646 288.099 338.836 287.536 337.455 286.152C336.515 285.211 334.915 285.24 333.605 284.17C332.207 283.029 332.552 281.406 332.488 279.369C332.456 278.355 332.849 277.831 333.439 277.342C337.841 273.704 340.401 275.804 344.942 276.488C352.663 277.653 346.094 271.902 350.303 270.602C350.322 269.222 350.043 269.081 349.81 267.919C348.916 267.832 348.541 267.976 347.736 267.65C347.123 267.402 346.913 267.066 346.384 266.772C346.613 266.089 347.307 265.598 347.939 265.134C350.104 263.545 353.693 265.057 355.976 265.091C355.814 263.725 353.601 260.319 354.121 257.408C354.304 256.379 355.1 255.036 356.187 254.805C357.656 254.493 358.902 255.208 359.828 255.777C361.197 256.618 361.408 257.253 363.146 256.47C365.208 255.54 366.916 253.882 368.387 252.257C369.226 251.33 369.663 250.39 370.308 249.596C370.901 249.744 373.258 251.803 373.74 252.27C376.181 254.629 374.772 254.486 376.897 255.192C377.783 255.486 377.958 256.351 377.372 257.213C376.482 258.521 373.091 260.54 372.944 261.835L377.93 264.238C379.881 264.886 382.12 263.493 383.797 263.187C386.571 262.681 387.878 262.977 389.665 264.284C391.293 265.474 391.141 264.307 392.51 264.789C393.284 265.061 392.973 265.245 393.898 264.898C394.281 264.755 394.809 264.597 395.176 264.341C395.233 262.768 395.474 262.337 397.04 261.834C398.246 261.446 399.478 261.378 400.85 261.26C400.773 259.49 400.267 260.501 400.604 257.41C401.265 257.51 402.171 258 402.745 258.232C403.881 258.693 404.263 258.627 404.98 257.913C406.766 256.136 408.059 255.682 408.415 255.225C407.191 255.193 406.721 255.344 406.214 254.51C404.595 254.539 404.272 254.912 402.844 254.271C401.254 253.558 399.634 251.496 397.793 251.684C396.715 251.794 395.982 252.804 395.237 252.731C395.131 248.415 394.243 249.928 391.414 248.191C390.511 247.638 387.765 244.607 386.824 244.504C386.297 246.903 386.494 246.009 384.955 247.361C384.949 247.685 384.97 248.017 384.912 248.336L384.108 250.351C384.099 250.329 384.072 250.422 384.048 250.454C383.012 250.044 383.127 249.234 381.187 248.87C379.838 248.617 378.407 248.768 377.069 248.524C374.077 247.979 373.516 246.698 372.424 244.416C370.524 244.192 370.422 245.59 367.533 244.446C366.849 244.175 366.253 243.71 365.766 243.432C364.734 242.842 364.346 243.209 363.499 242.907C362.476 237.886 373.31 232.048 374.788 230.554C375.022 230.317 374.961 230.423 375.054 230.084C372.097 229.185 371.127 230.927 369.513 232.235C367.19 234.117 365.9 231.197 364.122 234.346C363.082 236.189 362.305 237.634 360.399 238.539C358.203 239.582 357.343 239.867 355.252 241.179C347.55 246.012 350.663 244.456 350.057 247.486C349.683 249.357 348.046 248.408 346.315 251.548C345.85 252.392 344.814 253.129 344.885 254.039C345.036 255.981 347.14 257.11 346.899 259.642C346.433 259.65 345.269 259.203 344.589 259.079C343.719 258.92 342.822 258.801 342.002 258.708C340.686 258.559 338.726 257.96 337.674 257.245C336.317 256.323 335.948 255.331 335.973 253.206C335.993 251.505 335.148 249.991 333.913 249.365C329.344 247.049 319.066 253.247 314.069 247.954C311.355 245.079 310.866 239.154 308.561 235.79C306.785 233.198 301.104 237.418 299.013 227.809C298.605 225.937 298.543 224.641 298.309 222.678C298.119 221.083 298.338 218.441 297.861 217.287C296.601 217.268 295.526 217.854 294.13 217.302C291.642 216.318 290.135 213.169 288.323 211.418C286.912 210.055 285.109 209.421 283.609 208.202C281.703 206.653 278.579 202.82 276.6 203.932C273.267 205.805 274.171 206.865 268.021 206.957C260.622 207.068 253.457 204.207 246.41 206.173C237.98 208.524 236.244 208.435 229.682 202.16C226.973 199.569 216.107 187.828 212.439 188.263C212.327 190.292 211.708 192.27 210.749 193.68C209.985 194.803 208.744 196.734 207.363 197.24L206.677 196.652C206.656 196.688 206.651 196.744 206.639 196.773C206.4 197.363 206.335 197.374 205.572 197.304L200.849 197.013C196.76 196.944 196.826 196.706 195.93 198.579C195.494 199.49 194.494 199.921 193.965 199.018C193.5 198.224 193.709 197.804 192.933 196.85C191.251 194.783 191.473 196.413 190.383 192.873L190.384 192.87ZM184.55 178.811C186.475 178.88 186.071 177.768 187.983 179.395C188.827 180.113 188.656 179.775 188.789 180.277C186.646 180.374 185.663 180.118 185.596 182.486C186.945 182.837 187.764 183.267 188.292 185.356C188.5 186.176 188.466 187.197 187.83 187.554C186.963 188.04 186.309 187.276 185.533 187.034C185.758 187.694 186.463 188.45 186.876 188.995C187.319 189.578 187.676 190.453 188.722 190.394C188.868 189.187 188.517 188.527 188.996 187.324L189.468 186.532L190.357 187.08C190.289 186.058 189.356 185.768 189.808 183.942C189.936 183.425 190.484 181.387 190.854 180.949C190.93 181.546 191.034 182.38 191.412 182.848C192.514 181.761 192.253 178.681 192.313 177.35C192.504 177.219 192.232 177.351 192.636 177.164C192.643 177.161 192.853 177.086 192.888 177.072C192.639 176.745 185.286 172.752 184.12 172.134C184.108 172.127 183.636 171.87 183.632 171.869C182.203 171.284 183.242 173.993 183.414 174.376C184.043 175.78 184.869 176.503 184.861 177.631C184.854 178.505 184.625 178.329 184.551 178.81L184.55 178.811Z" fill="#F1F0F4"/>
    <!-- <path id="3" fill-rule="evenodd" clip-rule="evenodd" d="M409.843 226.064C408.037 227.152 406.266 226.705 404.645 225.865C402.571 224.791 402.459 224.501 399.588 224.427C398.199 224.392 398.047 224.127 397.059 223.737L389.474 221.313C387.281 220.651 383.588 219.515 381.167 219.965C380.284 220.129 379.629 220.583 378.613 220.723C376.593 221.001 374.429 220.884 373.683 222.349C373.361 222.982 373.259 224.108 372.92 224.954C372.599 225.755 372.136 226.415 372.134 227.456C373.125 228.154 376.542 228.165 378.329 229.683C377.37 231.986 365.499 237.934 365.591 241.374C366.579 241.99 368.692 243.217 369.926 242.919C376.196 241.401 372.513 246.137 377.637 246.838C378.542 246.962 379.49 246.952 380.448 247.027C381.37 247.098 382.234 247.456 383.063 247.487C382.987 246.655 382.467 246.385 382.468 245.648C383.283 245.585 384.034 245.728 384.666 245.464C385.46 244.231 384.606 242.939 384.699 241.653C385.103 241.333 385.639 241.153 386.27 241.122C387.115 242.28 387.454 242.676 388.68 243.555C391.376 245.489 391.041 246.344 394.396 247.576C395.692 248.052 396.418 248.691 396.836 250.003C398.519 249.945 398.661 249.628 400.29 250.437C401.231 250.905 401.952 251.465 402.878 251.995C405.157 253.3 406.625 252.309 409.927 253.412C410.935 253.749 411.676 254.838 410.673 255.963C410.019 256.697 408.994 257.058 408.136 257.596C407.414 258.048 407.17 259.151 406.197 259.823C404.761 260.814 403.967 260.177 402.5 260.14C402.815 261.06 403.486 261.98 403.807 263.008C402.095 263.033 398.59 262.861 397.188 263.783C397.652 264.1 397.348 263.767 397.679 264.2C397.367 266.284 397.123 265.712 395.404 266.411C394.882 266.623 394.2 266.872 393.626 266.92C392.469 267.016 392.444 266.446 391.574 266.548C388.289 266.932 388.593 264.1 384.704 264.844C381.202 265.515 379.97 269.544 377.196 270.978C376.506 271.334 374.171 271.631 373.288 271.528C373.752 270.881 374.809 270.299 375.075 269.628C373.837 267.667 369.309 266.685 366.976 266.798C365.39 266.875 363.624 267.215 362.941 268.225C361.792 269.925 362.355 271.919 361.844 272.781C361.1 272.476 360.967 271.755 360.172 271.414C360.17 272.782 360.602 275.199 361.089 276.256C361.783 277.765 364.001 276.415 365.119 276.139C367.741 275.494 370.156 276.825 372.563 275.776C373.251 275.477 373.786 274.918 374.627 274.846L374.686 276.495C376.181 276.553 376.839 275.44 379.156 276.174C381.965 277.064 381.452 281.526 386.327 278.033C387.342 277.307 388.668 276.258 389.867 275.867C392.135 275.125 392.705 275.661 393.639 277.131C394.714 278.821 396.434 277.444 397.553 278.908C398.088 279.607 397.809 280.403 398.576 280.689C399.618 281.079 399.89 280.343 400.846 280.241C402.606 280.053 403.565 281.538 404.728 281.988C405.068 281.816 405.668 280.824 406.418 280.375C408.928 278.873 412.658 279.337 415.446 279.555C418.827 279.819 418.643 279.589 421.02 278.462C423.434 277.319 428.96 280.055 426.543 274.754C426.149 273.892 425.846 273.262 425.587 272.257C425.042 270.141 425.992 268.522 427.481 267.68C429.095 266.767 431.129 267.141 432.49 265.873C433.202 265.209 433.474 264.754 434.189 264.105C434.807 263.546 435.573 263.167 436.284 262.726C436.358 261.632 436.085 262.331 436.423 259.51C437.868 259.243 439.862 260.568 442.385 259.771C444.112 259.226 445.161 257.498 447.062 257.541C448.861 257.582 449.816 259.921 450.404 261.125C451.714 263.811 452.157 262.917 454.704 262.127C456.21 261.659 459.465 261.526 460.404 260.879C462.404 259.502 461.196 253.508 464.267 250.837C467.255 248.239 472.535 251.4 476.125 250.36C477.045 250.093 477.823 249.749 478.831 249.583C479.752 249.432 481.333 249.593 481.904 249.175C483.973 247.657 481.488 244.809 487.762 241.146C491.358 239.047 495.911 237.804 499.304 235.319C501.455 233.743 504.165 233.064 506.131 231.718C505.372 229.962 500.394 226.722 498.218 226.418C496.743 226.212 495.383 226.552 494.051 225.981C492.443 225.291 490.844 223.064 489.017 221.991C487.448 221.069 484.512 219.856 482.407 219.608C476.869 218.956 471.149 218.842 465.491 218.617C462.54 218.5 459.929 218.464 457.468 217.577C453.452 216.129 453.532 218.157 450.107 218.198C448.686 218.214 447.598 218.517 445.962 218.355C444.716 218.232 443.355 217.934 442.178 217.768C438.703 217.279 439.294 218.058 438.938 218.899C437.218 222.964 425.266 217.266 422.101 215.727C420.091 214.75 417.943 213.837 415.961 212.867C413.514 211.668 414.574 212.989 409.714 214.462C408.397 214.861 407.438 214.994 406.917 216.145C406.427 217.226 406.494 218.923 406.73 220.165C406.969 221.426 407.354 222.534 407.832 223.5C408.435 224.72 409.312 225.181 409.844 226.064H409.843Z" fill="#F1F0F4"/> -->
    <!-- <path id="4" fill-rule="evenodd" clip-rule="evenodd" d="M379.209 266.548C376.685 266.579 376.386 266.441 375.138 265.062C374.02 263.828 372.723 264.002 371.661 263.118C369.456 261.282 373.776 258.356 375.242 256.961L370.884 252.226C370.528 252.492 363.928 260.501 360.338 258.195C359.532 257.678 357.582 256.116 356.554 256.631C355.263 257.67 356.87 260.708 357.309 261.5C357.995 262.737 357.624 262.819 357.842 264.185C357.967 264.966 358.892 265.239 359.346 265.868C357.279 267.707 353.261 266.397 352.755 266.564C353.277 267.048 354.118 268.349 354.204 269.187L352.202 269.009C352.501 269.961 352.793 269.481 353.161 270.323C352.936 270.881 352.681 270.774 352.73 271.259C352.752 271.478 353.039 271.861 353.152 272.306L350.632 272.335C350.293 273.582 352.647 279.157 344.874 278.45C341.257 278.121 337.97 275.882 335.092 278.289C334.486 278.796 334.438 279.83 334.291 280.671C333.668 284.237 336.729 282.286 338.915 285.099C340.643 287.323 340.692 286.171 343.663 286.479C345.021 286.62 346.975 287.668 347.429 288.797L347.982 294.54C348.301 296.624 348.58 297.385 350.095 298.531C352.782 300.563 354.584 302.48 352.317 306.43L350.042 310.395C349.413 311.49 348.685 313.645 348.533 315.009C348.404 316.168 348.603 316.841 348.719 317.88C348.886 319.365 348.569 319.093 349.264 320.376C349.948 321.638 351.025 322.955 352.127 323.571C352.512 323.395 352.674 323.112 353.109 322.797C353.51 322.507 354.029 322.377 354.217 322.127C354.509 321.739 354.366 321.522 354.919 321.003C355.905 320.079 357.322 320.148 358.655 319.323C361.658 317.464 362.667 315.685 366.032 318.036C366.926 318.66 369.581 320.265 370.984 320.116C370.941 318.04 368.112 315.72 370.362 313.522C371.551 312.362 374.805 311.213 377.059 311.601C378.316 311.816 379.135 312.756 380.57 312.473C381.98 312.194 381.815 310.675 381.101 309.883C380.533 309.252 379.354 308.373 379.247 307.216C379.117 305.809 380.026 305.251 380.721 304.289C382.643 301.629 384.956 294.979 390.076 296.311C391.797 296.759 394.471 298.404 395.706 299.411C398.537 301.718 396.308 303.793 396.743 306.232C398.259 307.03 399.159 305.617 400.773 306.012C402.232 306.368 402.071 308.291 401.829 309.618C401.301 312.508 401.761 316.034 402.301 318.711C402.772 321.041 403.983 323.913 405.322 325.539C407.303 327.944 409.741 327.511 411.967 325.594C414.944 323.029 413.352 323.327 418.47 322.256C421.338 321.655 419.504 319.953 423.548 317.59C426.207 316.035 426.683 315.154 430.447 314.613C431.866 314.409 433.672 314.544 434.833 315.012C436.301 315.604 436.481 316.494 436.198 318.224C437.783 318.234 439.574 317.494 440.796 316.803C442.941 315.591 442.795 314.75 444.552 314.732C446.095 314.717 450.077 315.735 451.53 316.512C452.192 316.866 452.685 317.417 453.442 317.564C454.101 317.264 454.575 316.768 454.599 315.75C454.108 315.391 453.012 314.616 452.497 314.134C451.842 313.521 451.285 312.783 451.207 311.664C451.005 308.772 451.589 310.247 450.285 308.841C449.763 308.277 449.225 307.418 448.763 306.599C443.075 296.501 450.1 297.535 438.518 294.323C435.118 293.38 435.828 295.961 433.309 296.202C430.276 296.493 427.162 290.652 427.574 288.905C427.7 288.371 427.99 288.205 428.16 287.721C426.489 285.603 425.421 286.182 424.619 282.082C423.882 278.311 422.073 280.522 419.056 281.247C416.759 281.799 413.004 280.76 410.315 281.097C406.769 281.54 406.215 282.118 405.937 285.777C404.669 285.459 404.623 282.746 400.844 282.662C399.307 282.628 398.568 282.682 397.418 282.1C396.061 281.412 396.239 281.195 395.625 279.877C391.357 279.258 392.951 278.939 391.681 277.512C390.922 277.593 390.042 278.335 389.369 278.733C388.634 279.168 388.131 279.501 387.251 279.951C380.37 283.468 380.827 278.451 378.278 277.811C376.371 277.333 374.408 278.956 373.17 279.001C372.821 276.918 373.524 277.767 371.133 277.945C369.904 278.036 368.995 277.776 367.813 277.727C364.348 277.58 364.071 279 361.555 278.696C358.892 278.374 358.299 272.772 358.497 270.871C358.632 269.562 359.237 269.24 360.552 269.302C361.229 267.564 361.604 266.616 363.245 265.612C366.368 263.701 369.953 264.766 373.143 266.239C374.182 266.719 375.247 267.265 376.047 268.046C376.293 268.287 376.466 268.614 376.831 268.857C377.549 268.633 378.879 267.178 379.209 266.549L379.209 266.548Z" fill="#F1F0F4"/> -->
</svg>