<svg width="60" height="60" viewBox="0 0 60 60" fill="none" xmlns="http://www.w3.org/2000/svg">
<path d="M53.5877 15.9752H13.9422C10.8287 15.9752 8.30469 17.8743 8.30469 18.5001V48.5001C8.30469 49.1259 10.8287 51.9849 13.9422 51.9849H53.5877C56.7012 51.9849 59.2252 49.6259 59.2252 49.0001V18.5001C59.2252 17.8743 56.7012 15.9752 53.5877 15.9752Z" fill="#AB3C00"/>
<path fill-rule="evenodd" clip-rule="evenodd" d="M16.3344 15.9752H55.2381C57.4309 15.9752 59.2249 17.7692 59.2249 19.9619V47.9981C59.2249 50.1908 57.4309 51.9848 55.2381 51.9848H16.3344C14.1417 51.9848 12.3477 50.1908 12.3477 47.9981V19.9619C12.3477 17.7692 14.1417 15.9752 16.3344 15.9752Z" fill="#E77817"/>
<path fill-rule="evenodd" clip-rule="evenodd" d="M51.5 33.9801C45.6848 30.6442 46.6495 31.0265 39.9389 31.0265L34.7902 23.4771H30.2415L32.9581 31.2792L26.9248 31.6267L24.7769 28.1204H20.8379L22.3446 33.9801L20.8379 39.8398H24.7769L26.9248 36.3335L32.9581 36.681L30.2415 44.4832H34.7902L39.9389 36.9337C46.6495 36.9337 45.6848 37.316 51.5 33.9801Z" fill="#84828B"/>
<path fill-rule="evenodd" clip-rule="evenodd" d="M51.5007 33.9801C49.1612 32.6381 47.9191 31.8981 46.8331 31.4926C45.8367 31.4613 44.5538 31.4917 42.6586 31.4917L42.3337 31.0153C41.6582 31.019 40.8734 31.0265 39.9396 31.0265L35.1082 23.9423H32.9613L35.6778 31.7444L29.6446 32.0919L29.2766 31.4912L26.9256 31.6267L25.0626 28.5856H23.5576L25.0644 34.4453L23.6772 39.8398H24.7776L26.9256 36.3335L32.9589 36.681L32.8536 36.9836L35.6779 37.1462L33.1233 44.4832H34.791L39.9397 36.9337C46.6504 36.9337 45.6856 37.316 51.5008 33.9801H51.5007Z" fill="#D0CFD4"/>
<path fill-rule="evenodd" clip-rule="evenodd" d="M12.2915 16.7253C10.5129 16.7253 9.05469 18.1835 9.05469 19.962V47.9982C9.05469 49.7767 10.5129 51.2349 12.2915 51.2349H43.1613C43.5755 51.2349 43.9113 51.5707 43.9113 51.9849C43.9113 52.3991 43.5755 52.7349 43.1613 52.7349H12.2915C9.68449 52.7349 7.55469 50.6051 7.55469 47.9982V19.962C7.55469 17.355 9.68449 15.2253 12.2915 15.2253H55.2384C57.8454 15.2253 59.9752 17.355 59.9752 19.962V47.9982C59.9752 50.6051 57.8454 52.7349 55.2384 52.7349H50.616C50.2017 52.7349 49.866 52.3991 49.866 51.9849C49.866 51.5707 50.2017 51.2349 50.616 51.2349H55.2384C57.017 51.2349 58.4752 49.7767 58.4752 47.9982V19.962C58.4752 18.1835 57.017 16.7253 55.2384 16.7253H12.2915Z" fill="#26253C"/>
<path fill-rule="evenodd" clip-rule="evenodd" d="M28.59 8.76517C27.2989 8.76517 26.2393 9.82471 26.2393 11.1159V15.9752C26.2393 16.3894 25.9035 16.7252 25.4893 16.7252C25.075 16.7252 24.7393 16.3894 24.7393 15.9752V11.1159C24.7393 8.99625 26.4705 7.26517 28.59 7.26517H38.9388C41.0584 7.26517 42.7895 8.99632 42.7895 11.1159V15.9752C42.7895 16.3894 42.4537 16.7252 42.0395 16.7252C41.6253 16.7252 41.2895 16.3894 41.2895 15.9752V11.1159C41.2895 9.82472 40.2299 8.76517 38.9388 8.76517H28.59Z" fill="#26253C"/>
<path fill-rule="evenodd" clip-rule="evenodd" d="M3.87619 34.73C2.58498 34.73 1.52539 35.7895 1.52539 37.0807V38.9025C1.52539 40.1937 2.58498 41.2533 3.87619 41.2533H6.09031C6.50452 41.2533 6.84031 41.589 6.84031 42.0033C6.84031 42.4175 6.50452 42.7533 6.09031 42.7533H3.87619C1.7566 42.7533 0.0253906 41.0221 0.0253906 38.9025V37.0807C0.0253906 34.961 1.7566 33.23 3.87619 33.23L22.1916 33.23C22.6058 33.23 22.9416 33.5658 22.9416 33.98C22.9416 34.3942 22.6058 34.73 22.1916 34.73L3.87619 34.73Z" fill="#26253C"/>
<path fill-rule="evenodd" clip-rule="evenodd" d="M29.6302 23.0426C29.7709 22.8447 29.9987 22.7271 30.2415 22.7271H34.7902C35.0381 22.7271 35.2701 22.8497 35.4098 23.0545L36.2091 24.2265C36.4425 24.5687 36.3542 25.0353 36.012 25.2687C35.6698 25.5021 35.2032 25.4138 34.9698 25.0716L34.3939 24.2271H31.2968L33.6664 31.0326C33.7438 31.2548 33.7124 31.5004 33.5817 31.6959C33.451 31.8915 33.2361 32.0145 33.0012 32.028L26.968 32.3755C26.692 32.3914 26.4297 32.2542 26.2853 32.0185L24.3568 28.8705H21.8051L23.071 33.7934C23.1025 33.9159 23.1025 34.0444 23.071 34.1669L21.8051 39.0898H24.3568L26.2853 35.9418C26.4297 35.7061 26.692 35.5689 26.968 35.5848L33.0012 35.9323C33.2361 35.9458 33.451 36.0688 33.5817 36.2644C33.7124 36.4599 33.7438 36.7055 33.6664 36.9277L31.2968 43.7332H34.3938L39.3193 36.5112C39.459 36.3063 39.691 36.1838 39.9389 36.1838C40.6472 36.1838 41.2631 36.1879 41.8083 36.1916C42.5727 36.1967 43.1984 36.2009 43.7457 36.1915C44.6699 36.1756 45.2958 36.1205 45.8784 35.9791C46.9048 35.73 47.8563 35.2067 49.994 33.9802C47.8563 32.7536 46.9048 32.2303 45.8784 31.9812C45.2958 31.8398 44.6699 31.7847 43.7457 31.7688C43.1984 31.7594 42.5727 31.7636 41.8083 31.7687C41.2631 31.7724 40.6472 31.7765 39.9389 31.7765C39.691 31.7765 39.459 31.654 39.3193 31.4491L36.8361 27.808C36.6027 27.4658 36.6909 26.9992 37.0331 26.7658C37.3753 26.5324 37.8419 26.6206 38.0753 26.9628L40.3349 30.2761C40.8558 30.2749 41.3319 30.2718 41.7687 30.2689C42.5533 30.2637 43.2108 30.2594 43.7716 30.269C44.7355 30.2857 45.4901 30.3435 46.2321 30.5235C47.5532 30.8441 48.7732 31.5462 51.1135 32.8929C51.3544 33.0316 51.6072 33.177 51.8732 33.3296C52.1063 33.4633 52.25 33.7115 52.25 33.9802C52.25 34.2488 52.1063 34.497 51.8732 34.6307C51.6072 34.7833 51.3544 34.9288 51.1135 35.0674C48.7732 36.4142 47.5532 37.1162 46.2321 37.4368C45.4901 37.6168 44.7355 37.6747 43.7716 37.6913C43.2108 37.7009 42.5533 37.6966 41.7687 37.6914C41.3319 37.6885 40.8558 37.6854 40.3349 37.6842L35.4098 44.9058C35.2701 45.1106 35.0381 45.2332 34.7902 45.2332H30.2415C29.9987 45.2332 29.7709 45.1156 29.6302 44.9177C29.4895 44.7197 29.4534 44.4659 29.5333 44.2366L31.9231 37.3727L27.3299 37.1082L25.4164 40.2316C25.2801 40.4542 25.0379 40.5898 24.7769 40.5898H20.8379C20.6061 40.5898 20.3873 40.4826 20.2452 40.2994C20.1031 40.1162 20.0538 39.8776 20.1115 39.653L21.5702 33.9802L20.1115 28.3073C20.0538 28.0827 20.1031 27.8441 20.2452 27.6609C20.3873 27.4777 20.6061 27.3705 20.8379 27.3705H24.7769C25.0379 27.3705 25.2801 27.5061 25.4164 27.7287L27.3299 30.8521L31.9231 30.5876L29.5333 23.7237C29.4534 23.4944 29.4895 23.2406 29.6302 23.0426Z" fill="#26253C"/>
</svg>
