<svg width="60" height="60" viewBox="0 0 60 60" fill="none" xmlns="http://www.w3.org/2000/svg">
<path fill-rule="evenodd" clip-rule="evenodd" d="M12.2915 16.7253C10.5129 16.7253 9.05469 18.1835 9.05469 19.9619V47.9982C9.05469 49.7766 10.5129 51.2348 12.2915 51.2348H43.1613C43.5755 51.2348 43.9113 51.5706 43.9113 51.9848C43.9113 52.3991 43.5755 52.7348 43.1613 52.7348H12.2915C9.68454 52.7348 7.55469 50.605 7.55469 47.9982V19.9619C7.55469 17.355 9.68455 15.2253 12.2915 15.2253H55.2384C57.8454 15.2253 59.9753 17.3551 59.9753 19.9619V47.9982C59.9753 50.6051 57.8454 52.7348 55.2384 52.7348H50.616C50.2018 52.7348 49.866 52.3991 49.866 51.9848C49.866 51.5706 50.2018 51.2348 50.616 51.2348H55.2384C57.017 51.2348 58.4753 49.7766 58.4753 47.9982V19.9619C58.4753 18.1835 57.017 16.7253 55.2384 16.7253H12.2915Z" fill="#84828B"/>
<path fill-rule="evenodd" clip-rule="evenodd" d="M29.6303 23.0426C29.771 22.8447 29.9988 22.7271 30.2417 22.7271H34.7902C35.0382 22.7271 35.2701 22.8496 35.4098 23.0545L36.2092 24.2264C36.4426 24.5686 36.3544 25.0352 36.0122 25.2686C35.67 25.502 35.2034 25.4138 34.97 25.0716L34.3939 24.2271H31.2969L33.6665 31.0326C33.7438 31.2547 33.7125 31.5003 33.5817 31.6959C33.451 31.8915 33.2361 32.0144 33.0013 32.0279L26.968 32.3754C26.6921 32.3913 26.4298 32.2541 26.2854 32.0184L24.3568 28.8704H21.8051L23.071 33.7933C23.1025 33.9159 23.1025 34.0444 23.071 34.1669L21.8051 39.0898H24.3568L26.2854 35.9418C26.4298 35.7061 26.6921 35.569 26.968 35.5848L33.0013 35.9323C33.2361 35.9458 33.451 36.0688 33.5817 36.2643C33.7125 36.4599 33.7438 36.7055 33.6665 36.9277L31.2969 43.7332H34.3939L39.3194 36.5112C39.4591 36.3063 39.691 36.1838 39.939 36.1838C40.6473 36.1838 41.2632 36.1879 41.8085 36.1916C42.5728 36.1967 43.1984 36.2009 43.7457 36.1915C44.67 36.1755 45.2958 36.1204 45.8784 35.9791C46.9048 35.73 47.8563 35.2067 49.994 33.9801C47.8564 32.7536 46.9048 32.2303 45.8784 31.9812C45.2958 31.8398 44.67 31.7847 43.7457 31.7688C43.1984 31.7593 42.5726 31.7635 41.8082 31.7687C41.263 31.7723 40.6472 31.7765 39.939 31.7765C39.691 31.7765 39.4591 31.6539 39.3194 31.4491L36.8361 27.808C36.6027 27.4658 36.6909 26.9992 37.0331 26.7658C37.3753 26.5324 37.8419 26.6206 38.0753 26.9628L40.335 30.276C40.8558 30.2749 41.3319 30.2718 41.7686 30.2689C42.5533 30.2637 43.2108 30.2593 43.7716 30.269C44.7355 30.2856 45.4902 30.3435 46.2322 30.5235C47.5532 30.8441 48.7732 31.5461 51.1135 32.8929C51.3544 33.0315 51.6072 33.177 51.8732 33.3296C52.1063 33.4633 52.25 33.7114 52.25 33.9801C52.25 34.2488 52.1063 34.497 51.8732 34.6307C51.6073 34.7833 51.3545 34.9287 51.1136 35.0673C48.7732 36.4141 47.5532 37.1162 46.2321 37.4368C45.4902 37.6168 44.7355 37.6746 43.7716 37.6913C43.2108 37.7009 42.5534 37.6966 41.7688 37.6914C41.3321 37.6885 40.8559 37.6853 40.335 37.6842L35.4099 44.9057C35.2701 45.1106 35.0382 45.2332 34.7902 45.2332H30.2417C29.9988 45.2332 29.771 45.1156 29.6303 44.9176C29.4896 44.7197 29.4535 44.4659 29.5334 44.2366L31.9232 37.3727L27.3299 37.1082L25.4165 40.2316C25.2801 40.4541 25.0379 40.5898 24.7769 40.5898H20.8379C20.6061 40.5898 20.3873 40.4826 20.2452 40.2994C20.1031 40.1162 20.0538 39.8776 20.1115 39.653L21.5702 33.9801L20.1115 28.3072C20.0538 28.0827 20.1031 27.8441 20.2452 27.6609C20.3873 27.4776 20.6061 27.3704 20.8379 27.3704H24.7769C25.0379 27.3704 25.2801 27.5061 25.4165 27.7286L27.3299 30.8521L31.9232 30.5875L29.5334 23.7237C29.4535 23.4944 29.4896 23.2405 29.6303 23.0426Z" fill="#84828B"/>
<path fill-rule="evenodd" clip-rule="evenodd" d="M28.59 8.76515C27.2988 8.76515 26.2393 9.82469 26.2393 11.1159V15.9752C26.2393 16.3894 25.9035 16.7252 25.4893 16.7252C25.075 16.7252 24.7393 16.3894 24.7393 15.9752V11.1159C24.7393 8.99624 26.4704 7.26515 28.59 7.26515H38.9388C41.0583 7.26515 42.7895 8.99624 42.7895 11.1159V15.9752C42.7895 16.3894 42.4537 16.7252 42.0395 16.7252C41.6253 16.7252 41.2895 16.3894 41.2895 15.9752V11.1159C41.2895 9.82469 40.2299 8.76515 38.9388 8.76515H28.59Z" fill="#84828B"/>
<path fill-rule="evenodd" clip-rule="evenodd" d="M3.87623 34.7299C2.58498 34.7299 1.52539 35.7895 1.52539 37.0806V38.9025C1.52539 40.1937 2.58503 41.2532 3.87623 41.2532H6.09037C6.50459 41.2532 6.84037 41.589 6.84037 42.0032C6.84037 42.4174 6.50459 42.7532 6.09037 42.7532H3.87623C1.75668 42.7532 0.0253906 41.0222 0.0253906 38.9025V37.0806C0.0253906 34.961 1.75658 33.2299 3.87623 33.2299L22.1916 33.23C22.6058 33.23 22.9416 33.5658 22.9416 33.98C22.9416 34.3942 22.6058 34.73 22.1916 34.73L3.87623 34.7299Z" fill="#84828B"/>
</svg>
