<svg width="60" height="60" viewBox="0 0 60 60" fill="none" xmlns="http://www.w3.org/2000/svg">
<g clip-path="url(#clip0_1420_7423)">
<path fill-rule="evenodd" clip-rule="evenodd" d="M4.88477 55.3421L19.714 26.5521L22.628 29.3995L28.5252 18.0446L47.8951 55.3421H4.88477Z" fill="#995F30"/>
<path fill-rule="evenodd" clip-rule="evenodd" d="M21.5663 28.3621L22.628 29.3995L23.4471 27.8223L25.295 29.6279L29.918 20.7264L47.8951 55.3421H20.6515L14.1338 42.792L21.5663 28.3621Z" fill="#A86D38"/>
<path fill-rule="evenodd" clip-rule="evenodd" d="M28.5249 17.2946C28.8048 17.2946 29.0615 17.4505 29.1905 17.699L36.5396 31.85C36.7305 32.2176 36.5872 32.6704 36.2196 32.8613C35.852 33.0522 35.3993 32.9089 35.2084 32.5413L28.5249 19.6719L23.2932 29.7452C23.1837 29.956 22.9809 30.1024 22.7464 30.14C22.5118 30.1776 22.2733 30.1019 22.1035 29.9359L19.9156 27.798L11.5097 44.1174C11.32 44.4856 10.8677 44.6304 10.4995 44.4407C10.1313 44.2511 9.98651 43.7988 10.1762 43.4305L19.0469 26.2086C19.1559 25.9971 19.3588 25.8498 19.5937 25.8117C19.8286 25.7737 20.0676 25.8493 20.2378 26.0157L22.4283 28.1561L27.8593 17.6989C27.9883 17.4505 28.245 17.2946 28.5249 17.2946Z" fill="#26253C"/>
<path fill-rule="evenodd" clip-rule="evenodd" d="M23.1826 55.3422L40.7356 21.2392L58.2886 55.3422H23.1826Z" fill="#995F30"/>
<path fill-rule="evenodd" clip-rule="evenodd" d="M41.9759 23.6488L58.2886 55.3422H25.6631L41.9759 23.6488Z" fill="#B78046"/>
<path fill-rule="evenodd" clip-rule="evenodd" d="M34.0801 34.1708L40.736 21.2392L45.9419 31.3534L41.8461 35.4762L38.4118 32.8719L35.7754 35.4762L34.0801 34.1708Z" fill="#B78046"/>
<path fill-rule="evenodd" clip-rule="evenodd" d="M41.9764 23.6488L45.942 31.3534L41.8463 35.4762L38.412 32.8719L36.0059 35.2487L41.9764 23.6488Z" fill="#CC9562"/>
<path fill-rule="evenodd" clip-rule="evenodd" d="M40.7357 20.4892C41.0167 20.4892 41.274 20.6462 41.4026 20.896L57.7338 52.6252C57.9234 52.9935 57.7785 53.4457 57.4102 53.6352C57.0419 53.8248 56.5897 53.6799 56.4001 53.3116L40.7357 22.878L23.8496 55.6854C23.6601 56.0537 23.2078 56.1986 22.8395 56.009C22.4713 55.8195 22.3264 55.3672 22.5159 54.9989L40.0689 20.896C40.1975 20.6462 40.4548 20.4892 40.7357 20.4892Z" fill="#26253C"/>
<path fill-rule="evenodd" clip-rule="evenodd" d="M36.0177 55.3422C34.8204 55.3422 33.8496 54.6341 33.8496 53.7605C33.8496 52.9469 34.6918 52.2769 35.775 52.1888C35.7636 52.1058 35.7576 52.0214 35.7576 51.9358C35.7576 50.7084 36.9613 49.7134 38.4461 49.7134C39.7086 49.7134 40.7677 50.433 41.0565 51.4029C41.2926 51.2569 41.5758 51.1718 41.8804 51.1718C42.1811 51.1718 42.4608 51.2547 42.6951 51.3972C42.9339 50.9835 43.3961 50.7031 43.9272 50.7031C44.4504 50.7031 44.9069 50.9754 45.1487 51.3791C45.144 51.3048 45.1413 51.23 45.1413 51.1545C45.1413 49.208 46.7177 47.6299 48.6623 47.6299C50.2531 47.6299 51.5973 48.686 52.0339 50.1358C52.434 49.8067 52.9449 49.6093 53.5016 49.6093C54.7197 49.6093 55.7188 50.5543 55.8176 51.757C56.1796 51.4155 56.6639 51.2066 57.1961 51.2066C58.3169 51.2066 59.2255 52.1323 59.2255 53.2743C59.2255 54.4164 58.3168 55.3421 57.1961 55.3421H36.0178L36.0177 55.3422Z" fill="#70AD13"/>
<path fill-rule="evenodd" clip-rule="evenodd" d="M39.8003 50.0154C40.4195 50.3144 40.881 50.8122 41.057 51.4029C41.293 51.2569 41.5762 51.1718 41.8808 51.1718C42.1815 51.1718 42.4612 51.2547 42.6955 51.3972C42.8592 51.1136 43.1278 50.8927 43.4516 50.7817C43.5917 50.9719 43.6983 51.1808 43.7645 51.4029C44.0005 51.2569 44.2837 51.1718 44.5883 51.1718C44.751 51.1718 44.9075 51.1961 45.054 51.2409C45.0886 51.2849 45.1204 51.331 45.1491 51.379C45.1468 51.3433 45.1451 51.3075 45.1438 51.2715C45.235 51.3056 45.3217 51.3478 45.4029 51.3972C45.6417 50.9834 46.104 50.703 46.635 50.703C47.1583 50.703 47.6148 50.9753 47.8565 51.379C47.8519 51.3048 47.8491 51.23 47.8491 51.1544C47.8491 49.6881 48.7438 48.4311 50.0165 47.9C50.9817 48.3028 51.7293 49.1232 52.0343 50.1358C52.4345 49.8067 52.9454 49.6093 53.502 49.6093C53.9285 49.6093 54.3281 49.7253 54.6717 49.9275C54.6971 49.9959 54.7205 50.0654 54.7417 50.1358C54.7788 50.1053 54.8168 50.076 54.8556 50.0479C55.3937 50.4374 55.7601 51.0531 55.818 51.757C56.18 51.4155 56.6643 51.2066 57.1965 51.2066C57.7026 51.2066 58.1653 51.3954 58.5208 51.7076C58.5225 51.724 58.5241 51.7405 58.5255 51.757L58.5503 51.7341C58.965 52.1127 59.2259 52.6624 59.2259 53.2744C59.2259 54.4164 58.3173 55.3422 57.1966 55.3422H38.7257C37.5284 55.3422 36.5576 54.6341 36.5576 53.7605C36.5576 52.9469 37.3998 52.2769 38.483 52.1888C38.4716 52.1057 38.4656 52.0213 38.4656 51.9358C38.4656 51.1164 39.002 50.4007 39.8005 50.0153L39.8003 50.0154Z" fill="#84C225"/>
<path fill-rule="evenodd" clip-rule="evenodd" d="M48.6623 48.3799C47.1326 48.3799 45.8913 49.6215 45.8913 51.1545C45.8913 51.2119 45.8934 51.2709 45.8972 51.3324C45.9187 51.6776 45.7013 51.9928 45.371 52.0954C45.0406 52.1979 44.6829 52.0612 44.5052 51.7644C44.3997 51.5881 44.1882 51.4531 43.9272 51.4531C43.6622 51.4531 43.4485 51.5922 43.3446 51.7721C43.2437 51.947 43.0765 52.0738 42.8809 52.1238C42.6853 52.1739 42.4778 52.1429 42.3053 52.038C42.1873 51.9662 42.0422 51.9218 41.8804 51.9218C41.7165 51.9218 41.5697 51.9674 41.4509 52.0408C41.2523 52.1636 41.0078 52.1869 40.7896 52.1038C40.5714 52.0207 40.4044 51.8407 40.3377 51.6169C40.164 51.0335 39.4543 50.4634 38.4461 50.4634C37.2355 50.4634 36.5076 51.2499 36.5076 51.9358C36.5076 51.9859 36.5111 52.0363 36.5181 52.087C36.546 52.2912 36.4888 52.4978 36.3597 52.6585C36.2307 52.8192 36.0412 52.9196 35.8358 52.9364C35.4258 52.9697 35.0928 53.1116 34.8782 53.2854C34.6649 53.4581 34.5996 53.6302 34.5996 53.7605C34.5996 53.8993 34.6752 54.0896 34.9266 54.273C35.1775 54.456 35.5608 54.5922 36.0177 54.5922C36.4319 54.5922 36.7677 54.928 36.7677 55.3422C36.7677 55.7564 36.4319 56.0922 36.0177 56.0922C35.2772 56.0922 34.5765 55.8743 34.0426 55.4849C33.5094 55.0959 33.0996 54.4954 33.0996 53.7605C33.0996 53.0773 33.4554 52.5075 33.9341 52.1198C34.2456 51.8675 34.622 51.6788 35.0331 51.563C35.2497 49.9999 36.8136 48.9634 38.4461 48.9634C39.6714 48.9634 40.8261 49.5306 41.4376 50.4637C41.5812 50.4362 41.7293 50.4218 41.8804 50.4218C42.0853 50.4218 42.2848 50.4482 42.4749 50.498C42.8613 50.1566 43.3734 49.9531 43.9272 49.9531C44.1385 49.9531 44.3438 49.9827 44.5384 50.0384C45.0287 48.2193 46.6888 46.8799 48.6623 46.8799C50.265 46.8799 51.6597 47.763 52.3903 49.0679C52.735 48.9333 53.1099 48.8593 53.5016 48.8593C54.7266 48.8593 55.7792 49.5785 56.274 50.6156C56.5623 50.5128 56.8727 50.4566 57.1961 50.4566C58.7443 50.4566 59.9755 51.7314 59.9755 53.2743C59.9755 54.8173 58.7442 56.0921 57.1961 56.0921H49.6012C49.187 56.0921 48.8512 55.7563 48.8512 55.3421C48.8512 54.9279 49.187 54.5921 49.6012 54.5921H57.1961C57.8894 54.5921 58.4755 54.0154 58.4755 53.2743C58.4755 52.5332 57.8895 51.9566 57.1961 51.9566C56.8647 51.9566 56.5621 52.0857 56.3323 52.3025C56.1226 52.5003 55.8182 52.5605 55.549 52.4573C55.2799 52.354 55.0937 52.1057 55.0701 51.8184C55.0026 50.9963 54.3208 50.3593 53.5016 50.3593C53.1257 50.3593 52.7817 50.4919 52.5103 50.7151C52.3165 50.8745 52.0559 50.9264 51.8158 50.8534C51.5757 50.7805 51.3881 50.5923 51.3157 50.3521C50.9717 49.2098 49.9125 48.3799 48.6623 48.3799Z" fill="#26253C"/>
<path fill-rule="evenodd" clip-rule="evenodd" d="M17.8913 55.3422L10.0184 39.9036L2.14551 55.3422H17.8913Z" fill="#A86D38"/>
<path fill-rule="evenodd" clip-rule="evenodd" d="M17.8911 55.3422L11.1267 42.0774L4.3623 55.3422H17.8911Z" fill="#B78046"/>
<path fill-rule="evenodd" clip-rule="evenodd" d="M13.5097 46.7493L10.0187 39.9036L5.71582 48.3415H5.7159L6.75801 48.6888L8.6312 46.7443L11.2329 48.6193L13.5097 46.7493Z" fill="#B78046"/>
<path fill-rule="evenodd" clip-rule="evenodd" d="M13.5094 46.7493L11.1269 42.0774L8.71582 46.8055L11.2325 48.6193L13.5094 46.7493Z" fill="#CC9562"/>
<path fill-rule="evenodd" clip-rule="evenodd" d="M10.0186 39.1536C10.3005 39.1536 10.5586 39.3117 10.6867 39.5629L18.5596 55.0015C18.7478 55.3705 18.6012 55.8221 18.2322 56.0103C17.8632 56.1985 17.4115 56.0519 17.2233 55.6829L10.0186 41.5545L2.81381 55.6829C2.62563 56.0519 2.17395 56.1985 1.80495 56.0103C1.43595 55.8221 1.28935 55.3705 1.47753 55.0015L9.35043 39.5629C9.47851 39.3117 9.73663 39.1536 10.0186 39.1536Z" fill="#26253C"/>
<path fill-rule="evenodd" clip-rule="evenodd" d="M8.09105 46.2239C8.34993 45.9552 8.767 45.9177 9.06972 46.1358L11.203 47.6733L13.0337 46.1697C13.3538 45.9068 13.8264 45.9532 14.0893 46.2733C14.3522 46.5934 14.3059 47.066 13.9858 47.3289L11.7089 49.1989C11.4459 49.4149 11.0704 49.4268 10.7943 49.2278L8.72021 47.7329L7.29816 49.2091C7.09758 49.4174 6.79518 49.4918 6.5209 49.4003L5.4961 49.0588C5.18909 48.9649 4.96582 48.6793 4.96582 48.3415C4.96582 47.9273 5.30161 47.5915 5.71582 47.5915H5.7159C5.79649 47.5915 5.87655 47.6045 5.95301 47.63L6.54617 47.8277L8.09105 46.2239Z" fill="#26253C"/>
<path d="M16.1787 17.7752C18.631 17.7752 20.6191 15.7852 20.6191 13.3303C20.6191 10.8755 18.631 8.8855 16.1787 8.8855C13.7263 8.8855 11.7383 10.8755 11.7383 13.3303C11.7383 15.7852 13.7263 17.7752 16.1787 17.7752Z" fill="#E77817"/>
<path fill-rule="evenodd" clip-rule="evenodd" d="M17.4278 9.06396C19.2721 9.60401 20.6193 11.3096 20.6193 13.3303C20.6193 15.351 19.2721 17.0565 17.4278 17.5966C15.5835 17.0565 14.2363 15.351 14.2363 13.3303C14.2363 11.3096 15.5835 9.60401 17.4278 9.06396Z" fill="#FFA85C"/>
<path fill-rule="evenodd" clip-rule="evenodd" d="M46.4705 30.8213C46.7643 31.1132 46.7659 31.5881 46.474 31.882L42.3782 36.0048C42.1135 36.2713 41.6923 36.3008 41.393 36.0738L38.4765 33.8622L36.3025 36.0098C36.0356 36.2734 35.615 36.2993 35.3178 36.0704L33.6225 34.765C33.2943 34.5123 33.2332 34.0414 33.4859 33.7132C33.7386 33.385 34.2095 33.3238 34.5377 33.5766L35.7142 34.4825L37.8848 32.3383C38.1501 32.0761 38.5678 32.0489 38.865 32.2742L41.7765 34.4821L45.4098 30.8248C45.7018 30.531 46.1766 30.5294 46.4705 30.8213Z" fill="#26253C"/>
<path fill-rule="evenodd" clip-rule="evenodd" d="M16.1797 3.90784C16.5939 3.90784 16.9297 4.24362 16.9297 4.65784V6.56772C16.9297 6.98194 16.5939 7.31772 16.1797 7.31772C15.7655 7.31772 15.4297 6.98194 15.4297 6.56772V4.65784C15.4297 4.24362 15.7655 3.90784 16.1797 3.90784ZM9.52324 6.66731C9.81628 6.37457 10.2912 6.3748 10.5839 6.66784L11.9331 8.01835C12.2258 8.31139 12.2256 8.78627 11.9325 9.07901C11.6395 9.37176 11.1646 9.37152 10.8719 9.07848L9.52271 7.72797C9.22996 7.43493 9.2302 6.96006 9.52324 6.66731ZM22.8361 6.66747C23.1291 6.96021 23.1293 7.43509 22.8366 7.72813L21.4874 9.07864C21.1947 9.37168 20.7198 9.37192 20.4268 9.07917C20.1337 8.78642 20.1335 8.31155 20.4262 8.01851L21.7754 6.668C22.0681 6.37496 22.543 6.37472 22.8361 6.66747ZM16.1796 9.63571C14.1421 9.63571 12.4892 11.2893 12.4892 13.3306C12.4892 15.3719 14.1421 17.0254 16.1796 17.0254C17.6553 17.0254 18.9305 16.158 19.521 14.9006C19.6971 14.5257 20.1438 14.3645 20.5187 14.5406C20.8936 14.7167 21.0548 15.1634 20.8787 15.5383C20.0506 17.3015 18.259 18.5254 16.1796 18.5254C13.3123 18.5254 10.9892 16.1989 10.9892 13.3306C10.9892 10.4623 13.3123 8.13571 16.1796 8.13571C18.259 8.13571 20.0506 9.35972 20.8787 11.1228C21.0548 11.4977 20.8936 11.9444 20.5187 12.1205C20.1438 12.2966 19.6971 12.1354 19.521 11.7605C18.9305 10.5032 17.6553 9.63571 16.1796 9.63571ZM6.76562 13.3303C6.76562 12.9161 7.10141 12.5803 7.51562 12.5803H9.4236C9.83781 12.5803 10.1736 12.9161 10.1736 13.3303C10.1736 13.7445 9.83781 14.0803 9.4236 14.0803H7.51562C7.10141 14.0803 6.76562 13.7445 6.76562 13.3303ZM22.1855 13.3303C22.1855 12.9161 22.5213 12.5803 22.9355 12.5803H24.8435C25.2577 12.5803 25.5935 12.9161 25.5935 13.3303C25.5935 13.7445 25.2577 14.0803 24.8435 14.0803H22.9355C22.5213 14.0803 22.1855 13.7445 22.1855 13.3303ZM20.4268 17.5818C20.7198 17.289 21.1947 17.2893 21.4874 17.5823L22.8366 18.9328C23.1293 19.2259 23.1291 19.7007 22.8361 19.9935C22.543 20.2862 22.0681 20.286 21.7754 19.993L20.4262 18.6425C20.1335 18.3494 20.1337 17.8745 20.4268 17.5818ZM11.9325 17.5819C12.2256 17.8747 12.2258 18.3496 11.9331 18.6426L10.5839 19.9931C10.2912 20.2862 9.81628 20.2864 9.52324 19.9936C9.2302 19.7009 9.22996 19.226 9.52271 18.933L10.8719 17.5825C11.1646 17.2894 11.6395 17.2892 11.9325 17.5819ZM16.1797 19.3432C16.5939 19.3432 16.9297 19.679 16.9297 20.0932V22.0031C16.9297 22.4173 16.5939 22.7531 16.1797 22.7531C15.7655 22.7531 15.4297 22.4173 15.4297 22.0031V20.0932C15.4297 19.679 15.7655 19.3432 16.1797 19.3432Z" fill="#26253C"/>
<path fill-rule="evenodd" clip-rule="evenodd" d="M0.0244141 55.3422C0.0244141 54.9279 0.3602 54.5922 0.774414 54.5922H45.1766C45.5908 54.5922 45.9266 54.9279 45.9266 55.3422C45.9266 55.7564 45.5908 56.0922 45.1766 56.0922H0.774414C0.3602 56.0922 0.0244141 55.7564 0.0244141 55.3422Z" fill="#26253C"/>
</g>
<defs>
<clipPath id="clip0_1420_7423">
<rect width="60" height="60" fill="white"/>
</clipPath>
</defs>
</svg>
