<svg width="60" height="60" viewBox="0 0 60 60" fill="none" xmlns="http://www.w3.org/2000/svg">
<path fill-rule="evenodd" clip-rule="evenodd" d="M16.1786 3.90778C16.5928 3.90778 16.9286 4.24356 16.9286 4.65778V6.56761C16.9286 6.98183 16.5928 7.31761 16.1786 7.31761C15.7644 7.31761 15.4286 6.98183 15.4286 6.56761V4.65778C15.4286 4.24356 15.7644 3.90778 16.1786 3.90778ZM9.52216 6.66726C9.8152 6.37451 10.2901 6.37475 10.5828 6.66779L11.932 8.01829C12.2247 8.31133 12.2245 8.7862 11.9314 9.07895C11.6384 9.37169 11.1635 9.37146 10.8708 9.07842L9.52163 7.72792C9.22888 7.43488 9.22912 6.96001 9.52216 6.66726ZM22.8349 6.6673C23.128 6.96005 23.1282 7.43492 22.8355 7.72796L21.4863 9.07846C21.1936 9.3715 20.7187 9.37174 20.4257 9.07899C20.1326 8.78625 20.1324 8.31137 20.4251 8.01833L21.7743 6.66784C22.067 6.3748 22.5419 6.37456 22.8349 6.6673ZM16.1785 9.63556C14.1411 9.63556 12.4881 11.2891 12.4881 13.3304C12.4881 15.3717 14.1411 17.0252 16.1785 17.0252C17.6542 17.0252 18.9294 16.1578 19.5199 14.9004C19.696 14.5255 20.1427 14.3643 20.5176 14.5404C20.8926 14.7165 21.0537 15.1631 20.8777 15.5381C20.0496 17.3013 18.258 18.5252 16.1785 18.5252C13.3113 18.5252 10.9881 16.1987 10.9881 13.3304C10.9881 10.4621 13.3113 8.13556 16.1785 8.13556C18.258 8.13556 20.0496 9.35954 20.8777 11.1227C21.0537 11.4976 20.8926 11.9443 20.5176 12.1204C20.1427 12.2965 19.696 12.1353 19.52 11.7604C18.9294 10.503 17.6542 9.63556 16.1785 9.63556ZM6.76465 13.3303C6.76465 12.9161 7.10043 12.5803 7.51465 12.5803H9.42257C9.83678 12.5803 10.1726 12.9161 10.1726 13.3303C10.1726 13.7445 9.83678 14.0803 9.42257 14.0803H7.51465C7.10043 14.0803 6.76465 13.7445 6.76465 13.3303ZM22.1845 13.3303C22.1845 12.9161 22.5203 12.5803 22.9345 12.5803H24.8424C25.2566 12.5803 25.5924 12.9161 25.5924 13.3303C25.5924 13.7445 25.2566 14.0803 24.8424 14.0803H22.9345C22.5203 14.0803 22.1845 13.7445 22.1845 13.3303ZM20.4257 17.5817C20.7187 17.289 21.1936 17.2892 21.4863 17.5822L22.8355 18.9327C23.1282 19.2258 23.128 19.7007 22.8349 19.9934C22.5419 20.2861 22.067 20.2859 21.7743 19.9929L20.4251 18.6424C20.1324 18.3493 20.1326 17.8745 20.4257 17.5817ZM11.9314 17.5818C12.2245 17.8745 12.2247 18.3494 11.932 18.6424L10.5828 19.9929C10.2901 20.2859 9.8152 20.2862 9.52216 19.9934C9.22912 19.7007 9.22888 19.2258 9.52163 18.9328L10.8708 17.5823C11.1635 17.2892 11.6384 17.289 11.9314 17.5818ZM16.1786 19.3431C16.5928 19.3431 16.9286 19.6789 16.9286 20.0931V22.0029C16.9286 22.4171 16.5928 22.7529 16.1786 22.7529C15.7644 22.7529 15.4286 22.4171 15.4286 22.0029V20.0931C15.4286 19.6789 15.7644 19.3431 16.1786 19.3431Z" fill="#84828B"/>
<path fill-rule="evenodd" clip-rule="evenodd" d="M40.7358 20.4892C41.0167 20.4892 41.274 20.6462 41.4026 20.896L56.8954 50.9962C57.085 51.3645 56.9401 51.8168 56.5718 52.0063C56.2035 52.1959 55.7513 52.051 55.5617 51.6827L40.7358 22.878L23.8496 55.6854C23.6601 56.0537 23.2078 56.1986 22.8395 56.009C22.4713 55.8195 22.3264 55.3673 22.5159 54.999L40.0689 20.896C40.1975 20.6462 40.4548 20.4892 40.7358 20.4892Z" fill="#84828B"/>
<path fill-rule="evenodd" clip-rule="evenodd" d="M10.0185 39.1536C10.3005 39.1536 10.5586 39.3117 10.6867 39.5629L18.5596 55.0015C18.7477 55.3705 18.6011 55.8221 18.2321 56.0103C17.8631 56.1985 17.4115 56.0519 17.2233 55.6829L10.0185 41.5546L2.81381 55.6829C2.62564 56.0519 2.17395 56.1985 1.80495 56.0103C1.43595 55.8221 1.28935 55.3705 1.47753 55.0015L9.35038 39.5629C9.47846 39.3117 9.73658 39.1536 10.0185 39.1536Z" fill="#84828B"/>
<path fill-rule="evenodd" clip-rule="evenodd" d="M28.5252 17.2946C28.8051 17.2946 29.0618 17.4505 29.1908 17.699L36.1589 31.1163C36.3498 31.4839 36.2065 31.9367 35.8389 32.1276C35.4713 32.3185 35.0186 32.1752 34.8277 31.8076L28.5252 19.6719L23.2935 29.7452C23.1841 29.956 22.9812 30.1025 22.7467 30.1401C22.5121 30.1777 22.2737 30.1019 22.1038 29.9359L19.9159 27.798L12.1015 42.9692C11.9118 43.3374 11.4595 43.4822 11.0913 43.2925C10.7231 43.1029 10.5783 42.6506 10.768 42.2823L19.0472 26.2086C19.1562 25.9971 19.3591 25.8498 19.594 25.8117C19.8289 25.7737 20.0679 25.8493 20.2381 26.0157L22.4286 28.1561L27.8596 17.6989C27.9886 17.4505 28.2453 17.2946 28.5252 17.2946Z" fill="#84828B"/>
<path fill-rule="evenodd" clip-rule="evenodd" d="M48.6623 48.3799C47.1326 48.3799 45.8912 49.6214 45.8912 51.1545C45.8912 51.212 45.8933 51.271 45.8971 51.3323C45.9187 51.6775 45.7013 51.9928 45.3709 52.0953C45.0405 52.1979 44.6829 52.0612 44.5051 51.7644C44.3996 51.5881 44.1881 51.4531 43.9271 51.4531C43.6621 51.4531 43.4485 51.5922 43.3445 51.7722C43.2436 51.9471 43.0764 52.0738 42.8808 52.1238C42.6853 52.1739 42.4778 52.1429 42.3053 52.038C42.1872 51.9662 42.0421 51.9219 41.8803 51.9219C41.7164 51.9219 41.5696 51.9674 41.4508 52.0409C41.2522 52.1636 41.0077 52.1869 40.7895 52.1038C40.5713 52.0207 40.4043 51.8407 40.3377 51.6169C40.164 51.0336 39.4543 50.4635 38.4461 50.4635C37.2355 50.4635 36.5076 51.25 36.5076 51.9358C36.5076 51.9863 36.5111 52.0365 36.518 52.0866C36.5461 52.2909 36.4889 52.4977 36.3598 52.6584C36.2308 52.8192 36.0413 52.9197 35.8358 52.9364C35.4257 52.9698 35.0927 53.1117 34.8782 53.2854C34.6649 53.4582 34.5996 53.6302 34.5996 53.7606C34.5996 53.8993 34.6752 54.0896 34.9267 54.273C35.1775 54.456 35.5609 54.5922 36.0177 54.5922C36.4319 54.5922 36.7677 54.928 36.7677 55.3422C36.7677 55.7564 36.4319 56.0922 36.0177 56.0922C35.2772 56.0922 34.5765 55.8743 34.0427 55.4849C33.5094 55.0959 33.0996 54.4954 33.0996 53.7606C33.0996 53.0774 33.4554 52.5076 33.934 52.1198C34.2456 51.8675 34.622 51.6789 35.0331 51.563C35.2497 50 36.8136 48.9635 38.4461 48.9635C39.6714 48.9635 40.8261 49.5306 41.4376 50.4637C41.5811 50.4362 41.7292 50.4219 41.8803 50.4219C42.0853 50.4219 42.2847 50.4483 42.4748 50.498C42.8612 50.1567 43.3733 49.9531 43.9271 49.9531C44.1385 49.9531 44.3438 49.9827 44.5383 50.0384C45.0287 48.2192 46.6888 46.8799 48.6623 46.8799C50.265 46.8799 51.6597 47.7629 52.3903 49.0678C52.735 48.9332 53.1099 48.8592 53.5016 48.8592C54.7266 48.8592 55.7791 49.5784 56.274 50.6155C56.5623 50.5127 56.8727 50.4565 57.1961 50.4565C58.7443 50.4565 59.9755 51.7314 59.9755 53.2743C59.9755 54.8172 58.7442 56.0921 57.1961 56.0921H49.6011C49.1869 56.0921 48.8511 55.7563 48.8511 55.3421C48.8511 54.9278 49.1869 54.5921 49.6011 54.5921H57.1961C57.8894 54.5921 58.4755 54.0154 58.4755 53.2743C58.4755 52.5332 57.8895 51.9565 57.1961 51.9565C56.8646 51.9565 56.5621 52.0856 56.3323 52.3024C56.1226 52.5003 55.8181 52.5604 55.549 52.4572C55.2799 52.354 55.0937 52.1056 55.0701 51.8184C55.0025 50.9961 54.3207 50.3592 53.5016 50.3592C53.1256 50.3592 52.7817 50.4917 52.5103 50.715C52.3165 50.8744 52.0558 50.9263 51.8158 50.8533C51.5757 50.7804 51.388 50.5922 51.3157 50.352C50.9717 49.2097 49.9125 48.3799 48.6623 48.3799Z" fill="#84828B"/>
<path fill-rule="evenodd" clip-rule="evenodd" d="M8.09101 46.2239C8.34989 45.9552 8.76695 45.9177 9.06967 46.1358L11.203 47.6733L13.0337 46.1697C13.3538 45.9068 13.8264 45.9532 14.0893 46.2733C14.3522 46.5934 14.3058 47.066 13.9857 47.3289L11.7089 49.1989C11.4459 49.4149 11.0704 49.4268 10.7944 49.2278L8.72017 47.7329L7.29809 49.2091C7.09752 49.4174 6.79513 49.4918 6.52085 49.4004L5.47877 49.0531C5.37113 49.0172 5.27302 48.9574 5.19185 48.8781L5.19181 48.8781C4.89547 48.5887 4.88984 48.1139 5.17925 47.8175C5.39099 47.6007 5.70199 47.5395 5.96972 47.6356L6.5461 47.8277L8.09101 46.2239Z" fill="#84828B"/>
<path fill-rule="evenodd" clip-rule="evenodd" d="M46.4705 30.8213C46.7644 31.1133 46.766 31.5881 46.474 31.882L42.3782 36.0048C42.1134 36.2713 41.6923 36.3008 41.393 36.0738L38.4766 33.8622L36.3025 36.0098C36.0357 36.2734 35.6151 36.2993 35.3179 36.0705L33.6225 34.7651C33.2944 34.5124 33.2332 34.0414 33.4859 33.7133C33.7386 33.3851 34.2095 33.3239 34.5377 33.5766L35.7142 34.4825L37.8848 32.3383C38.1502 32.0762 38.5678 32.0489 38.8651 32.2743L41.7765 34.4822L45.4099 30.8248C45.7018 30.531 46.1767 30.5294 46.4705 30.8213Z" fill="#84828B"/>
<path fill-rule="evenodd" clip-rule="evenodd" d="M0.0244141 55.3422C0.0244141 54.928 0.3602 54.5922 0.774414 54.5922H45.1765C45.5908 54.5922 45.9265 54.928 45.9265 55.3422C45.9265 55.7564 45.5908 56.0922 45.1765 56.0922H0.774414C0.3602 56.0922 0.0244141 55.7564 0.0244141 55.3422Z" fill="#84828B"/>
</svg>
