<svg width="60" height="60" viewBox="0 0 60 60" fill="none" xmlns="http://www.w3.org/2000/svg">
<g clip-path="url(#clip0_1420_7601)">
<path d="M55.1105 8.85172H11.4104C9.13854 8.85172 7.29688 9.35613 7.29688 9.97835V41.2768C7.29688 41.899 9.13854 42.4034 11.4104 42.4034H55.1105C57.3823 42.4034 59.224 41.899 59.224 41.2768V9.97835C59.224 9.35613 57.3823 8.85172 55.1105 8.85172Z" fill="#84828B"/>
<path fill-rule="evenodd" clip-rule="evenodd" d="M20.0918 8.85172H56.5661C58.0279 8.85172 59.224 10.0477 59.224 11.5095V39.7457C59.224 41.2074 58.0279 42.4035 56.5661 42.4035H20.0918V8.85176V8.85172Z" fill="#D0CFD4"/>
<path fill-rule="evenodd" clip-rule="evenodd" d="M9.95478 8.8517H16.7967V42.4034H9.95478C8.49291 42.4034 7.29688 41.2074 7.29688 39.7456V11.5095C7.29688 10.0477 8.49291 8.85165 9.95478 8.85165V8.8517Z" fill="#E77817"/>
<path fill-rule="evenodd" clip-rule="evenodd" d="M13.0905 8.8517H16.7976V42.4034H13.0905C11.6286 42.4034 10.4326 41.2074 10.4326 39.7456V11.5095C10.4326 10.0477 11.6286 8.85165 13.0905 8.85165V8.8517Z" fill="#FFA85C"/>
<path fill-rule="evenodd" clip-rule="evenodd" d="M11.4977 18.8458V32.4094C11.4977 33.1645 10.88 33.7822 10.1249 33.7822H7.35182C7.32153 33.7822 7.29688 33.7576 7.29688 33.7273V17.4729H10.1249C10.88 17.4729 11.4977 18.0906 11.4977 18.8457V18.8458Z" fill="#7E707D"/>
<path fill-rule="evenodd" clip-rule="evenodd" d="M59.2241 21.9758V29.2793H49.369C49.7108 28.1215 49.8952 26.8962 49.8952 25.6276C49.8952 24.359 49.7108 23.1336 49.369 21.9759H59.2241V21.9758ZM24.6671 29.2793H16.7969V21.9758H24.6671C24.3253 23.1336 24.1409 24.359 24.1409 25.6276C24.1409 26.8961 24.3253 28.1215 24.6671 29.2792V29.2793Z" fill="#E77817"/>
<path fill-rule="evenodd" clip-rule="evenodd" d="M59.224 21.9758V29.2793H49.3688C49.7106 28.1215 49.895 26.8962 49.895 25.6276C49.895 24.359 49.7106 23.1336 49.3688 21.9759H59.224V21.9758ZM20.0918 29.2793V21.9758H24.6669C24.3251 23.1336 24.1408 24.359 24.1408 25.6276C24.1408 26.8961 24.3251 28.1215 24.6669 29.2792H20.0918V29.2793Z" fill="#FFA85C"/>
<path d="M37.0187 38.5047C44.1305 38.5047 49.8957 32.7394 49.8957 25.6276C49.8957 18.5158 44.1305 12.7505 37.0187 12.7505C29.9069 12.7505 24.1416 18.5158 24.1416 25.6276C24.1416 32.7394 29.9069 38.5047 37.0187 38.5047Z" fill="#6A5C6B"/>
<path fill-rule="evenodd" clip-rule="evenodd" d="M38.3926 12.8236C44.8582 13.5096 49.8955 18.9801 49.8955 25.6276C49.8955 32.2751 44.8582 37.7456 38.3926 38.4316C31.927 37.7456 26.8896 32.2751 26.8896 25.6276C26.8896 18.9801 31.927 13.5096 38.3926 12.8236Z" fill="#7E707D"/>
<path d="M37.018 33.5625C41.4003 33.5625 44.9529 30.0099 44.9529 25.6276C44.9529 21.2452 41.4003 17.6926 37.018 17.6926C32.6356 17.6926 29.083 21.2452 29.083 25.6276C29.083 30.0099 32.6356 33.5625 37.018 33.5625Z" fill="#D9EEFF"/>
<path fill-rule="evenodd" clip-rule="evenodd" d="M38.4463 17.8211C42.147 18.4937 44.9531 21.7328 44.9531 25.6276C44.9531 29.5224 42.147 32.7615 38.4463 33.4341C34.7456 32.7615 31.9395 29.5224 31.9395 25.6276C31.9395 21.7328 34.7456 18.4937 38.4463 17.8211Z" fill="#EFF6FF"/>
<path fill-rule="evenodd" clip-rule="evenodd" d="M45.499 8.85171H26.75L27.9855 5.63552C28.2935 4.83388 28.688 4.07428 29.5467 4.07428H42.7023C43.561 4.07428 43.9555 4.83388 44.2635 5.63552L45.499 8.85171H45.499Z" fill="#6A5C6B"/>
<path fill-rule="evenodd" clip-rule="evenodd" d="M45.4991 8.85171H30.0449L31.2805 5.63552C31.5884 4.83388 31.983 4.07428 32.8417 4.07428H42.7024C43.5611 4.07428 43.9556 4.83388 44.2636 5.63552L45.4991 8.85171H45.4991Z" fill="#7E707D"/>
<path fill-rule="evenodd" clip-rule="evenodd" d="M11.2234 4.65088H15.4242C16.1793 4.65088 16.797 5.26858 16.797 6.02366V8.79677C16.797 8.82706 16.7724 8.85171 16.7421 8.85171H9.85059V6.02366C9.85059 5.26858 10.4683 4.65088 11.2234 4.65088H11.2234Z" fill="#6A5C6B"/>
<path fill-rule="evenodd" clip-rule="evenodd" d="M13.8181 4.65088H15.4246C16.1797 4.65088 16.7974 5.26858 16.7974 6.02366V8.79677C16.7974 8.82657 16.7735 8.85096 16.7439 8.85171H16.7425H12.4453V6.02366C12.4453 5.26858 13.063 4.65088 13.8181 4.65088H13.8181Z" fill="#7E707D"/>
<path d="M43.0491 42.4034H9.95478C8.49295 42.4034 7.29688 41.2074 7.29688 39.7456V11.5095C7.29688 10.0477 8.49291 8.85165 9.95478 8.85165H56.5661C58.0279 8.85165 59.224 10.0477 59.224 11.5095V39.7456C59.224 41.2074 58.0279 42.4034 56.5661 42.4034H47.7855" stroke="#26253C" stroke-width="1.5" stroke-miterlimit="22.9256" stroke-linecap="round" stroke-linejoin="round"/>
<path d="M16.7969 8.85172V13.5421M16.7969 17.205V42.4035" stroke="#26253C" stroke-width="1.5" stroke-miterlimit="22.9256" stroke-linecap="round" stroke-linejoin="round"/>
<path d="M33.4594 32.7217C30.864 31.4172 29.083 28.7304 29.083 25.6275C29.083 21.2452 32.6356 17.6926 37.018 17.6926C41.4003 17.6926 44.9529 21.2452 44.9529 25.6275C44.9529 30.0099 41.4003 33.5625 37.018 33.5625" stroke="#26253C" stroke-width="1.5" stroke-miterlimit="22.9256" stroke-linecap="round" stroke-linejoin="round"/>
<path d="M41.5476 13.5695C46.425 15.4023 49.8957 20.1097 49.8957 25.6276C49.8957 32.7394 44.1305 38.5047 37.0187 38.5047C29.9069 38.5047 24.1416 32.7394 24.1416 25.6276C24.1416 18.5158 29.9069 12.7505 37.0187 12.7505" stroke="#26253C" stroke-width="1.5" stroke-miterlimit="22.9256" stroke-linecap="round" stroke-linejoin="round"/>
<path fill-rule="evenodd" clip-rule="evenodd" d="M59.2241 21.9758V29.2793H49.369C49.7108 28.1215 49.8952 26.8962 49.8952 25.6276C49.8952 24.359 49.7108 23.1336 49.369 21.9759H59.2241V21.9758ZM24.6671 29.2793H16.7969V21.9758H24.6671C24.3253 23.1336 24.1409 24.359 24.1409 25.6276C24.1409 26.8961 24.3253 28.1215 24.6671 29.2792V29.2793Z" stroke="#26253C" stroke-width="1.5" stroke-miterlimit="22.9256" stroke-linecap="round" stroke-linejoin="round"/>
<path fill-rule="evenodd" clip-rule="evenodd" d="M11.2234 4.65088H15.4242C16.1793 4.65088 16.797 5.26858 16.797 6.02366V8.79677C16.797 8.82706 16.7724 8.85171 16.7421 8.85171H9.85059V6.02366C9.85059 5.26858 10.4683 4.65088 11.2234 4.65088H11.2234Z" stroke="#26253C" stroke-width="1.5" stroke-miterlimit="22.9256" stroke-linecap="round" stroke-linejoin="round"/>
<path fill-rule="evenodd" clip-rule="evenodd" d="M45.499 8.85171H26.75L27.9855 5.63552C28.2935 4.83388 28.688 4.07428 29.5467 4.07428H42.7023C43.561 4.07428 43.9555 4.83388 44.2635 5.63552L45.499 8.85171H45.499Z" stroke="#26253C" stroke-width="1.5" stroke-miterlimit="22.9256" stroke-linecap="round" stroke-linejoin="round"/>
<path fill-rule="evenodd" clip-rule="evenodd" d="M11.4977 18.3588V32.8963C11.4977 33.3835 11.0991 33.7822 10.6118 33.7822H7.29688V17.4729H10.6118C11.0991 17.4729 11.4977 17.8715 11.4977 18.3588Z" stroke="#26253C" stroke-width="1.5" stroke-miterlimit="22.9256" stroke-linecap="round" stroke-linejoin="round"/>
<path d="M50.0205 13.4367H53.2056" stroke="#26253C" stroke-width="1.5" stroke-miterlimit="22.9256" stroke-linecap="round" stroke-linejoin="round"/>
<path d="M23.6515 26.419L2.98774 30.7487C1.49569 31.0614 0.53017 32.4795 0.831204 33.9162L5.00029 53.813C5.30132 55.2497 6.75491 56.1609 8.24697 55.8483L28.9108 51.5185C30.4028 51.2059 31.3683 49.7878 31.0673 48.3511L26.8982 28.4542C26.5972 27.0175 25.1436 26.1063 23.6515 26.419Z" fill="#D0CFD4"/>
<path fill-rule="evenodd" clip-rule="evenodd" d="M7.58533 29.7855L23.7521 26.3979C25.1829 26.0982 26.5987 27.0234 26.8985 28.4542L31.0676 48.3511C31.3674 49.7818 30.4421 51.1977 29.0114 51.4975L12.8445 54.885C11.4138 55.1848 9.99796 54.2595 9.69816 52.8287L5.52908 32.9318C5.22927 31.5011 6.15459 30.0853 7.58533 29.7855Z" fill="#F1F0F4"/>
<path d="M21.6304 30.9943L6.67587 34.1278C5.59606 34.3541 4.8874 35.333 5.09303 36.3144L7.94085 49.9056C8.14649 50.8869 9.18854 51.4991 10.2684 51.2728L25.2229 48.1393C26.3027 47.9131 27.0113 46.9341 26.8057 45.9527L23.9579 32.3616C23.7522 31.3802 22.7102 30.7681 21.6304 30.9943Z" fill="#70AD13"/>
<path fill-rule="evenodd" clip-rule="evenodd" d="M6.4978 34.1652L21.8089 30.957C22.7863 30.7522 23.7533 31.3842 23.9581 32.3615L25.0385 37.5179C14.7192 39.6802 19.5335 42.0379 6.84936 44.6956L5.09322 36.3144C4.88845 35.3371 5.52047 34.37 6.4978 34.1653V34.1652Z" fill="#E77817"/>
<path fill-rule="evenodd" clip-rule="evenodd" d="M9.3728 33.5626L21.8084 30.957C22.7857 30.7522 23.7528 31.3842 23.9576 32.3615L26.8054 45.9529C27.0102 46.9302 26.3782 47.8973 25.4008 48.102L12.9652 50.7077C11.9879 50.9125 11.0208 50.2805 10.816 49.3031L7.96822 35.7118C7.76345 34.7345 8.39547 33.7674 9.3728 33.5626Z" fill="#84C225"/>
<path fill-rule="evenodd" clip-rule="evenodd" d="M9.3728 33.5626L21.8084 30.957C22.7857 30.7522 23.7528 31.3842 23.9576 32.3615L25.038 37.5179C15.5921 39.4972 18.8238 41.6402 9.71061 44.0272L7.96822 35.7118C7.76345 34.7345 8.39547 33.7674 9.3728 33.5626Z" fill="#FFA85C"/>
<path d="M16.5545 54.1075L8.1463 55.8693C6.71556 56.1691 5.29972 55.2437 4.99992 53.813L0.830834 33.9161C0.531028 32.4854 1.45634 31.0695 2.88708 30.7697L23.7515 26.3979C25.1822 26.0982 26.5981 27.0234 26.8979 28.4542L31.0669 48.3511C31.3667 49.7818 30.4414 51.1977 29.0107 51.4975L20.7576 53.2268" stroke="#26253C" stroke-width="1.5" stroke-miterlimit="22.9256" stroke-linecap="round" stroke-linejoin="round"/>
<path d="M21.6304 30.9943L6.67587 34.1278C5.59606 34.3541 4.8874 35.333 5.09303 36.3144L7.94085 49.9056C8.14649 50.8869 9.18854 51.4991 10.2684 51.2728L25.2229 48.1393C26.3027 47.9131 27.0113 46.9341 26.8057 45.9527L23.9579 32.3616C23.7522 31.3802 22.7102 30.7681 21.6304 30.9943Z" stroke="#26253C" stroke-width="1.5" stroke-miterlimit="22.9256" stroke-linecap="round" stroke-linejoin="round"/>
<path d="M25.0378 37.5179C14.7185 39.6802 19.5328 42.0378 6.84863 44.6956" stroke="#26253C" stroke-width="1.5" stroke-miterlimit="22.9256" stroke-linecap="round" stroke-linejoin="round"/>
</g>
<defs>
<clipPath id="clip0_1420_7601">
<rect width="60" height="60" fill="white"/>
</clipPath>
</defs>
</svg>
