<svg width="60" height="60" viewBox="0 0 60 60" fill="none" xmlns="http://www.w3.org/2000/svg">
<path fill-rule="evenodd" clip-rule="evenodd" d="M34.1398 45.0419L12.5872 57.8773L6.76953 48.1085C7.89475 47.4384 8.53134 46.2611 8.56185 45.0419H34.1398Z" fill="#84828B"/>
<path fill-rule="evenodd" clip-rule="evenodd" d="M29.4599 47.8294L12.5879 57.8772L8.31836 50.708C9.2658 50.0187 9.79806 48.9415 9.8259 47.8293H29.4599V47.8294Z" fill="#D0CFD4"/>
<path fill-rule="evenodd" clip-rule="evenodd" d="M25.8604 14.9581L47.4129 2.12276L53.2306 11.8915C52.1054 12.5617 51.4688 13.7389 51.4383 14.9581H25.8604Z" fill="#84828B"/>
<path fill-rule="evenodd" clip-rule="evenodd" d="M48.9856 4.76346L53.2306 11.8915C52.1054 12.5617 51.4688 13.7389 51.4383 14.9581H31.8672L48.9856 4.76346H48.9856Z" fill="#D0CFD4"/>
<path fill-rule="evenodd" clip-rule="evenodd" d="M0.775391 14.9581H59.225V26.328C57.197 26.328 55.553 27.972 55.553 30C55.553 32.028 57.197 33.6721 59.225 33.6721V45.0419H0.775391V33.6721C2.80339 33.6721 4.44743 32.028 4.44743 30C4.44743 27.972 2.80339 26.328 0.775391 26.328V14.9581Z" fill="#E77817"/>
<path fill-rule="evenodd" clip-rule="evenodd" d="M59.2247 15.5806V26.328C57.1967 26.328 55.5527 27.972 55.5527 30C55.5527 32.028 57.1967 33.6721 59.2247 33.6721V45.0419H3.6543V34.2946C5.6823 34.2946 7.32633 32.6505 7.32633 30.6225C7.32633 28.5945 5.6823 26.9505 3.6543 26.9505V15.5806H59.2247Z" fill="#FFA85C"/>
<path fill-rule="evenodd" clip-rule="evenodd" d="M0.0253906 14.9581C0.0253906 14.5439 0.361177 14.2081 0.775391 14.2081H59.225C59.6392 14.2081 59.975 14.5439 59.975 14.9581V26.328C59.975 26.7422 59.6392 27.078 59.225 27.078C57.6112 27.078 56.303 28.3862 56.303 30C56.303 31.6138 57.6112 32.9221 59.225 32.9221C59.6392 32.9221 59.975 33.2578 59.975 33.6721V45.0419C59.975 45.4561 59.6392 45.7919 59.225 45.7919H52.1045C51.6903 45.7919 51.3545 45.4561 51.3545 45.0419C51.3545 44.6277 51.6903 44.2919 52.1045 44.2919H58.475V34.3587C56.39 34.0025 54.803 32.1866 54.803 30C54.803 27.8135 56.39 25.9975 58.475 25.6413V15.7081H1.52539V25.6413C3.6104 25.9975 5.19743 27.8135 5.19743 30C5.19743 32.1866 3.6104 34.0025 1.52539 34.3587V44.2919H45.8511C46.2653 44.2919 46.6011 44.6277 46.6011 45.0419C46.6011 45.4561 46.2653 45.7919 45.8511 45.7919H0.775391C0.361177 45.7919 0.0253906 45.4561 0.0253906 45.0419V33.6721C0.0253906 33.2578 0.361177 32.9221 0.775391 32.9221C2.38918 32.9221 3.69743 31.6138 3.69743 30C3.69743 28.3862 2.38918 27.078 0.775391 27.078C0.361177 27.078 0.0253906 26.7422 0.0253906 26.328V14.9581Z" fill="#26253C"/>
<path d="M24.1214 32.5813H9.27734V38.2031H24.1214V32.5813Z" fill="#70AD13"/>
<path fill-rule="evenodd" clip-rule="evenodd" d="M12.2148 32.5813H24.1216V38.2031H12.2148V32.5813Z" fill="#84C225"/>
<path fill-rule="evenodd" clip-rule="evenodd" d="M51.0304 31.7917V36.3081C51.0304 37.3503 50.1776 38.2031 49.1355 38.2031H29.6328V22.98H42.2187C47.0852 22.98 51.0304 26.9252 51.0304 31.7917Z" fill="#6A5C6B"/>
<path fill-rule="evenodd" clip-rule="evenodd" d="M51.0309 31.7917V36.3081C51.0309 37.3503 50.1782 38.2031 49.1359 38.2031H35.1445V22.98H42.2192C47.0857 22.98 51.0309 26.9252 51.0309 31.7917Z" fill="#7E707D"/>
<path fill-rule="evenodd" clip-rule="evenodd" d="M51.03 31.7917V32.0128H42.8816C42.0825 32.0128 41.4287 31.3591 41.4287 30.5599V22.98H42.2183C47.0848 22.98 51.03 26.9252 51.03 31.7917H51.03Z" fill="#D9EEFF"/>
<path fill-rule="evenodd" clip-rule="evenodd" d="M51.0305 31.7917V32.0128H44.9978C44.1987 32.0128 43.5449 31.3591 43.5449 30.5599V23.0793C47.7822 23.719 51.0305 27.376 51.0305 31.7917H51.0305Z" fill="#EFF6FF"/>
<path fill-rule="evenodd" clip-rule="evenodd" d="M34.3945 22.98C34.3945 22.5658 34.7303 22.23 35.1445 22.23H42.2192C47.4999 22.23 51.7809 26.5109 51.7809 31.7917V36.3081C51.7809 37.7646 50.5924 38.9531 49.1359 38.9531H35.1445C34.7303 38.9531 34.3945 38.6173 34.3945 38.2031C34.3945 37.7889 34.7303 37.4531 35.1445 37.4531H49.1359C49.7639 37.4531 50.2809 36.9361 50.2809 36.3081V31.7917C50.2809 27.3394 46.6715 23.73 42.2192 23.73H35.1445C34.7303 23.73 34.3945 23.3942 34.3945 22.98Z" fill="#26253C"/>
<path fill-rule="evenodd" clip-rule="evenodd" d="M8.52734 32.5813C8.52734 32.167 8.86313 31.8313 9.27734 31.8313H18.3734C18.7876 31.8313 19.1234 32.167 19.1234 32.5813C19.1234 32.9955 18.7876 33.3313 18.3734 33.3313H10.0273V37.4531H23.3714V33.3313H22.4161C22.0019 33.3313 21.6661 32.9955 21.6661 32.5813C21.6661 32.167 22.0019 31.8313 22.4161 31.8313H24.1214C24.5356 31.8313 24.8714 32.167 24.8714 32.5813V38.2031C24.8714 38.6173 24.5356 38.9531 24.1214 38.9531H9.27734C8.86313 38.9531 8.52734 38.6173 8.52734 38.2031V32.5813Z" fill="#26253C"/>
<path fill-rule="evenodd" clip-rule="evenodd" d="M41.4287 22.23C41.8429 22.23 42.1787 22.5658 42.1787 22.98V30.5599C42.1787 30.9448 42.4967 31.2628 42.8816 31.2628H47.7457C48.16 31.2628 48.4957 31.5986 48.4957 32.0128C48.4957 32.427 48.16 32.7628 47.7457 32.7628H42.8816C41.6683 32.7628 40.6787 31.7733 40.6787 30.5599V22.98C40.6787 22.5658 41.0145 22.23 41.4287 22.23Z" fill="#26253C"/>
<path fill-rule="evenodd" clip-rule="evenodd" d="M8.52734 22.9801C8.52734 22.5659 8.86313 22.2301 9.27734 22.2301H24.1216C24.5358 22.2301 24.8716 22.5659 24.8716 22.9801C24.8716 23.3943 24.5358 23.7301 24.1216 23.7301H9.27734C8.86313 23.7301 8.52734 23.3943 8.52734 22.9801Z" fill="#26253C"/>
<path fill-rule="evenodd" clip-rule="evenodd" d="M8.52734 27.907C8.52734 27.4928 8.86313 27.157 9.27734 27.157H24.1216C24.5358 27.157 24.8716 27.4928 24.8716 27.907C24.8716 28.3212 24.5358 28.657 24.1216 28.657H9.27734C8.86313 28.657 8.52734 28.3212 8.52734 27.907Z" fill="#26253C"/>
<path fill-rule="evenodd" clip-rule="evenodd" d="M7.8122 45.0231C7.82238 44.6163 8.15506 44.2918 8.56196 44.2918H34.1399C34.4775 44.2918 34.7734 44.5174 34.863 44.8428C34.9526 45.1683 34.8137 45.5135 34.5236 45.6862L12.9711 58.5216C12.6152 58.7335 12.1549 58.6168 11.9429 58.2609L8.67506 52.7737C8.46311 52.4178 8.5798 51.9575 8.93568 51.7455C9.29157 51.5336 9.75188 51.6503 9.96382 52.0061L12.848 56.849L31.4147 45.7918H9.23234C9.00144 46.9854 8.28173 48.0808 7.15341 48.7528C6.79752 48.9647 6.33721 48.8481 6.12526 48.4922C5.91332 48.1363 6.03 47.676 6.38589 47.464C7.28049 46.9313 7.78786 45.9956 7.8122 45.0231Z" fill="#26253C"/>
<path fill-rule="evenodd" clip-rule="evenodd" d="M29.6328 22.23C30.047 22.23 30.3828 22.5658 30.3828 22.98V25.0008C30.3828 25.415 30.047 25.7508 29.6328 25.7508C29.2186 25.7508 28.8828 25.415 28.8828 25.0008V22.98C28.8828 22.5658 29.2186 22.23 29.6328 22.23ZM29.6328 27.6619C30.047 27.6619 30.3828 27.9977 30.3828 28.4119V38.2031C30.3828 38.6173 30.047 38.9531 29.6328 38.9531C29.2186 38.9531 28.8828 38.6173 28.8828 38.2031V28.4119C28.8828 27.9977 29.2186 27.6619 29.6328 27.6619Z" fill="#26253C"/>
<path fill-rule="evenodd" clip-rule="evenodd" d="M48.0574 1.73901C48.2693 2.09489 48.1526 2.55521 47.7967 2.76715L28.5856 14.2081H50.768C50.9539 13.2469 51.4569 12.3494 52.2349 11.6854L49.5052 7.10166C49.2932 6.74577 49.4099 6.28546 49.7658 6.07352C50.1217 5.86157 50.582 5.97826 50.7939 6.33414L53.875 11.5078C54.087 11.8637 53.9703 12.324 53.6144 12.5359C52.7198 13.0687 52.2124 14.0043 52.1881 14.9769C52.1779 15.3836 51.8452 15.7081 51.4383 15.7081H25.8604C25.5228 15.7081 25.2269 15.4826 25.1373 15.1571C25.0477 14.8317 25.1866 14.4864 25.4767 14.3137L47.0292 1.47838C47.3851 1.26644 47.8454 1.38313 48.0574 1.73901Z" fill="#26253C"/>
</svg>
