<svg width="60" height="60" viewBox="0 0 60 60" fill="none" xmlns="http://www.w3.org/2000/svg">
<path fill-rule="evenodd" clip-rule="evenodd" d="M0.0253906 14.9582C0.0253906 14.544 0.361177 14.2082 0.775391 14.2082H59.2251C59.6393 14.2082 59.9751 14.544 59.9751 14.9582V26.3281C59.9751 26.7423 59.6393 27.0781 59.2251 27.0781C57.6113 27.0781 56.3031 28.3863 56.3031 30.0001C56.3031 31.6139 57.6113 32.9221 59.2251 32.9221C59.6393 32.9221 59.9751 33.2579 59.9751 33.6721V45.0419C59.9751 45.4561 59.6393 45.7919 59.2251 45.7919H52.1046C51.6903 45.7919 51.3546 45.4561 51.3546 45.0419C51.3546 44.6277 51.6903 44.2919 52.1046 44.2919H58.4751V34.3587C56.3901 34.0025 54.8031 32.1867 54.8031 30.0001C54.8031 27.8136 56.39 25.9976 58.4751 25.6414V15.7082H1.52539V25.6414C3.61034 25.9976 5.19739 27.8135 5.19739 30.0001C5.19739 32.1866 3.61041 34.0025 1.52539 34.3587V44.2919H45.8511C46.2653 44.2919 46.6011 44.6277 46.6011 45.0419C46.6011 45.4561 46.2653 45.7919 45.8511 45.7919H0.775391C0.361177 45.7919 0.0253906 45.4561 0.0253906 45.0419V33.6721C0.0253906 33.2579 0.361177 32.9221 0.775391 32.9221C2.38918 32.9221 3.69739 31.6138 3.69739 30.0001C3.69739 28.3863 2.38912 27.0781 0.775391 27.0781C0.361177 27.0781 0.0253906 26.7423 0.0253906 26.3281V14.9582Z" fill="#84828B"/>
<path fill-rule="evenodd" clip-rule="evenodd" d="M7.81224 45.0232C7.82242 44.6164 8.1551 44.2919 8.56201 44.2919H34.1399C34.4774 44.2919 34.7734 44.5174 34.863 44.8429C34.9526 45.1684 34.8137 45.5136 34.5236 45.6863L12.971 58.5217C12.6152 58.7336 12.1548 58.6169 11.9429 58.261L8.67501 52.7738C8.46306 52.4179 8.57975 51.9576 8.93563 51.7456C9.29152 51.5337 9.75183 51.6504 9.96378 52.0062L12.8479 56.8491L31.4147 45.7919H9.23237C9.00145 46.9855 8.2817 48.0809 7.15341 48.7529C6.79753 48.9648 6.33721 48.8481 6.12527 48.4923C5.91332 48.1364 6.03 47.6761 6.38589 47.4641C7.28048 46.9313 7.7879 45.9957 7.81224 45.0232Z" fill="#84828B"/>
<path fill-rule="evenodd" clip-rule="evenodd" d="M48.0574 1.73897C48.2693 2.09485 48.1527 2.55516 47.7968 2.76711L28.5856 14.2081H50.7679C50.9539 13.2469 51.4569 12.3493 52.2349 11.6853L49.5052 7.10161C49.2932 6.74573 49.4099 6.28541 49.7658 6.07347C50.1217 5.86153 50.582 5.97822 50.7939 6.3341L53.875 11.5077C54.087 11.8636 53.9703 12.3239 53.6144 12.5359C52.7198 13.0687 52.2124 14.0043 52.1881 14.9768C52.1779 15.3836 51.8452 15.7081 51.4383 15.7081H25.8604C25.5228 15.7081 25.2269 15.4826 25.1373 15.1571C25.0477 14.8316 25.1866 14.4864 25.4767 14.3137L47.0293 1.47833C47.3851 1.26639 47.8455 1.38308 48.0574 1.73897Z" fill="#84828B"/>
<path fill-rule="evenodd" clip-rule="evenodd" d="M34.3945 22.98C34.3945 22.5658 34.7303 22.23 35.1445 22.23H42.2192C47.4999 22.23 51.7808 26.511 51.7808 31.7917V36.308C51.7808 37.7645 50.5923 38.953 49.1359 38.953H35.1445C34.7303 38.953 34.3945 38.6172 34.3945 38.203C34.3945 37.7888 34.7303 37.453 35.1445 37.453H49.1359C49.7638 37.453 50.2808 36.9361 50.2808 36.308V31.7917C50.2808 27.3394 46.6715 23.73 42.2192 23.73H35.1445C34.7303 23.73 34.3945 23.3942 34.3945 22.98Z" fill="#84828B"/>
<path fill-rule="evenodd" clip-rule="evenodd" d="M8.52734 32.5813C8.52734 32.1671 8.86313 31.8313 9.27734 31.8313H18.3734C18.7876 31.8313 19.1234 32.1671 19.1234 32.5813C19.1234 32.9955 18.7876 33.3313 18.3734 33.3313H10.0273V37.4531H23.3715V33.3313H22.4161C22.0018 33.3313 21.6661 32.9955 21.6661 32.5813C21.6661 32.1671 22.0018 31.8313 22.4161 31.8313H24.1215C24.5357 31.8313 24.8715 32.1671 24.8715 32.5813V38.2031C24.8715 38.6173 24.5357 38.9531 24.1215 38.9531H9.27734C8.86313 38.9531 8.52734 38.6173 8.52734 38.2031V32.5813Z" fill="#84828B"/>
<path fill-rule="evenodd" clip-rule="evenodd" d="M41.4297 22.2301C41.8439 22.2301 42.1797 22.5659 42.1797 22.9801V30.56C42.1797 30.9448 42.4977 31.2628 42.8825 31.2628H47.7467C48.1609 31.2628 48.4967 31.5986 48.4967 32.0128C48.4967 32.4271 48.1609 32.7628 47.7467 32.7628H42.8825C41.6693 32.7628 40.6797 31.7733 40.6797 30.56V22.9801C40.6797 22.5659 41.0155 22.2301 41.4297 22.2301Z" fill="#84828B"/>
<path fill-rule="evenodd" clip-rule="evenodd" d="M8.52734 22.9801C8.52734 22.5659 8.86313 22.2301 9.27734 22.2301H24.1216C24.5358 22.2301 24.8716 22.5659 24.8716 22.9801C24.8716 23.3943 24.5358 23.7301 24.1216 23.7301H9.27734C8.86313 23.7301 8.52734 23.3943 8.52734 22.9801Z" fill="#84828B"/>
<path fill-rule="evenodd" clip-rule="evenodd" d="M8.52734 27.907C8.52734 27.4928 8.86313 27.157 9.27734 27.157H24.1216C24.5358 27.157 24.8716 27.4928 24.8716 27.907C24.8716 28.3212 24.5358 28.657 24.1216 28.657H9.27734C8.86313 28.657 8.52734 28.3212 8.52734 27.907Z" fill="#84828B"/>
<path fill-rule="evenodd" clip-rule="evenodd" d="M29.6328 22.2301C30.047 22.2301 30.3828 22.5659 30.3828 22.9801V25.0008C30.3828 25.4151 30.047 25.7508 29.6328 25.7508C29.2186 25.7508 28.8828 25.4151 28.8828 25.0008V22.9801C28.8828 22.5659 29.2186 22.2301 29.6328 22.2301ZM29.6328 27.662C30.047 27.662 30.3828 27.9978 30.3828 28.412V38.2031C30.3828 38.6173 30.047 38.9531 29.6328 38.9531C29.2186 38.9531 28.8828 38.6173 28.8828 38.2031V28.412C28.8828 27.9978 29.2186 27.662 29.6328 27.662Z" fill="#84828B"/>
</svg>
