<svg width="60" height="60" viewBox="0 0 60 60" fill="none" xmlns="http://www.w3.org/2000/svg">
<g clip-path="url(#clip0_1420_7832)">
<path fill-rule="evenodd" clip-rule="evenodd" d="M48.4845 25.4854C52.6337 25.4854 55.9973 26.8942 55.9973 28.6321C55.9973 30.37 52.6337 31.7788 48.4845 31.7788C44.3353 31.7788 40.9717 30.3699 40.9717 28.6321C40.9717 26.8942 44.3353 25.4854 48.4845 25.4854Z" fill="#70AD13"/>
<path fill-rule="evenodd" clip-rule="evenodd" d="M55.8164 27.9428C55.9348 28.1646 55.9977 28.3953 55.9977 28.6321C55.9977 30.37 52.6341 31.7788 48.4848 31.7788C46.352 31.7788 44.4268 31.4065 43.0592 30.8086C42.9409 30.5867 42.8779 30.3561 42.8779 30.1192C42.8779 28.3814 46.2415 26.9726 50.3907 26.9726C52.5237 26.9726 54.4489 27.3449 55.8164 27.9428Z" fill="#84C225"/>
<path fill-rule="evenodd" clip-rule="evenodd" d="M42.0898 27.9402C41.803 28.2242 41.7217 28.4574 41.7217 28.6321C41.7217 28.8067 41.803 29.04 42.0898 29.324C42.3794 29.6107 42.8366 29.9034 43.4619 30.1653C44.7093 30.6878 46.4846 31.0288 48.4845 31.0288C50.4844 31.0288 52.2597 30.6878 53.5071 30.1654C54.1324 29.9035 54.5896 29.6107 54.8792 29.324C55.166 29.04 55.2473 28.8067 55.2473 28.6321C55.2473 28.4575 55.166 28.2242 54.8792 27.9402C54.5896 27.6535 54.1324 27.3607 53.5071 27.0988C52.2597 26.5764 50.4844 26.2354 48.4845 26.2354C46.4846 26.2354 44.7093 26.5764 43.4619 27.0988C42.8366 27.3607 42.3794 27.6534 42.0898 27.9402ZM42.8824 25.7153C44.3541 25.0989 46.3352 24.7354 48.4845 24.7354C50.6338 24.7354 52.6149 25.0989 54.0866 25.7153C54.8209 26.0228 55.4639 26.4081 55.9346 26.8743C56.4082 27.3432 56.7473 27.9378 56.7473 28.6321C56.7473 29.3264 56.4082 29.9209 55.9347 30.3898C55.4639 30.856 54.8209 31.2414 54.0866 31.5489C52.6149 32.1653 50.6338 32.5288 48.4845 32.5288C46.3352 32.5288 44.3541 32.1653 42.8824 31.5489C42.1481 31.2413 41.5051 30.856 41.0344 30.3898C40.5608 29.9209 40.2217 29.3264 40.2217 28.6321C40.2217 27.9378 40.5608 27.3432 41.0343 26.8743C41.5051 26.4081 42.1481 26.0228 42.8824 25.7153Z" fill="#26253C"/>
<path fill-rule="evenodd" clip-rule="evenodd" d="M48.458 0.775269C54.4042 0.775269 59.2245 5.59562 59.2245 11.5418C59.2245 17.4881 49.0108 28.3945 48.458 28.3945C47.9051 28.3945 37.6914 17.4881 37.6914 11.5418C37.6914 5.59558 42.5118 0.775269 48.458 0.775269ZM48.4841 7.23757C50.8613 7.23757 52.7884 9.16465 52.7884 11.5419C52.7884 13.9191 50.8613 15.8462 48.4841 15.8462C46.1068 15.8462 44.1797 13.9191 44.1797 11.5419C44.1797 9.16465 46.1068 7.23757 48.4841 7.23757Z" fill="#84828B"/>
<path fill-rule="evenodd" clip-rule="evenodd" d="M56.0346 3.89306C58.0042 5.84421 59.2246 8.55031 59.2246 11.5418C59.2246 17.0517 50.4563 26.8189 48.7293 28.2231C45.6035 24.8347 39.9707 17.6839 39.9707 13.2677C39.9707 7.32147 44.7911 2.50116 50.7373 2.50116C52.6631 2.50116 54.4705 3.0073 56.0346 3.89306H56.0346ZM48.4842 7.23757C50.8614 7.23757 52.7884 9.16465 52.7884 11.5419C52.7884 13.9191 50.8614 15.8462 48.4842 15.8462C46.1069 15.8462 44.1798 13.9191 44.1798 11.5419C44.1798 9.16465 46.1069 7.23757 48.4842 7.23757Z" fill="#D0CFD4"/>
<path fill-rule="evenodd" clip-rule="evenodd" d="M14.8225 51.0334C20.223 51.0334 24.601 52.8671 24.601 55.1291C24.601 57.3911 20.223 59.2248 14.8225 59.2248C9.42193 59.2248 5.04395 57.3911 5.04395 55.1291C5.04395 52.8672 9.42193 51.0334 14.8225 51.0334Z" fill="#70AD13"/>
<path fill-rule="evenodd" clip-rule="evenodd" d="M24.2071 53.9747C24.4635 54.3409 24.6017 54.7282 24.6017 55.1292C24.6017 57.3912 20.2237 59.2249 14.8231 59.2249C11.8597 59.2249 9.20437 58.6727 7.41117 57.8006C7.15478 57.4344 7.0166 57.0471 7.0166 56.6461C7.0166 54.3842 11.3946 52.5504 16.7951 52.5504C19.7586 52.5504 22.4139 53.1027 24.2071 53.9747Z" fill="#84C225"/>
<path fill-rule="evenodd" clip-rule="evenodd" d="M6.34012 54.0678C5.93866 54.4654 5.79395 54.8235 5.79395 55.1291C5.79395 55.4348 5.93867 55.7929 6.34012 56.1905C6.74433 56.5907 7.36746 56.9857 8.19775 57.3335C9.85516 58.0277 12.1969 58.4748 14.8225 58.4748C17.448 58.4748 19.7898 58.0277 21.4472 57.3335C22.2775 56.9857 22.9006 56.5907 23.3048 56.1904C23.7063 55.7929 23.851 55.4348 23.851 55.1291C23.851 54.8235 23.7063 54.4654 23.3048 54.0678C22.9006 53.6676 22.2775 53.2726 21.4472 52.9248C19.7898 52.2306 17.448 51.7834 14.8225 51.7834C12.1969 51.7834 9.85517 52.2306 8.19775 52.9248C7.36746 53.2726 6.74432 53.6676 6.34012 54.0678ZM7.61826 51.5413C9.49997 50.7531 12.0475 50.2834 14.8225 50.2834C17.5974 50.2834 20.145 50.7531 22.0267 51.5413C22.966 51.9347 23.7749 52.4223 24.3603 53.002C24.9485 53.5844 25.351 54.3038 25.351 55.1291C25.351 55.9545 24.9485 56.6738 24.3603 57.2563C23.7749 57.836 22.966 58.3236 22.0267 58.717C20.145 59.5051 17.5974 59.9748 14.8225 59.9748C12.0475 59.9748 9.49997 59.5052 7.61826 58.717C6.67898 58.3236 5.87009 57.836 5.28466 57.2563C4.69647 56.6738 4.29395 55.9545 4.29395 55.1291C4.29395 54.3038 4.69648 53.5845 5.28466 53.002C5.87009 52.4223 6.67898 51.9347 7.61826 51.5413Z" fill="#26253C"/>
<path fill-rule="evenodd" clip-rule="evenodd" d="M14.7889 18.8712C22.5284 18.8712 28.8025 25.1453 28.8025 32.8848C28.8025 40.6243 15.5086 54.8198 14.7889 54.8198C14.0693 54.8198 0.775391 40.6243 0.775391 32.8848C0.775391 25.1453 7.04946 18.8712 14.7889 18.8712ZM14.8229 27.2824C17.917 27.2824 20.4253 29.7906 20.4253 32.8848C20.4253 35.9789 17.917 38.4872 14.8229 38.4872C11.7288 38.4872 9.22051 35.9789 9.22051 32.8848C9.22051 29.7906 11.7288 27.2824 14.8229 27.2824Z" fill="#AB3C00"/>
<path fill-rule="evenodd" clip-rule="evenodd" d="M23.5731 21.9671C26.7614 24.5358 28.8021 28.4717 28.8021 32.8848C28.8021 39.9767 17.6417 52.4871 15.2199 54.5316C11.2966 50.3995 3.29492 40.5097 3.29492 34.5048C3.29492 26.7653 9.56899 20.4912 17.3085 20.4912C19.5604 20.4912 21.6877 21.0232 23.573 21.9671H23.5731ZM14.8225 27.2824C17.9166 27.2824 20.4248 29.7907 20.4248 32.8848C20.4248 35.979 17.9166 38.4872 14.8225 38.4872C11.7283 38.4872 9.22009 35.979 9.22009 32.8848C9.22009 29.7907 11.7283 27.2824 14.8225 27.2824Z" fill="#E77817"/>
<path fill-rule="evenodd" clip-rule="evenodd" d="M14.8231 28.0324C13.1663 28.0324 11.7074 28.8714 10.816 30.1472C10.5788 30.4867 10.1112 30.5697 9.77166 30.3324C9.43212 30.0952 9.34919 29.6276 9.58644 29.288C10.7385 27.6392 12.6426 26.5324 14.8231 26.5324C18.3314 26.5324 21.1755 29.3764 21.1755 32.8848C21.1755 36.3932 18.3314 39.2372 14.8231 39.2372C11.2943 39.2372 8.57757 36.3756 8.47106 32.9078C8.45835 32.4938 8.78367 32.1479 9.19769 32.1352C9.61171 32.1224 9.95764 32.4478 9.97036 32.8618C10.0538 35.5794 12.1636 37.7372 14.8231 37.7372C17.503 37.7372 19.6755 35.5647 19.6755 32.8848C19.6755 30.2049 17.503 28.0324 14.8231 28.0324Z" fill="#26253C"/>
<path fill-rule="evenodd" clip-rule="evenodd" d="M14.7889 19.6213C7.46367 19.6213 1.52539 25.5596 1.52539 32.8849C1.52539 34.6355 2.28748 36.8425 3.52927 39.2314C4.76069 41.6003 6.41851 44.0636 8.11063 46.3025C9.80114 48.5392 11.514 50.5362 12.8454 51.9707C13.5119 52.6887 14.0769 53.2595 14.4917 53.6464C14.6052 53.7522 14.7043 53.8414 14.7889 53.9145C14.8937 53.824 15.0198 53.7096 15.1665 53.5709C15.6286 53.134 16.2563 52.4923 16.9901 51.6913C18.4566 50.0904 20.3243 47.8776 22.1081 45.4411C22.3528 45.1069 22.8221 45.0343 23.1563 45.279C23.4906 45.5237 23.5631 45.993 23.3184 46.3272C21.4984 48.813 19.5952 51.0681 18.0962 52.7045C17.3472 53.5221 16.6935 54.1915 16.197 54.6609C15.9504 54.8941 15.7326 55.0874 15.5559 55.2267C15.4691 55.2953 15.3777 55.3623 15.2887 55.4159C15.2444 55.4426 15.1869 55.4744 15.121 55.5016C15.0672 55.5238 14.9452 55.5699 14.7889 55.5699C14.6404 55.5699 14.5239 55.5283 14.4697 55.5068C14.405 55.4812 14.3491 55.4511 14.3064 55.4261C14.2207 55.376 14.1344 55.314 14.0542 55.2519C13.8909 55.1257 13.692 54.9517 13.4686 54.7433C13.0187 54.3236 12.4271 53.7249 11.746 52.9911C10.3825 51.5221 8.63688 49.4865 6.91396 47.2069C5.19265 44.9294 3.48202 42.3927 2.19834 39.9232C0.925039 37.4737 0.0253906 35.004 0.0253906 32.8849C0.0253906 24.7312 6.63524 18.1213 14.7889 18.1213C22.9426 18.1213 29.5525 24.7312 29.5525 32.8849C29.5525 35.6483 28.0186 39.0379 26.0633 42.2487C25.8479 42.6025 25.3865 42.7146 25.0327 42.4992C24.6789 42.2838 24.5667 41.8223 24.7822 41.4686C26.7241 38.2795 28.0525 35.2002 28.0525 32.8849C28.0525 25.5596 22.1142 19.6213 14.7889 19.6213Z" fill="#26253C"/>
<path fill-rule="evenodd" clip-rule="evenodd" d="M37.6111 29.382C36.9549 29.382 36.3311 29.5125 35.7628 29.7482C35.3801 29.9069 34.9413 29.7253 34.7827 29.3427C34.624 28.9601 34.8056 28.5213 35.1882 28.3626C35.9355 28.0527 36.7543 27.882 37.6111 27.882C38.0254 27.882 38.3611 28.2178 38.3611 28.632C38.3611 29.0463 38.0254 29.382 37.6111 29.382ZM32.7426 31.3828C33.1252 31.5415 33.3067 31.9803 33.1481 32.3629C32.9124 32.9312 32.7819 33.5551 32.7819 34.2113C32.7819 34.8674 32.9124 35.4913 33.1481 36.0596C33.3067 36.4422 33.1252 36.881 32.7426 37.0397C32.3599 37.1984 31.9211 37.0168 31.7625 36.6342C31.4526 35.8869 31.2819 35.0681 31.2819 34.2113C31.2819 33.3544 31.4526 32.5356 31.7625 31.7883C31.9211 31.4057 32.3599 31.2241 32.7426 31.3828ZM34.7827 39.0798C34.9413 38.6972 35.3801 38.5157 35.7628 38.6743C36.3311 38.91 36.9549 39.0405 37.6111 39.0405L39.3542 39.0405C39.7684 39.0405 40.1042 39.3762 40.1042 39.7904C40.1042 40.2047 39.7684 40.5405 39.3542 40.5405L37.6111 40.5405C36.7543 40.5405 35.9355 40.3698 35.1882 40.0599C34.8056 39.9012 34.624 39.4624 34.7827 39.0798ZM49.8128 39.0404L51.5559 39.0404C52.1172 39.0404 52.6664 39.0955 53.1982 39.2007C53.6045 39.281 53.8688 39.6756 53.7884 40.0819C53.708 40.4883 53.3134 40.7525 52.9071 40.6721C52.4707 40.5858 52.0189 40.5404 51.5559 40.5404L49.8128 40.5404C49.3986 40.5404 49.0628 40.2046 49.0628 39.7904C49.0628 39.3762 49.3986 39.0404 49.8128 39.0404ZM42.8404 39.0404L46.3266 39.0404C46.7408 39.0404 47.0766 39.3762 47.0766 39.7904C47.0766 40.2046 46.7408 40.5404 46.3266 40.5404L42.8404 40.5404C42.4262 40.5404 42.0904 40.2047 42.0904 39.7904C42.0904 39.3762 42.4262 39.0404 42.8404 39.0404ZM55.1939 40.665C55.4243 40.3208 55.8902 40.2286 56.2344 40.459C57.1522 41.0735 57.9423 41.8635 58.5567 42.7814C58.7872 43.1256 58.6949 43.5914 58.3507 43.8218C58.0065 44.0523 57.5407 43.96 57.3103 43.6158C56.8049 42.8609 56.1548 42.2108 55.3999 41.7054C55.0557 41.475 54.9635 41.0092 55.1939 40.665ZM58.9338 45.2273C59.3401 45.147 59.7347 45.4112 59.8151 45.8175C59.9202 46.3493 59.9753 46.8985 59.9753 47.4599C59.9753 48.0212 59.9202 48.5704 59.815 49.1022C59.7347 49.5085 59.3401 49.7728 58.9338 49.6924C58.5274 49.612 58.2632 49.2174 58.3436 48.8111C58.4299 48.3747 58.4753 47.923 58.4753 47.4599C58.4753 46.9968 58.4299 46.5451 58.3436 46.1086C58.2632 45.7023 58.5274 45.3077 58.9338 45.2273ZM58.3507 51.0979C58.6949 51.3283 58.7872 51.7942 58.5567 52.1384C57.9422 53.0562 57.1522 53.8463 56.2344 54.4607C55.8902 54.6912 55.4243 54.5989 55.1939 54.2547C54.9635 53.9105 55.0557 53.4447 55.3999 53.2143C56.1548 52.7089 56.8049 52.0588 57.3103 51.3039C57.5407 50.9597 58.0065 50.8675 58.3507 51.0979ZM53.7884 54.8378C53.8688 55.2441 53.6045 55.6387 53.1982 55.7191C52.6664 55.8243 52.1172 55.8793 51.5559 55.8793H50.068C49.6538 55.8793 49.318 55.5435 49.318 55.1293C49.318 54.7151 49.6538 54.3793 50.068 54.3793H51.5559C52.0189 54.3793 52.4707 54.3339 52.9071 54.2476C53.3134 54.1672 53.708 54.4314 53.7884 54.8378ZM27 55.1293C27 54.7151 27.3358 54.3793 27.75 54.3793H29.2379C29.6521 54.3793 29.9879 54.7151 29.9879 55.1293C29.9879 55.5435 29.6521 55.8793 29.2379 55.8793H27.75C27.3358 55.8793 27 55.5435 27 55.1293ZM31.4636 55.1293C31.4636 54.7151 31.7994 54.3793 32.2136 54.3793H35.1893C35.6035 54.3793 35.9393 54.7151 35.9393 55.1293C35.9393 55.5435 35.6035 55.8793 35.1893 55.8793H32.2136C31.7994 55.8793 31.4636 55.5435 31.4636 55.1293ZM37.4151 55.1293C37.4151 54.7151 37.7509 54.3793 38.1651 54.3793H41.1408C41.555 54.3793 41.8908 54.7151 41.8908 55.1293C41.8908 55.5435 41.555 55.8793 41.1408 55.8793H38.1651C37.7509 55.8793 37.4151 55.5435 37.4151 55.1293ZM43.3665 55.1293C43.3665 54.7151 43.7023 54.3793 44.1165 54.3793H47.0923C47.5065 54.3793 47.8423 54.7151 47.8423 55.1293C47.8423 55.5435 47.5065 55.8793 47.0923 55.8793H44.1165C43.7023 55.8793 43.3665 55.5435 43.3665 55.1293Z" fill="#26253C"/>
<path fill-rule="evenodd" clip-rule="evenodd" d="M48.484 7.98749C46.521 7.98749 44.9297 9.57878 44.9297 11.5418C44.9297 13.5048 46.521 15.0961 48.484 15.0961C49.4416 15.0961 50.3095 14.7184 50.9493 14.1022C51.2476 13.8148 51.7224 13.8237 52.0098 14.1221C52.2971 14.4204 52.2882 14.8952 51.9898 15.1826C51.0818 16.0571 49.8451 16.5961 48.484 16.5961C45.6926 16.5961 43.4297 14.3332 43.4297 11.5418C43.4297 8.75035 45.6926 6.48749 48.484 6.48749C51.2754 6.48749 53.5383 8.75035 53.5383 11.5418C53.5383 11.956 53.2025 12.2918 52.7883 12.2918C52.3741 12.2918 52.0383 11.956 52.0383 11.5418C52.0383 9.57878 50.447 7.98749 48.484 7.98749Z" fill="#26253C"/>
<path fill-rule="evenodd" clip-rule="evenodd" d="M48.458 1.52527C44.3141 1.52527 40.7563 4.04173 39.2326 7.63273C39.0708 8.01404 38.6305 8.19199 38.2492 8.0302C37.8679 7.86841 37.69 7.42815 37.8518 7.04684C39.6022 2.92128 43.691 0.0252686 48.458 0.0252686C54.8184 0.0252686 59.9745 5.18141 59.9745 11.5418C59.9745 13.2126 59.2674 15.1406 58.2855 17.0295C57.2932 18.9385 55.9728 20.896 54.6469 22.6502C53.3194 24.4066 51.9745 25.975 50.9232 27.1077C50.3982 27.6732 49.9407 28.1365 49.5909 28.4627C49.4176 28.6244 49.2604 28.7621 49.1288 28.8639C49.0644 28.9136 48.9915 28.9663 48.9166 29.0102C48.8793 29.032 48.828 29.0597 48.7673 29.0838C48.7171 29.1037 48.6039 29.1445 48.458 29.1445C48.3121 29.1445 48.1989 29.1037 48.1487 29.0838C48.088 29.0597 48.0367 29.0321 47.9994 29.0102C47.9245 28.9663 47.8516 28.9137 47.7872 28.8639C47.6556 28.7621 47.4984 28.6244 47.3251 28.4627C46.9753 28.1365 46.5177 27.6732 45.9928 27.1077C44.9414 25.975 43.5965 24.4066 42.269 22.6502C40.9432 20.896 39.6228 18.9385 38.6305 17.0295C37.6485 15.1406 36.9414 13.2126 36.9414 11.5418C36.9414 11.1276 37.2772 10.7918 37.6914 10.7918C38.1056 10.7918 38.4414 11.1276 38.4414 11.5418C38.4414 12.8441 39.011 14.5094 39.9614 16.3377C40.9014 18.1461 42.169 20.0302 43.4657 21.7458C44.7608 23.4593 46.0729 24.9891 47.0922 26.0872C47.6025 26.6371 48.0336 27.0723 48.3482 27.3658C48.3872 27.4022 48.4238 27.4358 48.458 27.4667C48.4922 27.4358 48.5288 27.4022 48.5678 27.3658C48.8824 27.0724 49.3135 26.6371 49.8238 26.0872C50.843 24.9891 52.1552 23.4593 53.4502 21.7458C54.7469 20.0302 56.0145 18.1461 56.9545 16.3377C57.905 14.5094 58.4745 12.8441 58.4745 11.5418C58.4745 6.00983 53.99 1.52527 48.458 1.52527Z" fill="#26253C"/>
</g>
<defs>
<clipPath id="clip0_1420_7832">
<rect width="60" height="60" fill="white"/>
</clipPath>
</defs>
</svg>
