<svg width="60" height="60" viewBox="0 0 60 60" fill="none" xmlns="http://www.w3.org/2000/svg">
<g clip-path="url(#clip0_1420_7822)">
<path fill-rule="evenodd" clip-rule="evenodd" d="M17.6428 51.1922C17.7098 50.7834 18.0954 50.5063 18.5042 50.5733C20.3835 50.8811 22.0374 51.4245 23.244 52.1515C24.4192 52.8595 25.3509 53.8612 25.3509 55.1291C25.3509 55.9544 24.9484 56.6737 24.3602 57.2562C23.7748 57.8359 22.9659 58.3235 22.0266 58.7169C20.1449 59.5051 17.5974 59.9747 14.8224 59.9747C12.0475 59.9747 9.49995 59.5051 7.61824 58.7169C6.67897 58.3235 5.87008 57.8359 5.28465 57.2562C4.69647 56.6737 4.29395 55.9544 4.29395 55.1291C4.29395 53.8632 5.22289 52.8626 6.39522 52.1549C7.59863 51.4285 9.24822 50.885 11.1229 50.5762C11.5316 50.5089 11.9175 50.7856 11.9848 51.1943C12.0521 51.603 11.7754 51.9889 11.3667 52.0562C9.61052 52.3455 8.1597 52.8419 7.1704 53.4391C6.15002 54.055 5.79395 54.6618 5.79395 55.1291C5.79395 55.4347 5.93866 55.7928 6.34012 56.1904C6.74432 56.5906 7.36745 56.9856 8.19774 57.3334C9.85514 58.0276 12.1969 58.4747 14.8224 58.4747C17.448 58.4747 19.7897 58.0276 21.4471 57.3334C22.2774 56.9856 22.9005 56.5906 23.3047 56.1904C23.7062 55.7928 23.8509 55.4347 23.8509 55.1291C23.8509 54.6611 23.4936 54.0531 22.4699 53.4363C21.4775 52.8384 20.0224 52.342 18.2617 52.0535C17.853 51.9866 17.5759 51.6009 17.6428 51.1922Z" fill="#84828B"/>
<path fill-rule="evenodd" clip-rule="evenodd" d="M14.789 19.6212C7.46364 19.6212 1.52539 25.5595 1.52539 32.8848C1.52539 34.6354 2.28748 36.8424 3.52928 39.2313C4.76071 41.6002 6.41853 44.0635 8.11065 46.3024C9.80117 48.5391 11.514 50.5361 12.8455 51.9706C13.5119 52.6886 14.077 53.2594 14.4918 53.6463C14.6052 53.752 14.7043 53.8412 14.789 53.9144C14.8937 53.8239 15.0198 53.7095 15.1665 53.5708C15.6287 53.1339 16.2564 52.4922 16.9902 51.6912C18.4567 50.0903 20.3243 47.8775 22.1081 45.441C22.3528 45.1068 22.8221 45.0343 23.1563 45.279C23.4906 45.5237 23.5631 45.993 23.3184 46.3272C21.4984 48.813 19.5952 51.0681 18.0962 52.7044C17.3472 53.522 16.6935 54.1914 16.1971 54.6608C15.9504 54.894 15.7327 55.0873 15.556 55.2266C15.4691 55.2952 15.3777 55.3621 15.2887 55.4158C15.2445 55.4425 15.1869 55.4743 15.121 55.5015C15.0672 55.5237 14.9452 55.5698 14.789 55.5698C14.6404 55.5698 14.524 55.5282 14.4697 55.5067C14.4051 55.4811 14.3491 55.451 14.3064 55.426C14.2208 55.3758 14.1344 55.3138 14.0542 55.2518C13.8909 55.1255 13.6921 54.9516 13.4687 54.7432C13.0187 54.3235 12.4271 53.7248 11.7461 52.991C10.3825 51.522 8.63692 49.4864 6.914 47.2068C5.19268 44.9293 3.48203 42.3926 2.19836 39.9231C0.925045 37.4736 0.0253906 35.0039 0.0253906 32.8848C0.0253906 24.7311 6.63521 18.1212 14.789 18.1212C22.9426 18.1212 29.5525 24.731 29.5525 32.8848C29.5525 35.6482 28.0186 39.0378 26.0634 42.2486C25.8479 42.6024 25.3865 42.7146 25.0327 42.4992C24.6789 42.2837 24.5668 41.8223 24.7822 41.4685C26.7242 38.2794 28.0525 35.2002 28.0525 32.8848C28.0525 25.5595 22.1142 19.6212 14.789 19.6212Z" fill="#84828B"/>
<path fill-rule="evenodd" clip-rule="evenodd" d="M50.515 25.5833C50.583 25.1747 50.9693 24.8985 51.3779 24.9664C52.8261 25.2072 54.1111 25.6303 55.0564 26.2029C55.9711 26.7568 56.7473 27.5697 56.7473 28.6321C56.7473 29.3264 56.4082 29.9209 55.9346 30.3898C55.4638 30.856 54.8208 31.2414 54.0866 31.5489C52.6149 32.1653 50.6338 32.5287 48.4844 32.5287C46.3352 32.5287 44.3541 32.1653 42.8824 31.5489C42.1481 31.2413 41.5051 30.856 41.0344 30.3898C40.5608 29.9209 40.2217 29.3264 40.2217 28.6321C40.2217 27.5827 40.9796 26.7766 41.877 26.2245C42.803 25.6548 44.0621 25.2313 45.4825 24.9848C45.8906 24.914 46.2789 25.1874 46.3497 25.5955C46.4206 26.0036 46.1471 26.3919 45.739 26.4627C44.4361 26.6888 43.3756 27.0637 42.6629 27.5021C41.9216 27.9582 41.7217 28.3699 41.7217 28.6321C41.7217 28.8067 41.803 29.04 42.0898 29.324C42.3794 29.6107 42.8366 29.9034 43.4619 30.1653C44.7093 30.6878 46.4846 31.0287 48.4844 31.0287C50.4844 31.0287 52.2597 30.6878 53.5071 30.1654C54.1324 29.9035 54.5896 29.6107 54.8792 29.324C55.166 29.04 55.2473 28.8067 55.2473 28.6321C55.2473 28.3664 55.0414 27.9474 54.2794 27.4859C53.548 27.043 52.4618 26.6672 51.1319 26.4461C50.7233 26.3782 50.4471 25.9919 50.515 25.5833Z" fill="#84828B"/>
<path fill-rule="evenodd" clip-rule="evenodd" d="M48.458 1.52527C44.3141 1.52527 40.7563 4.04169 39.2327 7.63273C39.0709 8.01404 38.6306 8.192 38.2493 8.03021C37.868 7.86842 37.69 7.42816 37.8518 7.04685C39.6023 2.92125 43.6911 0.0252686 48.458 0.0252686C54.8184 0.0252686 59.9745 5.18137 59.9745 11.5418C59.9745 13.2126 59.2674 15.1405 58.2855 17.0295C57.2932 18.9385 55.9728 20.8959 54.6469 22.6502C53.3194 24.4066 51.9745 25.975 50.9232 27.1076C50.3983 27.6732 49.9407 28.1364 49.5909 28.4626C49.4176 28.6243 49.2604 28.7621 49.1288 28.8638C49.0644 28.9136 48.9915 28.9662 48.9166 29.0101C48.8793 29.032 48.828 29.0597 48.7673 29.0837C48.7171 29.1036 48.604 29.1444 48.458 29.1444C48.3121 29.1444 48.1989 29.1036 48.1487 29.0837C48.088 29.0597 48.0368 29.032 47.9994 29.0101C47.9245 28.9662 47.8516 28.9136 47.7872 28.8638C47.6556 28.7621 47.4984 28.6243 47.3251 28.4626C46.9753 28.1364 46.5177 27.6732 45.9928 27.1076C44.9415 25.975 43.5965 24.4065 42.269 22.6502C40.9432 20.8959 39.6228 18.9384 38.6305 17.0295C37.6485 15.1405 36.9414 13.2126 36.9414 11.5418C36.9414 11.1276 37.2772 10.7918 37.6914 10.7918C38.1056 10.7918 38.4414 11.1276 38.4414 11.5418C38.4414 12.8441 39.011 14.5093 39.9614 16.3377C40.9014 18.1461 42.169 20.0301 43.4657 21.7457C44.7608 23.4592 46.0729 24.9891 47.0922 26.0872C47.6025 26.637 48.0336 27.0723 48.3482 27.3657C48.3872 27.4021 48.4238 27.4357 48.458 27.4666C48.4922 27.4357 48.5288 27.4021 48.5678 27.3657C48.8824 27.0723 49.3135 26.637 49.8238 26.0872C50.843 24.9891 52.1552 23.4593 53.4502 21.7458C54.7469 20.0301 56.0145 18.1461 56.9545 16.3377C57.905 14.5093 58.4745 12.8441 58.4745 11.5418C58.4745 6.00979 53.99 1.52527 48.458 1.52527Z" fill="#84828B"/>
<path fill-rule="evenodd" clip-rule="evenodd" d="M14.8231 28.0323C13.1662 28.0323 11.7074 28.8714 10.816 30.1471C10.5788 30.4867 10.1112 30.5696 9.77163 30.3324C9.43209 30.0951 9.34916 29.6276 9.5864 29.288C10.7385 27.6392 12.6425 26.5323 14.8231 26.5323C18.3314 26.5323 21.1754 29.3764 21.1754 32.8847C21.1754 36.393 18.3314 39.2371 14.8231 39.2371C11.2944 39.2371 8.57751 36.3754 8.47106 32.9077C8.45835 32.4937 8.78368 32.1478 9.1977 32.1351C9.61172 32.1224 9.95765 32.4477 9.97036 32.8617C10.0538 35.5793 12.1636 37.7371 14.8231 37.7371C17.5029 37.7371 19.6754 35.5646 19.6754 32.8847C19.6754 30.2048 17.5029 28.0323 14.8231 28.0323Z" fill="#84828B"/>
<path fill-rule="evenodd" clip-rule="evenodd" d="M37.6111 29.382C37.2876 29.382 36.9723 29.4137 36.6678 29.4739C36.2615 29.5543 35.8669 29.2901 35.7865 28.8837C35.7061 28.4774 35.9704 28.0828 36.3767 28.0024C36.7766 27.9233 37.1894 27.882 37.6111 27.882C38.0253 27.882 38.3611 28.2178 38.3611 28.632C38.3611 29.0462 38.0253 29.382 37.6111 29.382ZM35.1344 29.1545C35.3649 29.4987 35.2726 29.9645 34.9284 30.1949C34.4015 30.5477 33.9476 31.0016 33.5949 31.5285C33.3644 31.8727 32.8986 31.9649 32.5544 31.7345C32.2102 31.5041 32.118 31.0382 32.3484 30.694C32.8103 30.0042 33.4041 29.4103 34.094 28.9485C34.4382 28.718 34.904 28.8103 35.1344 29.1545ZM32.2837 32.3866C32.69 32.467 32.9542 32.8615 32.8739 33.2679C32.8136 33.5724 32.7819 33.8877 32.7819 34.2112C32.7819 34.5347 32.8136 34.85 32.8739 35.1545C32.9542 35.5608 32.69 35.9554 32.2837 36.0358C31.8773 36.1162 31.4828 35.8519 31.4024 35.4456C31.3233 35.0457 31.2819 34.6329 31.2819 34.2112C31.2819 33.7894 31.3233 33.3766 31.4024 32.9768C31.4828 32.5704 31.8773 32.3062 32.2837 32.3866ZM32.5544 36.6879C32.8986 36.4574 33.3644 36.5497 33.5949 36.8939C33.9476 37.4208 34.4015 37.8747 34.9284 38.2274C35.2726 38.4579 35.3649 38.9237 35.1344 39.2679C34.904 39.6121 34.4382 39.7043 34.094 39.4739C33.4041 39.012 32.8103 38.4182 32.3484 37.7283C32.118 37.3841 32.2102 36.9183 32.5544 36.6879ZM35.7865 39.5386C35.8669 39.1323 36.2615 38.8681 36.6678 38.9484C36.9723 39.0087 37.2876 39.0404 37.6111 39.0404L38.7732 39.0404C39.1874 39.0404 39.5232 39.3762 39.5232 39.7904C39.5232 40.2046 39.1874 40.5404 38.7732 40.5404L37.6111 40.5404C37.1894 40.5404 36.7766 40.499 36.3767 40.4199C35.9704 40.3395 35.7061 39.945 35.7865 39.5386ZM50.3937 39.0403L51.5558 39.0403C51.9278 39.0403 52.2946 39.0645 52.6545 39.1114C53.0652 39.165 53.3548 39.5414 53.3012 39.9521C53.2476 40.3629 52.8712 40.6524 52.4605 40.5988C52.1647 40.5602 51.8628 40.5403 51.5558 40.5403L50.3938 40.5403C49.9795 40.5403 49.6437 40.2045 49.6437 39.7903C49.6437 39.3761 49.9795 39.0403 50.3937 39.0403ZM45.7455 39.0403L48.0696 39.0403C48.4838 39.0403 48.8196 39.3761 48.8196 39.7903C48.8196 40.2045 48.4839 40.5403 48.0696 40.5403L45.7455 40.5403C45.3313 40.5403 44.9955 40.2045 44.9955 39.7903C44.9955 39.3761 45.3313 39.0403 45.7455 39.0403ZM41.0973 39.0404L43.4214 39.0403C43.8356 39.0403 44.1714 39.3761 44.1714 39.7903C44.1714 40.2046 43.8356 40.5403 43.4214 40.5403L41.0973 40.5404C40.6831 40.5404 40.3473 40.2046 40.3473 39.7904C40.3473 39.3762 40.6831 39.0404 41.0973 39.0404ZM53.7988 40.085C53.9574 39.7023 54.3962 39.5208 54.7789 39.6795C55.4637 39.9635 56.1027 40.3351 56.6818 40.7801C57.0103 41.0325 57.0719 41.5034 56.8195 41.8318C56.5671 42.1603 56.0963 42.2219 55.7678 41.9695C55.2915 41.6034 54.7664 41.2982 54.2043 41.0651C53.8217 40.9064 53.6401 40.4676 53.7988 40.085ZM57.1837 42.196C57.5122 41.9436 57.983 42.0053 58.2354 42.3337C58.6804 42.9129 59.052 43.5518 59.336 44.2367C59.4947 44.6193 59.3131 45.0581 58.9305 45.2168C58.5479 45.3755 58.1091 45.1939 57.9504 44.8113C57.7173 44.2491 57.4121 43.7241 57.046 43.2477C56.7936 42.9193 56.8553 42.4484 57.1837 42.196ZM59.0634 45.7144C59.4741 45.6608 59.8505 45.9503 59.9041 46.3611C59.951 46.721 59.9752 47.0877 59.9752 47.4598C59.9752 47.8318 59.951 48.1985 59.9041 48.5585C59.8505 48.9692 59.4741 49.2587 59.0634 49.2052C58.6526 49.1516 58.3631 48.7752 58.4167 48.3644C58.4552 48.0687 58.4752 47.7667 58.4752 47.4598C58.4752 47.1528 58.4552 46.8508 58.4167 46.5551C58.3631 46.1443 58.6526 45.7679 59.0634 45.7144ZM58.9305 49.7027C59.3131 49.8614 59.4947 50.3002 59.336 50.6828C59.052 51.3677 58.6804 52.0066 58.2354 52.5858C57.983 52.9142 57.5121 52.9758 57.1837 52.7234C56.8553 52.4711 56.7936 52.0002 57.046 51.6718C57.4121 51.1954 57.7173 50.6703 57.9504 50.1082C58.1091 49.7256 58.5479 49.544 58.9305 49.7027ZM56.8195 53.0877C57.0719 53.4161 57.0102 53.8869 56.6818 54.1393C56.1027 54.5844 55.4637 54.956 54.7788 55.24C54.3962 55.3986 53.9574 55.2171 53.7988 54.8345C53.6401 54.4519 53.8216 54.0131 54.2043 53.8544C54.7664 53.6213 55.2914 53.316 55.7678 52.95C56.0962 52.6976 56.5671 52.7592 56.8195 53.0877ZM53.3012 54.9673C53.3548 55.378 53.0652 55.7544 52.6545 55.808C52.2946 55.855 51.9278 55.8791 51.5558 55.8791H50.5639C50.1497 55.8791 49.8139 55.5434 49.8139 55.1291C49.8139 54.7149 50.1497 54.3791 50.5639 54.3791H51.5558C51.8628 54.3791 52.1647 54.3592 52.4605 54.3206C52.8712 54.267 53.2476 54.5566 53.3012 54.9673ZM27 55.1291C27 54.7149 27.3358 54.3791 27.75 54.3791H28.7419C29.1561 54.3791 29.4919 54.7149 29.4919 55.1291C29.4919 55.5434 29.1561 55.8791 28.7419 55.8791H27.75C27.3358 55.8791 27 55.5434 27 55.1291ZM29.9757 55.1291C29.9757 54.7149 30.3115 54.3791 30.7257 54.3791H32.7095C33.1238 54.3791 33.4595 54.7149 33.4595 55.1291C33.4595 55.5434 33.1238 55.8791 32.7095 55.8791H30.7257C30.3115 55.8791 29.9757 55.5434 29.9757 55.1291ZM33.9434 55.1291C33.9434 54.7149 34.2791 54.3791 34.6934 54.3791H36.6772C37.0914 54.3791 37.4272 54.7149 37.4272 55.1291C37.4272 55.5434 37.0914 55.8791 36.6772 55.8791H34.6934C34.2791 55.8791 33.9434 55.5434 33.9434 55.1291ZM37.911 55.1291C37.911 54.7149 38.2468 54.3791 38.661 54.3791H40.6448C41.059 54.3791 41.3948 54.7149 41.3948 55.1291C41.3948 55.5434 41.059 55.8791 40.6448 55.8791H38.661C38.2468 55.8791 37.911 55.5434 37.911 55.1291ZM41.8786 55.1291C41.8786 54.7149 42.2144 54.3791 42.6286 54.3791H44.6124C45.0267 54.3791 45.3624 54.7149 45.3624 55.1291C45.3624 55.5434 45.0267 55.8791 44.6124 55.8791H42.6286C42.2144 55.8791 41.8786 55.5434 41.8786 55.1291ZM45.8463 55.1291C45.8463 54.7149 46.182 54.3791 46.5963 54.3791H48.5801C48.9943 54.3791 49.3301 54.7149 49.3301 55.1291C49.3301 55.5434 48.9943 55.8791 48.5801 55.8791H46.5963C46.182 55.8791 45.8463 55.5434 45.8463 55.1291Z" fill="#84828B"/>
<path fill-rule="evenodd" clip-rule="evenodd" d="M48.484 7.98755C46.521 7.98755 44.9297 9.57882 44.9297 11.5418C44.9297 13.5048 46.521 15.0961 48.484 15.0961C49.4416 15.0961 50.3095 14.7183 50.9493 14.1021C51.2476 13.8148 51.7224 13.8237 52.0098 14.122C52.2971 14.4204 52.2882 14.8952 51.9899 15.1825C51.0818 16.0571 49.845 16.5961 48.484 16.5961C45.6926 16.5961 43.4297 14.3332 43.4297 11.5418C43.4297 8.75035 45.6926 6.48755 48.484 6.48755C51.2754 6.48755 53.5382 8.75047 53.5382 11.5418C53.5382 11.956 53.2025 12.2918 52.7882 12.2918C52.374 12.2918 52.0382 11.956 52.0382 11.5418C52.0382 9.57888 50.447 7.98755 48.484 7.98755Z" fill="#84828B"/>
</g>
<defs>
<clipPath id="clip0_1420_7822">
<rect width="60" height="60" fill="white"/>
</clipPath>
</defs>
</svg>
