<svg width="60" height="60" viewBox="0 0 60 60" fill="none" xmlns="http://www.w3.org/2000/svg">
<g clip-path="url(#clip0_1420_7541)">
<path fill-rule="evenodd" clip-rule="evenodd" d="M52.49 0.208468C52.6454 0.343148 52.7386 0.535706 52.748 0.741107C52.8337 2.62724 52.8455 4.40316 52.7815 6.066C52.7655 6.47991 52.417 6.80252 52.0031 6.78657C51.5892 6.77063 51.2666 6.42216 51.2826 6.00825C51.3358 4.62601 51.3353 3.15718 51.2814 1.60273C42.7733 2.52247 37.1836 4.66437 34.4409 7.935C33.2609 9.34204 32.1822 11.2278 31.7237 13.245C31.6319 13.6489 31.23 13.902 30.8261 13.8101C30.4222 13.7183 30.1692 13.3165 30.261 12.9126C30.7831 10.6158 31.9929 8.51973 33.2915 6.97116L33.2915 6.97116C36.5262 3.11396 42.9177 0.904769 51.9261 0.0287013C52.1308 0.00879929 52.3346 0.0737881 52.49 0.208468ZM51.6609 10.3731C52.0693 10.4419 52.3446 10.8288 52.2758 11.2373C51.6349 15.0415 50.4125 18.0603 48.5202 20.1724C46.9532 21.9214 44.6277 23.6666 41.9528 24.3774C39.2384 25.0987 36.1948 24.7415 33.3338 22.3203L33.3204 22.3087C31.8706 21.0214 30.9499 19.5973 30.4525 18.1181C30.3204 17.7255 30.5317 17.3002 30.9243 17.1681C31.3169 17.0361 31.7422 17.2474 31.8742 17.64C32.2817 18.8517 33.0453 20.0566 34.3096 21.1811C36.7652 23.2557 39.2916 23.5325 41.5676 22.9277C43.8853 22.3118 45.9721 20.7685 47.403 19.1714L47.9616 19.6719L47.403 19.1714C49.0379 17.3467 50.1824 14.634 50.7967 10.9881C50.8655 10.5796 51.2524 10.3043 51.6609 10.3731Z" fill="#84828B"/>
<path fill-rule="evenodd" clip-rule="evenodd" d="M24.1364 6.69091C24.3324 6.62868 24.5453 6.64963 24.7254 6.74886C28.6129 8.89106 31.1785 11.1824 31.9314 13.6951C32.2758 14.8448 32.4224 16.3386 32.0094 17.7258C31.5846 19.1523 30.5732 20.4319 28.7055 21.0496L28.6885 21.055C26.8067 21.628 25.2423 21.1664 24.0724 20.2463C22.9347 19.3515 22.1925 18.0468 21.8106 16.909L22.5216 16.6704L21.8106 16.909C20.9759 14.4223 21.7495 11.0706 23.6888 7.07805C23.7787 6.8931 23.9405 6.75314 24.1364 6.69091ZM24.697 8.45622C23.0625 12.029 22.6393 14.664 23.2327 16.4317C23.5496 17.376 24.1525 18.401 24.9997 19.0673C25.813 19.707 26.8707 20.0378 28.243 19.6226C29.6034 19.17 30.2764 18.2895 30.5717 17.2978C30.8793 16.2648 30.7804 15.0798 30.4945 14.1256C29.9593 12.3395 28.0934 10.4314 24.697 8.45622Z" fill="#84828B"/>
<path fill-rule="evenodd" clip-rule="evenodd" d="M8.16474 21.1488C11.5472 20.4127 14.4623 20.1402 16.8643 20.386C17.2764 20.4281 17.5763 20.7963 17.5341 21.2084C17.4919 21.6205 17.1237 21.9203 16.7117 21.8782C14.701 21.6725 12.2175 21.8609 9.26354 22.4516C10.7695 27.636 12.7037 30.8126 14.9701 32.1376L14.9701 32.1376C16.1442 32.824 17.6943 33.3435 19.1886 33.2665C20.6399 33.1917 22.0681 32.5579 23.127 30.8634C24.1409 29.1416 24.0435 27.5822 23.4397 26.2605C22.8179 24.8995 21.6412 23.7645 20.4902 23.04C20.1396 22.8194 20.0343 22.3564 20.255 22.0058C20.4756 21.6552 20.9387 21.5499 21.2892 21.7706C22.6129 22.6037 24.0286 23.94 24.804 25.6371C25.5964 27.3715 25.7015 29.4542 24.414 31.6339L24.4048 31.6492C23.0659 33.7977 21.1701 34.6664 19.2658 34.7645C17.4024 34.8605 15.5634 34.2219 14.2131 33.4325C11.289 31.7231 9.15035 27.7719 7.60055 22.0786C7.54655 21.8802 7.57636 21.6684 7.68302 21.4926C7.78968 21.3168 7.96383 21.1925 8.16474 21.1488Z" fill="#84828B"/>
<path fill-rule="evenodd" clip-rule="evenodd" d="M16.9936 50.9829C16.9936 48.376 19.1234 46.2461 21.7303 46.2461H38.2706C40.8775 46.2461 43.0073 48.376 43.0073 50.9829V52.0785H46.234C48.8409 52.0785 50.9706 54.2083 50.9706 56.8152V59.2247C50.9706 59.6389 50.6348 59.9747 50.2206 59.9747C49.8064 59.9747 49.4706 59.6389 49.4706 59.2247V56.8152C49.4706 55.0367 48.0124 53.5785 46.234 53.5785H42.2573C41.8431 53.5785 41.5073 53.2427 41.5073 52.8285V50.9829C41.5073 49.2044 40.0491 47.7461 38.2706 47.7461H21.7303C19.9519 47.7461 18.4936 49.2044 18.4936 50.9829V52.8285C18.4936 53.2427 18.1578 53.5785 17.7436 53.5785H13.767C11.9885 53.5785 10.5303 55.0367 10.5303 56.8152V59.2247C10.5303 59.6389 10.1945 59.9747 9.78027 59.9747C9.36606 59.9747 9.03027 59.6389 9.03027 59.2247V56.8152C9.03027 54.2083 11.1601 52.0785 13.767 52.0785H16.9936V50.9829Z" fill="#84828B"/>
<path fill-rule="evenodd" clip-rule="evenodd" d="M20.6466 27.9108C20.8013 28.2951 20.6153 28.732 20.231 28.8867L17.3975 30.0277C17.0133 30.1824 16.5764 29.9964 16.4217 29.6122C16.267 29.2279 16.453 28.791 16.8372 28.6363L19.6707 27.4953C20.055 27.3406 20.4919 27.5266 20.6466 27.9108Z" fill="#84828B"/>
<path d="M36.3832 51.7375C36.8812 51.7375 37.2849 51.3337 37.2849 50.8357C37.2849 50.3377 36.8812 49.934 36.3832 49.934C35.8852 49.934 35.4814 50.3377 35.4814 50.8357C35.4814 51.3337 35.8852 51.7375 36.3832 51.7375Z" fill="#84828B"/>
<path d="M44.0716 56.9343C44.5696 56.9343 44.9733 56.5306 44.9733 56.0326C44.9733 55.5346 44.5696 55.1309 44.0716 55.1309C43.5736 55.1309 43.1699 55.5346 43.1699 56.0326C43.1699 56.5306 43.5736 56.9343 44.0716 56.9343Z" fill="#84828B"/>
<path d="M29.9408 54.6659C30.4388 54.6659 30.8425 54.2622 30.8425 53.7642C30.8425 53.2662 30.4388 52.8625 29.9408 52.8625C29.4428 52.8625 29.0391 53.2662 29.0391 53.7642C29.0391 54.2622 29.4428 54.6659 29.9408 54.6659Z" fill="#84828B"/>
<path d="M14.9017 56.8971C15.3997 56.8971 15.8034 56.4934 15.8034 55.9954C15.8034 55.4974 15.3997 55.0937 14.9017 55.0937C14.4037 55.0937 14 55.4974 14 55.9954C14 56.4934 14.4037 56.8971 14.9017 56.8971Z" fill="#84828B"/>
<path fill-rule="evenodd" clip-rule="evenodd" d="M43.0376 10.3555C43.3417 10.6368 43.3602 11.1113 43.0789 11.4154C37.0339 17.9515 33.9879 22.6269 32.4231 27.726C30.8493 32.8543 30.75 38.4739 30.75 46.9962C30.75 47.4104 30.4142 47.7462 30 47.7462C29.5858 47.7462 29.25 47.4104 29.25 46.9962C29.25 38.5223 29.3374 32.668 30.9891 27.2859C32.6497 21.8747 35.8679 17.0031 41.9777 10.3969C42.259 10.0928 42.7335 10.0743 43.0376 10.3555Z" fill="#84828B"/>
<path fill-rule="evenodd" clip-rule="evenodd" d="M14.5676 25.7695C14.7074 25.3796 15.1368 25.1768 15.5267 25.3166C19.8414 26.8634 23.5343 29.1916 26.2091 32.708C28.8854 36.2267 30.4937 40.8713 30.7491 46.9648C30.7664 47.3786 30.445 47.7282 30.0311 47.7455C29.6173 47.7629 29.2677 47.4414 29.2504 47.0276C29.005 41.171 27.4679 36.8408 25.0152 33.6161C22.5608 30.3894 19.1411 28.2058 15.0205 26.7286C14.6306 26.5889 14.4279 26.1595 14.5676 25.7695Z" fill="#84828B"/>
<path fill-rule="evenodd" clip-rule="evenodd" d="M26.6226 14.3785C27.0051 14.2195 27.444 14.4008 27.603 14.7833C30.0194 20.5997 31.3877 26.4427 31.3946 32.3054C31.3951 32.7196 31.0597 33.0558 30.6455 33.0563C30.2313 33.0568 29.8951 32.7214 29.8946 32.3072C29.888 26.6799 28.575 21.0326 26.2177 15.3588C26.0588 14.9763 26.2401 14.5374 26.6226 14.3785Z" fill="#84828B"/>
<path fill-rule="evenodd" clip-rule="evenodd" d="M37.4544 10.5335C37.8655 10.4835 38.2394 10.7762 38.2895 11.1874L38.8653 15.9166C38.9153 16.3278 38.6226 16.7017 38.2114 16.7518C37.8003 16.8018 37.4263 16.5091 37.3763 16.0979L36.8005 11.3687C36.7504 10.9575 37.0432 10.5836 37.4544 10.5335Z" fill="#84828B"/>
<path fill-rule="evenodd" clip-rule="evenodd" d="M0.0253906 59.2247C0.0253906 58.8105 0.361177 58.4747 0.775391 58.4747H36.3815C36.7958 58.4747 37.1315 58.8105 37.1315 59.2247C37.1315 59.6389 36.7958 59.9747 36.3815 59.9747H0.775391C0.361177 59.9747 0.0253906 59.6389 0.0253906 59.2247Z" fill="#84828B"/>
<path fill-rule="evenodd" clip-rule="evenodd" d="M40.4658 59.2247C40.4658 58.8105 40.8016 58.4747 41.2158 58.4747H59.225C59.6392 58.4747 59.975 58.8105 59.975 59.2247C59.975 59.6389 59.6392 59.9747 59.225 59.9747H41.2158C40.8016 59.9747 40.4658 59.6389 40.4658 59.2247Z" fill="#84828B"/>
</g>
<defs>
<clipPath id="clip0_1420_7541">
<rect width="60" height="60" fill="white"/>
</clipPath>
</defs>
</svg>
