<svg width="60" height="60" viewBox="0 0 60 60" fill="none" xmlns="http://www.w3.org/2000/svg">
<g clip-path="url(#clip0_1420_7559)">
<path fill-rule="evenodd" clip-rule="evenodd" d="M46.234 52.8286H42.2573V50.983C42.2573 48.7903 40.4633 46.9963 38.2706 46.9963H21.7303C19.5376 46.9963 17.7436 48.7903 17.7436 50.983V52.8286H13.767C11.5743 52.8286 9.78027 54.6226 9.78027 56.8153V59.2247H50.2206V56.8153C50.2206 54.6226 48.4266 52.8286 46.234 52.8286H46.234Z" fill="#995F30"/>
<path fill-rule="evenodd" clip-rule="evenodd" d="M46.2341 52.8286H42.2574V50.983C42.2574 48.7903 40.4634 46.9963 38.2707 46.9963H26.5369C24.3442 46.9963 22.5502 48.7903 22.5502 50.983V52.8286H18.5737C16.3809 52.8286 14.5869 54.6226 14.5869 56.8153V59.2247H50.2208V56.8153C50.2208 54.6226 48.4268 52.8286 46.2342 52.8286H46.2341Z" fill="#A86D38"/>
<path fill-rule="evenodd" clip-rule="evenodd" d="M33.8188 21.7478C39.1374 26.2488 44.9641 23.0181 47.9621 19.6719C51.1094 16.159 52.409 9.7889 51.9992 0.775208C43.0185 1.6486 36.8973 3.83907 33.8666 7.45306C30.9798 10.8955 28.6085 17.1217 33.8187 21.7478H33.8188Z" fill="#70AD13"/>
<path fill-rule="evenodd" clip-rule="evenodd" d="M41.2513 23.7728C43.9559 23.2107 46.3621 21.458 47.9624 19.6719C51.0295 16.2486 52.3416 10.1114 52.0271 1.45898C45.2556 2.54886 40.5279 4.58014 37.9818 7.61629C35.095 11.0588 32.7238 17.2849 37.934 21.9111C39.0279 22.8369 40.1434 23.435 41.2513 23.7728H41.2513Z" fill="#84C225"/>
<path fill-rule="evenodd" clip-rule="evenodd" d="M52.4903 0.208498C52.6457 0.343178 52.7389 0.535736 52.7483 0.741137C52.8341 2.62733 52.8459 4.4032 52.7818 6.06605C52.7659 6.47996 52.4174 6.80257 52.0035 6.78662C51.5896 6.77068 51.267 6.42221 51.2829 6.00831C51.3362 4.62605 51.3357 3.15725 51.2817 1.60276C42.7737 2.52252 37.1839 4.66437 34.4412 7.93499C33.0633 9.57804 31.8318 11.8628 31.551 14.2444C31.2753 16.5832 31.9078 19.0448 34.3099 21.1811C36.7654 23.2557 39.2919 23.5325 41.5679 22.9277C43.8855 22.3118 45.9724 20.7685 47.4033 19.1714L47.9619 19.6719L47.4033 19.1714C49.0382 17.3467 50.1827 14.634 50.797 10.988C50.8658 10.5796 51.2527 10.3042 51.6612 10.3731C52.0696 10.4419 52.3449 10.8288 52.2761 11.2372C51.6352 15.0416 50.4128 18.0603 48.5205 20.1724C46.9534 21.9214 44.6279 23.6666 41.9531 24.3774C39.2387 25.0987 36.1951 24.7415 33.3341 22.3203L33.3206 22.3087C30.518 19.8202 29.7325 16.8581 30.0613 14.0688C30.3853 11.3201 31.7828 8.77056 33.2918 6.97114L33.8665 7.45307L33.2918 6.97114C36.5265 3.11395 42.9181 0.904818 51.9265 0.028732C52.1311 0.00882949 52.3349 0.073818 52.4903 0.208498Z" fill="#26253C"/>
<path fill-rule="evenodd" clip-rule="evenodd" d="M28.47 20.3375C31.7038 19.2681 31.8432 16.0142 31.2129 13.9104C30.5512 11.7017 28.2265 9.53454 24.3634 7.4057C22.4363 11.3732 21.7879 14.4846 22.5216 16.6703C23.2205 18.7524 25.2117 21.3297 28.47 20.3375H28.47Z" fill="#70AD13"/>
<path fill-rule="evenodd" clip-rule="evenodd" d="M29.8205 19.6504C31.7289 18.2326 31.7406 15.6696 31.2135 13.9104C30.7795 12.4618 29.6301 11.0309 27.8005 9.61713C26.795 12.3347 26.5492 14.5435 27.1095 16.2125C27.5353 17.4811 28.4409 18.9335 29.8205 19.6504V19.6504Z" fill="#84C225"/>
<path fill-rule="evenodd" clip-rule="evenodd" d="M24.1365 6.69088C24.3324 6.62865 24.5453 6.6496 24.7254 6.74884C28.6129 8.89112 31.1785 11.1824 31.9314 13.6951C32.2758 14.8448 32.4223 16.3386 32.0093 17.7259C31.585 19.151 30.5751 20.4295 28.7107 21.0478C28.7034 21.0503 28.696 21.0527 28.6885 21.055C26.8067 21.628 25.2423 21.1664 24.0724 20.2463C22.9347 19.3515 22.1925 18.0468 21.8106 16.909C20.9759 14.4223 21.7495 11.0706 23.6888 7.07802C23.7787 6.89307 23.9405 6.75311 24.1365 6.69088ZM28.2425 19.6228C29.6033 19.1702 30.2764 18.2897 30.5717 17.2978C30.8793 16.2648 30.7804 15.0798 30.4945 14.1257C29.9593 12.3394 28.0933 10.4314 24.697 8.45621C23.0626 12.029 22.6393 14.664 23.2327 16.4317L22.5216 16.6703L23.2327 16.4317C23.5496 17.376 24.1525 18.4009 24.9997 19.0673C25.813 19.7069 26.8705 20.0377 28.2425 19.6228Z" fill="#26253C"/>
<path fill-rule="evenodd" clip-rule="evenodd" d="M23.7683 31.2525C26.0745 27.3479 23.3645 23.9629 20.8897 22.4053C18.2917 20.7701 14.0625 20.6329 8.32422 21.8816C9.86666 27.548 11.9414 31.2358 14.5916 32.785C17.116 34.2608 21.37 35.1013 23.7683 31.2525L23.7683 31.2525Z" fill="#70AD13"/>
<path fill-rule="evenodd" clip-rule="evenodd" d="M23.7684 31.2525C26.0746 27.3479 23.3646 23.9629 20.8898 22.4053C19.6643 21.634 18.0756 21.1961 16.137 21.0796C15.1175 21.2174 14.0378 21.4105 12.8984 21.6584C14.4409 27.3248 16.5157 31.0126 19.1659 32.5619C19.8032 32.9344 20.5509 33.2664 21.3511 33.4928C22.2521 33.0637 23.0855 32.3484 23.7684 31.2525V31.2525Z" fill="#84C225"/>
<path fill-rule="evenodd" clip-rule="evenodd" d="M8.16474 21.1488C11.5472 20.4127 14.4622 20.1402 16.8643 20.3859C17.2764 20.4281 17.5762 20.7963 17.5341 21.2084C17.4919 21.6204 17.1237 21.9203 16.7116 21.8781C14.7009 21.6724 12.2175 21.8608 9.26354 22.4516C10.7695 27.636 12.7037 30.8127 14.9701 32.1376L14.9701 32.1376C16.1443 32.824 17.6944 33.3435 19.1887 33.2665C20.6399 33.1917 22.0681 32.5579 23.127 30.8634C24.141 29.1416 24.0435 27.5822 23.4397 26.2604C22.8179 24.8994 21.6412 23.7645 20.4902 23.04C20.1396 22.8194 20.0343 22.3563 20.2549 22.0058C20.4756 21.6552 20.9386 21.5499 21.2892 21.7705C22.6129 22.6037 24.0286 23.94 24.804 25.6371C25.5964 27.3714 25.7015 29.4541 24.4141 31.6339L24.4048 31.6491C23.066 33.7977 21.1701 34.6664 19.2658 34.7645C17.4025 34.8605 15.5634 34.2219 14.2131 33.4325C11.2889 31.7231 9.15031 27.7719 7.60055 22.0786C7.54655 21.8802 7.57636 21.6684 7.68302 21.4926C7.78968 21.3168 7.96383 21.1925 8.16474 21.1488Z" fill="#26253C"/>
<path fill-rule="evenodd" clip-rule="evenodd" d="M20.6475 27.9109C20.8023 28.2951 20.6162 28.732 20.232 28.8867L17.3985 30.0277C17.0143 30.1825 16.5774 29.9964 16.4227 29.6122C16.2679 29.228 16.454 28.791 16.8382 28.6363L19.6717 27.4953C20.0559 27.3406 20.4928 27.5266 20.6475 27.9109Z" fill="#26253C"/>
<path fill-rule="evenodd" clip-rule="evenodd" d="M16.9936 50.983C16.9936 48.3761 19.1234 46.2463 21.7303 46.2463H38.2706C40.8775 46.2463 43.0073 48.3761 43.0073 50.983V52.0786H46.2339C48.8408 52.0786 50.9706 54.2084 50.9706 56.8153V59.2247C50.9706 59.6389 50.6348 59.9747 50.2206 59.9747C49.8064 59.9747 49.4706 59.6389 49.4706 59.2247V56.8153C49.4706 55.0368 48.0124 53.5786 46.2339 53.5786H42.2573C41.8431 53.5786 41.5073 53.2428 41.5073 52.8286V50.983C41.5073 49.2045 40.0491 47.7463 38.2706 47.7463H21.7303C19.9518 47.7463 18.4936 49.2045 18.4936 50.983V52.8286C18.4936 53.2428 18.1578 53.5786 17.7436 53.5786H13.767C11.9885 53.5786 10.5303 55.0368 10.5303 56.8153V59.2247C10.5303 59.6389 10.1945 59.9747 9.78027 59.9747C9.36606 59.9747 9.03027 59.6389 9.03027 59.2247V56.8153C9.03027 54.2084 11.1601 52.0786 13.767 52.0786H16.9936V50.983Z" fill="#26253C"/>
<path d="M36.3832 51.7375C36.8812 51.7375 37.285 51.3338 37.285 50.8358C37.285 50.3377 36.8812 49.934 36.3832 49.934C35.8852 49.934 35.4814 50.3377 35.4814 50.8358C35.4814 51.3338 35.8852 51.7375 36.3832 51.7375Z" fill="#26253C"/>
<path d="M44.0717 56.9345C44.5697 56.9345 44.9735 56.5307 44.9735 56.0327C44.9735 55.5347 44.5697 55.1309 44.0717 55.1309C43.5737 55.1309 43.1699 55.5347 43.1699 56.0327C43.1699 56.5307 43.5737 56.9345 44.0717 56.9345Z" fill="#26253C"/>
<path d="M29.9408 54.6661C30.4389 54.6661 30.8426 54.2623 30.8426 53.7643C30.8426 53.2663 30.4389 52.8625 29.9408 52.8625C29.4428 52.8625 29.0391 53.2663 29.0391 53.7643C29.0391 54.2623 29.4428 54.6661 29.9408 54.6661Z" fill="#26253C"/>
<path d="M14.9018 56.8973C15.3998 56.8973 15.8035 56.4935 15.8035 55.9955C15.8035 55.4975 15.3998 55.0937 14.9018 55.0937C14.4037 55.0937 14 55.4975 14 55.9955C14 56.4935 14.4037 56.8973 14.9018 56.8973Z" fill="#26253C"/>
<path fill-rule="evenodd" clip-rule="evenodd" d="M43.0376 10.3555C43.3417 10.6368 43.3602 11.1113 43.079 11.4154C37.034 17.9515 33.9879 22.6269 32.4231 27.726C30.8493 32.8544 30.75 38.4739 30.75 46.9962C30.75 47.4105 30.4142 47.7462 30 47.7462C29.5858 47.7462 29.25 47.4105 29.25 46.9962C29.25 38.5223 29.3374 32.668 30.9891 27.286C32.6497 21.8747 35.8679 17.0031 41.9777 10.3969C42.259 10.0928 42.7335 10.0743 43.0376 10.3555Z" fill="#26253C"/>
<path fill-rule="evenodd" clip-rule="evenodd" d="M14.5676 25.7696C14.7074 25.3797 15.1368 25.1769 15.5267 25.3167C19.8414 26.8634 23.5344 29.1916 26.2091 32.7081C28.8854 36.2267 30.4938 40.8713 30.7491 46.9648C30.7664 47.3787 30.445 47.7282 30.0311 47.7456C29.6173 47.7629 29.2677 47.4415 29.2504 47.0276C29.005 41.171 27.4679 36.8408 25.0152 33.6162C22.5608 30.3894 19.1411 28.2058 15.0205 26.7287C14.6306 26.5889 14.4279 26.1595 14.5676 25.7696Z" fill="#26253C"/>
<path fill-rule="evenodd" clip-rule="evenodd" d="M26.6216 14.3785C27.0041 14.2196 27.4431 14.4008 27.602 14.7833C30.0184 20.5997 31.3868 26.4427 31.3936 32.3054C31.3941 32.7197 31.0587 33.0558 30.6445 33.0563C30.2303 33.0568 29.8941 32.7214 29.8936 32.3072C29.8871 26.6799 28.5739 21.0327 26.2168 15.3588C26.0579 14.9763 26.2391 14.5374 26.6216 14.3785Z" fill="#26253C"/>
<path fill-rule="evenodd" clip-rule="evenodd" d="M37.4544 10.5335C37.8655 10.4834 38.2394 10.7762 38.2895 11.1874L38.8653 15.9166C38.9153 16.3278 38.6226 16.7017 38.2114 16.7518C37.8002 16.8018 37.4263 16.5091 37.3762 16.0979L36.8005 11.3686C36.7504 10.9575 37.0432 10.5836 37.4544 10.5335Z" fill="#26253C"/>
<path fill-rule="evenodd" clip-rule="evenodd" d="M0.0253906 59.2247C0.0253906 58.8105 0.361177 58.4747 0.775391 58.4747H36.3815C36.7957 58.4747 37.1315 58.8105 37.1315 59.2247C37.1315 59.6389 36.7957 59.9747 36.3815 59.9747H0.775391C0.361177 59.9747 0.0253906 59.6389 0.0253906 59.2247Z" fill="#26253C"/>
<path fill-rule="evenodd" clip-rule="evenodd" d="M40.4658 59.2247C40.4658 58.8105 40.8016 58.4747 41.2158 58.4747H59.225C59.6392 58.4747 59.975 58.8105 59.975 59.2247C59.975 59.6389 59.6392 59.9747 59.225 59.9747H41.2158C40.8016 59.9747 40.4658 59.6389 40.4658 59.2247Z" fill="#26253C"/>
</g>
<defs>
<clipPath id="clip0_1420_7559">
<rect width="60" height="60" fill="white"/>
</clipPath>
</defs>
</svg>
