<svg width="60" height="60" viewBox="0 0 60 60" fill="none" xmlns="http://www.w3.org/2000/svg">
<g clip-path="url(#clip0_1420_7850)">
<path d="M22.5325 17.8563C23.7424 18.8016 25.5059 18.5852 26.4513 17.3751C27.3967 16.165 27.1802 14.4017 25.9702 13.4562L21.4117 9.89472C20.2017 8.94939 18.4382 9.16587 17.4928 10.3759C16.5474 11.586 16.764 13.3494 17.9739 14.2948M22.5325 17.8563L17.9739 14.2948M22.5325 17.8563C23.7424 18.8016 23.959 20.5651 23.0136 21.7752C22.0682 22.9852 20.3047 23.2017 19.0947 22.2564L14.5362 18.6948M17.9739 14.2948C16.764 13.3494 15.0005 13.5659 14.0551 14.776C13.1096 15.986 13.3262 17.7494 14.5362 18.6948M14.5362 18.6948L19.0947 22.2563C20.3047 23.2017 20.5213 24.9652 19.5758 26.1751C18.6304 27.3852 16.867 27.6017 15.6571 26.6563L11.0985 23.0948C9.88857 22.1494 9.672 20.386 10.6174 19.176C11.5629 17.9659 13.3263 17.7494 14.5363 18.6948L14.5362 18.6948ZM12.1138 30.9741L8.34729 28.0313C7.13722 27.0859 6.92075 25.3225 7.86617 24.1124C8.8116 22.9024 10.575 22.6859 11.785 23.6312L15.5515 26.5739C16.7616 27.5194 16.9781 29.2828 16.0328 30.4928" stroke="#84828B" stroke-width="1.5" stroke-miterlimit="22.9256" stroke-linecap="round" stroke-linejoin="round"/>
<path d="M32.543 5.22549L36.9721 5.14986C38.3131 5.127 39.4288 6.20533 39.4518 7.54622C39.4746 8.8872 38.3618 10.0655 37.0209 10.0883" stroke="#84828B" stroke-width="1.5" stroke-miterlimit="22.9256" stroke-linecap="round" stroke-linejoin="round"/>
<path d="M28.6924 4.27954L30.2958 4.30692C31.021 4.3193 31.679 4.61086 32.1689 5.07688L37.3189 10.3097" stroke="#84828B" stroke-width="1.5" stroke-miterlimit="22.9256" stroke-linecap="round" stroke-linejoin="round"/>
<path d="M24.5241 3.45816C22.5747 3.42489 20.9557 4.98952 20.9224 6.93901C20.891 8.77267 22.3104 10.3836 24.1115 10.5905L29.253 10.1201C29.0182 9.95262 28.7591 9.81105 28.478 9.70193C28.2245 9.60357 27.9658 9.5365 27.7064 9.49894L27.6856 9.49622L24.2844 9.10048L24.2831 9.10034C23.2499 8.98191 22.404 8.02767 22.4222 6.96461C22.4413 5.84345 23.3774 4.93881 24.4986 4.95794C24.9127 4.96501 25.2542 4.635 25.2612 4.22085C25.2683 3.8067 24.9383 3.46523 24.5241 3.45816Z" fill="#84828B"/>
<path d="M41.5224 8.99765L40.5626 8.54638L38.558 9.26885L41.5224 8.99765Z" fill="#84828B"/>
<path d="M41.0712 9.95752C41.4608 9.81708 41.6629 9.38733 41.5224 8.99765L38.558 9.26885L32.3112 11.5203C31.8626 11.6807 31.36 11.6869 30.8876 11.5035C30.5239 11.3623 30.222 11.1263 29.9965 10.8324L29.9911 10.8255C29.7827 10.5604 29.5354 10.3215 29.253 10.1201L24.1115 10.5905L27.501 10.9849C27.6464 11.0066 27.7919 11.0447 27.9352 11.1003C28.2897 11.2379 28.5855 11.4656 28.8095 11.7495C29.1932 12.2482 29.7135 12.6567 30.3445 12.9017C31.1691 13.222 32.0442 13.2092 32.817 12.9325L32.8184 12.9319L41.0712 9.95752Z" fill="#84828B"/>
<path d="M17.8213 46.3249L13.7959 55.7924" stroke="#84828B" stroke-width="1.5" stroke-miterlimit="22.9256" stroke-linecap="round" stroke-linejoin="round"/>
<path d="M45.7408 25.2862C47.1837 24.761 48.7939 25.5118 49.3191 26.9548C49.8443 28.3978 48.9589 29.7296 47.6505 30.5332L32.1964 40.0269C31.7443 40.3031 31.2425 40.4344 30.7464 40.434L21.9421 40.4338C20.9827 40.4338 20.1521 40.9852 19.75 41.7885" stroke="#84828B" stroke-width="1.5" stroke-miterlimit="22.9256" stroke-linecap="round" stroke-linejoin="round"/>
<path d="M46.5468 24.993L45.7412 25.2863" stroke="#84828B" stroke-width="1.5" stroke-miterlimit="22.9256" stroke-linecap="round" stroke-linejoin="round"/>
<path d="M44.6367 19.746C46.0796 19.2209 47.6899 19.9717 48.2151 21.4146C48.7403 22.8575 47.9894 24.4678 46.5465 24.993" stroke="#84828B" stroke-width="1.5" stroke-miterlimit="22.9256" stroke-linecap="round" stroke-linejoin="round"/>
<path d="M42.7266 14.499C44.1695 13.9738 45.7797 14.7247 46.3049 16.1676C46.8301 17.6105 46.0792 19.2208 44.6363 19.746" stroke="#84828B" stroke-width="1.5" stroke-miterlimit="22.9256" stroke-linecap="round" stroke-linejoin="round"/>
<path d="M40.8174 9.25205C42.2619 8.73136 43.8705 9.47774 44.3957 10.9206C44.9209 12.3636 44.17 13.9738 42.7271 14.4991" stroke="#84828B" stroke-width="1.5" stroke-miterlimit="22.9256" stroke-linecap="round" stroke-linejoin="round"/>
<path d="M0.775391 38.4727L9.05229 28.7747" stroke="#84828B" stroke-width="1.5" stroke-miterlimit="22.9256" stroke-linecap="round" stroke-linejoin="round"/>
<path d="M45.7585 55.7924L35.873 37.7803" stroke="#84828B" stroke-width="1.5" stroke-miterlimit="22.9256" stroke-linecap="round" stroke-linejoin="round"/>
<path d="M59.2251 42.9643L52.7478 35.8934M49.743 32.6133L47.8037 30.4963" stroke="#84828B" stroke-width="1.5" stroke-miterlimit="22.9256" stroke-linecap="round" stroke-linejoin="round"/>
<path d="M39.2031 15.7815L42.7267 14.499M41.1129 21.0285L44.6364 19.746M43.0226 26.2755L45.7406 25.2862" stroke="#84828B" stroke-width="1.5" stroke-miterlimit="22.9256" stroke-linecap="round" stroke-linejoin="round"/>
</g>
<defs>
<clipPath id="clip0_1420_7850">
<rect width="60" height="60" fill="white"/>
</clipPath>
</defs>
</svg>
