<svg width="60" height="60" viewBox="0 0 60 60" fill="none" xmlns="http://www.w3.org/2000/svg">
<path fill-rule="evenodd" clip-rule="evenodd" d="M31.1604 15.0071L25.7871 10.4788L30.2851 5.90862C30.713 5.50164 31.2877 5.24702 31.921 5.23616L36.9727 5.14986C38.3136 5.12698 39.4294 6.20533 39.4523 7.54623C39.4752 8.88722 38.3623 10.0654 37.0214 10.0883L31.1604 15.0071V15.0071Z" fill="#F5A96C"/>
<path fill-rule="evenodd" clip-rule="evenodd" d="M47.804 30.4963L35.874 37.7803L45.7596 55.7923H57.4899C58.4484 55.7923 59.2254 55.0153 59.2254 54.0569V42.9642L47.804 30.4962V30.4963Z" fill="#AB3C00"/>
<path fill-rule="evenodd" clip-rule="evenodd" d="M37.5938 40.9144L45.7592 55.7924H57.4896C58.448 55.7924 59.225 55.0154 59.225 54.057V45.7389L48.6318 34.175L37.5938 40.9144H37.5938Z" fill="#E5631D"/>
<path fill-rule="evenodd" clip-rule="evenodd" d="M31.1662 15.4943L37.3185 10.3096L32.1685 5.0768C31.6786 4.61084 31.0205 4.31928 30.2954 4.30686L24.5114 4.20802C22.9761 4.18181 21.6985 5.41647 21.6723 6.95181C21.6461 8.48721 22.9203 9.83622 24.4556 9.86243L31.1662 15.4943L31.1662 15.4943Z" fill="#AB3C00"/>
<path fill-rule="evenodd" clip-rule="evenodd" d="M31.8946 14.4934L37.319 9.92203L32.3351 4.85801L27.1003 4.76857C25.5649 4.74236 24.2874 5.97702 24.2611 7.51236C24.2349 9.04775 25.5091 10.3968 27.0445 10.423L31.8946 14.4934H31.8946Z" fill="#E5631D"/>
<path fill-rule="evenodd" clip-rule="evenodd" d="M32.2344 40.0091C31.7445 40.3031 31.2427 40.4344 30.7466 40.434L21.9423 40.4338C20.9829 40.4338 20.1523 40.9853 19.7502 41.7885L13.796 55.7924H2.51082C1.55238 55.7924 0.775391 55.0154 0.775391 54.0569V38.4727L9.05232 28.7748L19.8992 9.31322L27.5993 10.2412C27.8033 10.2707 28.007 10.3236 28.207 10.4012C28.6944 10.5904 29.099 10.9037 29.4019 11.2891C29.7067 11.6863 30.1183 12.0093 30.6165 12.2027C31.2651 12.4546 31.9538 12.4452 32.5645 12.2264L40.8173 9.25198C42.2619 8.7313 43.8705 9.47769 44.3956 10.9206C44.9209 12.3636 44.1699 13.9739 42.7271 14.499C44.17 13.9738 45.7803 14.7247 46.3054 16.1676C46.8306 17.6106 46.0797 19.2208 44.6368 19.7459C46.0798 19.2208 47.69 19.9717 48.2152 21.4145C48.7404 22.8576 47.9894 24.4678 46.5466 24.9929L45.741 25.2862C47.184 24.761 48.7942 25.5118 49.3194 26.9547C49.8446 28.3978 48.9587 29.7287 47.6508 30.5332L32.2344 40.009V40.0091Z" fill="#E77817"/>
<path fill-rule="evenodd" clip-rule="evenodd" d="M27.6937 40.434L21.9423 40.4338L21.9354 40.4339L18.8733 40.4338C17.9139 40.4338 17.0833 40.9853 16.6812 41.7885L10.727 55.7924H2.51082C1.55238 55.7924 0.775391 55.0154 0.775391 54.0569V38.4727L9.05232 28.7748L19.706 9.6598L24.5303 10.2412C24.7343 10.2707 24.938 10.3236 25.138 10.4012C25.6254 10.5904 26.197 9.85589 26.5 10.2412C26.8048 10.6384 27.5018 10.2078 28 10.4012C28.6487 10.6531 28.8892 11.5078 29.5 11.2891L30.1717 11.9827C30.311 12.0678 30.4594 12.1417 30.6165 12.2027C31.2651 12.4545 31.9538 12.4451 32.5645 12.2264L40.1497 9.49258C40.6759 9.81013 41.1011 10.3011 41.3266 10.9206C41.8519 12.3636 41.1009 13.9738 39.6581 14.499C41.101 13.9738 42.7113 14.7247 43.2364 16.1676C43.7616 17.6106 43.0107 19.2208 41.5678 19.7459C43.0107 19.2208 44.621 19.9716 45.1462 21.4145C45.6714 22.8576 44.9204 24.4678 43.4776 24.9929L42.672 25.2862C44.1149 24.761 45.7252 25.5118 46.2503 26.9547C46.7756 28.3977 45.8897 29.7287 44.5818 30.5331L29.1653 40.009C28.6809 40.2998 28.1845 40.4315 27.6937 40.434Z" fill="#FFA85C"/>
<path fill-rule="evenodd" clip-rule="evenodd" d="M10.0459 31.2486L12.1572 28.7749L13.3075 26.711L16.4782 29.1882C17.6883 30.1336 17.9048 31.897 16.9594 33.1071C16.014 34.3171 14.2506 34.5336 13.0405 33.5883L10.0459 31.2486L10.0459 31.2486ZM13.3075 26.7109L16.0588 21.7746L20.0214 24.8705C21.2314 25.8159 21.448 27.5793 20.5026 28.7893C19.5572 29.9994 17.7938 30.2159 16.5838 29.2706L13.3076 26.7109H13.3075ZM16.0588 21.7745L18.8088 16.8404C18.8397 16.8626 18.8705 16.8853 18.9007 16.9089L23.4592 20.4704C24.6692 21.4158 24.8857 23.1792 23.9404 24.3893C22.995 25.5993 21.2315 25.8158 20.0215 24.8705L16.0589 21.7745H16.0588ZM18.8114 16.8359L21.4772 12.0529C21.7812 12.1502 22.0731 12.3016 22.3384 12.5089L26.8969 16.0704C28.1069 17.0158 28.3235 18.7792 27.3781 19.9892C26.4327 21.1993 24.6693 21.4158 23.4593 20.4704L18.9008 16.9089C18.8703 16.8852 18.8406 16.8607 18.8114 16.8359L18.8114 16.8359Z" fill="#F5A96C"/>
<path fill-rule="evenodd" clip-rule="evenodd" d="M21.4116 9.89474L25.9701 13.4562C27.1801 14.4016 27.3967 16.165 26.4513 17.3751C25.5059 18.5851 23.7425 18.8017 22.5325 17.8563L17.974 14.2948C16.764 13.3494 16.5474 11.586 17.4928 10.376C18.4382 9.16591 20.2016 8.94942 21.4116 9.89474ZM11.785 23.6313L15.5515 26.574C16.7616 27.5195 16.9781 29.2829 16.0327 30.4929C15.0873 31.703 13.3239 31.9195 12.1138 30.9741L8.34731 28.0314C7.13726 27.086 6.92073 25.3226 7.86613 24.1125C8.81154 22.9025 10.5749 22.686 11.785 23.6313ZM14.5362 18.6949L19.0947 22.2564C20.3047 23.2018 20.5213 24.9652 19.5759 26.1752C18.6305 27.3853 16.8671 27.6018 15.6571 26.6565L11.0985 23.095C9.88855 22.1496 9.67202 20.3862 10.6174 19.1761C11.5628 17.9661 13.3262 17.7496 14.5362 18.6949ZM17.974 14.2948L22.5325 17.8563C23.7425 18.8017 23.959 20.5651 23.0136 21.7751C22.0682 22.9852 20.3048 23.2017 19.0948 22.2564L14.5363 18.6949C13.3263 17.7495 13.1097 15.9861 14.0551 14.776C15.0005 13.566 16.764 13.3494 17.974 14.2948Z" fill="#AB3C00"/>
<path fill-rule="evenodd" clip-rule="evenodd" d="M21.4116 9.89474L24.5675 12.3604C25.3384 13.3463 25.3741 14.7737 24.5708 15.8017C23.6254 17.0117 21.862 17.2283 20.652 16.2829L17.496 13.8172C16.7252 12.8312 16.6895 11.404 17.4927 10.376C18.4381 9.16591 20.2016 8.94942 21.4116 9.89474ZM21.1298 16.7604L17.9739 14.2948C17.7919 14.1526 17.6326 13.9918 17.4961 13.8173L20.652 16.2829C20.834 16.4252 20.9933 16.5859 21.1298 16.7604ZM10.6207 22.6174L13.6711 25.0006C13.8531 25.1428 14.0123 25.3037 14.1489 25.4782L11.0985 23.095C10.9165 22.9528 10.7572 22.792 10.6207 22.6174ZM14.1489 25.4783C14.9198 26.4642 14.9554 27.8915 14.1523 28.9195C13.2068 30.1296 11.4434 30.3461 10.2334 29.4008L7.86936 27.5538C7.0985 26.5679 7.06285 25.1405 7.86608 24.1125C8.81148 22.9025 10.5749 22.686 11.7849 23.6313L14.1489 25.4783ZM14.0585 18.2175L17.2143 20.683C17.3962 20.8251 17.5555 20.9859 17.692 21.1605L14.5362 18.6949C14.3543 18.5527 14.195 18.3919 14.0585 18.2175ZM17.6921 21.1606C18.463 22.1465 18.4987 23.5738 17.6954 24.6018C16.75 25.8119 14.9866 26.0284 13.7766 25.0831L10.6207 22.6174C9.84979 21.6315 9.81413 20.2042 10.6173 19.1761C11.5627 17.9661 13.3262 17.7496 14.5362 18.6949L17.6921 21.1606ZM21.1299 16.7605C21.9007 17.7464 21.9363 19.1737 21.1332 20.2017C20.1877 21.4118 18.4243 21.6283 17.2143 20.683L14.0584 18.2173C13.2875 17.2314 13.2518 15.8041 14.0551 14.776C15.0005 13.566 16.7639 13.3494 17.9739 14.2948L21.1299 16.7605Z" fill="#E5631D"/>
<path fill-rule="evenodd" clip-rule="evenodd" d="M20.9499 10.4857C20.0663 9.79544 18.7742 9.95407 18.0838 10.8377L17.4944 10.3772L18.0838 10.8377C17.3935 11.7214 17.5521 13.0135 18.4357 13.7038L22.9942 17.2653C23.8778 17.9556 25.1699 17.797 25.8603 16.9133C26.5507 16.0297 26.3921 14.7376 25.5084 14.0472M25.5084 14.0472L20.9499 10.4858C20.9499 10.4858 20.9499 10.4858 20.9499 10.4857M16.9018 9.9142C18.1022 8.37776 20.337 8.10341 21.8734 9.30372L21.8734 9.30373L26.4319 12.8652L26.4319 12.8652C27.9683 14.0656 28.2428 16.3004 27.0424 17.8368C26.3457 18.7285 25.3007 19.1951 24.2461 19.1951C24.5012 20.2184 24.3013 21.3453 23.6047 22.2369L23.6047 22.2369C22.908 23.1286 21.863 23.5952 20.8083 23.5952C21.0635 24.6185 20.8636 25.7454 20.1669 26.637C19.4513 27.5529 18.3681 28.0204 17.2844 27.9942C17.5094 28.9956 17.302 30.0866 16.6238 30.9547C16.3688 31.2811 15.8974 31.339 15.571 31.0839C15.2446 30.8289 15.1867 30.3576 15.4418 30.0312C16.1321 29.1476 15.9735 27.8555 15.0898 27.165L11.3233 24.2223C11.3221 24.2214 11.3209 24.2204 11.3196 24.2195C10.4361 23.5324 9.14662 23.6918 8.45717 24.5743C7.76679 25.4579 7.92544 26.75 8.80909 27.4404L12.5756 30.3831C12.902 30.6382 12.9599 31.1095 12.7049 31.4359C12.4499 31.7623 11.9785 31.8202 11.6521 31.5652L7.88559 28.6224C6.34915 27.422 6.07474 25.1872 7.27516 23.6508C7.86308 22.8983 8.69908 22.4485 9.57965 22.3265C9.07179 21.1699 9.19733 19.7756 10.0264 18.7144L10.0264 18.7144C10.723 17.8228 11.768 17.3562 12.8227 17.3562C12.5676 16.3328 12.7675 15.206 13.4641 14.3143C14.1608 13.4227 15.2057 12.9561 16.2604 12.9561C16.0053 11.9327 16.2052 10.8059 16.9018 9.91422L16.9018 9.9142ZM14.5363 18.695L14.5363 18.6949L14.5363 18.695ZM14.9981 18.1039L19.5565 21.6654C19.5566 21.6654 19.5566 21.6654 19.5566 21.6654C20.4402 22.3557 21.7323 22.1971 22.4227 21.3134C23.113 20.4298 22.9543 19.1377 22.0708 18.4473L17.5122 14.8859C16.6287 14.1955 15.3365 14.3542 14.6461 15.2378C13.9558 16.1214 14.1144 17.4135 14.9981 18.1039M12.2421 23.0367C12.2437 23.0379 12.2452 23.0391 12.2468 23.0403L12.2468 23.0403L16.0133 25.983L16.0133 25.983L16.1189 26.0655C17.0024 26.7558 18.2945 26.5972 18.9849 25.7135L19.5759 26.1753L18.9849 25.7135C19.6753 24.8299 19.5166 23.5378 18.633 22.8474L14.0745 19.286L14.0745 19.2859L14.0745 19.286C13.1909 18.5956 11.8988 18.7543 11.2084 19.6379C10.5181 20.5216 10.6767 21.8136 11.5603 22.504M12.2421 23.0367L11.5603 22.504L12.2421 23.0367Z" fill="#26253C"/>
<path fill-rule="evenodd" clip-rule="evenodd" d="M36.9849 5.89969C36.9849 5.89969 36.9849 5.8997 36.9849 5.8997L32.5558 5.97535C32.1416 5.98242 31.8002 5.65242 31.7931 5.23826C31.786 4.82411 32.116 4.48264 32.5302 4.47556L36.9593 4.39991L36.9593 4.39991C38.7144 4.36997 40.1717 5.7783 40.2017 7.53337C40.2314 9.27826 38.7989 10.808 37.0337 10.8382C36.6195 10.8453 36.278 10.5153 36.271 10.1011C36.2639 9.68696 36.5939 9.34548 37.008 9.3384C37.9246 9.32273 38.7179 8.49605 38.7019 7.55896C38.6861 6.63224 37.9117 5.88389 36.9849 5.89969Z" fill="#26253C"/>
<path fill-rule="evenodd" clip-rule="evenodd" d="M27.9425 4.26669C27.9496 3.85253 28.291 3.52252 28.7052 3.52959L30.3086 3.55695C31.2306 3.57274 32.0663 3.94407 32.6858 4.53336C32.6918 4.53904 32.6977 4.54481 32.7034 4.55069L37.8535 9.78348C38.1441 10.0787 38.1403 10.5536 37.8451 10.8441C37.5499 11.1347 37.075 11.1309 36.7845 10.8357L31.6437 5.61235C31.2844 5.27435 30.8073 5.06572 30.283 5.05673C30.283 5.05673 30.2831 5.05673 30.283 5.05673L28.6796 5.02937C28.2654 5.02231 27.9354 4.68084 27.9425 4.26669Z" fill="#26253C"/>
<path d="M24.2844 9.10055L24.2832 9.1004C23.5997 9.02206 22.9982 8.57806 22.6746 7.97876L20.9224 6.93903L24.1116 10.5906L27.501 10.9849C27.6461 11.0066 27.7917 11.0447 27.9352 11.1004L24.6335 9.14116L24.2844 9.10055Z" fill="#26253C"/>
<path d="M20.9224 6.93903C20.8911 8.77273 22.3104 10.3837 24.1116 10.5906L20.9224 6.93903Z" fill="#26253C"/>
<path d="M27.7062 9.49896L27.6855 9.49627L24.6335 9.14116L27.9352 11.1004C28.2897 11.2381 28.5855 11.4658 28.8095 11.7496C29.1932 12.2483 29.7135 12.6568 30.3446 12.9018C31.1692 13.222 32.0442 13.2093 32.817 12.9325L41.0712 9.95755C42.1298 9.57598 43.3077 10.1255 43.6904 11.1771C44.074 12.2308 43.5237 13.4107 42.4701 13.7942C42.0809 13.9359 41.8802 14.3662 42.0219 14.7555C42.1635 15.1447 42.5939 15.3454 42.9831 15.2037C44.8152 14.537 45.7669 12.4963 45.1 10.6641C44.4324 8.82995 42.3931 7.88663 40.5625 8.54642L32.3106 11.5206C31.862 11.6811 31.36 11.687 30.8875 11.5035C30.5239 11.3624 30.2221 11.1264 29.9965 10.8325L29.9911 10.8255C29.6094 10.3401 29.0969 9.94237 28.4779 9.70201C28.2247 9.60373 27.9659 9.53651 27.7062 9.49896Z" fill="#26253C"/>
<path d="M24.5242 3.45816C22.5747 3.42489 20.9557 4.98955 20.9224 6.93903L22.6746 7.97876C22.5089 7.67201 22.416 7.32458 22.4222 6.96467C22.4413 5.84345 23.3774 4.93881 24.4986 4.95794C24.9128 4.96501 25.2542 4.63501 25.2613 4.22085C25.2684 3.8067 24.9384 3.46523 24.5242 3.45816Z" fill="#26253C"/>
<path fill-rule="evenodd" clip-rule="evenodd" d="M18.115 45.6347C18.4962 45.7967 18.6738 46.2371 18.5117 46.6183L14.4863 56.0858C14.3242 56.467 13.8838 56.6446 13.5026 56.4825C13.1214 56.3205 12.9438 55.8801 13.1059 55.4989L17.1313 46.0314C17.2934 45.6502 17.7338 45.4726 18.115 45.6347Z" fill="#26253C"/>
<path fill-rule="evenodd" clip-rule="evenodd" d="M48.6145 27.2113C48.231 26.1577 47.0512 25.6075 45.9975 25.991C45.6083 26.1327 45.1779 25.932 45.0362 25.5428C44.8945 25.1535 45.0952 24.7232 45.4844 24.5815C47.3166 23.9146 49.3572 24.8662 50.0241 26.6983C50.729 28.635 49.4831 30.2878 48.0433 31.1723L32.5876 40.6669C32.0134 41.0177 31.3754 41.1845 30.746 41.184L21.9423 41.1838C21.2776 41.1838 20.7007 41.5651 20.4208 42.1242C20.2354 42.4946 19.7849 42.6446 19.4145 42.4592C19.0441 42.2738 18.8941 41.8232 19.0795 41.4528C19.6037 40.4055 20.6881 39.6838 21.9423 39.6838L30.7466 39.684C31.1092 39.6843 31.4749 39.5887 31.8048 39.3874L47.2582 29.8942C48.435 29.1713 48.9601 28.1607 48.6145 27.2113Z" fill="#26253C"/>
<path fill-rule="evenodd" clip-rule="evenodd" d="M47.2518 24.7365C47.3934 25.1257 47.1928 25.5561 46.8035 25.6978L45.998 25.991C45.6087 26.1327 45.1783 25.932 45.0367 25.5428C44.895 25.1536 45.0956 24.7232 45.4849 24.5815L46.2905 24.2883C46.6797 24.1466 47.1101 24.3473 47.2518 24.7365Z" fill="#26253C"/>
<path fill-rule="evenodd" clip-rule="evenodd" d="M47.5105 21.6711C47.127 20.6175 45.9472 20.0673 44.8934 20.4508C44.5042 20.5924 44.0738 20.3917 43.9321 20.0025C43.7905 19.6133 43.9912 19.1829 44.3804 19.0412C46.2126 18.3744 48.2532 19.3259 48.9201 21.1581L48.2355 21.4072L48.9201 21.1581C49.5869 22.9903 48.6353 25.031 46.8032 25.6978C46.414 25.8394 45.9836 25.6387 45.8419 25.2495C45.7003 24.8602 45.901 24.4299 46.2902 24.2882C47.3438 23.9048 47.8941 22.7249 47.5105 21.6711Z" fill="#26253C"/>
<path fill-rule="evenodd" clip-rule="evenodd" d="M45.6003 16.4241C45.2168 15.3705 44.0369 14.8203 42.9833 15.2038C42.5941 15.3455 42.1637 15.1448 42.022 14.7555C41.8803 14.3663 42.081 13.9359 42.4702 13.7943C44.3024 13.1274 46.3431 14.079 47.0099 15.9111C47.6767 17.7434 46.7251 19.784 44.893 20.4508C44.5038 20.5924 44.0734 20.3917 43.9317 20.0025C43.7901 19.6133 43.9908 19.1829 44.38 19.0412C45.4336 18.6578 45.9839 17.4779 45.6003 16.4241Z" fill="#26253C"/>
<path fill-rule="evenodd" clip-rule="evenodd" d="M9.53922 28.2043C9.85428 28.4732 9.8917 28.9466 9.6228 29.2617L1.34588 38.9595C1.07698 39.2746 0.603582 39.312 0.288517 39.0431C-0.0265466 38.7742 -0.0639696 38.3008 0.204931 37.9858L8.48186 28.2879C8.75076 27.9728 9.22415 27.9354 9.53922 28.2043Z" fill="#26253C"/>
<path fill-rule="evenodd" clip-rule="evenodd" d="M35.5133 37.1229C35.8764 36.9236 36.3324 37.0564 36.5316 37.4195L46.4172 55.4315C46.6165 55.7946 46.4837 56.2505 46.1206 56.4498C45.7575 56.6491 45.3015 56.5163 45.1023 56.1532L35.2167 38.1412C35.0174 37.7781 35.1502 37.3222 35.5133 37.1229Z" fill="#26253C"/>
<path fill-rule="evenodd" clip-rule="evenodd" d="M47.2971 29.9432C47.6025 29.6634 48.077 29.6842 48.3567 29.9896L50.2961 32.1066C50.5759 32.4121 50.5551 32.8865 50.2496 33.1663C49.9442 33.4461 49.4698 33.4253 49.19 33.1199L47.2507 31.0029C46.9709 30.6974 46.9917 30.223 47.2971 29.9432ZM52.2412 35.3403C52.5466 35.0605 53.021 35.0813 53.3008 35.3867L59.7782 42.4576C60.058 42.7631 60.0372 43.2375 59.7317 43.5173C59.4263 43.7971 58.9519 43.7763 58.6721 43.4709L52.1948 36.3999C51.915 36.0945 51.9357 35.6201 52.2412 35.3403Z" fill="#26253C"/>
<path fill-rule="evenodd" clip-rule="evenodd" d="M43.4317 14.2425C43.5733 14.6317 43.3727 15.0621 42.9834 15.2038L39.4598 16.4863C39.0706 16.6279 38.6402 16.4272 38.4986 16.038C38.3569 15.6488 38.5576 15.2184 38.9468 15.0767L42.4704 13.7942C42.8596 13.6525 43.29 13.8532 43.4317 14.2425ZM45.3414 19.4894C45.483 19.8787 45.2823 20.3091 44.8931 20.4507L41.3695 21.7332C40.9803 21.8749 40.5499 21.6742 40.4083 21.285C40.2666 20.8958 40.4673 20.4654 40.8565 20.3237L44.3801 19.0412C44.7693 18.8995 45.1997 19.1002 45.3414 19.4894ZM46.4455 25.0297C46.5872 25.4189 46.3865 25.8493 45.9973 25.991L43.2793 26.9802C42.89 27.1219 42.4597 26.9212 42.318 26.532C42.1763 26.1427 42.377 25.7123 42.7662 25.5707L45.4842 24.5814C45.8735 24.4398 46.3038 24.6404 46.4455 25.0297Z" fill="#26253C"/>
</svg>
